<svg width="31" height="21" viewBox="0 0 31 21" fill="none" xmlns="http://www.w3.org/2000/svg">
  <path class="line line--top" d="M0.0136719 2.22861C0.0136719 1.35658 0.720591 0.649658 1.59262 0.649658H28.4347C29.3068 0.649658 30.0137 1.35658 30.0137 2.22861C30.0137 3.10063 29.3068 3.80755 28.4347 3.80755H1.59262C0.72059 3.80755 0.0136719 3.10063 0.0136719 2.22861Z"/>
  <path class="line line--middle" d="M0.0136719 10.6496C0.0136719 9.7776 0.720591 9.07068 1.59262 9.07068H28.4347C29.3068 9.07068 30.0137 9.7776 30.0137 10.6496C30.0137 11.5217 29.3068 12.2286 28.4347 12.2286H1.59262C0.72059 12.2286 0.0136719 11.5217 0.0136719 10.6496Z"/>
  <path class="line line--bottom" d="M0.0136719 19.0708C0.0136719 18.1987 0.720591 17.4918 1.59262 17.4918H28.4347C29.3068 17.4918 30.0137 18.1987 30.0137 19.0708C30.0137 19.9428 29.3068 20.6497 28.4347 20.6497H1.59262C0.72059 20.6497 0.0136719 19.9428 0.0136719 19.0708Z"/>
</svg>
