<svg width="512" height="512" viewBox="0 0 512 512" fill="none" xmlns="http://www.w3.org/2000/svg">
<path fill-rule="evenodd" clip-rule="evenodd" d="M99.9999 117.429C94.477 117.429 89.9999 121.906 89.9999 127.429V268.744C89.9999 274.267 94.477 278.744 99.9999 278.744H400C405.523 278.744 410 274.267 410 268.744V127.429C410 121.906 405.523 117.429 400 117.429H99.9999ZM132.821 150.553V212.163C132.821 220.671 134.679 227.956 138.395 234.02C142.111 239.985 147.343 244.533 154.091 247.662C160.839 250.791 168.662 252.356 177.562 252.356C186.461 252.356 194.284 250.791 201.032 247.662C207.78 244.533 213.012 239.985 216.728 234.02C220.444 227.956 222.302 220.671 222.302 212.163V150.553H195.605V210.843C195.605 216.906 193.942 221.649 190.617 225.072C187.292 228.397 182.94 230.059 177.562 230.059C172.183 230.059 167.831 228.397 164.506 225.072C161.181 221.649 159.519 216.906 159.519 210.843V150.553H132.821ZM282.006 250.302C294.23 250.302 304.303 248.004 312.224 243.408C320.243 238.714 324.252 231.086 324.252 220.524C324.252 215.928 323.03 211.625 320.585 207.615C318.238 203.606 315.011 200.183 310.904 197.347C313.74 194.511 315.989 191.675 317.651 188.839C319.314 186.003 320.145 182.825 320.145 179.304C320.145 169.72 316.233 162.532 308.41 157.74C300.684 152.949 290.905 150.553 279.072 150.553H244.306V250.302H282.006ZM278.192 171.529C282.69 171.529 286.211 172.312 288.753 173.876C291.296 175.441 292.567 177.69 292.567 180.624C292.567 183.167 291.051 185.123 288.02 186.492C285.086 187.763 281.419 188.399 277.018 188.399H271.004V171.529H278.192ZM282.299 209.376C286.797 209.376 290.318 210.305 292.861 212.163C295.403 214.021 296.675 216.612 296.675 219.937C296.675 222.969 295.403 225.316 292.861 226.979C290.318 228.543 286.895 229.326 282.592 229.326H271.004V209.376H282.299ZM365.551 150.553V250.302H338.853V150.553H365.551Z" fill="url(#paint0_radial)"/>
<path d="M162.858 341.53C162.858 346.228 162.167 350.615 160.786 354.692C159.473 358.768 157.538 362.43 154.982 365.678L161.2 372.518L149.592 382.571L142.649 375.316C137.812 377.527 132.388 378.632 126.377 378.632C119.053 378.632 112.628 377.043 107.1 373.865C101.642 370.618 97.4274 366.23 94.4564 360.703C91.4854 355.175 89.9999 349.026 89.9999 342.255C89.9999 335.139 91.5545 328.782 94.6636 323.185C97.7728 317.52 102.091 313.132 107.619 310.023C113.146 306.845 119.399 305.256 126.377 305.256C133.839 305.256 140.299 306.845 145.758 310.023C151.285 313.202 155.5 317.554 158.402 323.082C161.373 328.609 162.858 334.759 162.858 341.53ZM126.274 362.879C127.863 362.879 129.21 362.741 130.316 362.465L121.714 353.448L134.15 342.877L141.923 351.375C142.96 348.681 143.478 345.399 143.478 341.53C143.478 335.519 141.923 330.613 138.814 326.813C135.774 322.944 131.697 321.009 126.585 321.009C123.406 321.009 120.504 321.907 117.879 323.704C115.322 325.431 113.25 327.918 111.66 331.166C110.14 334.344 109.38 338.006 109.38 342.151C109.38 348.232 110.866 353.206 113.837 357.076C116.877 360.945 121.023 362.879 126.274 362.879Z" fill="url(#paint1_radial)"/>
<path d="M173.191 306.707V350.235C173.191 356.246 174.503 361.394 177.129 365.678C179.754 369.892 183.451 373.105 188.218 375.316C192.986 377.527 198.513 378.632 204.801 378.632C211.088 378.632 216.616 377.527 221.383 375.316C226.15 373.105 229.847 369.892 232.472 365.678C235.098 361.394 236.411 356.246 236.411 350.235V306.707H217.548V349.303C217.548 353.586 216.374 356.937 214.025 359.356C211.675 361.705 208.601 362.879 204.801 362.879C201.001 362.879 197.926 361.705 195.577 359.356C193.228 356.937 192.053 353.586 192.053 349.303V306.707H173.191Z" fill="url(#paint2_radial)"/>
<path d="M270.819 377.182V306.707H251.957V377.182H270.819Z" fill="url(#paint3_radial)"/>
<path d="M340.443 306.707H280.125V321.527H300.853V377.182H319.716V321.527H342.205L340.443 306.707Z" fill="url(#paint4_radial)"/>
<path d="M385.541 377.182V349.613L410 306.707H390.619L376.006 332.098L362.326 305.256L344.293 310.231L366.679 349.406V377.182H385.541Z" fill="url(#paint5_radial)"/>
<defs>
<radialGradient id="paint0_radial" cx="0" cy="0" r="1" gradientUnits="userSpaceOnUse" gradientTransform="translate(188.445 117.429) rotate(88.0883) scale(315.696 630.797)">
<stop stop-color="#0A1AA8"/>
<stop offset="1" stop-color="#000C76"/>
</radialGradient>
<radialGradient id="paint1_radial" cx="0" cy="0" r="1" gradientUnits="userSpaceOnUse" gradientTransform="translate(188.445 305.256) rotate(86.0162) scale(151.588 629.623)">
<stop stop-color="#0A1AA8"/>
<stop offset="1" stop-color="#000C76"/>
</radialGradient>
<radialGradient id="paint2_radial" cx="0" cy="0" r="1" gradientUnits="userSpaceOnUse" gradientTransform="translate(188.445 305.256) rotate(86.0162) scale(151.588 629.623)">
<stop stop-color="#0A1AA8"/>
<stop offset="1" stop-color="#000C76"/>
</radialGradient>
<radialGradient id="paint3_radial" cx="0" cy="0" r="1" gradientUnits="userSpaceOnUse" gradientTransform="translate(188.445 305.256) rotate(86.0162) scale(151.588 629.623)">
<stop stop-color="#0A1AA8"/>
<stop offset="1" stop-color="#000C76"/>
</radialGradient>
<radialGradient id="paint4_radial" cx="0" cy="0" r="1" gradientUnits="userSpaceOnUse" gradientTransform="translate(188.445 305.256) rotate(86.0162) scale(151.588 629.623)">
<stop stop-color="#0A1AA8"/>
<stop offset="1" stop-color="#000C76"/>
</radialGradient>
<radialGradient id="paint5_radial" cx="0" cy="0" r="1" gradientUnits="userSpaceOnUse" gradientTransform="translate(188.445 305.256) rotate(86.0162) scale(151.588 629.623)">
<stop stop-color="#0A1AA8"/>
<stop offset="1" stop-color="#000C76"/>
</radialGradient>
</defs>
</svg>
