<svg width="509" height="100" viewBox="0 0 509 100" fill="none" xmlns="http://www.w3.org/2000/svg">
<path fill-rule="evenodd" clip-rule="evenodd" d="M10 0.879272C4.47715 0.879272 0 5.35642 0 10.8793V89.6827C0 95.2056 4.47717 99.6827 10 99.6827H178.942C184.464 99.6827 188.942 95.2056 188.942 89.6827V10.8793C188.942 5.35643 184.464 0.879272 178.942 0.879272H10ZM16.602 16.2187V57.4468C16.602 63.1403 17.8454 68.0157 20.3322 72.073C22.819 76.065 26.3201 79.108 30.8356 81.2021C35.351 83.2963 40.5864 84.3433 46.5415 84.3433C52.4967 84.3433 57.732 83.2963 62.2475 81.2021C66.763 79.108 70.2641 76.065 72.7509 72.073C75.2376 68.0157 76.481 63.1403 76.481 57.4468V16.2187H58.6155V56.5634C58.6155 60.6208 57.503 63.7947 55.278 66.0851C53.053 68.3101 50.1408 69.4227 46.5415 69.4227C42.9423 69.4227 40.0301 68.3101 37.8051 66.0851C35.5801 63.7947 34.4676 60.6208 34.4676 56.5634V16.2187H16.602ZM116.433 82.969C124.613 82.969 131.354 81.4312 136.655 78.3554C142.021 75.2142 144.704 70.1098 144.704 63.0421C144.704 59.9664 143.886 57.0869 142.25 54.4038C140.679 51.7207 138.52 49.4303 135.771 47.5325C137.669 45.6347 139.174 43.7369 140.287 41.839C141.399 39.9412 141.955 37.8144 141.955 35.4585C141.955 29.0452 139.338 24.2353 134.102 21.0286C128.932 17.822 122.388 16.2187 114.47 16.2187H91.2054V82.969H116.433ZM113.881 30.2559C116.891 30.2559 119.247 30.7794 120.949 31.8265C122.65 32.8736 123.501 34.3787 123.501 36.342C123.501 38.0434 122.486 39.3523 120.458 40.2684C118.494 41.1192 116.04 41.5446 113.096 41.5446H109.071V30.2559H113.881ZM116.629 55.5818C119.64 55.5818 121.996 56.2035 123.697 57.4468C125.399 58.6902 126.249 60.4244 126.249 62.6495C126.249 64.6781 125.399 66.2487 123.697 67.3612C121.996 68.4083 119.705 68.9318 116.826 68.9318H109.071V55.5818H116.629ZM172.34 16.2187V82.969H154.474V16.2187H172.34Z" fill="#1F44DE"/>
<path d="M273.205 49.4839C273.205 53.9504 272.548 58.1213 271.235 61.9966C269.987 65.872 268.147 69.3532 265.717 72.4403L271.629 78.943L260.594 88.5L253.993 81.6032C249.395 83.7051 244.239 84.756 238.524 84.756C231.562 84.756 225.453 83.2453 220.198 80.2239C215.009 77.1367 211.003 72.9658 208.178 67.7111C205.354 62.4564 203.942 56.6106 203.942 50.1736C203.942 43.4082 205.42 37.3653 208.375 32.0449C211.331 26.6588 215.436 22.4879 220.691 19.5322C225.946 16.5107 231.89 15 238.524 15C245.618 15 251.759 16.5107 256.948 19.5322C262.203 22.5536 266.21 26.6917 268.968 31.9464C271.793 37.2011 273.205 43.0469 273.205 49.4839ZM238.426 69.7802C239.936 69.7802 241.217 69.6488 242.268 69.3861L234.09 60.8143L245.914 50.7647L253.303 58.8438C254.288 56.2822 254.781 53.1622 254.781 49.4839C254.781 43.7694 253.303 39.1059 250.347 35.4933C247.457 31.815 243.582 29.9759 238.721 29.9759C235.7 29.9759 232.941 30.8298 230.445 32.5375C228.015 34.1796 226.044 36.5442 224.533 39.6314C223.088 42.6528 222.366 46.134 222.366 50.0751C222.366 55.8552 223.778 60.5845 226.603 64.2627C229.493 67.941 233.434 69.7802 238.426 69.7802Z" fill="#1F44DE"/>
<path d="M283.028 16.3794V57.7601C283.028 63.4745 284.276 68.368 286.772 72.4403C289.268 76.4471 292.782 79.5013 297.314 81.6032C301.846 83.7051 307.101 84.756 313.078 84.756C319.055 84.756 324.31 83.7051 328.842 81.6032C333.374 79.5013 336.888 76.4471 339.384 72.4403C341.88 68.368 343.128 63.4745 343.128 57.7601V16.3794H325.197V56.8733C325.197 60.9457 324.08 64.1314 321.847 66.4303C319.613 68.6635 316.69 69.7802 313.078 69.7802C309.465 69.7802 306.542 68.6635 304.309 66.4303C302.076 64.1314 300.959 60.9457 300.959 56.8733V16.3794H283.028Z" fill="#1F44DE"/>
<path d="M375.839 83.3767V16.3794H357.907V83.3767H375.839Z" fill="#1F44DE"/>
<path d="M442.028 16.3794H384.686V30.4685H404.391V83.3767H422.323V30.4685H443.703L442.028 16.3794Z" fill="#1F44DE"/>
<path d="M484.9 83.3767V57.1689L508.152 16.3794H489.728L475.836 40.5181L462.83 15L445.687 19.7292L466.969 56.9718V83.3767H484.9Z" fill="#1F44DE"/>
</svg>
