<svg width="164" height="132" viewBox="0 0 164 132" fill="none" xmlns="http://www.w3.org/2000/svg">
<path d="M110.389 48.2781C110.82 48.1377 110.668 49.3562 111.128 48.8941C111.383 48.6256 111.496 48.6523 111.732 48.8466C111.957 48.1902 112.279 49.1229 112.476 48.8235C112.649 48.5615 112.758 48.1981 112.898 47.8677C112.923 47.8303 113.06 47.8195 113.09 47.8526C113.126 47.9562 113.11 48.0994 113.17 48.1657C113.23 48.2319 113.343 48.2585 113.428 48.2873C113.414 47.4013 113.949 47.5366 114.194 47.8367C114.562 48.3045 114.839 47.9633 115.171 47.9727C116.664 47.997 117.844 46.8397 119.23 46.5532C119.392 46.505 119.515 46.3178 119.641 46.166C120.236 44.9482 120.236 44.9482 121.013 45.3483C121.041 45.3462 120.986 45.3505 120.958 45.3527C120.977 45.2447 120.972 45.1742 121.018 45.0641C121.016 45.0288 121.131 45.0907 121.189 45.1216C121.139 45.1965 121.117 45.2692 121.013 45.3483C120.884 45.4649 120.84 45.6103 120.766 45.7226C120.668 45.8723 120.566 45.9867 120.465 46.1011C120.764 46.0421 120.984 46.7344 121.382 46.1709C121.804 45.5699 122.638 45.6462 123.047 44.8689C123.118 44.7214 123.456 44.8012 123.758 44.7774C123.785 44.7753 123.73 44.7796 123.703 44.7818C123.722 44.6738 123.716 44.6033 123.763 44.4932C123.76 44.4579 123.876 44.5198 123.933 44.5507C123.884 44.6256 123.862 44.6983 123.758 44.7774C123.766 45.238 123.983 45.1855 124.164 45.0293C124.293 44.9127 124.326 44.6263 124.337 44.4125C124.35 44.2341 124.251 44.029 124.18 43.8217C124.355 43.9498 124.507 44.1153 124.701 44.1354C125.149 44.2067 125.627 44.311 126.06 44.2059C126.305 44.1512 126.488 43.6754 126.752 43.5128C126.938 43.4271 127.32 43.7164 127.394 43.6041C127.863 42.8931 128.472 42.5613 129.21 42.4677C129.238 42.4655 129.251 42.287 129.27 42.1791C128.938 42.1697 128.916 41.8876 129.004 41.5969C129.25 40.8678 129.821 41.1067 130.285 41.0347C130.296 40.821 130.241 40.4705 130.348 40.4266C130.531 40.3057 130.754 40.3236 130.976 40.3416C131.031 40.3373 131.141 40.6835 131.092 40.7583C130.799 41.2427 130.865 41.3794 131.356 41.3052C131.71 41.2419 131.883 40.9799 131.932 40.5503C131.841 40.451 131.72 40.3185 131.624 40.1487C131.621 40.1134 131.627 40.184 131.629 40.2192C131.544 40.1904 131.489 40.1948 131.402 40.1307C131.374 40.1329 131.418 39.9875 131.44 39.9148C131.5 39.981 131.558 40.012 131.624 40.1487C131.712 40.2127 131.822 40.2041 132.044 40.2221C132.066 40.1494 131.978 40.0853 131.89 40.0213C131.939 39.9465 132.013 39.8342 132.068 39.8299C132.178 39.8212 132.293 39.8831 132.409 39.945C132.332 40.022 132.258 40.1343 132.017 40.2242C131.885 40.3056 131.896 40.4466 131.904 40.5524C132.78 40.8028 133.306 39.7679 134.072 39.6721C134.741 38.6969 135.911 38.8177 136.588 37.9483C137.065 37.3431 137.76 37.3948 138.234 36.7543C138.607 36.2282 139.224 36.0022 139.718 35.6085C139.77 35.5689 139.759 35.4278 139.806 35.3177C139.383 35.2091 139.385 34.8895 139.643 34.6563C139.772 34.5397 140.082 34.6218 140.258 34.7499C140.491 34.9089 140.665 35.0017 140.837 34.7397C141.035 34.4403 141.229 34.1057 141.454 33.8041C141.828 34.3424 141.923 33.8026 142.126 33.5738C142.357 33.3427 142.62 33.1801 142.851 32.9491C143.081 32.718 143.267 32.2776 143.512 32.2229C143.975 32.1509 144.044 31.6133 144.332 31.4132C145.125 30.9604 145.777 30.1285 146.631 29.7419C147.083 29.5289 147.423 28.9344 147.802 28.4788C148.128 28.0628 148.397 27.6159 148.665 27.169C148.909 26.7595 149.37 26.6522 149.457 26.0066C149.471 25.8282 149.798 25.767 149.981 25.646C150.138 25.5273 150.286 25.3027 150.398 25.3294C150.819 25.4027 150.211 24.3506 150.845 24.691C150.933 24.755 151.314 24.3347 151.303 24.1937C151.253 23.5589 151.833 23.9036 151.937 23.4696C151.994 23.1458 152.255 22.9478 152.455 22.6837C152.603 22.4592 152.724 22.2368 152.902 22.0453C152.976 21.933 153.143 21.9553 153.25 21.9114C153.261 22.0525 153.27 22.1583 153.253 22.3015C153.234 22.4095 153.16 22.5217 153.166 22.5923C153.491 24.2698 153.04 25.902 153.283 27.5861C153.482 29.0607 153.897 30.4827 153.934 32.0056C153.938 32.3956 154.218 32.7993 154.413 33.1743C154.672 33.6507 154.952 34.0544 155.21 34.5308C155.274 34.6323 155.337 34.7337 155.4 34.8352C155.414 34.6567 155.43 34.5135 155.471 34.3329C155.485 34.1544 155.501 34.0112 155.515 33.8327C155.633 33.9299 155.745 33.9565 155.811 34.0932C156.001 34.3976 156.245 34.6977 156.328 35.046C156.507 35.919 156.853 35.7498 157.27 35.4331C157.298 35.431 157.424 35.6339 157.517 35.7685C157.792 36.1017 158.042 36.4723 158.317 36.8055C158.408 36.9048 158.523 36.9667 158.611 37.0307C158.625 36.8523 158.641 36.709 158.655 36.5306C158.671 36.3873 158.712 36.2067 158.728 36.0635C158.797 36.2355 158.866 36.4075 158.935 36.5795C159.001 36.7162 159.042 36.8904 159.08 37.0293C159.124 36.8839 159.196 36.7363 159.184 36.5953C159.192 35.2819 159.199 33.9685 159.151 32.6594C159.103 31.3503 158.836 30.0585 158.9 28.776C158.924 27.6742 158.78 26.5501 159.139 25.4929C159.183 25.3475 159.111 25.1402 159.125 24.9618C159.099 23.58 158.963 22.2068 159.108 20.8826C159.225 19.9154 159.15 18.9633 159.13 18.0068C159.137 17.0482 159.172 16.0874 159.237 15.1598C159.28 14.3048 159.156 13.4275 159.287 12.6366C159.418 11.8457 159.384 11.0677 159.351 10.2897C159.337 10.1134 159.353 9.97019 159.367 9.79171C159.528 8.67908 159.503 8.7165 158.693 8.24805C158.144 7.93647 157.644 7.90483 157.208 8.32947C156.72 8.79369 156.201 8.87001 155.6 8.95281C155.081 9.02913 154.604 9.27961 154.088 9.3912C153.627 9.49846 153.116 9.32577 152.713 9.81877C152.562 10.0081 152.194 9.89509 151.919 9.9167C150.602 10.0204 149.24 9.91472 147.942 10.2653C145.263 10.9729 142.554 10.9378 139.839 11.187C138.961 11.2561 138.066 11.1137 137.179 11.0771C136.957 11.0591 136.71 11.0785 136.493 11.1311C135.864 11.2161 136.554 11.5521 136.455 11.7018C136.332 11.8889 136.118 11.9767 135.994 12.1639C135.871 12.351 135.814 12.6748 135.69 12.862C135.367 13.3132 135.663 13.2189 135.891 13.3074C136.061 13.365 136.188 13.5679 136.336 13.6982C136.287 13.773 136.213 13.8853 136.163 13.9602C136.114 14.035 136.004 14.0436 135.925 14.0854C136.117 14.4251 136.518 14.9612 136.447 15.1087C136.236 15.5866 136.179 15.9105 136.618 16.2307C136.912 16.4559 137.217 16.8222 137.527 16.9043C138.541 17.1438 139.549 17.6677 140.614 17.5129C141.514 17.3711 142.357 17.9079 143.279 17.6934C144.119 17.4853 145.008 17.5572 145.884 17.4528C146.568 17.3635 147.265 17.0958 147.945 16.9712C148.028 16.9647 148.148 17.0971 148.236 17.1612C148.157 17.2029 148.077 17.2447 148.028 17.3195C147.372 18.1163 146.629 18.8489 146.065 19.745C145.056 21.3146 143.7 22.3439 142.595 23.7437C141.817 24.7276 140.956 25.7179 140.017 26.4304C139.052 27.1451 138.243 28.0959 137.371 28.9451C136.959 29.3324 136.542 29.649 136.098 29.9679C135.837 30.1658 135.456 30.2313 135.338 30.489C134.894 31.5174 133.994 31.6593 133.346 32.207C132.724 32.7173 132.137 33.3312 131.355 33.5702C130.762 33.7588 130.455 34.7764 129.706 34.729C128.027 36.2094 125.993 36.6889 124.207 37.8585C123.027 37.9514 122.188 39.2238 120.98 39.3189C120.898 39.3254 120.805 39.5456 120.786 39.6536C120.767 40.1163 120.572 40.0962 120.341 39.9724C120.196 39.8774 120.127 39.7054 119.924 39.9343C119.672 40.238 119.32 40.3366 118.909 40.369C118.497 40.4015 118.14 40.7843 117.737 40.9225C117.306 41.0629 116.834 41.0291 116.398 41.099C116.233 41.1119 116.019 41.1997 115.948 41.3473C115.78 41.6798 115.646 42.0806 115.512 42.4815C115.597 42.5103 115.682 42.5391 115.767 42.5679C115.853 42.5966 115.941 42.6607 115.998 42.6916C115.949 42.7665 115.933 42.9097 115.878 42.914C115.444 43.0191 115.076 42.9061 114.889 42.2822C114.285 42.3297 113.708 42.3751 113.105 42.4227C112.858 42.4421 112.668 42.4925 112.702 42.9157C112.707 42.9862 112.639 43.169 112.584 43.1733C112.257 43.2345 111.952 43.223 111.626 43.2842C111.381 43.3389 111.198 43.8146 110.885 43.3425C110.854 43.3094 110.616 43.4347 110.569 43.5448C110.523 43.6549 110.597 43.8974 110.66 43.9989C110.784 44.1666 110.929 44.2616 111.105 44.3897C111.193 44.4537 111.336 44.5134 111.424 44.5775C111.317 44.6214 111.185 44.7027 111.078 44.7466C110.894 44.8675 110.719 45.0942 110.527 45.1094C110.063 45.1814 109.967 45.3663 110.283 45.8737C110.343 45.9399 110.33 46.1184 110.283 46.2285C110.264 46.3364 110.165 46.4861 110.111 46.4905C110.028 46.4969 109.907 46.3645 109.899 46.2587C109.879 45.6571 109.838 45.1281 109.25 45.0324C109.223 45.0346 109.233 44.8209 109.222 44.6798C109.332 44.6712 109.417 44.6999 109.524 44.656C109.607 44.6496 109.686 44.6078 109.766 44.5661C109.7 44.4293 109.677 44.1472 109.592 44.1184C109.167 43.9745 108.744 43.8659 108.329 43.863C108.189 43.8386 107.871 43.6508 107.852 44.1135C108.376 44.1077 107.51 45.0275 108.19 44.903C108.218 44.9008 108.287 45.0728 108.322 45.1764C108.051 45.2333 107.782 45.3255 107.903 45.8127C107.793 45.8213 107.683 45.83 107.623 45.7637C107.381 45.4989 107.136 45.1988 106.788 45.3327C106.686 45.4471 106.558 45.5637 106.486 45.7113C106.412 45.8236 106.368 45.9689 106.446 46.2467C106.512 46.3835 106.421 46.2842 106.306 46.2223C106.355 46.1474 106.401 46.0373 106.432 46.0704C106.572 46.0949 106.717 46.1899 106.86 46.2496C106.781 46.2913 106.731 46.3662 106.476 46.2798C106.207 46.0172 106.086 45.8848 105.976 45.8934C105.646 45.9193 105.276 46.1259 104.963 46.0086C104.595 45.8956 104.29 45.5294 103.938 45.2732C103.908 45.2401 103.837 45.3876 103.757 45.4294C103.214 45.5431 102.783 46.0383 102.127 45.7706C101.869 45.649 101.51 45.9966 101.191 46.1636C101.164 46.1657 101.186 46.4479 101.247 46.5141C101.367 46.6465 101.54 46.7393 101.714 46.8321C101.884 46.8897 102.051 46.912 102.221 46.9696C102.117 47.0487 101.958 47.1322 101.857 47.2467C101.857 47.2467 101.931 47.4892 101.989 47.5201C102.217 47.6086 102.548 47.2632 102.62 47.8252C103.057 47.7554 103.592 47.8907 103.875 47.62C104.415 47.1162 104.383 47.7575 105.16 48.1575C105.448 48.3123 105.122 48.3734 104.817 48.362C104.734 48.3684 104.663 48.1612 104.569 48.0266C104.698 47.91 104.926 47.6437 104.956 47.6768C105.473 48.2748 106.013 47.771 106.518 47.8732C106.604 47.902 106.664 47.9682 106.749 47.997C106.7 48.0718 106.653 48.1819 106.571 48.1884C106.299 48.2453 106.022 48.2316 105.157 48.1223C104.018 48.0346 103.499 48.1109 102.975 48.1167C102.865 48.1253 102.738 47.9224 102.618 47.79C102.428 47.8403 102.137 47.6504 102.091 48.1153C102.074 48.2585 102.036 48.4744 101.984 48.514C101.88 48.5932 101.657 47.8656 101.6 48.5442C101.551 48.9739 101.847 48.8796 102.069 48.8976C102.624 48.9249 103.159 48.7054 103.769 49.0831C104.233 49.3659 104.845 49.0694 105.441 49.2709C106.009 49.4745 106.717 49.3478 107.363 49.4744C107.39 49.4722 107.404 49.2938 107.423 49.1858C107.368 49.1901 107.285 49.1966 107.285 49.1966C107.074 48.6101 106.588 49.1096 106.313 48.7764C106.579 48.2942 107.016 48.5792 107.367 48.4805C107.609 48.3906 107.631 48.3179 107.446 48.084C107.353 47.9494 107.361 47.7004 107.375 47.5219C107.372 47.4867 107.698 47.4255 107.701 47.4607C107.803 47.7011 108.327 47.6953 107.979 48.184C107.831 48.4085 108.402 48.6474 108.01 48.9267C108.125 48.9886 108.249 49.1563 108.359 49.1476C108.548 49.0972 109.284 48.9683 109.426 49.0281C109.797 49.1763 109.866 48.9935 109.884 48.5307C109.859 47.8586 109.914 47.8543 110.389 48.2781ZM117.55 43.1017C117.522 43.1039 117.467 43.1082 117.44 43.1104C117.459 43.0024 117.453 42.9319 117.5 42.8218C117.497 42.7865 117.612 42.8484 117.67 42.8793C117.621 42.9542 117.599 43.0269 117.209 43.3414C117.259 43.2666 117.281 43.1939 117.33 43.119C117.36 43.1521 117.421 43.2183 117.451 43.2514C117.402 43.3263 117.349 43.3659 117.297 43.4055C117.273 43.4429 117.24 43.3745 117.55 43.1017ZM115.922 43.4782C115.582 43.7179 115.373 43.8762 115.162 43.9993C115.096 43.8626 115.003 43.728 114.992 43.587C115.013 43.1595 115.301 43.3142 115.491 43.2638C115.573 43.2573 115.691 43.3545 115.922 43.4782ZM119.772 41.5075C119.634 41.5183 119.5 41.5644 119.36 41.5399C119.332 41.5421 119.294 41.4032 119.261 41.3348C119.59 41.3089 119.92 41.283 120.277 41.2549C120.255 41.3276 120.238 41.4708 120.183 41.4751C120.049 41.5212 119.909 41.4967 119.772 41.5075ZM134.843 38.5825C134.672 38.5249 134.587 38.4961 134.499 38.4321C134.472 38.4342 134.463 38.3285 134.491 38.3263C134.642 38.137 134.795 37.983 134.949 37.829C135.001 37.7894 135.092 37.8887 135.177 37.9175C135.177 37.9175 135.213 38.0211 135.185 38.0233C135.092 38.2435 134.941 38.4328 134.843 38.5825ZM114.621 44.1483C114.311 44.0663 114.141 44.0087 113.973 43.9865C114.05 43.9094 114.121 43.7619 114.204 43.7554C114.369 43.7425 114.539 43.8 114.706 43.8223C114.66 43.9324 114.616 44.0778 114.621 44.1483ZM129.908 36.2388C129.803 36.318 129.674 36.4346 129.54 36.4807C129.485 36.485 129.394 36.3857 129.306 36.3216C129.46 36.1676 129.583 35.9805 129.737 35.8265C129.8 35.9279 129.833 35.9963 129.908 36.2388ZM103.898 46.1634C103.835 46.4167 103.813 46.4894 103.794 46.5974C103.643 46.4319 103.467 46.3038 103.316 46.1383C103.393 46.0612 103.467 45.949 103.525 45.9799C103.637 46.0065 103.783 46.1015 103.898 46.1634ZM111.577 47.5814C111.267 47.4994 111.097 47.4418 110.929 47.4195C111.006 47.3425 111.077 47.195 111.16 47.1885C111.324 47.1755 111.495 47.2331 111.662 47.2554C111.616 47.3655 111.572 47.5109 111.577 47.5814ZM112.67 44.6213C112.47 44.5306 112.412 44.4997 112.327 44.4709C112.45 44.2838 112.543 44.0635 112.667 43.8764C112.73 43.9779 112.821 44.0772 112.799 44.1499C112.782 44.2931 112.711 44.4407 112.67 44.6213ZM108.384 46.6618C108.343 46.4877 108.301 46.3135 108.29 46.1725C108.287 46.1372 108.392 46.058 108.444 46.0185C108.482 46.1574 108.551 46.3293 108.562 46.4704C108.565 46.5057 108.458 46.5496 108.384 46.6618ZM113.518 44.1642C113.424 44.0297 113.334 43.9304 113.328 43.8598C113.317 43.7188 113.388 43.5712 113.432 43.4259C113.495 43.5273 113.583 43.5914 113.592 43.6972C113.603 43.8382 113.559 43.9836 113.518 44.1642ZM121.157 40.5114C121.097 40.8 121.075 40.8727 121.056 40.9806C120.993 40.8792 120.905 40.8151 120.866 40.6762C120.833 40.6078 120.907 40.4956 120.926 40.3876C121.014 40.4517 121.102 40.5157 121.157 40.5114ZM118.022 46.6483C117.934 46.5842 117.819 46.5223 117.703 46.4604C117.78 46.3834 117.827 46.2733 117.909 46.2668C118.019 46.2582 118.137 46.3553 118.252 46.4172C118.176 46.4942 118.124 46.5338 118.022 46.6483ZM117.388 46.6627C117.273 46.6008 117.157 46.5389 117.154 46.5037C117.143 46.3626 117.184 46.182 117.201 46.0388C117.258 46.0697 117.371 46.0963 117.377 46.1668C117.415 46.3057 117.371 46.4511 117.388 46.6627ZM112.513 46.8336C112.537 46.7962 112.562 46.7587 112.611 46.6839C112.644 46.7522 112.705 46.8185 112.713 46.9242C112.716 46.9595 112.664 46.9991 112.639 47.0365C112.579 46.9703 112.546 46.9019 112.513 46.8336ZM109.919 47.2152C109.861 47.1842 109.804 47.1533 109.743 47.0871C109.768 47.0497 109.79 46.977 109.817 46.9748C109.875 47.0058 109.933 47.0367 110.018 47.0655C109.966 47.1051 109.941 47.1425 109.919 47.2152ZM126.484 42.221C126.509 42.1836 126.531 42.1109 126.558 42.1087C126.616 42.1397 126.673 42.1706 126.759 42.1994C126.734 42.2368 126.712 42.3095 126.685 42.3116C126.602 42.3181 126.542 42.2519 126.484 42.221ZM134.101 38.6408C134.132 38.6739 134.162 38.707 134.222 38.7732C134.17 38.8128 134.121 38.8877 134.038 38.8942C134.011 38.8963 133.978 38.8279 133.948 38.7948C134 38.7553 134.052 38.7157 134.101 38.6408ZM118.57 45.8954C118.628 45.9264 118.686 45.9573 118.746 46.0235C118.722 46.061 118.7 46.1337 118.672 46.1358C118.615 46.1049 118.557 46.0739 118.472 46.0451C118.524 46.0056 118.549 45.9681 118.57 45.8954ZM118.314 41.5868C118.256 41.5558 118.199 41.5249 118.138 41.4587C118.163 41.4213 118.185 41.3486 118.212 41.3464C118.27 41.3773 118.328 41.4083 118.413 41.4371C118.361 41.4767 118.336 41.5141 118.314 41.5868ZM121.257 41.4261C121.314 41.457 121.372 41.488 121.433 41.5542C121.408 41.5916 121.386 41.6643 121.358 41.6665C121.301 41.6355 121.243 41.6046 121.158 41.5758C121.21 41.5362 121.235 41.4988 121.257 41.4261ZM121.222 39.9385C121.165 39.9076 121.107 39.8766 121.047 39.8104C121.071 39.773 121.093 39.7003 121.121 39.6982C121.178 39.7291 121.236 39.76 121.321 39.7888C121.269 39.8284 121.244 39.8658 121.222 39.9385Z" fill="#252627"/>
<path d="M107.701 44.6578C107.369 44.6484 107.128 44.7384 106.955 44.6456C106.633 44.4225 106.425 44.226 106.48 44.9313C106.494 45.1076 106.45 45.253 106.409 45.4337C106.546 45.4229 106.796 45.4387 106.793 45.4034C106.804 44.8349 107.186 45.1241 107.397 45.0011C107.501 44.9219 107.548 44.8118 107.701 44.6578Z" fill="#252627"/>
<path d="M129.243 42.1813C129.712 42.1798 130.182 42.1784 130.285 41.3896C129.816 41.3911 129.319 41.3947 129.243 42.1813Z" fill="#252627"/>
<path d="M105.781 45.5185C105.846 45.3005 105.942 45.1155 105.953 44.9018C105.969 44.7585 105.873 44.5887 105.835 44.4498C105.692 44.7449 105.574 45.0025 105.432 45.2976C105.52 45.3617 105.605 45.3904 105.781 45.5185Z" fill="#252627"/>
<path d="M119.611 46.133C119.924 46.6051 120.199 46.5834 120.435 46.0681C120.16 46.0897 119.886 46.1114 119.611 46.133Z" fill="#252627"/>
<path d="M115.089 42.373C115.092 42.0534 115.105 41.875 115.089 41.6634C115.086 41.6281 114.976 41.6368 114.918 41.6058C114.902 41.749 114.889 41.9275 114.9 42.0686C114.878 42.1412 114.938 42.2075 115.089 42.373Z" fill="#252627"/>
<path d="M110.372 43.8443C110.314 43.8133 110.229 43.7846 110.114 43.7227C110.094 43.8306 110.02 43.9429 110.053 44.0113C110.089 44.1149 110.18 44.2142 110.243 44.3157C110.265 44.243 110.284 44.135 110.372 43.8443Z" fill="#252627"/>
<path d="M107.535 49.2125C107.585 49.1376 107.606 49.0649 107.656 48.9901C107.598 48.9591 107.486 48.9325 107.486 48.9325C107.436 49.0074 107.445 49.1132 107.425 49.2211C107.453 49.219 107.508 49.2146 107.535 49.2125Z" fill="#252627"/>
<path d="M110.132 48.5113C110.162 48.5444 110.222 48.6107 110.222 48.6107C110.274 48.5711 110.324 48.4962 110.376 48.4566C110.346 48.4235 110.285 48.3573 110.255 48.3242C110.23 48.3616 110.181 48.4365 110.132 48.5113Z" fill="#252627"/>
<path d="M130.285 41.3896C130.362 41.3126 130.439 41.2357 130.486 41.1256C130.4 41.0968 130.315 41.068 130.258 41.0371C130.266 41.1429 130.277 41.2838 130.285 41.3896Z" fill="#252627"/>
<path d="M22.2661 44.8664C22.7043 44.4472 23.1017 44.2612 23.4585 44.3084C23.8152 44.3556 24.0167 44.677 24.0629 45.2725C24.0778 45.4639 24.0501 45.6586 23.9799 45.8567C23.9097 46.0547 23.8268 46.227 23.7311 46.3735C23.6355 46.52 23.4884 46.6919 23.2897 46.8892C23.0911 47.0865 22.9366 47.2322 22.8262 47.3264C22.7158 47.4206 22.5445 47.5569 22.3123 47.7354C22.0801 47.9139 21.9337 48.0269 21.8732 48.0744C21.4105 48.4527 20.9108 48.7697 20.3744 49.0253C19.9851 49.2481 19.2617 49.5076 18.2041 49.8036C17.1465 50.0997 16.3093 50.2717 15.6925 50.3196C15.182 50.3593 14.4559 50.2391 13.5141 49.9592C12.5722 49.6793 11.7654 49.4156 11.0936 49.1682C10.4217 48.9208 10.0883 48.829 10.0932 48.8928C10.0932 48.8928 10.0188 48.8986 9.86991 48.9101C9.72103 48.9217 9.55537 48.9239 9.37293 48.9166C9.19049 48.9094 8.93778 49.0307 8.61481 49.2804C8.29184 49.5302 7.96774 49.903 7.64249 50.399C7.16196 51.0997 6.75317 52.0355 6.41614 53.2064C6.07911 54.3773 5.83708 55.1183 5.69004 55.4293C5.51038 55.8712 5.33035 56.3773 5.14996 56.9477C4.96958 57.518 4.7879 58.0029 4.60493 58.4022C4.42197 58.8016 4.16621 59.228 3.83766 59.6815C3.54835 60.0891 3.3166 60.3424 3.14242 60.4416C2.96823 60.5407 2.66184 60.5217 2.22324 60.3845C1.69792 60.2328 1.29262 59.7667 1.00736 58.9865C0.722106 58.2062 0.630798 57.5125 0.733442 56.9054C0.790443 56.5372 1.00279 56.034 1.37047 55.3956C1.73815 54.7572 1.96443 54.2956 2.04931 54.0109C2.1505 53.6607 2.24912 53.1395 2.34516 52.4473C2.44119 51.7551 2.53165 51.2666 2.61653 50.9819C2.73073 50.5237 2.9581 49.8694 3.29864 49.0192C3.63917 48.1689 3.86819 47.536 3.9857 47.1203C4.15215 46.5082 4.24937 45.7625 4.27737 44.883C4.30538 44.0035 4.35795 43.1649 4.43509 42.3672C4.51224 41.5695 4.70765 40.8483 5.02134 40.2034C5.05727 40.115 5.11158 39.9877 5.18427 39.8216C5.25697 39.6555 5.32516 39.5004 5.38887 39.3564C5.45258 39.2123 5.53059 39.0458 5.6229 38.8568C5.71521 38.6677 5.80385 38.5003 5.88883 38.3547C5.9738 38.209 6.06818 38.0465 6.17195 37.8673C6.27572 37.688 6.38114 37.5301 6.48821 37.3934C6.59528 37.2567 6.70808 37.1249 6.82662 36.998C6.94515 36.8711 7.07024 36.7598 7.20188 36.6639C7.33353 36.5681 7.46151 36.494 7.58582 36.4415C8.335 36.1694 8.89915 36.27 9.27827 36.7434C9.65739 37.2168 9.67947 37.7768 9.34451 38.4233C8.86253 39.3809 8.77858 39.8153 9.09266 39.7268C9.40344 39.5956 9.89234 39.1404 10.5593 38.3611C11.3441 37.4443 12.0913 36.7336 12.801 36.2292C13.5108 35.7247 14.3482 35.3494 15.3134 35.1033C16.236 34.8605 16.7162 34.7055 16.7537 34.6384C16.8372 34.6105 16.9264 34.6571 17.0214 34.7781C17.1163 34.8991 17.2155 35.0733 17.3187 35.3007C17.4007 35.5297 17.4851 35.7906 17.5721 36.0834C17.6394 36.3991 17.7067 36.7149 17.774 37.0306C17.8413 37.3463 17.8865 37.6531 17.9096 37.9509C18.1179 40.909 17.842 42.8669 17.0819 43.8246C16.6127 44.3959 16.2588 44.937 16.0203 45.4476C15.9501 45.6457 15.859 45.7811 15.747 45.854C15.6349 45.9269 15.5413 45.9609 15.466 45.9561C15.3908 45.9512 15.2803 45.9758 15.1347 46.0299C14.9892 46.084 14.8698 46.2003 14.7767 46.3787C14.5037 46.7209 14.197 46.9052 13.8567 46.9316C13.5819 46.9743 13.2367 47.1455 12.8214 47.4453C12.406 47.745 12.2049 47.9799 12.2181 48.1501C12.2231 48.2139 12.3413 48.2903 12.5729 48.3793C12.8045 48.4683 13.0835 48.5483 13.41 48.6192C13.7365 48.6902 14.0724 48.7443 14.4176 48.7817C14.7629 48.8191 15.0525 48.8287 15.2865 48.8105C15.648 48.7825 16.0799 48.6954 16.5821 48.5494C16.767 48.4495 16.9939 48.3409 17.263 48.2238C17.532 48.1066 17.7802 47.9964 18.0076 47.8931C18.235 47.7899 18.4198 47.6899 18.5621 47.5933C20.1337 46.6154 21.3684 45.7064 22.2661 44.8664ZM9.55996 44.5049C9.63388 44.9057 9.83417 45.2807 10.1608 45.6298C10.4875 45.9789 10.7891 46.1427 11.0656 46.1212C11.5548 46.0832 12.2756 45.5833 13.228 44.6213C14.1804 43.6594 14.7611 42.8707 14.97 42.2554C15.1937 41.5533 15.2901 40.7969 15.2592 39.9862C15.2284 39.1754 15.0672 38.546 14.7756 38.0979C14.4857 37.6711 14.2213 37.5044 13.9825 37.5978C13.7437 37.6913 13.2311 38.1858 12.4448 39.0813C11.6927 39.8672 11.0139 40.84 10.4086 41.9997C9.80319 43.1594 9.52032 43.9945 9.55996 44.5049ZM52.9657 43.927C53.3827 43.5095 53.7584 43.3198 54.0931 43.358C54.4277 43.3962 54.6288 43.7123 54.6963 44.3061C54.7095 44.4763 54.681 44.6604 54.6108 44.8584C54.5406 45.0565 54.4572 45.2234 54.3608 45.3593C54.2644 45.4952 54.1217 45.656 53.9329 45.8419C53.744 46.0277 53.5997 46.1673 53.5 46.2606C53.4002 46.354 53.2392 46.4842 53.0168 46.6512C52.7944 46.8183 52.6529 46.9255 52.5924 46.973C52.1296 47.3513 51.6513 47.6666 51.1573 47.919C51.0952 47.9452 50.993 48.0066 50.8507 48.1032C50.3423 48.7205 49.8722 49.1421 49.4404 49.3682C49.0511 49.591 48.517 49.7395 47.838 49.8136C47.1527 50.0808 46.6733 50.1073 46.3999 49.8932C46.3344 49.8769 46.098 49.8631 45.6906 49.852C45.2831 49.8408 45.0103 49.8406 44.8721 49.8513C44.7338 49.8621 44.5105 49.8794 44.2021 49.9033C43.8937 49.9273 43.6352 49.9741 43.4266 50.0438C43.2181 50.1135 43.0116 50.2098 42.8071 50.3326C42.5635 50.5013 42.2289 50.6022 41.8035 50.6352C41.3978 50.6453 40.6893 50.6148 39.6781 50.5435C38.9696 50.5129 38.3691 50.4953 37.8766 50.4908C37.7686 50.4778 37.6512 50.4815 37.5244 50.5021C37.3976 50.5226 37.2589 50.528 37.1084 50.5183C36.9579 50.5086 36.849 50.485 36.7819 50.4474C36.5364 50.3167 36.2161 49.7745 35.8211 48.8209C35.7458 48.677 35.6654 48.4692 35.5802 48.1977C35.3757 48.3205 35.2531 48.3943 35.2122 48.4188C35.1517 48.4663 35.0707 48.5261 34.9693 48.5982C34.5198 49.1466 34.1004 49.5322 33.7111 49.755C33.3611 49.932 32.8891 50.0542 32.2953 50.1218C31.672 50.3627 31.2352 50.3859 30.9847 50.1914C30.9209 50.1964 30.7119 50.1912 30.3576 50.1759C30.0034 50.1606 29.7625 50.1579 29.6348 50.1678C29.5072 50.1778 29.3105 50.193 29.0446 50.2137C28.7788 50.2343 28.5522 50.2787 28.3649 50.3467C28.1776 50.4147 27.9915 50.4987 27.8067 50.5987C27.5843 50.7657 27.2915 50.8526 26.9283 50.8594C26.5667 50.8875 25.9335 50.8618 25.0286 50.7823C24.4052 50.7451 23.8685 50.7226 23.4185 50.7147C23.3122 50.723 23.2058 50.7312 23.0995 50.7395C22.9931 50.7477 22.8757 50.7515 22.7473 50.7508C22.6189 50.7501 22.5211 50.7309 22.454 50.6933C22.2314 50.5822 21.9365 50.0916 21.5694 49.2214C21.3825 48.7437 21.2471 48.2407 21.1633 47.7123C21.1255 47.5012 21.1115 47.3205 21.1212 47.1699C21.1716 46.7167 21.299 46.4286 21.5035 46.3057C21.564 46.2582 21.6936 46.2054 21.8923 46.1472C22.0911 46.0889 22.2297 46.014 22.3082 45.9223C22.4684 45.7815 22.5902 45.558 22.6734 45.252C22.755 44.9247 22.7932 44.5901 22.788 44.2481C22.7878 43.97 22.8049 43.7761 22.8391 43.6664C22.8947 43.5551 23.0239 43.4274 23.2266 43.2833C23.4294 43.1391 23.5406 43.0556 23.5603 43.0327C23.7597 42.846 23.9207 42.5767 24.0432 42.2249C24.1167 42.0694 24.2366 41.5465 24.4028 40.6563C24.5185 39.9412 24.6235 39.227 24.7179 38.5135C24.7893 37.7804 24.8282 37.1783 24.8344 36.7071C24.8303 35.5519 24.9001 34.8671 25.044 34.6527C25.1878 34.4382 25.4728 34.3198 25.899 34.2974C26.3253 34.275 26.7061 34.3578 27.0417 34.5457C27.1988 34.6405 27.3442 34.7897 27.4776 34.9933C27.6111 35.1969 27.7111 35.3817 27.7775 35.5478C27.8439 35.7138 27.9307 35.9371 28.0381 36.2176C28.1455 36.4981 28.2139 36.6907 28.2435 36.7954C28.6614 37.7687 28.977 38.6642 29.1903 39.4822C29.2805 39.8175 29.3823 40.3018 29.4957 40.9349C29.609 41.568 29.7338 42.1414 29.87 42.6551C30.0061 43.1688 30.1652 43.6325 30.3471 44.0463C30.7093 44.8527 30.8726 45.5782 30.8371 46.2229C30.8259 46.6304 30.8286 47.0099 30.8452 47.3617C30.8619 47.7135 30.9958 47.992 31.2471 48.1971C31.4984 48.4023 31.8564 48.4654 32.321 48.3866C32.6384 48.3405 32.9602 48.2139 33.2865 48.0067C33.6128 47.7995 33.8503 47.6205 33.9991 47.4699C34.1479 47.3193 34.3907 47.0704 34.7275 46.7233C34.8256 46.6087 35.0447 46.3991 35.3848 46.0945C35.4713 45.831 35.5759 45.6624 35.6985 45.5887C35.7787 45.5183 35.9243 45.4642 36.1353 45.4264C36.4967 45.1202 36.7272 44.9204 36.827 44.827C36.8253 44.8058 36.8449 44.7829 36.8858 44.7583C36.9071 44.7566 36.9169 44.7452 36.9153 44.7239C36.9708 44.6126 37.0059 44.5136 37.0206 44.4269C37.1201 44.0554 37.1665 43.688 37.1597 43.3248C37.1562 43.0041 37.1822 42.7881 37.2377 42.6768C37.2916 42.5442 37.4302 42.3997 37.6534 42.2433C37.8767 42.0869 37.9981 41.9972 38.0177 41.9743C38.2564 41.7418 38.4468 41.4381 38.5889 41.0634C38.6608 40.8866 38.7872 40.3097 38.9681 39.3328C39.1213 38.5506 39.2418 37.7602 39.3296 36.9617C39.4174 36.1632 39.4717 35.4849 39.4926 34.927C39.4786 33.6442 39.5533 32.8842 39.7167 32.6468C39.8802 32.4094 40.2016 32.2775 40.681 32.251C41.1604 32.2244 41.5908 32.3247 41.9721 32.5519C42.1522 32.6663 42.3147 32.8302 42.4597 33.0436C42.6046 33.2571 42.7164 33.457 42.7951 33.6435C42.8738 33.8299 42.9738 34.0843 43.0951 34.4065C43.2164 34.7288 43.291 34.9316 43.3189 35.015C43.7892 36.1126 44.1344 37.1129 44.3543 38.0159C44.4691 38.3921 44.5914 38.9336 44.7211 39.6404C44.8509 40.3471 44.9908 40.9782 45.141 41.5335C45.2911 42.0889 45.4702 42.6046 45.6783 43.0806C46.0897 43.9687 46.2702 44.7785 46.22 45.5099C46.1892 45.9403 46.1891 46.3522 46.2197 46.7457C46.2502 47.1392 46.4079 47.4479 46.6928 47.6718C46.9777 47.8958 47.3737 47.9667 47.8808 47.8845C48.2408 47.8352 48.6043 47.6946 48.9715 47.4628C49.3386 47.231 49.6068 47.0337 49.776 46.8707C49.9453 46.7078 50.2179 46.4299 50.5939 46.0369C50.8899 45.7144 51.3391 45.2997 51.9417 44.7929C52.5443 44.286 52.8856 43.9974 52.9657 43.927ZM27.0191 47.4823C27.8125 47.2281 28.2588 46.7762 28.3582 46.1265C28.4575 45.4769 28.2187 44.4684 27.6418 43.1009C27.0894 41.7744 26.7601 41.1152 26.6537 41.1235C26.5261 41.1334 26.4298 41.4083 26.3647 41.9483C26.2947 42.4245 26.1935 42.7747 26.0611 42.999C25.852 43.3362 25.553 44.0334 25.1644 45.0907C24.7757 46.1479 24.6183 46.7379 24.692 46.8606C24.787 46.9816 24.9785 47.1058 25.2665 47.2332C25.5546 47.3606 25.8611 47.4492 26.1859 47.4988C26.5107 47.5485 26.7884 47.543 27.0191 47.4823ZM41.9285 46.8703C42.8282 46.6078 43.3301 46.1141 43.4343 45.3892C43.5385 44.6643 43.2743 43.5347 42.6416 42.0004C42.0155 40.5512 41.6387 39.8316 41.5111 39.8415C41.3622 39.853 41.2675 40.1492 41.227 40.7301C41.1407 41.2718 41.0215 41.6662 40.8695 41.9133C40.6424 42.2947 40.3067 43.0697 39.8625 44.2383C39.397 45.4085 39.2118 46.0541 39.3068 46.1751C39.4247 46.3157 39.6444 46.4592 39.9661 46.6054C40.2877 46.7516 40.6326 46.8532 41.0008 46.9102C41.3689 46.9672 41.6782 46.9539 41.9285 46.8703ZM68.8829 42.017C69.3457 41.6387 69.7517 41.4949 70.1011 41.5854C70.4505 41.676 70.6271 42.0207 70.6308 42.6195C70.6211 42.7701 70.5852 42.928 70.5231 43.0933C70.4611 43.2586 70.3712 43.41 70.2535 43.5475C70.1358 43.6851 70.0226 43.8115 69.9138 43.927C69.8051 44.0424 69.6596 44.166 69.4772 44.2979C69.2949 44.4297 69.1424 44.5325 69.0197 44.6062C68.8971 44.6799 68.7388 44.7778 68.545 44.8998C68.3512 45.0219 68.2241 45.1066 68.1636 45.1541C67.6533 45.4719 67.1177 45.7382 66.5566 45.9529C66.537 45.9759 66.2892 46.1609 65.8133 46.5081C65.3375 46.8554 64.7949 47.2398 64.1858 47.6616C63.5766 48.0834 63.0749 48.3737 62.6807 48.5327C62.1425 48.7671 61.5798 48.9606 60.9925 49.1132C60.4053 49.2657 59.7832 49.3836 59.1263 49.4667C58.4694 49.5498 57.8313 49.5298 57.2119 49.4067C56.5925 49.2836 56.0676 49.0676 55.637 48.7587C55.1132 48.35 54.6669 47.7695 54.2982 47.0171C53.9295 46.2647 53.6622 45.4403 53.4963 44.5438C53.3304 43.6472 53.2169 42.8055 53.1558 42.0185C53.0947 41.2316 53.068 40.474 53.0756 39.7459C53.0886 39.6379 53.1403 38.7192 53.2307 36.9896C53.3211 35.2601 53.4033 33.5633 53.4774 31.8993L53.5885 29.4032C53.3217 29.2741 52.8349 29.2049 52.1281 29.1956C51.701 29.2074 51.265 29.2412 50.82 29.2972C49.7778 29.3781 49.0415 29.4032 48.6112 29.3724C48.5245 29.3577 48.4013 29.3566 48.2418 29.369C48.0823 29.3814 47.9228 29.3938 47.7633 29.4061C47.6037 29.4185 47.4442 29.4309 47.2847 29.4433C47.1252 29.4557 46.9963 29.4496 46.8981 29.4252C46.7999 29.4007 46.7377 29.3574 46.7115 29.2952C46.6425 28.9582 46.7618 28.7029 47.0693 28.5292C47.0889 28.5063 47.2254 28.4048 47.4789 28.2246C47.7324 28.0444 47.9969 27.8688 48.2725 27.6976C48.5481 27.5264 48.9259 27.3633 49.406 27.2084C49.8862 27.0534 50.3823 26.9667 50.8944 26.9484C52.5011 26.9734 53.4992 26.9441 53.8886 26.8603C54.2779 26.7766 54.6483 26.5178 54.9998 26.084C55.5328 25.5076 56.1903 24.0551 56.9724 21.7262C57.0083 21.6378 57.0622 21.5052 57.134 21.3285C57.4296 20.4496 57.6753 19.7565 57.8713 19.2492C58.0673 18.7418 58.3486 18.0941 58.7154 17.306C59.0822 16.5179 59.5009 15.8488 59.9718 15.2987C60.4426 14.7486 60.9438 14.3138 61.4753 13.9944C63.1959 13.0049 64.0933 12.9887 64.1676 13.9458C64.2106 14.4988 63.8924 15.7753 63.2132 17.7752C63.0205 18.3251 62.8826 18.7531 62.7994 19.0591C62.7015 19.4518 62.6306 19.9174 62.5868 20.4557C62.5431 20.9941 62.3823 21.5415 62.1045 22.098C61.6634 23.0309 61.2967 23.819 61.0043 24.4623C60.6563 25.2168 60.5404 25.6538 60.6567 25.7731C60.7763 25.935 61.8652 26.043 63.9236 26.0972C65.3602 26.1354 66.2368 26.1957 66.5535 26.2781C66.8702 26.3605 67.0188 26.5523 66.9994 26.8533C66.9882 27.2608 66.7674 27.4491 66.3371 27.4183C66.1653 27.4103 65.8242 27.426 65.3137 27.4657C64.8049 27.5266 64.2331 27.6031 63.5983 27.6952C62.9635 27.7872 62.3091 27.9022 61.6351 28.0402C60.9824 28.1764 60.4343 28.2832 59.991 28.3604C59.7603 28.4211 59.5048 29.1257 59.2243 30.4741C58.9439 31.8225 58.6481 33.4557 58.3369 35.3735C58.0258 37.2913 57.7887 38.5776 57.6255 39.2322C56.7935 42.5706 57.1051 44.7931 58.5605 45.8998C59.2202 46.4049 59.8152 46.6262 60.3452 46.5636C60.6643 46.5388 61.0061 46.3946 61.3708 46.1309C61.428 46.0409 61.6361 45.8963 61.9951 45.6973C62.3541 45.4982 62.725 45.3143 63.1077 45.1455C63.4905 44.9767 63.8835 44.8018 64.2867 44.6207C64.6898 44.4396 64.9021 44.3482 64.9233 44.3466C66.572 43.5338 67.8919 42.7573 68.8829 42.017ZM72.3795 43.9923C72.1357 43.8828 72.0666 43.4067 72.1724 42.564C72.2781 41.7213 72.5223 41.146 72.9049 40.8381C73.2614 40.4681 73.8188 40.275 74.5771 40.259C75.3355 40.2429 76.0461 40.3696 76.7089 40.6391C77.3964 40.9494 77.7811 41.2191 77.863 41.4481C77.945 41.6772 77.8489 42.2303 77.5746 43.1075C77.2399 44.0321 76.8759 44.6488 76.4826 44.9575C76.0893 45.2662 75.4337 45.4348 74.5158 45.4633C73.4703 45.5017 72.9302 45.2976 72.8956 44.8509C72.8609 44.4043 72.6889 44.118 72.3795 43.9923ZM28.3136 96.2966C28.7502 95.8561 29.1468 95.6595 29.5035 95.7067C29.8603 95.7539 30.0617 96.0752 30.108 96.6708C30.1212 96.8409 30.1074 97.0078 30.0666 97.1715C30.0258 97.3351 29.958 97.4955 29.8633 97.6527C29.7685 97.8098 29.6671 97.9514 29.5592 98.0775C29.4513 98.2035 29.3119 98.3374 29.1411 98.479C28.9702 98.6207 28.8349 98.7382 28.7351 98.8315C28.6354 98.9249 28.4948 99.0428 28.3132 99.1852C28.1317 99.3277 28.0107 99.4227 27.9502 99.4702C27.929 99.4719 27.8979 99.485 27.857 99.5095C27.8161 99.5341 27.7965 99.557 27.7981 99.5783C27.7376 99.6258 27.6571 99.6909 27.5565 99.7736C27.456 99.8563 27.3852 99.9099 27.3443 99.9345C26.6608 100.501 26.0394 100.902 25.48 101.138C24.9172 101.332 24.2138 101.504 23.3696 101.655C21.2183 102.058 19.5631 101.683 18.4038 100.532C17.2445 99.3814 16.3144 97.1855 15.6134 93.9447C15.4049 92.9124 15.2262 92.402 15.0773 92.4136C14.9497 92.4235 14.2409 93.0777 12.9509 94.3761C12.22 95.1603 11.701 95.7784 11.3937 96.2302C11.2368 96.4136 11.1052 96.6484 10.9991 96.9349C10.8929 97.2213 10.7909 97.5608 10.693 97.9536C10.5951 98.3464 10.5192 98.609 10.4653 98.7416C10.4131 98.8954 10.2915 99.2579 10.1004 99.8291L9.71354 101.047C9.64332 101.245 9.61451 101.563 9.62709 102C9.63968 102.438 9.58676 102.79 9.46833 103.056C9.34989 103.322 9.10173 103.501 8.72384 103.595C7.98767 103.759 7.32399 103.479 6.7328 102.755C6.35616 102.313 6.14812 101.976 6.10869 101.744C6.06925 101.512 6.15238 101.066 6.35806 100.409C6.41196 100.276 6.45523 100.144 6.48786 100.013C6.52214 99.9037 6.57599 99.7016 6.6494 99.407C6.72282 99.1124 6.77177 98.9161 6.79624 98.8179C6.82071 98.7197 6.86599 98.545 6.93207 98.2938C6.99816 98.0426 7.05283 97.8511 7.0961 97.7194C7.13936 97.5876 7.19528 97.4121 7.26384 97.1928C7.3324 96.9735 7.39812 96.7865 7.461 96.6318C7.52389 96.4772 7.59575 96.3004 7.6766 96.1016C7.75745 95.9027 7.84361 95.7034 7.9351 95.5038C8.28306 94.7492 8.49986 93.6144 8.58549 92.0992C8.67112 90.584 8.73758 89.7176 8.78487 89.5C9.02919 87.9618 9.57409 85.7476 10.4196 82.8575C10.5697 82.3109 10.7307 81.4906 10.9025 80.3967C11.0743 79.3028 11.252 78.2833 11.4353 77.3383C11.6187 76.3932 11.8639 75.4167 12.1707 74.4085C12.4776 73.4004 12.929 72.5309 13.5249 71.7999C14.1207 71.0689 14.8358 70.564 15.6701 70.2853C16.38 70.059 16.9731 70.0504 17.4494 70.2595C17.9257 70.4685 18.2679 70.8111 18.476 71.2871C18.6842 71.763 18.8196 72.3356 18.8822 73.0048C18.9449 73.6739 18.9596 74.2773 18.9265 74.8148C18.8933 75.3523 18.8319 75.8706 18.7423 76.3697C18.5694 77.1748 18.2682 78.1183 17.8387 79.2002C17.4075 80.2607 17.1135 81.0218 16.9568 81.4833C16.7234 82.3359 16.3739 83.2082 15.9082 84.1003C15.6811 84.4817 15.3502 85.1119 14.9156 85.9908C14.481 86.8698 14.1191 87.513 13.8298 87.9207C13.4293 88.5509 12.9856 89.1738 12.4984 89.7893C12.4396 89.8581 12.3214 89.9903 12.1441 90.186C11.9667 90.3816 11.815 90.5646 11.6892 90.7348C11.5633 90.9051 11.4849 91.0663 11.4539 91.2185C11.4376 91.2839 11.4593 91.3572 11.5191 91.4381C11.5789 91.519 11.6399 91.5464 11.702 91.5202C11.7446 91.5169 11.7961 91.4915 11.8566 91.444C12.0168 91.3032 12.2343 91.0723 12.5089 90.7514C12.7836 90.4305 13.0472 90.1747 13.2999 89.9839C13.5525 89.7931 13.8261 89.6649 14.1206 89.5992C14.2891 89.5647 14.4576 89.5302 14.6261 89.4957C15.5324 89.3184 16.2781 89.3461 16.8632 89.5788C17.4483 89.8115 17.9604 90.2746 18.3994 90.9681C18.7975 91.6861 19.0337 92.5236 19.108 93.4807C19.1741 94.3315 19.3899 95.3204 19.7556 96.4475C20.1 97.5762 20.4541 98.4153 20.8177 98.9648C21.0355 99.2903 21.2639 99.4758 21.5028 99.5215C21.7418 99.5671 22.2195 99.5193 22.936 99.3781C23.7998 99.204 24.5 98.9892 25.0365 98.7336C26.4233 97.8556 27.5157 97.0432 28.3136 96.2966ZM14.4213 77.7644C14.3854 77.8528 14.331 77.98 14.2584 78.1462C14.1857 78.3123 14.1228 78.4669 14.0697 78.6102C14.0166 78.7534 13.9631 78.8912 13.9093 79.0238C13.5173 80.0385 13.2244 81.0884 13.0304 82.1733C12.9555 82.5857 12.8596 83.005 12.743 83.4313C12.6263 83.8576 12.4786 84.3666 12.2998 84.9582C12.1211 85.5498 11.9974 85.9553 11.9289 86.1746C11.8277 86.5248 11.8663 86.7465 12.0447 86.8396C12.1347 86.8968 12.2484 86.8452 12.3857 86.6847C12.6996 86.318 12.9574 85.9182 13.1592 85.4853C13.361 85.0524 13.552 84.5507 13.7324 83.9804C13.9128 83.41 14.0659 82.9702 14.1917 82.6609C14.7209 81.4857 15.1322 80.0308 15.4255 78.2963C15.4598 78.1866 15.5296 77.9833 15.6349 77.6862C15.7402 77.3892 15.8267 77.1257 15.8945 76.8957C15.9622 76.6658 16.0013 76.4114 16.0117 76.1324C16.0222 75.8534 15.9496 75.6771 15.7941 75.6036C15.6353 75.4876 15.4595 75.5654 15.2666 75.8372C15.1097 76.0205 14.9169 76.4314 14.6883 77.0696C14.6197 77.2889 14.5307 77.5205 14.4213 77.7644ZM47.0247 93.5919C47.3569 93.7373 47.5453 94.0972 47.5899 94.6714C47.6624 95.3291 47.3381 95.9748 46.617 96.6086C46.3553 96.8214 46.0511 97.0376 45.7044 97.2571C45.6423 97.2834 45.5711 97.3317 45.491 97.4021C45.2065 97.5954 44.9587 97.7109 44.7476 97.7487C44.1128 97.8408 43.4762 97.6334 42.8377 97.1267C42.6789 97.0106 42.5021 96.7997 42.3071 96.4939L42.199 96.3418C41.9828 96.0376 41.7864 95.8496 41.6096 95.7777C41.4328 95.7058 41.2218 95.7436 40.9765 95.8911C40.6707 96.086 40.3495 96.6352 40.0131 97.5386C39.8564 98.0001 39.7208 98.3209 39.6064 98.5009C39.2485 99.1279 38.924 99.4954 38.6329 99.6036C38.2649 99.8248 37.7669 100.163 37.1389 100.618C36.3687 101.17 35.6236 101.496 34.9038 101.594C34.0792 101.722 33.469 101.855 33.0732 101.993C32.9685 102.023 32.8629 102.042 32.7566 102.05C32.5226 102.068 32.3173 102.041 32.1405 101.969C31.877 101.883 31.4825 101.625 30.957 101.195C30.3873 100.747 29.9922 100.344 29.7719 99.9867C29.5516 99.6294 29.3094 98.9902 29.0453 98.0692C28.6074 96.5626 28.4375 95.3401 28.5359 94.4017C28.6342 93.4632 29.0183 92.3475 29.6882 91.0544C30.5444 89.4045 31.3812 88.1948 32.1988 87.4252C33.0163 86.6556 34.0516 86.0723 35.3046 85.6755C35.9115 85.5 36.4366 85.2345 36.8797 84.8792C37.5862 84.3322 38.2315 84.1002 38.8157 84.1832C39.3769 84.2466 40.0488 84.6331 40.8315 85.3426C41.2473 85.7383 41.5503 86.0571 41.7402 86.2991C41.9302 86.5412 42.0662 86.7767 42.1482 87.0057C42.2301 87.2347 42.2885 87.5725 42.3231 88.0192C42.4701 89.9122 42.6479 91.3748 42.8564 92.4071C42.9681 93.0189 43.1484 93.481 43.3974 93.7933C43.6463 94.1057 44.0654 94.4743 44.6548 94.8993L44.7455 94.8281C45.1085 94.5431 45.3693 94.3196 45.5279 94.1575C46.128 93.6188 46.6269 93.4302 47.0247 93.5919ZM39.2287 88.6767C39.1643 87.8472 39.0438 87.3965 38.867 87.3247C38.8278 87.3705 38.7894 87.427 38.7518 87.4941C38.6603 87.6938 38.7048 88.129 38.8852 88.7997C39.0083 89.2823 39.1173 89.5841 39.2123 89.7051C39.2629 89.53 39.2684 89.1872 39.2287 88.6767ZM38.685 93.6618C38.7321 93.166 38.6942 92.8158 38.5714 92.6114C38.4698 92.4053 38.1783 92.0963 37.697 91.6843C36.9422 91.0582 36.5475 90.5218 36.5129 90.0751C36.4897 89.7774 36.3668 89.4339 36.144 89.0446C35.9212 88.6554 35.7091 88.4044 35.5078 88.2916C35.3506 88.1968 35.2189 88.1536 35.1125 88.1618C35.0275 88.1684 34.9547 88.1955 34.8942 88.243C34.6897 88.3658 34.2843 88.7932 33.6778 89.525C33.1481 90.1438 32.668 90.9193 32.2375 91.8514C31.8071 92.7836 31.5054 93.6522 31.3326 94.4573C31.1564 95.2199 31.156 95.7656 31.3313 96.0943C31.5262 96.4002 31.664 96.9351 31.7448 97.6991C31.8532 98.2685 31.9713 98.6872 32.0991 98.9555C32.2236 99.1812 32.3955 99.3283 32.6148 99.3969C32.857 99.4851 33.244 99.5085 33.7757 99.4672C34.031 99.4474 34.2428 99.4203 34.4113 99.3858C34.5815 99.3726 34.7393 99.3389 34.8849 99.2848C35.0305 99.2307 35.1646 99.1668 35.2873 99.0931C35.4296 98.9964 35.571 98.8892 35.7117 98.7713C35.8523 98.6534 36.0223 98.5011 36.2218 98.3144C36.9805 97.6136 37.3982 97.0676 37.4748 96.6765C37.571 96.2625 37.7932 95.8173 38.1414 95.3409C38.4536 94.9529 38.6348 94.3932 38.685 93.6618ZM66.7742 92.5078C65.9986 92.4396 65.3359 92.3092 64.786 92.1165C64.5667 92.048 64.1014 91.7738 63.3901 91.2941C62.6789 90.8144 62.1833 90.564 61.9035 90.543C61.5616 90.5481 61.252 90.6257 60.9747 90.7756C60.6975 90.9255 60.4612 91.1203 60.2659 91.3602C60.0705 91.6 59.8736 91.8881 59.675 92.2245C59.4765 92.5609 59.3143 92.8838 59.1885 93.1931C59.0628 93.5024 58.9227 93.8343 58.7683 94.1886C58.614 94.543 58.4706 94.8323 58.3382 95.0565C58.1487 95.3708 57.7068 95.8117 57.0126 96.3791C56.3185 96.9465 55.6374 97.4755 54.9694 97.966C54.3013 98.4566 53.9477 98.7247 53.9085 98.7706C53.6485 99.0047 53.1119 99.1908 52.2988 99.3289C51.4858 99.4669 50.6574 99.4777 49.8139 99.3613C48.9704 99.2449 48.4159 98.9938 48.1506 98.6078C48.031 98.4459 47.9179 98.1605 47.8113 97.7515C47.7046 97.3426 47.6209 96.9532 47.5601 96.5835C47.4993 96.2137 47.4278 95.7753 47.3456 95.2681C47.2635 94.761 47.2158 94.4223 47.2025 94.2522C46.994 93.2199 47.0253 92.3829 47.2965 91.7413C47.3896 91.5629 47.473 90.9145 47.5466 89.7961C47.6203 88.6778 47.7437 87.4432 47.917 86.0924C48.0903 84.7416 48.3419 83.711 48.6719 83.0006C49.43 81.4653 50.5729 81.4408 52.1005 82.927C52.4706 83.2834 52.6518 83.9648 52.6444 84.971C52.6582 85.9756 52.4798 86.9845 52.1091 87.9975C51.9001 88.6129 51.6504 89.531 51.36 90.7518C51.0468 91.953 50.8387 92.7181 50.7359 93.047C50.38 94.2515 50.4715 95.1538 51.0102 95.7539C51.1281 95.8945 51.3335 95.9214 51.6263 95.8344C51.9191 95.7475 52.234 95.6 52.5709 95.392C52.9078 95.1839 53.212 94.9678 53.4834 94.7434C53.7549 94.519 53.9486 94.3275 54.0647 94.1687C54.4733 93.6448 55.0158 92.5703 55.692 90.945C56.3682 89.3198 56.7445 88.1726 56.821 87.5033C56.9366 86.7882 57.2298 86.0861 57.7005 85.3969C58.1713 84.7077 58.7108 84.1469 59.3191 83.7145C59.9275 83.2821 60.5769 83.1033 61.2675 83.1781C61.958 83.2529 62.5457 83.6566 63.0305 84.3892C63.25 84.736 63.4775 85.3923 63.713 86.3583C63.9485 87.3243 64.2979 88.0354 64.7613 88.4916C65.2017 88.9281 65.658 89.2244 66.1302 89.3803C66.6023 89.5362 67.1771 89.636 67.8545 89.6797C68.532 89.7234 69.067 89.7942 69.4598 89.892C69.9197 90.0275 70.2991 90.2976 70.598 90.7024C70.8968 91.1071 70.9434 91.4994 70.7375 91.8791C70.4777 92.3914 69.8119 92.6357 68.7402 92.6119C67.8828 92.5929 67.2275 92.5582 66.7742 92.5078ZM83.4027 93.335C83.8409 92.9158 84.2383 92.7298 84.5951 92.777C84.9518 92.8242 85.1533 93.1456 85.1995 93.7411C85.2356 93.9309 85.2133 94.1252 85.1324 94.3241C85.0516 94.5229 84.9634 94.6956 84.8677 94.8421C84.7721 94.9886 84.6299 95.1548 84.4411 95.3406C84.2522 95.5265 84.0973 95.6669 83.9763 95.7619C83.8553 95.8569 83.6787 95.9936 83.4464 96.1721C83.2142 96.3506 83.0785 96.4628 83.0393 96.5087C82.5552 96.8886 82.0564 97.2162 81.5429 97.4915C81.502 97.516 81.4456 97.5472 81.3736 97.5848C81.3016 97.6225 81.2243 97.6606 81.1417 97.6991C81.0591 97.7376 80.9765 97.7762 80.8939 97.8147C80.8113 97.8532 80.7443 97.8851 80.6928 97.9105L80.6155 97.9486C79.3593 98.5811 77.9901 98.9977 76.5079 99.1984C74.9831 99.4023 73.8557 99.3508 73.1258 99.0437C73.0374 99.0078 72.6855 98.8853 72.0702 98.6763C71.4548 98.4673 71.0121 98.277 70.742 98.1054C70.228 97.8244 69.7064 97.1695 69.1772 96.1407C68.199 94.2908 67.653 92.6321 67.5391 91.1646C67.4697 90.2712 67.5384 89.0891 67.7451 87.618C67.7598 87.5312 67.783 87.3476 67.8147 87.0669C67.8464 86.7863 67.8781 86.5752 67.9099 86.4337C67.9417 86.2921 67.98 86.0965 68.0249 85.847C68.0697 85.5974 68.1174 85.3851 68.168 85.21C68.2186 85.0349 68.2794 84.8536 68.3504 84.6662C68.4215 84.4789 68.4937 84.3074 68.5673 84.1519C68.966 83.5004 69.2929 83.0257 69.548 82.7277C70.604 81.4475 72.0197 80.8026 73.7949 80.7931C75.6357 80.8 76.6717 81.3294 76.9032 82.3813C77.0952 83.2009 77.1138 84.0607 76.9591 84.9607C76.8043 85.8607 76.5843 86.6107 76.2992 87.2105C76.0142 87.8104 75.6147 88.5903 75.1008 89.5503C74.5869 90.5103 74.2213 91.2448 74.0041 91.7538C73.2053 93.5919 72.8191 94.681 72.8455 95.0213C72.867 95.2978 73.1634 95.6707 73.7348 96.1399C74.0999 96.4325 74.4178 96.6004 74.6887 96.6435C74.9595 96.6867 75.4409 96.6172 76.1329 96.4351C77.2273 96.2003 78.4084 95.8412 79.6761 95.3576C80.1521 95.1494 80.8423 94.807 81.7468 94.3302C82.6512 93.8534 83.2032 93.5217 83.4027 93.335ZM70.8481 92.031C71.0395 92.0161 71.5068 91.1453 72.25 89.4186C72.972 87.6936 73.3198 86.6609 73.2933 86.3206C73.2619 85.9164 73.0237 85.6728 72.5786 85.5897C72.1335 85.5066 71.7957 85.6344 71.5653 85.9733C71.3724 86.245 71.1894 86.6444 71.0164 87.1714C70.8433 87.6984 70.7136 88.2327 70.6273 88.7743C70.5622 89.3143 70.5061 89.8322 70.4591 90.328C70.412 90.8238 70.4225 91.2349 70.4906 91.5613C70.5588 91.8876 70.6779 92.0442 70.8481 92.031ZM103.066 90.2034C103.481 89.7646 103.867 89.5688 104.224 89.616C104.58 89.6632 104.792 89.9838 104.86 90.5777C104.873 90.7478 104.859 90.9147 104.819 91.0784C104.778 91.242 104.704 91.3975 104.598 91.5448C104.492 91.6922 104.385 91.8342 104.278 91.9709C104.171 92.1076 104.037 92.2463 103.877 92.3872C103.717 92.528 103.581 92.6455 103.471 92.7397C103.361 92.8338 103.214 92.9468 103.032 93.0787C102.85 93.2105 102.729 93.3108 102.67 93.3796C102.186 93.7595 101.687 94.0765 101.171 94.3305C101.13 94.355 101.069 94.3919 100.987 94.441C100.953 94.5507 100.875 94.6424 100.752 94.7161C100.629 94.7898 100.443 94.8685 100.193 94.9521C99.7248 95.2666 99.0165 95.5142 98.0676 95.6948C97.1188 95.8755 96.2488 95.9698 95.4577 95.9777C94.6666 95.9856 94.1491 95.9349 93.9052 95.8254C93.7039 95.7127 93.4706 95.4633 93.2052 95.0774C92.9399 94.6914 92.7065 94.303 92.5049 93.9121C92.3034 93.5212 92.1731 93.221 92.114 93.0117C91.9173 92.4064 91.8129 91.7512 91.8009 91.046C91.8086 90.3179 91.838 89.1815 91.8893 87.6369L91.8546 87.1903C91.8463 87.0839 91.8029 87.0071 91.7244 86.9597C91.6458 86.9123 91.5419 86.8829 91.4126 86.8715C91.285 86.8814 91.1148 86.8947 90.9021 86.9112C90.6469 86.931 90.3565 86.9107 90.0308 86.8504C89.7052 86.7901 89.3853 86.7347 89.0711 86.6842C88.7569 86.6337 88.4828 86.6176 88.2489 86.6357C88.2701 86.6341 88.2217 86.9749 88.1036 87.6581C87.9854 88.3413 87.8223 89.0654 87.6143 89.8305C87.4062 90.5955 87.2008 91.0501 86.998 91.1943C86.267 91.7004 85.4835 92.0822 84.6476 92.3396C83.5614 92.6808 83.8738 90.2279 85.5848 84.981C85.6174 84.8501 85.7031 84.576 85.8419 84.1586C85.9806 83.7413 86.0757 83.4504 86.1272 83.2859C86.1786 83.1215 86.2598 82.8584 86.3708 82.4967C86.4818 82.135 86.5605 81.8401 86.607 81.6118C86.6535 81.3835 86.7015 81.1069 86.7512 80.7821C86.8009 80.4573 86.8305 80.1501 86.8401 79.8605C86.8497 79.5709 86.843 79.2772 86.8199 78.9794C86.7934 78.6391 86.9644 78.016 87.3327 77.1101C87.701 76.2042 88.0053 75.6456 88.2457 75.4344C88.5712 75.2165 89.0284 75.1115 89.6174 75.1192C90.2065 75.127 90.6049 75.2298 90.8129 75.4276C91.0929 75.7268 91.1887 76.9605 91.1002 79.1285C91.0178 80.5471 91.0029 81.4577 91.0556 81.8601C91.1099 82.2839 91.2533 82.6151 91.4858 82.8538C91.7575 83.0467 91.9887 83.1304 92.1793 83.1049C92.3699 83.0794 92.7187 82.8865 93.2257 82.5261C93.9779 82.0184 94.5304 81.7615 94.883 81.7555C95.2356 81.7495 95.5789 81.969 95.913 82.4138C96.1734 82.7359 96.3037 83.0361 96.3039 83.3142C96.3041 83.5924 96.1859 84.1365 95.9492 84.9466C95.6113 86.1069 95.3284 87.4234 95.1004 88.8961C94.9344 90.0645 94.9207 90.9214 95.0593 91.467C95.198 92.0126 95.594 92.6345 96.2473 93.3327C96.5306 93.6744 96.7483 93.8608 96.9005 93.8918C96.966 93.9081 97.0764 93.8835 97.2318 93.8179C97.3872 93.7523 97.5524 93.6753 97.7274 93.5868C97.9024 93.4984 98.021 93.441 98.0832 93.4148C98.7293 93.1934 99.1546 93.0213 99.359 92.8985C100.931 91.9205 102.166 91.0222 103.066 90.2034ZM38.1134 121.646C38.5516 121.227 38.9491 121.041 39.3058 121.088C39.6625 121.135 39.8747 121.456 39.9422 122.05C39.957 122.241 39.9294 122.436 39.8591 122.634C39.7889 122.832 39.706 123.004 39.6104 123.151C39.5148 123.297 39.3672 123.464 39.1678 123.65C38.9683 123.837 38.8134 123.977 38.703 124.072C38.5926 124.166 38.4213 124.302 38.1891 124.481C37.9569 124.659 37.8105 124.772 37.75 124.82C37.1254 125.317 36.5244 125.846 35.9473 126.404C35.169 127.128 34.3431 127.652 33.4696 127.976C32.4505 128.355 31.6546 128.577 31.082 128.643C30.4881 128.711 29.7453 128.651 28.8534 128.463C28.0074 128.315 27.3208 128.085 26.7938 127.773C26.2667 127.461 25.8434 127.039 25.524 126.507C25.2045 125.976 25.0069 125.29 24.931 124.451C24.8551 123.612 24.8823 122.652 25.0124 121.572C25.1196 120.472 25.3371 119.14 25.6648 117.573C25.7627 117.181 25.7053 116.993 25.4926 117.009C24.9183 117.054 23.881 118.161 22.3805 120.332C20.88 122.503 19.7419 124.517 18.966 126.374C18.4237 127.658 17.9498 128.443 17.5442 128.732C17.1387 129.02 16.6502 128.929 16.0788 128.46C15.6008 128.091 15.358 127.719 15.3503 127.345C15.3427 126.971 15.5577 126.158 15.9953 124.904C16.3726 123.976 16.548 123.342 16.5216 123.002C16.4985 122.704 16.6739 122.07 17.0479 121.099C17.2631 120.013 17.315 119.441 17.2037 119.386C16.9698 119.404 16.5365 119.818 15.9038 120.626C15.2712 121.435 14.6182 122.395 13.9449 123.507C13.2716 124.618 12.7716 125.55 12.4449 126.303C11.9353 127.455 11.4474 128.199 10.9813 128.535C10.5152 128.871 10.0211 128.845 9.49887 128.458C8.99792 128.069 8.77625 127.556 8.83388 126.92C8.89151 126.285 9.23721 125.225 9.87099 123.743C10.049 123.279 10.2056 122.609 10.3408 121.732C10.4759 120.855 10.6252 120.228 10.7885 119.852C11.3732 118.287 12.0555 117.154 12.8354 116.451C13.0153 116.288 13.207 116.139 13.4106 116.005C13.6142 115.872 13.8265 115.781 14.0473 115.731C14.2682 115.682 14.4224 115.74 14.5101 115.904C14.5977 116.068 14.6147 116.356 14.561 116.767C14.4208 117.441 14.5184 117.733 14.8537 117.643C15.1073 117.602 15.3828 117.291 15.6801 116.712C16.1115 115.929 16.6387 115.279 17.2617 114.76C17.5038 114.57 17.7066 114.425 17.8701 114.327C18.0762 114.226 18.2103 114.162 18.2725 114.135C18.3739 114.063 18.5211 114.031 18.7142 114.037C18.9072 114.043 19.0471 114.054 19.1339 114.069C19.219 114.062 19.3924 114.091 19.6542 114.157C19.9374 114.22 20.1542 114.257 20.3047 114.266C20.9102 114.348 21.2211 114.495 21.2377 114.708C21.2835 114.747 21.3402 115.063 21.4077 115.657C21.4717 115.93 21.5406 116.128 21.6143 116.251C21.688 116.374 21.8202 116.422 22.0107 116.397C22.2013 116.371 22.4295 116.279 22.6953 116.119C22.9611 115.959 23.3564 115.677 23.8813 115.273C25.0947 114.365 26.1538 113.812 27.0584 113.614C27.7341 113.497 28.1607 113.48 28.3383 113.562C28.5159 113.645 28.7161 113.881 28.9389 114.27C29.2453 114.91 29.3637 115.746 29.2941 116.778C29.2245 117.811 29.0223 118.789 28.6876 119.714C28.289 120.644 28.1079 121.342 28.1442 121.81C28.174 122.193 28.1007 122.766 27.9246 123.528C27.7402 124.185 27.8236 124.777 28.175 125.306C28.5263 125.835 29.0366 126.138 29.7059 126.215C30.0937 126.249 30.591 126.178 31.1979 126.002C31.3648 125.947 32.3633 125.441 34.1935 124.486C34.1935 124.486 34.3812 124.354 34.7565 124.089C35.1318 123.825 35.5378 123.542 35.9744 123.24C36.4111 122.939 36.842 122.633 37.2672 122.322C37.6924 122.01 37.9745 121.785 38.1134 121.646ZM53.2934 121.751C53.7316 121.332 54.129 121.146 54.4858 121.193C54.8425 121.24 55.044 121.562 55.0902 122.157C55.1263 122.347 55.104 122.541 55.0231 122.74C54.9423 122.939 54.8541 123.112 54.7584 123.258C54.6628 123.405 54.5206 123.571 54.3318 123.757C54.1429 123.943 53.988 124.083 53.867 124.178C53.746 124.273 53.5694 124.41 53.3371 124.588C53.1049 124.767 52.9692 124.879 52.93 124.925C52.4459 125.305 51.9471 125.632 51.4336 125.908C51.3927 125.932 51.3362 125.963 51.2643 126.001C51.1923 126.039 51.115 126.077 51.0324 126.115C50.9498 126.154 50.8672 126.192 50.7846 126.231C50.702 126.269 50.635 126.301 50.5835 126.327L50.5062 126.365C49.25 126.997 47.8808 127.414 46.3986 127.615C44.8738 127.818 43.7464 127.767 43.0165 127.46C42.9281 127.424 42.5762 127.301 41.9609 127.092C41.3455 126.883 40.9028 126.693 40.6327 126.522C40.1187 126.241 39.5971 125.586 39.0679 124.557C38.0897 122.707 37.5437 121.048 37.4297 119.581C37.3604 118.687 37.4291 117.505 37.6358 116.034C37.6505 115.947 37.6737 115.764 37.7054 115.483C37.7371 115.202 37.7688 114.991 37.8006 114.85C37.8324 114.708 37.8707 114.513 37.9156 114.263C37.9604 114.014 38.0081 113.801 38.0587 113.626C38.1093 113.451 38.1701 113.27 38.2411 113.082C38.3122 112.895 38.3844 112.724 38.458 112.568C38.8567 111.917 39.1836 111.442 39.4386 111.144C40.4947 109.864 41.9104 109.219 43.6856 109.209C45.5264 109.216 46.5624 109.746 46.7939 110.797C46.9859 111.617 47.0045 112.477 46.8498 113.377C46.695 114.277 46.475 115.027 46.1899 115.627C45.9049 116.227 45.5054 117.006 44.9915 117.966C44.4776 118.926 44.112 119.661 43.8948 120.17C43.096 122.008 42.7098 123.097 42.7362 123.437C42.7577 123.714 43.0541 124.087 43.6255 124.556C43.9906 124.849 44.3085 125.017 44.5794 125.06C44.8502 125.103 45.3316 125.033 46.0236 124.851C47.118 124.616 48.2991 124.257 49.5668 123.774C50.0428 123.566 50.733 123.223 51.6374 122.746C52.5419 122.27 53.0939 121.938 53.2934 121.751ZM40.7388 120.447C40.9302 120.432 41.3975 119.561 42.1407 117.835C42.8627 116.11 43.2104 115.077 43.184 114.737C43.1526 114.333 42.9144 114.089 42.4693 114.006C42.0242 113.923 41.6864 114.051 41.456 114.389C41.2631 114.661 41.0801 115.061 40.9071 115.588C40.734 116.115 40.6043 116.649 40.518 117.19C40.4529 117.73 40.3968 118.248 40.3497 118.744C40.3027 119.24 40.3132 119.651 40.3813 119.977C40.4495 120.304 40.5686 120.46 40.7388 120.447Z" fill="#252627"/>
</svg>
