<svg width="194" height="152" viewBox="0 0 194 152" fill="none" xmlns="http://www.w3.org/2000/svg">
<path d="M115.832 79.1812C116.512 78.8399 116.565 80.9011 117.214 80.0182C117.57 79.5085 117.763 79.5244 118.204 79.7876C118.412 78.6415 119.181 80.1091 119.434 79.5624C119.655 79.0841 119.745 78.4532 119.894 77.8697C119.926 77.8014 120.151 77.749 120.209 77.7963C120.295 77.9594 120.304 78.2013 120.421 78.296C120.538 78.3907 120.731 78.4067 120.88 78.4331C120.633 76.9659 121.556 77.056 122.037 77.4927C122.766 78.1768 123.14 77.5409 123.694 77.473C126.18 77.1383 127.847 74.9207 130.076 74.0968C130.333 73.9761 130.491 73.6345 130.662 73.3506C131.343 71.1796 131.343 71.1796 132.734 71.6486C132.779 71.6381 132.689 71.6591 132.644 71.6696C132.649 71.4855 132.622 71.3698 132.671 71.1753C132.658 71.1175 132.865 71.1913 132.968 71.2281C132.905 71.3648 132.887 71.491 132.734 71.6486C132.549 71.8746 132.513 72.1269 132.418 72.3319C132.292 72.6052 132.152 72.8207 132.013 73.0362C132.495 72.863 133.034 73.9571 133.553 72.9217C134.103 71.8179 135.507 71.7348 135.99 70.3418C136.071 70.079 136.652 70.1267 137.147 70.0114C137.192 70.0009 137.102 70.0219 137.057 70.0324C137.062 69.8484 137.035 69.7327 137.085 69.5382C137.071 69.4803 137.278 69.5541 137.382 69.591C137.319 69.7276 137.301 69.8538 137.147 70.0114C137.277 70.7739 137.624 70.6322 137.885 70.3275C138.07 70.1015 138.053 69.6178 138.017 69.2602C137.994 68.9605 137.779 68.6448 137.608 68.3187C137.932 68.4872 138.224 68.724 138.553 68.7085C139.314 68.7143 140.133 68.7675 140.827 68.4841C141.218 68.3319 141.404 67.496 141.8 67.1598C142.088 66.9708 142.795 67.3551 142.89 67.1501C143.489 65.8519 144.417 65.148 145.62 64.8071C145.665 64.7966 145.642 64.4969 145.647 64.3129C145.093 64.3808 144.985 63.918 145.058 63.4133C145.284 62.141 146.292 62.3942 147.044 62.1581C147.008 61.8006 146.829 61.2326 146.995 61.1328C147.27 60.8859 147.644 60.8599 148.017 60.8338C148.107 60.8129 148.377 61.3599 148.314 61.4966C147.949 62.3744 148.093 62.5848 148.89 62.3383C149.462 62.1442 149.683 61.6659 149.656 60.9402C149.481 60.7981 149.247 60.6087 149.044 60.3509C149.031 60.293 149.058 60.4087 149.071 60.4666C148.923 60.4402 148.833 60.4611 148.671 60.3769C148.626 60.3874 148.662 60.135 148.68 60.0088C148.797 60.1036 148.9 60.1405 149.044 60.3509C149.206 60.4351 149.386 60.3932 149.76 60.3672C149.778 60.241 149.616 60.1568 149.454 60.0725C149.517 59.9359 149.612 59.7309 149.702 59.7099C149.882 59.668 150.089 59.7417 150.296 59.8155C150.188 59.9626 150.093 60.1676 149.715 60.3777C149.517 60.5458 149.571 60.7772 149.611 60.9507C151.128 61.1464 151.742 59.296 152.989 58.9447C153.855 57.1576 155.827 57.0645 156.733 55.4509C157.373 54.3262 158.539 54.2377 159.166 53.0551C159.653 52.088 160.621 51.5577 161.342 50.78C161.418 50.7012 161.365 50.4698 161.414 50.2753C160.685 50.2011 160.609 49.67 160.978 49.2181C161.163 48.9922 161.699 49.0504 162.023 49.2189C162.45 49.4243 162.761 49.5349 162.982 49.0566C163.234 48.51 163.473 47.9055 163.771 47.3484C164.527 48.1481 164.55 47.228 164.829 46.7971C165.154 46.3556 165.55 46.0194 165.875 45.578C166.199 45.1366 166.398 44.3585 166.789 44.2063C167.541 43.9703 167.52 43.0606 167.948 42.6561C169.15 41.7053 170.025 40.1601 171.345 39.304C172.043 38.8366 172.458 37.7643 172.971 36.9129C173.409 36.1403 173.742 35.3308 174.076 34.5213C174.378 33.7801 175.117 33.4862 175.1 32.3926C175.077 32.0928 175.604 31.9092 175.879 31.6623C176.109 31.4258 176.298 31.0159 176.492 31.0318C177.208 31.0481 175.935 29.4539 177.073 29.8597C177.235 29.9439 177.763 29.1504 177.709 28.919C177.466 27.8777 178.515 28.3044 178.579 27.5578C178.593 27.0057 178.976 26.6116 179.241 26.1228C179.431 25.7129 179.575 25.3134 179.823 24.9507C179.918 24.7458 180.201 24.7407 180.368 24.6409C180.422 24.8723 180.462 25.0459 180.471 25.2877C180.467 25.4718 180.372 25.6768 180.399 25.7925C181.36 28.4958 181.021 31.3191 181.847 34.0539C182.548 36.4521 183.595 38.7086 184.039 41.2275C184.142 41.8743 184.709 42.4742 185.128 43.0476C185.676 43.7736 186.243 44.3735 186.792 45.0995C186.922 45.2521 187.053 45.4046 187.183 45.5572C187.161 45.2575 187.152 45.0156 187.175 44.7054C187.153 44.4057 187.144 44.1638 187.121 43.8641C187.342 43.9957 187.536 44.0116 187.679 44.2221C188.071 44.6798 188.552 45.1166 188.777 45.6741C189.294 47.0784 189.825 46.7107 190.438 46.0802C190.483 46.0697 190.744 46.3749 190.933 46.5749C191.473 47.059 191.981 47.6115 192.521 48.0956C192.697 48.2377 192.904 48.3115 193.066 48.3957C193.043 48.096 193.035 47.8541 193.012 47.5544C193.003 47.3125 193.026 47.0023 193.017 46.7605C193.175 47.0287 193.332 47.297 193.489 47.5653C193.633 47.7757 193.746 48.0545 193.845 48.2754C193.881 48.023 193.962 47.7602 193.908 47.5288C193.59 45.3465 193.272 43.1642 192.864 41.0028C192.456 38.8414 191.687 36.7639 191.472 34.6185C191.235 32.7833 190.714 30.9531 191.044 29.1078C191.08 28.8554 190.909 28.5293 190.887 28.2296C190.497 25.942 189.927 23.6964 189.834 21.4617C189.785 19.8264 189.422 18.2645 189.148 16.6816C188.92 15.0883 188.736 13.4844 188.611 11.928C188.468 10.4977 188.042 9.07244 188.06 7.7264C188.079 6.38036 187.828 5.09721 187.577 3.81407C187.51 3.52482 187.501 3.28295 187.478 2.98322C187.466 1.09558 187.435 1.16392 185.972 0.589689C184.982 0.210365 184.144 0.283346 183.527 1.09788C182.833 1.99122 181.991 2.24823 181.014 2.53668C180.172 2.79369 179.442 3.32946 178.613 3.64432C177.875 3.93821 176.983 3.7798 176.438 4.69954C176.235 5.05168 175.596 4.95655 175.146 5.06137C172.984 5.56452 170.697 5.73105 168.63 6.63913C164.361 8.48674 159.853 9.10905 155.409 10.2046C153.968 10.5401 152.446 10.5284 150.965 10.6903C150.591 10.7163 150.186 10.8106 149.839 10.9523C148.817 11.2513 150.046 11.636 149.92 11.9094C149.762 12.251 149.429 12.4506 149.271 12.7922C149.113 13.1339 149.099 13.686 148.941 14.0276C148.518 14.8581 148.986 14.6271 149.387 14.7167C149.684 14.7695 149.945 15.0747 150.224 15.2537C150.16 15.3904 150.066 15.5953 150.003 15.732C149.94 15.8687 149.759 15.9106 149.638 15.9999C150.043 16.5155 150.843 17.3048 150.762 17.5676C150.532 18.414 150.518 18.9661 151.328 19.3873C151.873 19.6874 152.471 20.219 153.007 20.2772C154.749 20.4205 156.554 21.037 158.283 20.5125C159.742 20.0509 161.277 20.7304 162.754 20.1426C164.096 19.5862 165.591 19.4822 167.018 19.0889C168.131 18.769 169.221 18.1494 170.319 17.7716C170.455 17.7402 170.689 17.9297 170.851 18.0139C170.729 18.1032 170.607 18.1925 170.544 18.3292C169.656 19.8165 168.606 21.2196 167.894 22.8491C166.613 25.7085 164.622 27.7576 163.139 30.3592C162.093 32.1882 160.912 34.0487 159.534 35.4673C158.11 36.8964 157.006 38.678 155.771 40.3071C155.185 41.0533 154.572 41.6838 153.915 42.3248C153.532 42.7188 152.915 42.9234 152.784 43.3808C152.305 45.1997 150.846 45.6613 149.909 46.7332C149.003 47.7369 148.183 48.9035 146.945 49.4967C146.008 49.9587 145.755 51.7252 144.498 51.8347C142.083 54.7143 138.827 56.0211 136.156 58.4115C134.22 58.8622 133.147 61.1854 131.165 61.6467C131.03 61.6781 130.931 62.0671 130.926 62.2512C131.011 63.0242 130.683 63.0397 130.268 62.8921C130.003 62.771 129.846 62.5027 129.566 62.9337C129.224 63.5013 128.665 63.7532 127.99 63.9105C127.314 64.0677 126.818 64.7929 126.183 65.1237C125.503 65.465 124.711 65.5275 124.004 65.753C123.734 65.8159 123.401 66.0155 123.319 66.2783C123.125 66.8723 123.003 67.5716 122.881 68.2708C123.03 68.2972 123.178 68.3236 123.327 68.35C123.475 68.3764 123.637 68.4607 123.741 68.4975C123.678 68.6342 123.687 68.8761 123.597 68.897C122.903 69.1805 122.264 69.0853 121.796 68.0965C120.806 68.3271 119.86 68.5472 118.869 68.7778C118.464 68.8721 118.162 69.0034 118.324 69.6975C118.351 69.8132 118.283 70.1339 118.193 70.1549C117.666 70.3385 117.157 70.396 116.631 70.5796C116.239 70.7318 116.054 71.5677 115.415 70.8626C115.356 70.8153 114.991 71.0832 114.942 71.2777C114.892 71.4722 115.076 71.8561 115.207 72.0087C115.454 72.256 115.72 72.3772 116.044 72.5457C116.206 72.6299 116.458 72.6932 116.62 72.7775C116.453 72.8772 116.255 73.0454 116.089 73.1451C115.814 73.3921 115.579 73.8125 115.264 73.8859C114.512 74.1219 114.399 74.4531 115.052 75.216C115.169 75.3107 115.191 75.6105 115.141 75.805C115.137 75.989 115.01 76.2623 114.92 76.2833C114.785 76.3147 114.551 76.1253 114.511 75.9517C114.327 74.9578 114.125 74.0901 113.125 74.0788C113.08 74.0893 113.045 73.7317 112.991 73.5003C113.171 73.4584 113.319 73.4848 113.486 73.385C113.621 73.3536 113.743 73.2643 113.864 73.175C113.721 72.9646 113.613 72.5018 113.464 72.4754C112.721 72.3434 111.992 72.2692 111.303 72.3686C111.065 72.3632 110.489 72.1314 110.574 72.9044C111.443 72.7631 110.235 74.5078 111.334 74.1301C111.379 74.1196 111.536 74.3879 111.621 74.5509C111.185 74.7136 110.761 74.9341 111.085 75.7125C110.905 75.7545 110.725 75.7964 110.608 75.7017C110.14 75.3227 109.658 74.8859 109.113 75.1958C108.974 75.4112 108.789 75.6372 108.708 75.9C108.613 76.105 108.577 76.3574 108.775 76.7992C108.918 77.0096 108.743 76.8675 108.536 76.7938C108.599 76.6571 108.649 76.4626 108.707 76.51C108.946 76.5154 109.211 76.6365 109.463 76.6998C109.342 76.7891 109.279 76.9258 108.833 76.8466C108.32 76.4781 108.086 76.2887 107.906 76.3306C107.366 76.4564 106.802 76.8924 106.253 76.7763C105.614 76.6811 105.016 76.1496 104.368 75.8126C104.309 75.7653 104.228 76.0281 104.106 76.1174C103.233 76.4427 102.642 77.373 101.485 77.0934C101.026 76.9564 100.517 77.6238 100.03 77.9809C99.9855 77.9914 100.093 78.4542 100.21 78.5489C100.444 78.7384 100.755 78.8491 101.065 78.9597C101.362 79.0125 101.646 79.0075 101.943 79.0603C101.79 79.2179 101.547 79.3965 101.407 79.612C101.407 79.612 101.591 79.9959 101.695 80.0328C102.095 80.1225 102.56 79.4656 102.82 80.3807C103.527 80.1551 104.45 80.2452 104.851 79.725C105.622 78.7528 105.729 79.8255 107.12 80.2945C107.637 80.479 107.111 80.6626 106.602 80.7201C106.467 80.7515 106.296 80.4254 106.107 80.2254C106.292 79.9995 106.603 79.5002 106.661 79.5476C107.669 80.4106 108.44 79.4385 109.304 79.4812C109.452 79.5076 109.569 79.6023 109.718 79.6287C109.655 79.7654 109.605 79.9599 109.47 79.9914C109.033 80.154 108.57 80.201 107.106 80.2367C105.193 80.3772 104.351 80.6342 103.482 80.7755C103.302 80.8175 103.041 80.5123 102.807 80.3228C102.505 80.4541 101.974 80.2118 102.014 80.9953C102.023 81.2372 102.013 81.6052 101.937 81.684C101.784 81.8416 101.231 80.6897 101.306 81.8308C101.333 82.5564 101.801 82.3254 102.175 82.2994C103.103 82.2054 103.936 81.7066 105.043 82.1806C105.885 82.5335 106.826 81.8875 107.866 82.0723C108.861 82.2676 110.005 81.8794 111.108 81.9275C111.153 81.9171 111.13 81.6173 111.135 81.4333C111.045 81.4543 110.91 81.4857 110.91 81.4857C110.411 80.5652 109.73 81.5164 109.19 81.0322C109.511 80.1649 110.307 80.5283 110.866 80.2763C111.244 80.0663 111.262 79.9401 110.898 79.5981C110.709 79.3981 110.659 78.9827 110.637 78.683C110.624 78.6251 111.151 78.4415 111.164 78.4993C111.393 78.8728 112.262 78.7315 111.807 79.6303C111.618 80.0403 112.626 80.2934 112.045 80.8556C112.252 80.9294 112.499 81.1767 112.679 81.1348C112.981 81.0035 114.17 80.6048 114.422 80.6681C115.075 80.8211 115.142 80.5004 115.057 79.7274C114.847 78.6178 114.937 78.5968 115.832 79.1812ZM126.42 68.7887C126.375 68.7992 126.284 68.8202 126.239 68.8307C126.244 68.6466 126.217 68.531 126.267 68.3364C126.253 68.2786 126.46 68.3524 126.564 68.3892C126.501 68.5259 126.483 68.6521 125.915 69.2721C125.978 69.1354 125.996 69.0093 126.059 68.8726C126.118 68.92 126.235 69.0147 126.293 69.0621C126.23 69.1987 126.154 69.2775 126.077 69.3564C126.045 69.4247 125.973 69.3195 126.42 68.7887ZM123.812 69.8226C123.307 70.306 123.001 70.6212 122.681 70.8786C122.537 70.6682 122.348 70.4683 122.295 70.2369C122.223 69.5217 122.741 69.7061 123.042 69.5749C123.177 69.5435 123.398 69.6751 123.812 69.8226ZM129.708 65.5838C129.483 65.6362 129.272 65.7465 129.033 65.7411C128.988 65.7515 128.889 65.5306 128.817 65.4254C129.357 65.2996 129.898 65.1738 130.483 65.0376C130.465 65.1638 130.474 65.4056 130.384 65.4266C130.172 65.5369 129.933 65.5314 129.708 65.5838ZM153.994 56.9422C153.697 56.8893 153.549 56.8629 153.387 56.7787C153.342 56.7892 153.301 56.6156 153.346 56.6051C153.549 56.253 153.766 55.9587 153.982 55.6644C154.058 55.5856 154.234 55.7277 154.382 55.7541C154.382 55.7541 154.468 55.9172 154.423 55.9277C154.324 56.3167 154.121 56.6688 153.994 56.9422ZM121.821 71.2618C121.285 71.2036 120.988 71.1508 120.705 71.1558C120.813 71.0087 120.894 70.7458 121.029 70.7144C121.299 70.6515 121.596 70.7043 121.88 70.6992C121.83 70.8938 121.794 71.1461 121.821 71.2618ZM145.213 54.2908C145.059 54.4484 144.875 54.6743 144.663 54.7846C144.573 54.8056 144.397 54.6635 144.235 54.5792C144.452 54.2849 144.61 53.9433 144.826 53.649C144.956 53.8016 145.028 53.9068 145.213 54.2908ZM104.524 77.3008C104.483 77.7372 104.465 77.8633 104.461 78.0474C104.168 77.8105 103.844 77.642 103.552 77.4052C103.66 77.2581 103.754 77.0531 103.858 77.09C104.052 77.1059 104.317 77.227 104.524 77.3008ZM117.63 77.726C117.094 77.6678 116.797 77.615 116.513 77.62C116.621 77.4729 116.703 77.21 116.838 77.1786C117.108 77.1157 117.405 77.1685 117.689 77.1635C117.639 77.358 117.603 77.6103 117.63 77.726ZM118.7 72.5372C118.345 72.437 118.241 72.4001 118.093 72.3737C118.25 72.0321 118.35 71.643 118.507 71.3014C118.638 71.454 118.813 71.5961 118.795 71.7222C118.804 71.9641 118.723 72.227 118.7 72.5372ZM112.097 77.0015C111.985 76.7228 111.872 76.444 111.818 76.2126C111.805 76.1548 111.958 75.9971 112.035 75.9183C112.134 76.1392 112.291 76.4075 112.345 76.6389C112.358 76.6967 112.192 76.7965 112.097 77.0015ZM119.993 71.5654C119.804 71.3655 119.629 71.2234 119.602 71.1077C119.548 70.8763 119.629 70.6134 119.665 70.3611C119.796 70.5136 119.958 70.5979 119.998 70.7714C120.052 71.0028 120.016 71.2552 119.993 71.5654ZM131.758 63.5821C131.731 64.0763 131.713 64.2025 131.708 64.3865C131.578 64.2339 131.416 64.1497 131.317 63.9288C131.245 63.8235 131.339 63.6186 131.344 63.4345C131.506 63.5188 131.668 63.603 131.758 63.5821ZM128.095 74.5581C127.933 74.4738 127.726 74.4 127.519 74.3263C127.627 74.1791 127.677 73.9846 127.812 73.9532C127.992 73.9112 128.212 74.0429 128.419 74.1166C128.311 74.2638 128.235 74.3426 128.095 74.5581ZM127.046 74.7413C126.839 74.6675 126.632 74.5938 126.618 74.5359C126.564 74.3045 126.587 73.9943 126.578 73.7524C126.682 73.7893 126.875 73.8052 126.902 73.9209C127.001 74.1419 126.965 74.3942 127.046 74.7413ZM118.995 76.2495C119.026 76.1812 119.058 76.1129 119.121 75.9762C119.193 76.0814 119.31 76.1762 119.35 76.3497C119.364 76.4076 119.287 76.4864 119.256 76.5547C119.139 76.46 119.067 76.3548 118.995 76.2495ZM114.784 77.5346C114.681 77.4977 114.577 77.4608 114.46 77.3661C114.492 77.2978 114.51 77.1716 114.555 77.1611C114.659 77.198 114.762 77.2349 114.911 77.2613C114.834 77.3401 114.802 77.4084 114.784 77.5346ZM141.032 65.0823C141.063 65.014 141.081 64.8878 141.126 64.8773C141.23 64.9142 141.333 64.9511 141.482 64.9775C141.45 65.0458 141.432 65.172 141.387 65.1825C141.252 65.2139 141.135 65.1192 141.032 65.0823ZM152.779 57.2252C152.837 57.2725 152.896 57.3199 153.013 57.4146C152.936 57.4934 152.873 57.6301 152.738 57.6616C152.693 57.672 152.621 57.5668 152.562 57.5195C152.639 57.4406 152.716 57.3618 152.779 57.2252ZM128.816 73.1705C128.92 73.2074 129.023 73.2443 129.14 73.339C129.109 73.4073 129.091 73.5335 129.045 73.544C128.942 73.5071 128.838 73.4702 128.69 73.4438C128.766 73.365 128.798 73.2967 128.816 73.1705ZM127.308 66.0815C127.205 66.0447 127.101 66.0078 126.984 65.913C127.016 65.8447 127.034 65.7185 127.079 65.708C127.183 65.7449 127.286 65.7818 127.435 65.8082C127.358 65.887 127.326 65.9554 127.308 66.0815ZM132.153 65.0756C132.257 65.1125 132.36 65.1494 132.477 65.2441C132.446 65.3125 132.428 65.4387 132.383 65.4491C132.279 65.4123 132.176 65.3754 132.027 65.349C132.104 65.2701 132.135 65.2018 132.153 65.0756ZM131.723 62.6146C131.619 62.5777 131.516 62.5408 131.399 62.4461C131.43 62.3777 131.448 62.2516 131.494 62.2411C131.597 62.278 131.701 62.3148 131.849 62.3412C131.773 62.4201 131.741 62.4884 131.723 62.6146Z" fill="#252627"/>
<path d="M110.46 73.8457C109.907 73.9137 109.528 74.1237 109.218 74.0131C108.628 73.7234 108.232 73.4497 108.501 74.6067C108.569 74.8959 108.533 75.1483 108.51 75.4585C108.735 75.4061 109.154 75.3696 109.14 75.3117C109.015 74.3652 109.721 74.7496 110.041 74.4921C110.194 74.3345 110.244 74.14 110.46 73.8457Z" fill="#252627"/>
<path d="M145.602 64.3235C146.381 64.2031 147.16 64.0828 147.134 62.7472C146.355 62.8676 145.531 62.9984 145.602 64.3235Z" fill="#252627"/>
<path d="M107.488 75.7573C107.542 75.3787 107.655 75.0476 107.619 74.69C107.61 74.4481 107.408 74.1903 107.309 73.9694C107.146 74.4951 107.015 74.9524 106.853 75.4781C107.015 75.5624 107.164 75.5888 107.488 75.7573Z" fill="#252627"/>
<path d="M130.603 73.3034C131.242 74.0085 131.693 73.9037 131.954 72.989C131.504 73.0938 131.054 73.1986 130.603 73.3034Z" fill="#252627"/>
<path d="M122.152 68.1968C122.076 67.6657 122.053 67.366 121.973 67.0189C121.959 66.961 121.779 67.003 121.676 66.9661C121.684 67.2079 121.707 67.5077 121.761 67.7391C121.742 67.8652 121.859 67.96 122.152 68.1968Z" fill="#252627"/>
<path d="M114.689 71.8244C114.586 71.7876 114.437 71.7612 114.23 71.6874C114.226 71.8714 114.131 72.0764 114.203 72.1816C114.288 72.3447 114.464 72.4868 114.594 72.6394C114.612 72.5132 114.617 72.3292 114.689 71.8244Z" fill="#252627"/>
<path d="M111.329 81.4493C111.392 81.3126 111.41 81.1864 111.473 81.0498C111.369 81.0129 111.176 80.997 111.176 80.997C111.113 81.1336 111.153 81.3072 111.148 81.4912C111.193 81.4807 111.283 81.4598 111.329 81.4493Z" fill="#252627"/>
<path d="M115.463 79.6331C115.521 79.6805 115.638 79.7752 115.638 79.7752C115.715 79.6964 115.778 79.5598 115.855 79.4809C115.796 79.4336 115.679 79.3388 115.621 79.2915C115.589 79.3598 115.526 79.4965 115.463 79.6331Z" fill="#252627"/>
<path d="M147.134 62.7472C147.242 62.6001 147.35 62.4531 147.4 62.2586C147.251 62.2322 147.103 62.2058 146.999 62.1689C147.04 62.3425 147.093 62.5737 147.134 62.7472Z" fill="#252627"/>
<path d="M22.2661 64.8665C22.7043 64.4473 23.1017 64.2613 23.4585 64.3085C23.8152 64.3557 24.0167 64.6771 24.0629 65.2726C24.0778 65.464 24.0501 65.6588 23.9799 65.8568C23.9097 66.0548 23.8268 66.2271 23.7311 66.3736C23.6355 66.5201 23.4884 66.692 23.2897 66.8893C23.0911 67.0866 22.9366 67.2324 22.8262 67.3265C22.7158 67.4207 22.5445 67.557 22.3123 67.7355C22.0801 67.914 21.9337 68.027 21.8732 68.0745C21.4105 68.4528 20.9108 68.7698 20.3744 69.0254C19.9851 69.2482 19.2617 69.5077 18.2041 69.8038C17.1465 70.0999 16.3093 70.2719 15.6925 70.3197C15.182 70.3594 14.4559 70.2392 13.5141 69.9593C12.5722 69.6794 11.7654 69.4157 11.0936 69.1683C10.4217 68.9209 10.0883 68.8291 10.0932 68.8929C10.0932 68.8929 10.0188 68.8987 9.86991 68.9103C9.72103 68.9218 9.55537 68.924 9.37293 68.9168C9.19049 68.9095 8.93778 69.0308 8.61481 69.2805C8.29184 69.5303 7.96774 69.9032 7.64249 70.3992C7.16196 71.0998 6.75317 72.0356 6.41614 73.2065C6.07911 74.3775 5.83708 75.1184 5.69004 75.4294C5.51038 75.8713 5.33035 76.3774 5.14996 76.9478C4.96958 77.5181 4.7879 78.003 4.60493 78.4023C4.42197 78.8017 4.16621 79.2281 3.83766 79.6816C3.54835 80.0892 3.3166 80.3426 3.14242 80.4417C2.96823 80.5408 2.66184 80.5218 2.22324 80.3847C1.69792 80.2329 1.29262 79.7668 1.00736 78.9866C0.722106 78.2063 0.630798 77.5127 0.733442 76.9056C0.790443 76.5374 1.00279 76.0341 1.37047 75.3957C1.73815 74.7573 1.96443 74.2958 2.04931 74.011C2.1505 73.6608 2.24912 73.1396 2.34516 72.4474C2.44119 71.7552 2.53165 71.2668 2.61653 70.982C2.73073 70.5238 2.9581 69.8696 3.29864 69.0193C3.63917 68.1691 3.86819 67.5361 3.9857 67.1204C4.15215 66.5084 4.24937 65.7626 4.27737 64.8831C4.30538 64.0036 4.35795 63.1651 4.43509 62.3674C4.51224 61.5697 4.70765 60.8484 5.02134 60.2035C5.05727 60.1151 5.11158 59.9879 5.18427 59.8217C5.25697 59.6556 5.32516 59.5005 5.38887 59.3565C5.45258 59.2125 5.53059 59.0459 5.6229 58.8569C5.71521 58.6678 5.80385 58.5005 5.88883 58.3548C5.9738 58.2091 6.06818 58.0466 6.17195 57.8674C6.27572 57.6882 6.38114 57.5302 6.48821 57.3935C6.59528 57.2568 6.70808 57.125 6.82662 56.9981C6.94515 56.8712 7.07024 56.7599 7.20188 56.6641C7.33353 56.5682 7.46151 56.4941 7.58582 56.4417C8.335 56.1695 8.89915 56.2702 9.27827 56.7436C9.65739 57.217 9.67947 57.7769 9.34451 58.4235C8.86253 59.381 8.77858 59.8155 9.09266 59.7269C9.40344 59.5958 9.89234 59.1405 10.5593 58.3612C11.3441 57.4444 12.0913 56.7338 12.801 56.2293C13.5108 55.7248 14.3482 55.3496 15.3134 55.1034C16.236 54.8606 16.7162 54.7056 16.7537 54.6385C16.8372 54.6107 16.9264 54.6572 17.0214 54.7782C17.1163 54.8992 17.2155 55.0734 17.3187 55.3008C17.4007 55.5298 17.4851 55.7907 17.5721 56.0835C17.6394 56.3993 17.7067 56.715 17.774 57.0307C17.8413 57.3465 17.8865 57.6532 17.9096 57.951C18.1179 60.9091 17.842 62.867 17.0819 63.8247C16.6127 64.3961 16.2588 64.9371 16.0203 65.4478C15.9501 65.6458 15.859 65.7812 15.747 65.8541C15.6349 65.927 15.5413 65.961 15.466 65.9562C15.3908 65.9513 15.2803 65.976 15.1347 66.0301C14.9892 66.0842 14.8698 66.2004 14.7767 66.3788C14.5037 66.721 14.197 66.9053 13.8567 66.9317C13.5819 66.9744 13.2367 67.1457 12.8214 67.4454C12.406 67.7451 12.2049 67.98 12.2181 68.1502C12.2231 68.214 12.3413 68.2904 12.5729 68.3794C12.8045 68.4684 13.0835 68.5484 13.41 68.6193C13.7365 68.6903 14.0724 68.7444 14.4176 68.7818C14.7629 68.8192 15.0525 68.8288 15.2865 68.8107C15.648 68.7826 16.0799 68.6955 16.5821 68.5496C16.767 68.4496 16.9939 68.3411 17.263 68.2239C17.532 68.1067 17.7802 67.9965 18.0076 67.8932C18.235 67.79 18.4198 67.6901 18.5621 67.5934C20.1337 66.6155 21.3684 65.7065 22.2661 64.8665ZM9.55996 64.505C9.63388 64.9059 9.83417 65.2808 10.1608 65.6299C10.4875 65.979 10.7891 66.1428 11.0656 66.1213C11.5548 66.0834 12.2756 65.5834 13.228 64.6214C14.1804 63.6595 14.7611 62.8708 14.97 62.2555C15.1937 61.5534 15.2901 60.797 15.2592 59.9863C15.2284 59.1756 15.0672 58.5462 14.7756 58.0981C14.4857 57.6712 14.2213 57.5045 13.9825 57.5979C13.7437 57.6914 13.2311 58.1859 12.4448 59.0814C11.6927 59.8674 11.0139 60.8402 10.4086 61.9998C9.80319 63.1595 9.52032 63.9946 9.55996 64.505ZM52.9657 63.9271C53.3827 63.5096 53.7584 63.3199 54.0931 63.3581C54.4277 63.3963 54.6288 63.7124 54.6963 64.3063C54.7095 64.4764 54.681 64.6605 54.6108 64.8585C54.5406 65.0566 54.4572 65.2235 54.3608 65.3594C54.2644 65.4953 54.1217 65.6561 53.9329 65.842C53.744 66.0278 53.5997 66.1674 53.5 66.2607C53.4002 66.3541 53.2392 66.4843 53.0168 66.6513C52.7944 66.8184 52.6529 66.9256 52.5924 66.9731C52.1296 67.3514 51.6513 67.6667 51.1573 67.9191C51.0952 67.9453 50.993 68.0067 50.8507 68.1034C50.3423 68.7206 49.8722 69.1422 49.4404 69.3683C49.0511 69.5911 48.517 69.7396 47.838 69.8137C47.1527 70.0809 46.6733 70.1074 46.3999 69.8933C46.3344 69.877 46.098 69.8632 45.6906 69.8521C45.2831 69.8409 45.0103 69.8407 44.8721 69.8514C44.7338 69.8622 44.5105 69.8795 44.2021 69.9035C43.8937 69.9274 43.6352 69.9742 43.4266 70.0439C43.2181 70.1136 43.0116 70.2099 42.8071 70.3327C42.5635 70.5014 42.2289 70.6023 41.8035 70.6353C41.3978 70.6455 40.6893 70.6149 39.6781 70.5436C38.9696 70.513 38.3691 70.4955 37.8766 70.4909C37.7686 70.4779 37.6512 70.4817 37.5244 70.5022C37.3976 70.5228 37.2589 70.5282 37.1084 70.5185C36.9579 70.5088 36.849 70.4851 36.7819 70.4475C36.5364 70.3168 36.2161 69.7746 35.8211 68.821C35.7458 68.6771 35.6654 68.4693 35.5802 68.1978C35.3757 68.3207 35.2531 68.3944 35.2122 68.419C35.1517 68.4664 35.0707 68.5262 34.9693 68.5983C34.5198 69.1467 34.1004 69.5324 33.7111 69.7552C33.3611 69.9321 32.8891 70.0544 32.2953 70.1219C31.672 70.3628 31.2352 70.3861 30.9847 70.1915C30.9209 70.1965 30.7119 70.1913 30.3576 70.176C30.0034 70.1607 29.7625 70.1581 29.6348 70.168C29.5072 70.1779 29.3105 70.1931 29.0446 70.2138C28.7788 70.2344 28.5522 70.2788 28.3649 70.3468C28.1776 70.4149 27.9915 70.4988 27.8067 70.5988C27.5843 70.7658 27.2915 70.8528 26.9283 70.8596C26.5667 70.8876 25.9335 70.8619 25.0286 70.7824C24.4052 70.7452 23.8685 70.7227 23.4185 70.7148C23.3122 70.7231 23.2058 70.7313 23.0995 70.7396C22.9931 70.7479 22.8757 70.7516 22.7473 70.7509C22.6189 70.7502 22.5211 70.731 22.454 70.6934C22.2314 70.5823 21.9365 70.0917 21.5694 69.2215C21.3825 68.7439 21.2471 68.2408 21.1633 67.7124C21.1255 67.5014 21.1115 67.3206 21.1212 67.17C21.1716 66.7168 21.299 66.4287 21.5035 66.3059C21.564 66.2584 21.6936 66.2055 21.8923 66.1473C22.0911 66.089 22.2297 66.0141 22.3082 65.9224C22.4684 65.7816 22.5902 65.5582 22.6734 65.2521C22.755 64.9248 22.7932 64.5902 22.788 64.2482C22.7878 63.9701 22.8049 63.7762 22.8391 63.6665C22.8947 63.5552 23.0239 63.4275 23.2266 63.2834C23.4294 63.1393 23.5406 63.0557 23.5603 63.0328C23.7597 62.8461 23.9207 62.5769 24.0432 62.225C24.1167 62.0695 24.2366 61.5467 24.4028 60.6565C24.5185 59.9414 24.6235 59.2271 24.7179 58.5136C24.7893 57.7806 24.8282 57.1784 24.8344 56.7072C24.8303 55.552 24.9001 54.8672 25.044 54.6528C25.1878 54.4384 25.4728 54.3199 25.899 54.2975C26.3253 54.2751 26.7061 54.3579 27.0417 54.5458C27.1988 54.6406 27.3442 54.7898 27.4776 54.9934C27.6111 55.197 27.7111 55.3819 27.7775 55.5479C27.8439 55.7139 27.9307 55.9372 28.0381 56.2177C28.1455 56.4982 28.2139 56.6909 28.2435 56.7955C28.6614 57.7688 28.977 58.6644 29.1903 59.4823C29.2805 59.8177 29.3823 60.3019 29.4957 60.935C29.609 61.5682 29.7338 62.1416 29.87 62.6552C30.0061 63.1689 30.1652 63.6326 30.3471 64.0465C30.7093 64.8528 30.8726 65.5784 30.8371 66.2231C30.8259 66.6305 30.8286 67.0101 30.8452 67.3618C30.8619 67.7136 30.9958 67.9921 31.2471 68.1972C31.4984 68.4024 31.8564 68.4655 32.321 68.3867C32.6384 68.3406 32.9602 68.214 33.2865 68.0068C33.6128 67.7996 33.8503 67.6207 33.9991 67.47C34.1479 67.3194 34.3907 67.0705 34.7275 66.7234C34.8256 66.6088 35.0447 66.3992 35.3848 66.0946C35.4713 65.8311 35.5759 65.6625 35.6985 65.5888C35.7787 65.5184 35.9243 65.4643 36.1353 65.4265C36.4967 65.1203 36.7272 64.9205 36.827 64.8272C36.8253 64.8059 36.8449 64.783 36.8858 64.7584C36.9071 64.7568 36.9169 64.7453 36.9153 64.724C36.9708 64.6127 37.0059 64.5137 37.0206 64.427C37.1201 64.0555 37.1665 63.6881 37.1597 63.3249C37.1562 63.0042 37.1822 62.7882 37.2377 62.6769C37.2916 62.5443 37.4302 62.3998 37.6534 62.2434C37.8767 62.087 37.9981 61.9973 38.0177 61.9744C38.2564 61.7419 38.4468 61.4383 38.5889 61.0635C38.6608 60.8867 38.7872 60.3099 38.9681 59.3329C39.1213 58.5507 39.2418 57.7603 39.3296 56.9618C39.4174 56.1633 39.4717 55.4851 39.4926 54.9271C39.4786 53.6443 39.5533 52.8843 39.7167 52.6469C39.8802 52.4095 40.2016 52.2776 40.681 52.2511C41.1604 52.2245 41.5908 52.3249 41.9721 52.552C42.1522 52.6664 42.3147 52.8303 42.4597 53.0438C42.6046 53.2572 42.7164 53.4571 42.7951 53.6436C42.8738 53.8301 42.9738 54.0844 43.0951 54.4067C43.2164 54.7289 43.291 54.9317 43.3189 55.0152C43.7892 56.1127 44.1344 57.113 44.3543 58.016C44.4691 58.3923 44.5914 58.9337 44.7211 59.6405C44.8509 60.3472 44.9908 60.9783 45.141 61.5337C45.2911 62.089 45.4702 62.6047 45.6783 63.0807C46.0897 63.9689 46.2702 64.7786 46.22 65.5101C46.1892 65.9404 46.1891 66.3523 46.2197 66.7458C46.2502 67.1393 46.4079 67.448 46.6928 67.672C46.9777 67.8959 47.3737 67.9668 47.8808 67.8846C48.2408 67.8353 48.6043 67.6947 48.9715 67.4629C49.3386 67.2311 49.6068 67.0338 49.776 66.8709C49.9453 66.7079 50.2179 66.43 50.5939 66.037C50.8899 65.7145 51.3391 65.2998 51.9417 64.793C52.5443 64.2861 52.8856 63.9975 52.9657 63.9271ZM27.0191 67.4824C27.8125 67.2282 28.2588 66.7763 28.3582 66.1267C28.4575 65.477 28.2187 64.4685 27.6418 63.101C27.0894 61.7745 26.7601 61.1153 26.6537 61.1236C26.5261 61.1335 26.4298 61.4085 26.3647 61.9484C26.2947 62.4246 26.1935 62.7749 26.0611 62.9991C25.852 63.3363 25.553 64.0335 25.1644 65.0908C24.7757 66.1481 24.6183 66.738 24.692 66.8607C24.787 66.9817 24.9785 67.1059 25.2665 67.2333C25.5546 67.3607 25.8611 67.4493 26.1859 67.499C26.5107 67.5486 26.7884 67.5431 27.0191 67.4824ZM41.9285 66.8704C42.8282 66.6079 43.3301 66.1143 43.4343 65.3894C43.5385 64.6644 43.2743 63.5348 42.6416 62.0006C42.0155 60.5513 41.6387 59.8317 41.5111 59.8416C41.3622 59.8532 41.2675 60.1494 41.227 60.7302C41.1407 61.2719 41.0215 61.6663 40.8695 61.9135C40.6424 62.2949 40.3067 63.0698 39.8625 64.2384C39.397 65.4086 39.2118 66.0542 39.3068 66.1752C39.4247 66.3159 39.6444 66.4593 39.9661 66.6055C40.2877 66.7517 40.6326 66.8533 41.0008 66.9103C41.3689 66.9673 41.6782 66.954 41.9285 66.8704ZM68.8829 62.0172C69.3457 61.6389 69.7517 61.495 70.1011 61.5856C70.4505 61.6761 70.6271 62.0208 70.6308 62.6197C70.6211 62.7702 70.5852 62.9281 70.5231 63.0934C70.4611 63.2587 70.3712 63.4101 70.2535 63.5477C70.1358 63.6852 70.0226 63.8117 69.9138 63.9271C69.8051 64.0425 69.6596 64.1662 69.4772 64.298C69.2949 64.4298 69.1424 64.5326 69.0197 64.6063C68.8971 64.6801 68.7388 64.7779 68.545 64.9C68.3512 65.022 68.2241 65.1068 68.1636 65.1543C67.6533 65.472 67.1177 65.7383 66.5566 65.9531C66.537 65.976 66.2892 66.161 65.8133 66.5083C65.3375 66.8555 64.7949 67.24 64.1858 67.6617C63.5766 68.0835 63.0749 68.3739 62.6807 68.5329C62.1425 68.7672 61.5798 68.9607 60.9925 69.1133C60.4053 69.2659 59.7832 69.3837 59.1263 69.4668C58.4694 69.5499 57.8313 69.5299 57.2119 69.4068C56.5925 69.2837 56.0676 69.0677 55.637 68.7588C55.1132 68.3501 54.6669 67.7696 54.2982 67.0172C53.9295 66.2648 53.6622 65.4404 53.4963 64.5439C53.3304 63.6474 53.2169 62.8056 53.1558 62.0187C53.0947 61.2317 53.068 60.4742 53.0756 59.746C53.0886 59.638 53.1403 58.7193 53.2307 56.9898C53.3211 55.2602 53.4033 53.5635 53.4774 51.8994L53.5885 49.4033C53.3217 49.2742 52.8349 49.205 52.1281 49.1957C51.701 49.2075 51.265 49.2414 50.82 49.2973C49.7778 49.3782 49.0415 49.4033 48.6112 49.3725C48.5245 49.3579 48.4013 49.3567 48.2418 49.3691C48.0823 49.3815 47.9228 49.3939 47.7633 49.4063C47.6037 49.4187 47.4442 49.431 47.2847 49.4434C47.1252 49.4558 46.9963 49.4498 46.8981 49.4253C46.7999 49.4008 46.7377 49.3575 46.7115 49.2954C46.6425 48.9583 46.7618 48.703 47.0693 48.5294C47.0889 48.5064 47.2254 48.4049 47.4789 48.2247C47.7324 48.0446 47.9969 47.8689 48.2725 47.6977C48.5481 47.5265 48.9259 47.3635 49.406 47.2085C49.8862 47.0535 50.3823 46.9669 50.8944 46.9485C52.5011 46.9735 53.4992 46.9442 53.8886 46.8604C54.2779 46.7767 54.6483 46.5179 54.9998 46.0841C55.5328 45.5078 56.1903 44.0552 56.9724 41.7263C57.0083 41.6379 57.0622 41.5054 57.134 41.3286C57.4296 40.4498 57.6753 39.7566 57.8713 39.2493C58.0673 38.7419 58.3486 38.0942 58.7154 37.3061C59.0822 36.518 59.5009 35.8489 59.9718 35.2988C60.4426 34.7487 60.9438 34.314 61.4753 33.9945C63.1959 33.005 64.0933 32.9888 64.1676 33.9459C64.2106 34.4989 63.8924 35.7754 63.2132 37.7753C63.0205 38.3252 62.8826 38.7532 62.7994 39.0592C62.7015 39.452 62.6306 39.9175 62.5868 40.4559C62.5431 40.9942 62.3823 41.5416 62.1045 42.0981C61.6634 43.0311 61.2967 43.8192 61.0043 44.4624C60.6563 45.2169 60.5404 45.6539 60.6567 45.7732C60.7763 45.9351 61.8652 46.0432 63.9236 46.0973C65.3602 46.1355 66.2368 46.1959 66.5535 46.2783C66.8702 46.3607 67.0188 46.5524 66.9994 46.8535C66.9882 47.2609 66.7674 47.4492 66.3371 47.4184C66.1653 47.4104 65.8242 47.4262 65.3137 47.4658C64.8049 47.5267 64.2331 47.6032 63.5983 47.6953C62.9635 47.7874 62.3091 47.9024 61.6351 48.0403C60.9824 48.1766 60.4343 48.2833 59.991 48.3605C59.7603 48.4212 59.5048 49.1258 59.2243 50.4742C58.9439 51.8227 58.6481 53.4558 58.3369 55.3736C58.0258 57.2915 57.7887 58.5777 57.6255 59.2323C56.7935 62.5707 57.1051 64.7933 58.5605 65.8999C59.2202 66.405 59.8152 66.6263 60.3452 66.5637C60.6643 66.539 61.0061 66.3947 61.3708 66.131C61.428 66.041 61.6361 65.8965 61.9951 65.6974C62.3541 65.4984 62.725 65.3144 63.1077 65.1456C63.4905 64.9768 63.8835 64.8019 64.2867 64.6208C64.6898 64.4397 64.9021 64.3483 64.9233 64.3467C66.572 63.5339 67.8919 62.7574 68.8829 62.0172ZM72.3795 63.9924C72.1357 63.883 72.0666 63.4069 72.1724 62.5642C72.2781 61.7214 72.5223 61.1461 72.9049 60.8383C73.2614 60.4682 73.8188 60.2752 74.5771 60.2591C75.3355 60.243 76.0461 60.3697 76.7089 60.6392C77.3964 60.9496 77.7811 61.2193 77.863 61.4483C77.945 61.6773 77.8489 62.2304 77.5746 63.1076C77.2399 64.0323 76.8759 64.649 76.4826 64.9577C76.0893 65.2664 75.4337 65.435 74.5158 65.4634C73.4703 65.5018 72.9302 65.2977 72.8956 64.851C72.8609 64.4044 72.6889 64.1182 72.3795 63.9924ZM28.3136 116.297C28.7502 115.856 29.1468 115.66 29.5035 115.707C29.8603 115.754 30.0617 116.075 30.108 116.671C30.1212 116.841 30.1074 117.008 30.0666 117.172C30.0258 117.335 29.958 117.496 29.8633 117.653C29.7685 117.81 29.6671 117.952 29.5592 118.078C29.4513 118.204 29.3119 118.338 29.1411 118.479C28.9702 118.621 28.8349 118.738 28.7351 118.832C28.6354 118.925 28.4948 119.043 28.3132 119.185C28.1317 119.328 28.0107 119.423 27.9502 119.47C27.929 119.472 27.8979 119.485 27.857 119.51C27.8161 119.534 27.7965 119.557 27.7981 119.578C27.7376 119.626 27.6571 119.691 27.5565 119.774C27.456 119.856 27.3852 119.91 27.3443 119.935C26.6608 120.501 26.0394 120.903 25.48 121.139C24.9172 121.332 24.2138 121.504 23.3696 121.655C21.2183 122.058 19.5631 121.684 18.4038 120.533C17.2445 119.381 16.3144 117.186 15.6134 113.945C15.4049 112.912 15.2262 112.402 15.0773 112.414C14.9497 112.424 14.2409 113.078 12.9509 114.376C12.22 115.16 11.701 115.778 11.3937 116.23C11.2368 116.414 11.1052 116.649 10.9991 116.935C10.8929 117.221 10.7909 117.561 10.693 117.954C10.5951 118.346 10.5192 118.609 10.4653 118.742C10.4131 118.896 10.2915 119.258 10.1004 119.829L9.71354 121.047C9.64332 121.245 9.61451 121.563 9.62709 122C9.63968 122.438 9.58676 122.79 9.46833 123.056C9.34989 123.322 9.10173 123.502 8.72384 123.595C7.98767 123.759 7.32399 123.479 6.7328 122.755C6.35616 122.313 6.14812 121.976 6.10869 121.744C6.06925 121.512 6.15238 121.067 6.35806 120.409C6.41196 120.276 6.45523 120.144 6.48786 120.013C6.52214 119.904 6.57599 119.702 6.6494 119.407C6.72282 119.113 6.77177 118.916 6.79624 118.818C6.82071 118.72 6.86599 118.545 6.93207 118.294C6.99816 118.043 7.05283 117.851 7.0961 117.719C7.13936 117.588 7.19528 117.412 7.26384 117.193C7.3324 116.974 7.39812 116.787 7.461 116.632C7.52389 116.477 7.59575 116.301 7.6766 116.102C7.75745 115.903 7.84361 115.704 7.9351 115.504C8.28306 114.749 8.49986 113.614 8.58549 112.099C8.67112 110.584 8.73758 109.718 8.78487 109.5C9.02919 107.962 9.57409 105.748 10.4196 102.858C10.5697 102.311 10.7307 101.491 10.9025 100.397C11.0743 99.3029 11.252 98.2834 11.4353 97.3384C11.6187 96.3934 11.8639 95.4168 12.1707 94.4087C12.4776 93.4006 12.929 92.531 13.5249 91.8C14.1207 91.069 14.8358 90.5642 15.6701 90.2854C16.38 90.0591 16.9731 90.0505 17.4494 90.2596C17.9257 90.4687 18.2679 90.8112 18.476 91.2872C18.6842 91.7632 18.8196 92.3357 18.8822 93.0049C18.9449 93.6741 18.9596 94.2774 18.9265 94.8149C18.8933 95.3524 18.8319 95.8707 18.7423 96.3698C18.5694 97.175 18.2682 98.1184 17.8387 99.2003C17.4075 100.261 17.1135 101.022 16.9568 101.483C16.7234 102.336 16.3739 103.208 15.9082 104.1C15.6811 104.482 15.3502 105.112 14.9156 105.991C14.481 106.87 14.1191 107.513 13.8298 107.921C13.4293 108.551 12.9856 109.174 12.4984 109.789C12.4396 109.858 12.3214 109.99 12.1441 110.186C11.9667 110.382 11.815 110.565 11.6892 110.735C11.5633 110.905 11.4849 111.066 11.4539 111.219C11.4376 111.284 11.4593 111.357 11.5191 111.438C11.5789 111.519 11.6399 111.547 11.702 111.52C11.7446 111.517 11.7961 111.492 11.8566 111.444C12.0168 111.303 12.2343 111.072 12.5089 110.752C12.7836 110.431 13.0472 110.175 13.2999 109.984C13.5525 109.793 13.8261 109.665 14.1206 109.599C14.2891 109.565 14.4576 109.53 14.6261 109.496C15.5324 109.319 16.2781 109.346 16.8632 109.579C17.4483 109.812 17.9604 110.275 18.3994 110.968C18.7975 111.686 19.0337 112.524 19.108 113.481C19.1741 114.332 19.3899 115.321 19.7556 116.448C20.1 117.576 20.4541 118.415 20.8177 118.965C21.0355 119.29 21.2639 119.476 21.5028 119.522C21.7418 119.567 22.2195 119.519 22.936 119.378C23.7998 119.204 24.5 118.989 25.0365 118.734C26.4233 117.856 27.5157 117.043 28.3136 116.297ZM14.4213 97.7645C14.3854 97.8529 14.331 97.9802 14.2584 98.1463C14.1857 98.3124 14.1228 98.4671 14.0697 98.6103C14.0166 98.7535 13.9631 98.8914 13.9093 99.0239C13.5173 100.039 13.2244 101.088 13.0304 102.173C12.9555 102.586 12.8596 103.005 12.743 103.431C12.6263 103.858 12.4786 104.367 12.2998 104.958C12.1211 105.55 11.9974 105.955 11.9289 106.175C11.8277 106.525 11.8663 106.747 12.0447 106.84C12.1347 106.897 12.2484 106.845 12.3857 106.685C12.6996 106.318 12.9574 105.918 13.1592 105.485C13.361 105.052 13.552 104.551 13.7324 103.98C13.9128 103.41 14.0659 102.97 14.1917 102.661C14.7209 101.486 15.1322 100.031 15.4255 98.2964C15.4598 98.1867 15.5296 97.9834 15.6349 97.6863C15.7402 97.3893 15.8267 97.1258 15.8945 96.8959C15.9622 96.6659 16.0013 96.4115 16.0117 96.1325C16.0222 95.8535 15.9496 95.6773 15.7941 95.6038C15.6353 95.4877 15.4595 95.5655 15.2666 95.8373C15.1097 96.0207 14.9169 96.4315 14.6883 97.0698C14.6197 97.2891 14.5307 97.5206 14.4213 97.7645ZM47.0247 113.592C47.3569 113.737 47.5453 114.097 47.5899 114.672C47.6624 115.329 47.3381 115.975 46.617 116.609C46.3553 116.822 46.0511 117.038 45.7044 117.257C45.6423 117.283 45.5711 117.332 45.491 117.402C45.2065 117.595 44.9587 117.711 44.7476 117.749C44.1128 117.841 43.4762 117.634 42.8377 117.127C42.6789 117.011 42.5021 116.8 42.3071 116.494L42.199 116.342C41.9828 116.038 41.7864 115.85 41.6096 115.778C41.4328 115.706 41.2218 115.744 40.9765 115.891C40.6707 116.086 40.3495 116.635 40.0131 117.539C39.8564 118 39.7208 118.321 39.6064 118.501C39.2485 119.128 38.924 119.496 38.6329 119.604C38.2649 119.825 37.7669 120.163 37.1389 120.618C36.3687 121.17 35.6236 121.496 34.9038 121.594C34.0792 121.723 33.469 121.856 33.0732 121.993C32.9685 122.023 32.8629 122.042 32.7566 122.05C32.5226 122.068 32.3173 122.041 32.1405 121.969C31.877 121.883 31.4825 121.625 30.957 121.195C30.3873 120.747 29.9922 120.344 29.7719 119.987C29.5516 119.63 29.3094 118.99 29.0453 118.069C28.6074 116.563 28.4375 115.34 28.5359 114.402C28.6342 113.463 29.0183 112.348 29.6882 111.055C30.5444 109.405 31.3812 108.195 32.1988 107.425C33.0163 106.656 34.0516 106.072 35.3046 105.676C35.9115 105.5 36.4366 105.235 36.8797 104.879C37.5862 104.332 38.2315 104.1 38.8157 104.183C39.3769 104.247 40.0488 104.633 40.8315 105.343C41.2473 105.738 41.5503 106.057 41.7402 106.299C41.9302 106.541 42.0662 106.777 42.1482 107.006C42.2301 107.235 42.2885 107.573 42.3231 108.019C42.4701 109.912 42.6479 111.375 42.8564 112.407C42.9681 113.019 43.1484 113.481 43.3974 113.793C43.6463 114.106 44.0654 114.474 44.6548 114.899L44.7455 114.828C45.1085 114.543 45.3693 114.32 45.5279 114.158C46.128 113.619 46.6269 113.43 47.0247 113.592ZM39.2287 108.677C39.1643 107.847 39.0438 107.397 38.867 107.325C38.8278 107.371 38.7894 107.427 38.7518 107.494C38.6603 107.694 38.7048 108.129 38.8852 108.8C39.0083 109.282 39.1173 109.584 39.2123 109.705C39.2629 109.53 39.2684 109.187 39.2287 108.677ZM38.685 113.662C38.7321 113.166 38.6942 112.816 38.5714 112.612C38.4698 112.405 38.1783 112.096 37.697 111.684C36.9422 111.058 36.5475 110.522 36.5129 110.075C36.4897 109.777 36.3668 109.434 36.144 109.045C35.9212 108.655 35.7091 108.404 35.5078 108.292C35.3506 108.197 35.2189 108.154 35.1125 108.162C35.0275 108.169 34.9547 108.196 34.8942 108.243C34.6897 108.366 34.2843 108.793 33.6778 109.525C33.1481 110.144 32.668 110.919 32.2375 111.852C31.8071 112.784 31.5054 113.652 31.3326 114.457C31.1564 115.22 31.156 115.766 31.3313 116.094C31.5262 116.4 31.664 116.935 31.7448 117.699C31.8532 118.269 31.9713 118.687 32.0991 118.956C32.2236 119.181 32.3955 119.328 32.6148 119.397C32.857 119.485 33.244 119.509 33.7757 119.467C34.031 119.448 34.2428 119.42 34.4113 119.386C34.5815 119.373 34.7393 119.339 34.8849 119.285C35.0305 119.231 35.1646 119.167 35.2873 119.093C35.4296 118.997 35.571 118.889 35.7117 118.771C35.8523 118.653 36.0223 118.501 36.2218 118.315C36.9805 117.614 37.3982 117.068 37.4748 116.677C37.571 116.263 37.7932 115.817 38.1414 115.341C38.4536 114.953 38.6348 114.393 38.685 113.662ZM66.7742 112.508C65.9986 112.44 65.3359 112.309 64.786 112.117C64.5667 112.048 64.1014 111.774 63.3901 111.294C62.6789 110.815 62.1833 110.564 61.9035 110.543C61.5616 110.548 61.252 110.626 60.9747 110.776C60.6975 110.926 60.4612 111.12 60.2659 111.36C60.0705 111.6 59.8736 111.888 59.675 112.225C59.4765 112.561 59.3143 112.884 59.1885 113.193C59.0628 113.503 58.9227 113.834 58.7683 114.189C58.614 114.543 58.4706 114.832 58.3382 115.057C58.1487 115.371 57.7068 115.812 57.0126 116.379C56.3185 116.947 55.6374 117.476 54.9694 117.966C54.3013 118.457 53.9477 118.725 53.9085 118.771C53.6485 119.005 53.1119 119.191 52.2988 119.329C51.4858 119.467 50.6574 119.478 49.8139 119.361C48.9704 119.245 48.4159 118.994 48.1506 118.608C48.031 118.446 47.9179 118.161 47.8113 117.752C47.7046 117.343 47.6209 116.953 47.5601 116.584C47.4993 116.214 47.4278 115.775 47.3456 115.268C47.2635 114.761 47.2158 114.422 47.2025 114.252C46.994 113.22 47.0253 112.383 47.2965 111.741C47.3896 111.563 47.473 110.915 47.5466 109.796C47.6203 108.678 47.7437 107.443 47.917 106.092C48.0903 104.742 48.3419 103.711 48.6719 103.001C49.43 101.465 50.5729 101.441 52.1005 102.927C52.4706 103.284 52.6518 103.965 52.6444 104.971C52.6582 105.976 52.4798 106.985 52.1091 107.998C51.9001 108.613 51.6504 109.531 51.36 110.752C51.0468 111.953 50.8387 112.718 50.7359 113.047C50.38 114.252 50.4715 115.154 51.0102 115.754C51.1281 115.895 51.3335 115.921 51.6263 115.835C51.9191 115.748 52.234 115.6 52.5709 115.392C52.9078 115.184 53.212 114.968 53.4834 114.744C53.7549 114.519 53.9486 114.328 54.0647 114.169C54.4733 113.645 55.0158 112.57 55.692 110.945C56.3682 109.32 56.7445 108.173 56.821 107.503C56.9366 106.788 57.2298 106.086 57.7005 105.397C58.1713 104.708 58.7108 104.147 59.3191 103.715C59.9275 103.282 60.5769 103.103 61.2675 103.178C61.958 103.253 62.5457 103.657 63.0305 104.389C63.25 104.736 63.4775 105.392 63.713 106.358C63.9485 107.324 64.2979 108.036 64.7613 108.492C65.2017 108.928 65.658 109.224 66.1302 109.38C66.6023 109.536 67.1771 109.636 67.8545 109.68C68.532 109.723 69.067 109.794 69.4598 109.892C69.9197 110.028 70.2991 110.298 70.598 110.702C70.8968 111.107 70.9434 111.499 70.7375 111.879C70.4777 112.392 69.8119 112.636 68.7402 112.612C67.8828 112.593 67.2275 112.558 66.7742 112.508ZM83.4027 113.335C83.8409 112.916 84.2383 112.73 84.5951 112.777C84.9518 112.824 85.1533 113.146 85.1995 113.741C85.2356 113.931 85.2133 114.125 85.1324 114.324C85.0516 114.523 84.9634 114.696 84.8677 114.842C84.7721 114.989 84.6299 115.155 84.4411 115.341C84.2522 115.527 84.0973 115.667 83.9763 115.762C83.8553 115.857 83.6787 115.994 83.4464 116.172C83.2142 116.351 83.0785 116.463 83.0393 116.509C82.5552 116.889 82.0564 117.216 81.5429 117.492C81.502 117.516 81.4456 117.547 81.3736 117.585C81.3016 117.623 81.2243 117.661 81.1417 117.699C81.0591 117.738 80.9765 117.776 80.8939 117.815C80.8113 117.853 80.7443 117.885 80.6928 117.911L80.6155 117.949C79.3593 118.581 77.9901 118.998 76.5079 119.198C74.9831 119.402 73.8557 119.351 73.1258 119.044C73.0374 119.008 72.6855 118.885 72.0702 118.676C71.4548 118.467 71.0121 118.277 70.742 118.106C70.228 117.825 69.7064 117.17 69.1772 116.141C68.199 114.291 67.653 112.632 67.5391 111.165C67.4697 110.271 67.5384 109.089 67.7451 107.618C67.7598 107.531 67.783 107.348 67.8147 107.067C67.8464 106.786 67.8781 106.575 67.9099 106.434C67.9417 106.292 67.98 106.097 68.0249 105.847C68.0697 105.598 68.1174 105.385 68.168 105.21C68.2186 105.035 68.2794 104.854 68.3504 104.666C68.4215 104.479 68.4937 104.308 68.5673 104.152C68.966 103.501 69.2929 103.026 69.548 102.728C70.604 101.448 72.0197 100.803 73.7949 100.793C75.6357 100.8 76.6717 101.33 76.9032 102.381C77.0952 103.201 77.1138 104.061 76.9591 104.961C76.8043 105.861 76.5843 106.611 76.2992 107.211C76.0142 107.811 75.6147 108.59 75.1008 109.55C74.5869 110.51 74.2213 111.245 74.0041 111.754C73.2053 113.592 72.8191 114.681 72.8455 115.021C72.867 115.298 73.1634 115.671 73.7348 116.14C74.0999 116.433 74.4178 116.6 74.6887 116.644C74.9595 116.687 75.4409 116.617 76.1329 116.435C77.2273 116.2 78.4084 115.841 79.6761 115.358C80.1521 115.15 80.8423 114.807 81.7468 114.33C82.6512 113.854 83.2032 113.522 83.4027 113.335ZM70.8481 112.031C71.0395 112.016 71.5068 111.145 72.25 109.419C72.972 107.694 73.3198 106.661 73.2933 106.321C73.2619 105.917 73.0237 105.673 72.5786 105.59C72.1335 105.507 71.7957 105.635 71.5653 105.973C71.3724 106.245 71.1894 106.645 71.0164 107.172C70.8433 107.698 70.7136 108.233 70.6273 108.774C70.5622 109.314 70.5061 109.832 70.4591 110.328C70.412 110.824 70.4225 111.235 70.4906 111.561C70.5588 111.888 70.6779 112.044 70.8481 112.031ZM103.066 110.204C103.481 109.765 103.867 109.569 104.224 109.616C104.58 109.663 104.792 109.984 104.86 110.578C104.873 110.748 104.859 110.915 104.819 111.078C104.778 111.242 104.704 111.398 104.598 111.545C104.492 111.692 104.385 111.834 104.278 111.971C104.171 112.108 104.037 112.246 103.877 112.387C103.717 112.528 103.581 112.646 103.471 112.74C103.361 112.834 103.214 112.947 103.032 113.079C102.85 113.211 102.729 113.311 102.67 113.38C102.186 113.76 101.687 114.077 101.171 114.331C101.13 114.355 101.069 114.392 100.987 114.441C100.953 114.551 100.875 114.642 100.752 114.716C100.629 114.79 100.443 114.869 100.193 114.952C99.7248 115.267 99.0165 115.514 98.0676 115.695C97.1188 115.876 96.2488 115.97 95.4577 115.978C94.6666 115.986 94.1491 115.935 93.9052 115.826C93.7039 115.713 93.4706 115.463 93.2052 115.078C92.9399 114.692 92.7065 114.303 92.5049 113.912C92.3034 113.521 92.1731 113.221 92.114 113.012C91.9173 112.407 91.8129 111.751 91.8009 111.046C91.8086 110.318 91.838 109.182 91.8893 107.637L91.8546 107.19C91.8463 107.084 91.8029 107.007 91.7244 106.96C91.6458 106.912 91.5419 106.883 91.4126 106.872C91.285 106.882 91.1148 106.895 90.9021 106.911C90.6469 106.931 90.3565 106.911 90.0308 106.851C89.7052 106.79 89.3853 106.735 89.0711 106.684C88.7569 106.634 88.4828 106.618 88.2489 106.636C88.2701 106.634 88.2217 106.975 88.1036 107.658C87.9854 108.341 87.8223 109.066 87.6143 109.831C87.4062 110.596 87.2008 111.05 86.998 111.194C86.267 111.7 85.4835 112.082 84.6476 112.34C83.5614 112.681 83.8738 110.228 85.5848 104.981C85.6174 104.85 85.7031 104.576 85.8419 104.159C85.9806 103.741 86.0757 103.451 86.1272 103.286C86.1786 103.122 86.2598 102.859 86.3708 102.497C86.4818 102.135 86.5605 101.84 86.607 101.612C86.6535 101.384 86.7015 101.107 86.7512 100.782C86.8009 100.457 86.8305 100.15 86.8401 99.8606C86.8497 99.571 86.843 99.2773 86.8199 98.9795C86.7934 98.6392 86.9644 98.0161 87.3327 97.1102C87.701 96.2043 88.0053 95.6457 88.2457 95.4345C88.5712 95.2166 89.0284 95.1116 89.6174 95.1194C90.2065 95.1271 90.6049 95.2299 90.8129 95.4277C91.0929 95.727 91.1887 96.9606 91.1002 99.1286C91.0178 100.547 91.0029 101.458 91.0556 101.86C91.1099 102.284 91.2533 102.615 91.4858 102.854C91.7575 103.047 91.9887 103.13 92.1793 103.105C92.3699 103.079 92.7187 102.887 93.2257 102.526C93.9779 102.018 94.5304 101.762 94.883 101.756C95.2356 101.75 95.5789 101.969 95.913 102.414C96.1734 102.736 96.3037 103.036 96.3039 103.314C96.3041 103.592 96.1859 104.137 95.9492 104.947C95.6113 106.107 95.3284 107.424 95.1004 108.896C94.9344 110.065 94.9207 110.922 95.0593 111.467C95.198 112.013 95.594 112.635 96.2473 113.333C96.5306 113.675 96.7483 113.861 96.9005 113.892C96.966 113.908 97.0764 113.884 97.2318 113.818C97.3872 113.752 97.5524 113.675 97.7274 113.587C97.9024 113.498 98.021 113.441 98.0832 113.415C98.7293 113.194 99.1546 113.021 99.359 112.899C100.931 111.921 102.166 111.022 103.066 110.204ZM38.1134 141.646C38.5516 141.227 38.9491 141.041 39.3058 141.088C39.6625 141.135 39.8747 141.456 39.9422 142.05C39.957 142.241 39.9294 142.436 39.8591 142.634C39.7889 142.832 39.706 143.004 39.6104 143.151C39.5148 143.297 39.3672 143.464 39.1678 143.65C38.9683 143.837 38.8134 143.978 38.703 144.072C38.5926 144.166 38.4213 144.302 38.1891 144.481C37.9569 144.659 37.8105 144.772 37.75 144.82C37.1254 145.318 36.5244 145.846 35.9473 146.404C35.169 147.128 34.3431 147.652 33.4696 147.977C32.4505 148.355 31.6546 148.578 31.082 148.643C30.4881 148.711 29.7453 148.651 28.8534 148.463C28.0074 148.315 27.3208 148.085 26.7938 147.773C26.2667 147.461 25.8434 147.039 25.524 146.507C25.2045 145.976 25.0069 145.29 24.931 144.451C24.8551 143.612 24.8823 142.652 25.0124 141.572C25.1196 140.472 25.3371 139.14 25.6648 137.574C25.7627 137.181 25.7053 136.993 25.4926 137.009C24.9183 137.054 23.881 138.161 22.3805 140.332C20.88 142.503 19.7419 144.517 18.966 146.375C18.4237 147.658 17.9498 148.443 17.5442 148.732C17.1387 149.02 16.6502 148.93 16.0788 148.46C15.6008 148.091 15.358 147.719 15.3503 147.345C15.3427 146.972 15.5577 146.158 15.9953 144.904C16.3726 143.976 16.548 143.342 16.5216 143.002C16.4985 142.704 16.6739 142.07 17.0479 141.099C17.2631 140.013 17.315 139.442 17.2037 139.386C16.9698 139.404 16.5365 139.818 15.9038 140.626C15.2712 141.435 14.6182 142.395 13.9449 143.507C13.2716 144.618 12.7716 145.55 12.4449 146.303C11.9353 147.455 11.4474 148.199 10.9813 148.535C10.5152 148.871 10.0211 148.845 9.49887 148.458C8.99792 148.069 8.77625 147.556 8.83388 146.921C8.89151 146.285 9.23721 145.226 9.87099 143.743C10.049 143.28 10.2056 142.609 10.3408 141.732C10.4759 140.855 10.6252 140.228 10.7885 139.852C11.3732 138.287 12.0555 137.154 12.8354 136.451C13.0153 136.288 13.207 136.139 13.4106 136.006C13.6142 135.872 13.8265 135.781 14.0473 135.731C14.2682 135.682 14.4224 135.74 14.5101 135.904C14.5977 136.068 14.6147 136.356 14.561 136.767C14.4208 137.441 14.5184 137.733 14.8537 137.643C15.1073 137.602 15.3828 137.291 15.6801 136.712C16.1115 135.93 16.6387 135.279 17.2617 134.76C17.5038 134.57 17.7066 134.426 17.8701 134.327C18.0762 134.226 18.2103 134.162 18.2725 134.136C18.3739 134.063 18.5211 134.031 18.7142 134.037C18.9072 134.043 19.0471 134.054 19.1339 134.069C19.219 134.062 19.3924 134.091 19.6542 134.157C19.9374 134.22 20.1542 134.257 20.3047 134.267C20.9102 134.348 21.2211 134.495 21.2377 134.708C21.2835 134.747 21.3402 135.063 21.4077 135.657C21.4717 135.931 21.5406 136.129 21.6143 136.251C21.688 136.374 21.8202 136.422 22.0107 136.397C22.2013 136.371 22.4295 136.279 22.6953 136.119C22.9611 135.959 23.3564 135.677 23.8813 135.273C25.0947 134.365 26.1538 133.812 27.0584 133.614C27.7341 133.497 28.1607 133.48 28.3383 133.563C28.5159 133.645 28.7161 133.881 28.9389 134.27C29.2453 134.91 29.3637 135.746 29.2941 136.778C29.2245 137.811 29.0223 138.789 28.6876 139.714C28.289 140.644 28.1079 141.342 28.1442 141.81C28.174 142.193 28.1007 142.766 27.9246 143.529C27.7402 144.185 27.8236 144.777 28.175 145.306C28.5263 145.836 29.0366 146.138 29.7059 146.215C30.0937 146.249 30.591 146.178 31.1979 146.003C31.3648 145.947 32.3633 145.441 34.1935 144.486C34.1935 144.486 34.3812 144.354 34.7565 144.089C35.1318 143.825 35.5378 143.542 35.9744 143.24C36.4111 142.939 36.842 142.633 37.2672 142.322C37.6924 142.01 37.9745 141.785 38.1134 141.646ZM53.2934 141.751C53.7316 141.332 54.129 141.146 54.4858 141.193C54.8425 141.24 55.044 141.562 55.0902 142.157C55.1263 142.347 55.104 142.541 55.0231 142.74C54.9423 142.939 54.8541 143.112 54.7584 143.258C54.6628 143.405 54.5206 143.571 54.3318 143.757C54.1429 143.943 53.988 144.083 53.867 144.178C53.746 144.273 53.5694 144.41 53.3371 144.588C53.1049 144.767 52.9692 144.879 52.93 144.925C52.4459 145.305 51.9471 145.632 51.4336 145.908C51.3927 145.932 51.3362 145.963 51.2643 146.001C51.1923 146.039 51.115 146.077 51.0324 146.115C50.9498 146.154 50.8672 146.192 50.7846 146.231C50.702 146.269 50.635 146.301 50.5835 146.327L50.5062 146.365C49.25 146.997 47.8808 147.414 46.3986 147.615C44.8738 147.819 43.7464 147.767 43.0165 147.46C42.9281 147.424 42.5762 147.302 41.9609 147.093C41.3455 146.884 40.9028 146.693 40.6327 146.522C40.1187 146.241 39.5971 145.586 39.0679 144.557C38.0897 142.707 37.5437 141.048 37.4297 139.581C37.3604 138.688 37.4291 137.505 37.6358 136.034C37.6505 135.948 37.6737 135.764 37.7054 135.483C37.7371 135.203 37.7688 134.991 37.8006 134.85C37.8324 134.708 37.8707 134.513 37.9156 134.263C37.9604 134.014 38.0081 133.801 38.0587 133.626C38.1093 133.451 38.1701 133.27 38.2411 133.083C38.3122 132.895 38.3844 132.724 38.458 132.568C38.8567 131.917 39.1836 131.442 39.4386 131.144C40.4947 129.864 41.9104 129.219 43.6856 129.209C45.5264 129.216 46.5624 129.746 46.7939 130.798C46.9859 131.617 47.0045 132.477 46.8498 133.377C46.695 134.277 46.475 135.027 46.1899 135.627C45.9049 136.227 45.5054 137.007 44.9915 137.967C44.4776 138.927 44.112 139.661 43.8948 140.17C43.096 142.008 42.7098 143.097 42.7362 143.438C42.7577 143.714 43.0541 144.087 43.6255 144.556C43.9906 144.849 44.3085 145.017 44.5794 145.06C44.8502 145.103 45.3316 145.033 46.0236 144.851C47.118 144.617 48.2991 144.257 49.5668 143.774C50.0428 143.566 50.733 143.223 51.6374 142.746C52.5419 142.27 53.0939 141.938 53.2934 141.751ZM40.7388 140.447C40.9302 140.432 41.3975 139.562 42.1407 137.835C42.8627 136.11 43.2104 135.077 43.184 134.737C43.1526 134.333 42.9144 134.089 42.4693 134.006C42.0242 133.923 41.6864 134.051 41.456 134.39C41.2631 134.661 41.0801 135.061 40.9071 135.588C40.734 136.115 40.6043 136.649 40.518 137.191C40.4529 137.731 40.3968 138.248 40.3497 138.744C40.3027 139.24 40.3132 139.651 40.3813 139.978C40.4495 140.304 40.5686 140.46 40.7388 140.447Z" fill="#252627"/>
</svg>
