<svg width="9" height="191" viewBox="0 0 9 191" fill="currentColor" preserveAspectRatio="none" xmlns="http://www.w3.org/2000/svg">
<path d="M6.4001 12.8C6.4001 13 6.3001 13.1 6.1001 13.2C5.8001 13.3 5.6001 13.5 5.4001 13.7C5.3001 13.8 5.2001 13.9 5.2001 14C5.1001 14.2 5.3001 14.2 5.4001 14.3C5.5001 14.4 5.5001 14.6 5.4001 14.7C5.2001 14.8 5.4001 15 5.3001 15.1C5.3001 15.1 5.3001 15.3 5.4001 15.3C5.6001 15.4 5.6001 15.5 5.4001 15.6C5.2001 15.7 5.5001 15.8 5.4001 15.9C5.3001 16 5.3001 16.1 5.3001 16.2C5.3001 16.3 5.3001 16.4 5.2001 16.5C5.1001 16.6 5.2001 16.6 5.3001 16.6C5.3001 16.6 5.3001 16.7 5.4001 16.7C5.1001 16.7 5.2001 16.9 5.3001 17C5.4001 17.1 5.5001 17.2 5.3001 17.4C5.2001 17.5 5.5001 17.6 5.3001 17.8C5.2001 17.9 5.2001 18.1 5.2001 18.2C5.2001 18.3 5.1001 18.5 5.1001 18.6C5.0001 18.8 4.9001 19 4.9001 19.4V19.5C4.7001 19.5 4.7001 19.6 4.7001 19.7C4.7001 19.8 4.6001 20 4.8001 20.1C4.8001 20.1 4.8001 20.3 4.8001 20.4C4.7001 20.5 4.7001 20.6 4.8001 20.7C4.8001 20.8 4.8001 20.9 4.8001 21C4.7001 21.1 4.8001 21.1 4.8001 21.2C5.0001 21.4 4.9001 21.6 4.6001 21.6H4.5001C4.5001 21.6 4.5001 21.7 4.6001 21.7C4.5001 22 4.7001 22 4.7001 22.1C4.8001 22.4 4.8001 22.6 4.8001 22.9C4.8001 23.1 4.6001 23.3 4.8001 23.5C4.5001 23.7 5.0001 23.9 4.8001 24.1C4.8001 24.1 4.8001 24.2 4.9001 24.3L5.0001 24.4C5.0001 24.4 5.1001 24.4 5.1001 24.3C5.1001 24 5.3001 23.7 5.2001 23.4H5.0001C5.0001 23.3 5.0001 23.3 5.0001 23.2C5.1001 23.2 5.2001 23 5.4001 23.2C5.6001 23.4 5.9001 23.5 6.2001 23.4C6.4001 23.3 6.4001 23.5 6.5001 23.4C6.5001 23.4 6.6001 23.4 6.6001 23.5C6.6001 23.5 6.5001 23.5 6.5001 23.6C6.3001 23.7 6.1001 23.8 5.9001 23.6C5.8001 23.5 5.7001 23.5 5.7001 23.7C5.7001 24 5.4001 23.5 5.5001 23.8C5.5001 23.9 5.5001 24 5.5001 24.2C5.5001 24.2 5.5001 24.3 5.4001 24.3L5.3001 24.4C5.3001 24.5 5.4001 24.6 5.4001 24.7H5.5001C5.5001 24.6 5.6001 24.5 5.6001 24.5C5.6001 24.4 5.7001 24.3 5.8001 24.4C5.9001 24.4 6.1001 24.4 6.2001 24.4C6.3001 24.4 6.4001 24.3 6.4001 24.5C6.4001 24.6 6.4001 24.7 6.3001 24.8C6.2001 24.8 6.2001 24.9 6.1001 24.9C5.8001 24.9 5.6001 25.3 5.3001 25C5.2001 25.1 5.1001 25.2 5.1001 25.3C5.1001 25.4 5.2001 25.5 5.2001 25.5H5.3001V25.4C5.3001 25.3 5.2001 25.2 5.4001 25.2C5.5001 25.2 5.6001 25.4 5.5001 25.4C5.5001 25.6 5.4001 25.8 5.3001 26C5.2001 26.1 5.2001 26.2 5.4001 26.2C5.6001 26.3 5.5001 26.5 5.6001 26.7C5.6001 26.8 5.5001 27 5.5001 27.1C5.5001 27.4 5.4001 27.2 5.3001 27.2C5.2001 27.2 5.1001 27.3 5.0001 27.2C4.8001 27.1 4.6001 27.1 4.6001 27.3C4.6001 27.4 4.5001 27.5 4.5001 27.7C4.5001 27.8 4.6001 27.9 4.6001 28C4.6001 28.4 4.6001 28.9 4.6001 29.3C4.6001 29.6 4.7001 29.9 4.5001 30.2C4.7001 30.5 4.4001 30.7 4.5001 31C4.6001 31.3 4.6001 31.5 4.7001 31.8C4.9001 32 4.7001 32 4.7001 32C4.6001 32.1 4.6001 31.9 4.6001 31.9C4.6001 31.9 4.6001 31.9 4.6001 31.8L4.5001 31.7C4.4001 31.8 4.4001 31.8 4.3001 31.9C4.3001 32 4.4001 32.1 4.4001 32.1C4.2001 32.5 4.2001 32.4 4.5001 32.7C4.6001 32.8 4.7001 33 4.7001 33C4.5001 33.2 4.7001 33.4 4.7001 33.6C4.7001 33.8 4.7001 33.9 4.6001 34.1C4.5001 34.2 4.5001 34.3 4.6001 34.4C4.7001 34.6 4.6001 34.8 4.5001 34.9C4.3001 35.3 4.3001 35.4 4.4001 35.6C4.5001 35.8 4.5001 35.8 4.3001 35.9C4.1001 36 4.2001 36.3 4.3001 36.4C4.5001 36.5 4.5001 36.6 4.4001 36.6C4.3001 36.7 4.2001 36.7 4.2001 36.7V36.8C4.5001 36.8 4.2001 36.9 4.3001 37C4.4001 37.2 4.4001 37.3 4.4001 37.5C4.4001 37.6 4.4001 38 4.4001 38.2C4.4001 38.4 4.4001 38.6 4.4001 38.8C4.5001 39 4.5001 39.2 4.4001 39.4C4.1001 39.4 4.3001 39.7 4.2001 39.8C4.2001 39.8 4.4001 39.9 4.5001 40C4.6001 40.1 4.6001 40.1 4.5001 40.1C4.3001 40.2 4.5001 40.4 4.4001 40.5C4.5001 40.7 4.7001 40.9 4.3001 41V41.1C4.3001 41.2 4.4001 41.3 4.4001 41.4C4.4001 41.5 4.3001 41.7 4.3001 41.8C4.2001 41.9 4.5001 42 4.3001 42.1L4.4001 42.2C4.0001 42.4 4.3001 42.6 4.4001 42.8C4.5001 43.1 4.5001 43.5 4.4001 43.8C4.4001 43.9 4.4001 43.9 4.4001 44C4.5001 44 4.5001 44 4.6001 44H4.7001V44.1C4.7001 44.2 4.6001 44.3 4.6001 44.4C4.5001 44.6 4.5001 44.7 4.7001 44.6C4.8001 44.6 4.8001 44.6 4.7001 44.7C4.6001 44.8 4.6001 44.8 4.5001 44.9C4.7001 45 4.5001 45.1 4.5001 45.3C4.5001 45.4 4.5001 45.6 4.6001 45.7C4.6001 45.8 4.4001 46 4.7001 46V46.1C4.7001 46.2 4.7001 46.3 4.7001 46.3C4.8001 46.5 4.8001 46.5 4.6001 46.6C4.5001 46.6 4.4001 46.7 4.3001 46.8L4.4001 47C4.4001 47.2 4.4001 47.5 4.7001 47.6C4.4001 47.7 4.9001 47.9 4.6001 48.1C4.5001 48.1 4.5001 48.3 4.4001 48.4C4.2001 48.6 4.6001 48.6 4.5001 48.8C4.5001 48.9 4.7001 48.9 4.7001 48.8H4.8001V48.9C4.7001 49 4.7001 49 4.6001 49.1C4.5001 49.2 4.5001 49.3 4.7001 49.3C4.8001 49.4 4.8001 49.5 4.7001 49.5C4.4001 49.6 4.4001 49.9 4.5001 50.1C4.6001 50.3 4.6001 50.5 4.6001 50.8C4.6001 50.9 4.6001 51 4.7001 51.1C4.8001 51.2 4.8001 51.3 4.7001 51.5C4.6001 51.6 4.6001 51.7 4.7001 51.9C4.7001 51.9 4.7001 52 4.7001 52.1C4.6001 52.3 4.6001 52.4 4.7001 52.6C4.8001 52.7 4.9001 53 4.6001 53.1C4.6001 53.1 4.5001 53.3 4.6001 53.3C4.9001 53.7 4.9001 54.1 4.7001 54.5C4.7001 54.6 4.6001 54.7 4.8001 54.7L4.9001 54.9C4.9001 54.9 5.0001 54.9 5.1001 54.8C5.1001 55 5.2001 55.2 5.1001 55.3C4.9001 55.5 4.8001 55.7 5.1001 55.9V56H5.0001C4.9001 56 4.9001 55.9 4.8001 55.9C4.8001 56 4.8001 56 4.8001 56.1C4.9001 56.2 4.9001 56.2 5.0001 56.3C4.8001 56.4 4.9001 56.6 4.9001 56.7C4.9001 56.7 4.8001 56.8 4.7001 56.8C4.6001 56.8 4.6001 56.8 4.5001 56.9C4.6001 56.9 4.6001 56.9 4.7001 57C4.8001 57.1 5.0001 57.2 4.8001 57.4C4.8001 57.4 4.8001 57.6 4.9001 57.6C5.2001 57.7 4.9001 57.9 5.0001 58C4.9001 57.9 4.9001 58 4.7001 58C4.5001 58 4.6001 58.1 4.6001 58.2C4.7001 58.3 4.7001 58.5 4.8001 58.6C4.8001 58.7 4.8001 58.7 4.8001 58.8C4.8001 58.9 4.8001 59 4.7001 59.1C4.6001 59.3 5.0001 59.3 4.8001 59.5C4.7001 59.6 4.8001 59.8 4.7001 59.9C4.7001 60 4.6001 60.1 4.6001 60.2C4.4001 60.4 4.5001 60.4 4.7001 60.8C4.8001 60.9 4.8001 61.1 4.7001 61.2C4.5001 61.4 4.6001 61.5 4.7001 61.7C4.7001 61.7 4.7001 61.8 4.7001 61.9C4.7001 62 4.7001 62 4.6001 62.1C4.6001 62 4.6001 62 4.5001 61.9C4.5001 61.8 4.5001 61.8 4.4001 61.7C4.4001 61.8 4.3001 61.8 4.3001 61.9C4.3001 62.2 4.3001 62.5 4.4001 62.7C4.5001 62.9 4.6001 63 4.4001 63.2C4.4001 63.2 4.4001 63.3 4.4001 63.4C4.4001 63.5 4.5001 63.7 4.5001 63.8C4.3001 64.2 4.5001 64.5 4.6001 64.8C4.6001 64.8 4.5001 64.9 4.5001 65C4.6001 65 4.6001 65 4.7001 65.1C5.0001 65.2 5.0001 65.2 4.8001 65.3L4.7001 65.4C4.9001 65.6 4.8001 65.8 4.7001 66C4.6001 66.2 4.6001 66.4 4.7001 66.6C4.8001 66.8 4.8001 66.9 4.8001 67.1C4.8001 67.2 5.0001 67.3 4.8001 67.5V67.7C5.0001 67.8 4.8001 68 4.9001 68.2C4.9001 68.3 4.8001 68.5 4.9001 68.5C5.0001 68.7 5.0001 68.9 4.9001 69C4.7001 69.2 5.0001 69.2 4.9001 69.3C4.8001 69.5 4.8001 69.8 4.7001 70C4.6001 70.1 4.6001 70.2 4.7001 70.3C4.8001 70.5 5.0001 70.8 4.7001 71.1C4.8001 71.4 4.6001 71.8 4.8001 72.1C4.8001 72.2 4.8001 72.3 4.8001 72.4C4.6001 72.6 4.7001 72.8 4.9001 72.9V73C4.6001 73.1 4.9001 73.4 4.8001 73.5C4.8001 73.7 5.0001 73.8 5.0001 74C5.0001 74.1 5.1001 74.2 5.0001 74.3C4.8001 74.5 5.0001 74.6 5.0001 74.8C5.0001 74.9 5.2001 75 4.9001 75C4.9001 75 4.9001 75.2 4.8001 75.3C4.7001 75.4 5.0001 75.5 4.8001 75.6C4.7001 75.7 4.7001 75.8 4.7001 75.9L5.0001 76.8C5.1001 76.8 5.2001 76.9 5.2001 76.9C5.2001 77 4.9001 77.2 5.3001 77.2V77.3C5.1001 77.6 5.1001 77.9 4.9001 78.2C4.8001 78.5 4.9001 78.5 5.1001 78.5L5.2001 78.6C5.0001 79.1 5.0001 79.1 5.1001 79.5C5.1001 79.6 5.1001 79.7 5.1001 79.7C5.1001 80.3 5.2001 80.8 5.0001 81.4C5.0001 81.5 5.0001 81.6 5.0001 81.6C5.2001 81.9 5.0001 82 4.9001 82.1C4.9001 82.1 4.9001 82.2 4.8001 82.3C4.7001 82.4 5.1001 82.2 5.0001 82.5C4.9001 82.6 5.0001 82.8 4.9001 82.9C4.8001 83 4.9001 83.1 4.9001 83.2C4.9001 83.4 5.2001 83.4 5.1001 83.6C5.0001 83.8 5.2001 83.9 5.2001 84.1C5.2001 84.4 5.2001 84.5 5.1001 84.8C5.1001 84.9 5.0001 84.9 5.1001 85C5.3001 85.2 5.0001 85.3 5.1001 85.4C5.2001 85.6 5.2001 85.7 5.1001 86C5.0001 86.2 5.1001 86.4 5.2001 86.6C5.2001 86.8 5.3001 86.9 5.2001 87.1C5.2001 87.2 5.3001 87.4 5.3001 87.4C4.9001 87.6 5.2001 87.8 5.3001 87.9C5.3001 88 5.4001 88.1 5.3001 88.2C5.2001 88.3 5.3001 88.4 5.3001 88.5C5.4001 88.7 5.4001 88.9 5.4001 89C5.3001 89.7 5.2001 89.7 5.4001 90.2C5.5001 90.4 5.3001 90.6 5.4001 90.8C5.5001 91 5.5001 91.1 5.3001 91.2V91.3C5.4001 91.5 5.7001 91.6 5.3001 91.8C5.5001 92 5.4001 92.2 5.4001 92.4C5.4001 92.6 5.3001 92.9 5.5001 93.1C5.5001 93.1 5.5001 93.2 5.4001 93.2C5.3001 93.2 5.3001 93.2 5.3001 93.3C5.4001 93.8 5.4001 94.1 5.3001 94.5C5.3001 94.6 5.4001 94.7 5.4001 94.7C5.4001 94.8 5.3001 94.8 5.3001 94.9L5.4001 95C5.5001 95 5.6001 95.1 5.5001 95.2C5.3001 95.5 5.5001 95.7 5.4001 96C5.3001 96.3 5.4001 96.4 5.5001 96.6C5.6001 96.8 5.5001 97.1 5.5001 97.3C5.5001 97.4 5.3001 97.5 5.5001 97.6C5.6001 97.7 5.3001 97.8 5.5001 97.9V98C5.3001 98.2 5.3001 98.4 5.4001 98.5C5.5001 98.7 5.4001 98.8 5.4001 98.9C5.5001 99.2 5.5001 99.5 5.4001 99.9C5.4001 99.9 5.3001 100 5.4001 100.1C5.6001 100.4 5.4001 100.7 5.6001 101C5.7001 101.2 5.7001 101.5 5.5001 101.8C5.5001 101.9 5.3001 102 5.5001 102.1C5.5001 102.1 5.4001 102.3 5.4001 102.4L5.6001 102.6C5.4001 102.7 5.7001 102.9 5.6001 103C5.4001 103.3 5.7001 103.6 5.6001 103.9C5.6001 104.3 5.5001 104.7 5.7001 105.1C5.8001 105.2 5.8001 105.5 5.7001 105.6C5.5001 105.8 5.6001 106 5.7001 106.2C5.8001 106.4 5.8001 106.5 5.6001 106.7C5.5001 106.9 5.6001 106.8 5.7001 106.8C5.5001 107 5.8001 107.2 5.7001 107.3C5.5001 107.5 5.6001 107.6 5.8001 107.8C5.9001 107.9 5.9001 108.3 5.9001 108.4C5.8001 108.5 5.7001 108.7 5.8001 108.8C5.8001 108.9 5.8001 109 5.7001 109.1C5.6001 109.2 5.6001 109.4 5.8001 109.5C5.9001 109.6 5.9001 109.7 6.0001 109.8C6.1001 109.9 6.0001 109.9 6.0001 110C6.0001 110.1 6.1001 110.2 6.0001 110.3C5.9001 110.4 6.1001 110.5 6.0001 110.5C5.8001 110.6 5.9001 110.8 5.9001 111C5.9001 111.2 5.8001 111.5 6.2001 111.4L6.3001 111.5C6.3001 111.5 6.3001 111.6 6.2001 111.6C6.2001 111.6 6.1001 111.6 6.0001 111.6C5.9001 111.6 5.9001 111.7 5.9001 111.8C6.2001 112.1 6.3001 112.5 6.3001 113C6.3001 113.1 6.4001 113.2 6.4001 113.4C6.4001 113.4 6.4001 113.5 6.3001 113.6C6.2001 113.7 6.1001 113.8 6.2001 113.9C6.3001 114.1 6.4001 114.5 6.3001 114.8C6.3001 114.9 6.3001 114.9 6.3001 115C6.3001 115.2 6.2001 115.4 6.4001 115.5C6.3001 115.7 6.2001 115.8 6.2001 115.9C6.3001 116.1 6.3001 116.3 6.3001 116.6C6.3001 116.7 6.4001 116.9 6.1001 116.9C6.1001 117 6.1001 117.1 6.1001 117.1C6.2001 117.3 6.3001 117.5 6.1001 117.7C6.0001 117.7 6.2001 118.2 6.3001 118.3C6.4001 118.4 6.4001 118.4 6.4001 118.5L6.3001 118.6C6.7001 118.8 6.3001 119.1 6.4001 119.3C6.5001 119.5 6.6001 119.8 6.6001 120C6.6001 120.1 6.6001 120.2 6.5001 120.1H6.4001C6.4001 120.2 6.4001 120.3 6.4001 120.4C6.4001 120.6 6.8001 120.5 6.6001 120.8C6.5001 120.9 6.6001 121.1 6.6001 121.3C6.6001 121.5 6.7001 121.6 6.7001 121.7C6.7001 121.8 6.5001 122 6.7001 122.1C6.5001 122.2 6.8001 122.3 6.7001 122.5C6.7001 122.6 6.6001 122.8 6.8001 122.9C6.8001 122.9 6.8001 123 6.7001 123.1C6.7001 123.2 6.7001 123.3 6.6001 123.3C6.5001 123.5 6.8001 123.6 6.7001 123.8C6.6001 124 6.6001 124.1 6.6001 124.3C6.6001 124.4 6.6001 124.6 6.8001 124.5C6.5001 124.7 6.9001 125.1 6.7001 125.3C6.6001 125.5 6.5001 125.6 6.7001 125.8C6.8001 126 6.7001 126.2 6.9001 126.3V126.4C6.6001 126.6 6.8001 126.8 6.8001 127C6.8001 127.4 6.8001 127.9 6.8001 128.3C6.8001 128.5 6.7001 128.7 6.5001 128.8C6.4001 128.9 6.4001 129 6.5001 129C6.7001 129 6.7001 129.1 6.7001 129.2C6.7001 129.6 6.7001 130 6.7001 130.3C6.7001 130.4 6.7001 130.5 6.9001 130.5C6.9001 130.6 6.9001 130.6 6.9001 130.7C6.9001 130.8 6.8001 130.9 6.7001 131C6.7001 131.1 6.7001 131.2 6.7001 131.3C6.9001 131.7 6.9001 131.8 6.9001 132.2C6.9001 132.7 6.9001 133.2 6.9001 133.8C6.9001 133.9 7.0001 134 7.0001 134.1C7.0001 134.3 7.1001 134.5 6.8001 134.6C6.6001 134.7 6.6001 134.7 6.6001 134.9C6.6001 135.1 6.7001 135.3 6.4001 135.3C6.5001 135.5 6.5001 135.7 6.6001 135.9C6.7001 136.1 6.7001 136.2 6.5001 136.3C6.3001 136.6 6.4001 136.8 6.7001 137.1C6.7001 137.1 6.8001 137.1 6.8001 137.2C6.9001 137.4 6.6001 137.3 6.6001 137.4C6.6001 137.5 6.8001 137.7 6.8001 137.7C6.6001 137.9 6.7001 138.2 6.7001 138.4C6.7001 138.6 6.6001 138.8 6.8001 138.9C6.6001 139.1 6.9001 139.2 6.9001 139.3C6.9001 139.3 7.0001 139.4 6.9001 139.5C6.8001 139.6 6.6001 139.7 6.6001 139.8C6.6001 139.9 6.9001 139.9 6.7001 140.1C6.7001 140.1 6.8001 140.3 6.8001 140.4C6.7001 140.5 6.7001 140.6 6.8001 140.7V140.8C6.8001 141 6.7001 141.2 6.8001 141.4C6.9001 141.6 6.8001 141.7 6.9001 141.9C6.9001 142 7.0001 142.3 6.7001 142.3V142.5C6.8001 142.5 6.9001 142.6 6.9001 142.7C6.9001 143 6.8001 143.2 7.1001 143.4C7.1001 143.4 6.9001 143.5 7.1001 143.6V143.8C7.2001 143.9 6.9001 144.1 7.2001 144.2C7.2001 144.4 7.2001 144.6 7.2001 144.7C7.2001 144.9 7.2001 145.1 7.2001 145.2C7.2001 145.4 7.2001 145.5 7.0001 145.6C6.9001 145.6 6.9001 145.8 6.9001 145.9C6.9001 146.1 7.0001 146.3 6.8001 146.4C6.8001 146.4 6.9001 146.5 6.9001 146.6C6.9001 146.8 7.1001 146.7 7.1001 146.8C7.1001 146.9 7.0001 147 6.9001 147.1V147.2C6.9001 147.4 7.0001 147.5 7.0001 147.6C7.0001 147.7 6.9001 147.9 6.9001 148C7.0001 148.2 6.9001 148.3 6.9001 148.4C6.8001 148.5 6.7001 148.6 7.0001 148.6C7.0001 148.7 6.9001 148.9 6.9001 149C6.9001 149.1 7.1001 149.1 7.0001 149.3C6.9001 149.4 6.9001 149.5 7.0001 149.6C7.0001 149.7 7.1001 149.7 7.2001 149.8C7.1001 149.8 7.0001 149.9 7.0001 149.9C6.9001 150 7.2001 150.2 7.0001 150.3C7.0001 150.3 7.1001 150.5 7.2001 150.5C7.4001 150.5 7.4001 150.5 7.3001 150.7C7.2001 150.9 7.2001 150.9 7.4001 151.2C7.5001 151.3 7.6001 151.4 7.5001 151.4C7.5001 151.5 7.4001 151.6 7.3001 151.7C7.3001 151.7 7.2001 151.7 7.1001 151.7C7.1001 151.8 7.1001 151.8 7.1001 151.9C7.2001 152 7.2001 152.1 7.1001 152.2L7.3001 152.4C7.0001 152.8 7.4001 153.3 7.1001 153.7C7.3001 153.9 7.3001 154 7.1001 154.2C7.1001 154.2 7.2001 154.3 7.2001 154.4C7.3001 154.5 7.3001 154.5 7.4001 154.5V154.6L7.2001 154.7C7.2001 154.9 7.2001 155.2 7.2001 155.4C7.2001 155.5 7.3001 155.6 7.2001 155.7C7.2001 155.8 7.3001 155.9 7.3001 156C7.2001 156.1 7.2001 156.2 7.4001 156.2V156.3C7.2001 156.8 7.3001 157.4 7.4001 157.9C7.4001 158 7.4001 158 7.3001 158.1C7.2001 158.2 7.0001 158.3 7.4001 158.4L7.5001 158.5C7.3001 158.8 7.6001 159.1 7.3001 159.4C7.0001 159.7 7.5001 159.6 7.4001 159.7C7.4001 159.8 7.3001 159.9 7.2001 160.1L7.3001 160.2C7.4001 160.3 7.5001 160.4 7.4001 160.6C7.4001 160.6 7.4001 160.7 7.4001 160.8C7.4001 160.9 7.5001 161.1 7.4001 161.2C7.3001 161.3 7.3001 161.4 7.4001 161.6C7.4001 161.6 7.2001 161.8 7.4001 161.9C7.4001 161.9 7.3001 162.1 7.3001 162.2C7.3001 162.3 7.4001 162.4 7.4001 162.5C7.4001 162.6 7.5001 162.8 7.2001 162.8C7.1001 162.8 7.1001 162.9 7.3001 162.9L7.4001 163C7.5001 163.2 7.2001 163.4 7.4001 163.6C7.2001 163.8 7.3001 164.1 7.3001 164.3C7.3001 164.4 7.3001 164.6 7.4001 164.7C7.5001 164.8 7.5001 164.8 7.6001 164.9C7.5001 164.9 7.4001 165 7.3001 165C7.2001 165 7.1001 165.1 7.2001 165.2C7.4001 165.4 7.3001 165.6 7.2001 165.9C7.1001 166.1 7.1001 166.2 7.3001 166.3C7.4001 166.4 7.6001 166.6 7.5001 166.7C7.5001 166.8 7.3001 166.9 7.5001 167C7.5001 167 7.6001 167.2 7.5001 167.2C7.2001 167.5 7.5001 167.8 7.7001 168C7.8001 168.2 7.7001 168.1 7.6001 168.2C7.5001 168.3 7.4001 168.4 7.5001 168.6C7.6001 168.9 7.6001 169.4 7.4001 169.7C7.3001 169.9 7.3001 170 7.4001 170.2C7.6001 170.5 7.6001 170.7 7.3001 170.9C7.1001 171 7.1001 171 7.3001 171.1C7.4001 171.1 7.4001 171.2 7.5001 171.2C7.6001 171.3 7.7001 171.4 7.7001 171.5C7.6001 171.6 7.8001 171.8 7.6001 171.9C7.5001 172 7.3001 172.1 7.3001 172.2C7.2001 172.4 7.4001 172.6 7.5001 172.8C7.6001 173 7.6001 173.2 7.9001 173.2C8.1001 173.2 8.0001 173.3 8.0001 173.4C8.0001 173.5 7.9001 173.5 7.9001 173.5C7.8001 173.5 7.7001 173.5 7.6001 173.6C7.5001 173.6 7.3001 173.8 7.6001 173.8V173.9C7.5001 173.9 7.5001 173.9 7.4001 173.9C7.3001 174 7.3001 174.2 7.3001 174.3C7.5001 174.3 7.6001 174.4 7.8001 174.4C8.0001 174.4 8.0001 174.4 8.0001 174.6C8.0001 174.7 8.0001 174.7 8.0001 174.8C8.0001 175 8.0001 175 7.8001 175.3C7.7001 175.4 7.7001 175.5 7.8001 175.5C7.9001 175.5 8.0001 175.5 7.9001 175.6C7.9001 175.6 7.8001 175.7 7.7001 175.7C7.8001 175.7 7.8001 175.7 7.9001 175.8C8.0001 175.8 8.0001 175.9 8.1001 176C8.2001 176.1 8.2001 176.1 8.1001 176.2C7.7001 176.3 7.7001 176.4 7.9001 176.7C8.0001 176.8 8.1001 176.8 8.1001 176.8L8.2001 176.9L8.1001 177C8.0001 177 7.9001 177 7.9001 177C7.8001 177 7.8001 177 7.7001 177C7.7001 177.1 7.8001 177.2 7.8001 177.2C7.9001 177.3 7.9001 177.4 7.8001 177.5C7.7001 177.6 7.7001 177.8 7.9001 177.9C7.9001 177.9 8.0001 178 7.9001 178C7.7001 178.1 8.0001 178.3 7.9001 178.4C7.7001 178.7 7.6001 179 7.8001 179.3C7.9001 179.4 7.8001 179.5 7.8001 179.7C7.8001 179.9 7.9001 179.8 8.0001 179.7C8.1001 179.6 8.2001 179.6 8.2001 179.8C8.2001 180.1 8.2001 180.1 7.9001 180.2C7.8001 180.2 7.8001 180.2 7.7001 180.3C7.8001 180.3 7.8001 180.3 7.9001 180.4C8.0001 180.4 8.0001 180.5 8.1001 180.6C8.3001 180.8 8.3001 181.1 8.0001 181.3C7.8001 181.4 7.8001 181.4 7.9001 181.6C8.0001 181.7 7.9001 181.9 8.1001 181.7C8.2001 181.9 7.9001 182 8.1001 182.2L8.0001 182.3C7.7001 182.1 7.8001 182.4 7.7001 182.5C7.9001 182.6 7.5001 182.9 7.9001 183C7.9001 183 7.9001 183.3 7.9001 183.4C7.9001 183.6 7.9001 183.6 8.1001 183.5C8.0001 183.8 8.4001 184 8.3001 184.3C8.3001 184.3 8.4001 184.4 8.3001 184.5C8.3001 184.5 8.2001 184.6 8.2001 184.7C8.2001 184.6 8.2001 184.6 8.1001 184.5C8.1001 184.4 8.1001 184.4 8.0001 184.3L7.9001 184.4C7.9001 184.6 7.9001 184.7 7.9001 184.9C7.9001 185 8.1001 185 8.1001 185.1C8.2001 185.2 7.9001 185.2 8.1001 185.4C8.1001 185.4 8.2001 185.5 8.1001 185.6C7.8001 185.8 7.9001 186.1 7.8001 186.4C7.8001 186.6 7.7001 186.7 7.9001 186.6L8.0001 186.7C7.9001 186.9 7.8001 187 8.0001 187.2L7.9001 187.3C7.9001 187.4 7.9001 187.4 7.9001 187.5C8.0001 187.5 8.1001 187.5 8.1001 187.4C8.1001 187.3 8.2001 187.2 8.3001 187.2C8.4001 187.2 8.4001 187.3 8.3001 187.4C8.2001 187.5 8.2001 187.6 8.1001 187.7L8.0001 187.8C8.4001 188 8.0001 188.2 8.0001 188.4V188.5C8.0001 188.5 8.0001 188.5 8.1001 188.6V188.4H8.2001C8.2001 188.6 8.1001 188.8 8.3001 189C8.2001 189 8.2001 189.1 8.1001 189C8.1001 188.9 8.0001 188.9 8.0001 188.8C8.0001 188.8 7.9001 188.7 7.8001 188.8L7.7001 188.9C7.7001 189 7.9001 189.1 7.7001 189.2C7.6001 189.3 7.7001 189.3 7.8001 189.3C8.1001 189.3 8.1001 189.4 7.9001 189.6C7.8001 189.7 7.8001 189.8 7.8001 190C7.8001 190 7.9001 190.1 7.9001 190.2C8.1001 190.3 8.1001 190.4 8.1001 190.5C8.1001 190.6 8.1001 190.6 8.0001 190.6C7.9001 190.7 7.8001 190.8 7.7001 190.9C7.5001 190.7 7.1001 191 7.1001 190.6L7.0001 190.5C6.9001 190.5 6.8001 190.5 6.7001 190.4C6.7001 190.1 6.2001 190 6.2001 189.7C6.2001 189.6 6.1001 189.4 6.1001 189.3C6.1001 189.3 5.9001 189.5 5.9001 189.3C5.9001 189.2 5.8001 189.1 5.6001 189.1C5.5001 189.1 5.7001 188.9 5.5001 188.8C5.3001 188.7 5.5001 188.6 5.5001 188.5C5.5001 188.4 5.5001 188.4 5.4001 188.3L5.2001 188.5C5.1001 188.5 5.1001 188.4 5.0001 188.3C5.0001 188.2 5.0001 188.1 5.0001 188C5.0001 187.9 5.0001 187.7 5.0001 187.7C4.8001 187.7 4.9001 187.4 4.7001 187.5C4.5001 187.6 4.6001 187.3 4.5001 187.3C4.4001 187.3 4.2001 187.3 4.2001 187.3C4.1001 187.2 4.1001 187.1 4.0001 187C3.8001 186.8 3.5001 186.8 3.5001 186.4H3.4001C3.1001 186.4 3.1001 186.3 3.2001 186.1C3.4001 185.9 3.3001 185.6 3.3001 185.4C3.3001 185.2 3.2001 185.2 3.1001 185.3C3.0001 185.4 3.0001 185.4 3.0001 185.2C3.0001 185.1 2.9001 185.1 2.9001 185.1C2.5001 185.4 2.4001 184.9 2.2001 184.8C2.2001 184.7 2.2001 184.6 2.3001 184.6C2.4001 184.6 2.5001 184.6 2.5001 184.6C2.6001 184.6 2.6001 184.5 2.7001 184.4C2.6001 184.4 2.6001 184.4 2.5001 184.3C2.4001 184.3 2.3001 184.2 2.2001 184.2C2.0001 184.2 2.0001 184.1 2.0001 184C2.0001 184 2.0001 183.9 1.9001 183.9C1.9001 184 1.9001 184 1.8001 184.1C1.7001 184.2 1.6001 184.2 1.6001 184.1C1.5001 183.8 1.1001 183.8 1.1001 183.5C0.900098 183.5 0.800098 183.5 0.600098 183.5C0.600098 182.6 0.600098 181.7 0.600098 180.9C0.700098 180.9 0.800098 180.8 0.800098 180.8V180.7H0.600098C0.600098 178.7 0.600098 176.8 0.600098 174.8C0.700098 174.8 0.800098 174.8 0.800098 174.8L0.900098 174.7C0.700098 174.5 0.800098 174.5 1.0001 174.4C1.1001 174.4 1.1001 174 1.3001 174.3C1.3001 174.3 1.4001 174.3 1.5001 174.3C1.6001 174.2 1.6001 174.2 1.7001 174.3C1.9001 174.5 1.9001 174.7 1.8001 174.9C1.8001 175 1.7001 175.1 1.7001 175.1C1.6001 175.2 1.5001 175.2 1.7001 175.3C1.6001 175.4 1.6001 175.4 1.5001 175.5V175.6C1.8001 175.7 1.8001 176 2.1001 176.2H2.2001V176.1C2.1001 175.9 2.0001 175.7 1.9001 175.5V175.4H2.0001C2.1001 175.5 2.2001 175.6 2.2001 175.7C2.3001 175.8 2.3001 175.8 2.4001 175.7C2.5001 175.6 2.5001 175.6 2.6001 175.5V175.4C2.5001 175.4 2.5001 175.3 2.4001 175.3C2.2001 175.2 2.1001 175.1 2.2001 175C2.2001 174.9 2.3001 174.9 2.3001 174.9C2.3001 174.9 2.4001 174.8 2.3001 174.7C2.0001 174.4 2.0001 174.1 2.0001 173.7C2.0001 173.6 2.0001 173.6 2.0001 173.5C2.1001 173.5 2.3001 173.4 2.4001 173.4C2.5001 173.4 2.8001 173.4 2.7001 173.7V173.8H2.8001C2.8001 173.7 2.9001 173.5 2.9001 173.4C2.8001 173.1 3.1001 173.3 3.1001 173.2C3.1001 173.1 3.0001 172.9 2.9001 173C2.7001 173.2 2.5001 173 2.5001 172.8C2.5001 172.6 2.4001 172.5 2.2001 172.4C2.1001 172 1.9001 172.4 1.7001 172.3C1.6001 172.3 1.6001 172.3 1.5001 172.3C1.5001 172.1 1.4001 172 1.3001 172C1.3001 172.1 1.2001 172.1 1.2001 172.2C1.1001 172.2 1.0001 172.2 1.0001 172.1C0.900098 172 0.900098 171.9 0.900098 171.8L1.0001 171.7C1.1001 171.7 1.2001 171.7 1.3001 171.7C1.4001 171.7 1.4001 171.7 1.5001 171.6C1.5001 171.5 1.5001 171.5 1.4001 171.4C1.4001 171.3 1.3001 171.3 1.2001 171.2C1.2001 171.1 1.2001 171 1.3001 171.1H1.4001C1.3001 170.8 1.1001 170.6 1.5001 170.4C1.5001 170.2 1.6001 170 1.4001 169.9V169.8H1.5001C1.6001 169.8 1.6001 169.8 1.7001 169.8H1.8001C1.8001 169.9 1.8001 169.9 1.8001 170C1.8001 170.1 1.7001 170.1 1.7001 170.1C1.6001 170.3 1.6001 170.4 1.8001 170.6C1.9001 170.7 1.9001 170.8 1.7001 170.8C1.6001 170.8 1.6001 170.9 1.6001 170.9C1.7001 171.1 1.6001 171.3 1.5001 171.5C1.5001 171.5 1.5001 171.7 1.6001 171.7C1.7001 171.7 1.8001 171.8 1.9001 171.6C1.9001 171.4 2.0001 171.3 2.0001 171.1V171L2.1001 171.1C2.0001 171.4 2.3001 171.4 2.4001 171.4C2.6001 171.4 2.4001 171.2 2.5001 171.2L2.6001 171.1C2.6001 171 2.6001 170.9 2.5001 170.9C2.4001 170.9 2.4001 170.9 2.3001 170.9C2.2001 170.9 2.2001 170.9 2.1001 170.8L2.4001 170.5C2.3001 170.3 2.6001 170.4 2.6001 170.3C2.6001 170.2 2.6001 170.1 2.6001 170C2.5001 169.9 2.4001 170 2.4001 170.1C2.4001 170.1 2.3001 170.2 2.2001 170.2C2.2001 170.1 2.2001 170 2.2001 170L2.4001 169.4C2.5001 169.3 2.4001 169.2 2.4001 169.2C2.3001 169.1 2.1001 169.1 2.0001 169.2H1.9001V169.1C2.0001 169 2.0001 169 2.1001 168.9C2.2001 168.9 2.7001 168.7 2.7001 168.6C2.7001 168.5 2.6001 168.4 2.6001 168.3C2.7001 168.2 2.7001 168.1 2.5001 168.1L2.4001 168C2.4001 167.8 2.6001 167.8 2.5001 167.5C2.4001 167.4 2.6001 167.2 2.7001 167C2.8001 166.8 2.6001 166.8 2.5001 166.8C2.5001 166.8 2.4001 167 2.3001 166.8C2.2001 166.6 2.2001 166.5 2.0001 166.5L1.9001 166.4L2.0001 166.3C2.1001 166.3 2.1001 166.3 2.2001 166.3C2.4001 166.3 2.4001 166.2 2.3001 166.1C3.0001 166 3.0001 166 3.1001 165.9C3.2001 165.8 3.2001 165.6 3.3001 165.5C3.3001 165.5 3.3001 165.4 3.2001 165.4C3.1001 165.4 2.9001 165.4 2.8001 165.4C2.9001 165.3 3.0001 165.2 3.1001 165.1C3.2001 165 3.2001 164.9 3.2001 164.8C3.2001 164.7 3.3001 164.6 3.1001 164.6C3.0001 164.6 3.0001 164.5 3.0001 164.5C3.0001 164.4 3.0001 164.3 3.0001 164.1C3.0001 163.9 3.0001 163.9 3.1001 163.9L3.2001 163.8C3.2001 163.7 3.1001 163.6 3.1001 163.6C3.1001 163.5 3.3001 163.5 3.3001 163.5C3.3001 163.4 3.4001 163.2 3.2001 163.3C3.2001 163.3 3.1001 163.2 3.2001 163.2C3.3001 163.1 3.3001 163.1 3.4001 163.1C3.6001 163.1 3.5001 163 3.4001 162.9C3.3001 162.9 3.3001 162.8 3.2001 162.8C3.0001 162.8 3.0001 162.7 3.1001 162.6C3.2001 162.5 3.2001 162.4 3.2001 162.3C3.2001 162.2 3.1001 162.1 3.0001 162C2.9001 161.9 2.7001 162.1 2.6001 161.9C2.6001 161.9 2.6001 161.8 2.5001 161.8C2.7001 161.8 2.7001 161.5 2.9001 161.5L3.0001 161.4C2.9001 161.1 3.3001 160.8 2.8001 160.6C2.8001 160.6 2.8001 160.5 2.7001 160.5C2.6001 160.4 2.9001 160.2 2.7001 160.1C2.8001 159.7 3.0001 160.2 3.1001 160H3.2001V159.9H3.1001C2.9001 159.9 2.9001 159.9 2.8001 159.6C2.8001 159.5 2.7001 159.3 2.7001 159.2C2.7001 159.1 2.6001 159.1 2.5001 159.1C2.4001 159.2 2.3001 159.2 2.3001 159.3L2.4001 159.4C2.7001 159.6 2.7001 159.6 2.5001 159.9C2.5001 160 2.4001 160 2.4001 160.1C2.4001 160.2 2.5001 160.3 2.5001 160.4C2.5001 160.5 2.4001 160.7 2.3001 160.7C2.2001 160.7 2.0001 160.7 2.1001 160.5C2.1001 160.3 2.0001 160.3 1.8001 160.3C1.6001 160.3 1.7001 160.5 1.7001 160.5C1.8001 160.7 1.8001 160.8 1.6001 160.9C1.4001 161 1.4001 161.1 1.5001 161.3C1.5001 161.4 1.5001 161.5 1.5001 161.5L1.4001 161.6C1.4001 161.6 1.3001 161.6 1.3001 161.5C1.2001 161.4 1.2001 161.3 1.2001 161.3C1.3001 161.2 1.3001 161.1 1.1001 161.1C1.0001 161.1 0.900098 161.1 0.800098 161.1C0.800098 160.3 0.800098 159.6 0.800098 158.8C0.900098 158.7 1.0001 158.7 1.1001 158.6C1.2001 158.5 1.4001 158.4 1.2001 158.1C1.1001 158 1.4001 157.8 1.5001 157.9C1.8001 158.1 2.1001 158 2.3001 157.8C2.4001 157.7 2.4001 157.5 2.6001 157.6L2.7001 157.5C2.6001 157.2 2.8001 157.1 3.0001 156.9C3.1001 156.8 3.0001 156.8 2.9001 156.7C2.8001 156.6 2.7001 156.4 2.6001 156.3C2.6001 156.2 2.5001 156 2.8001 156C2.9001 156 2.8001 155.9 2.8001 155.9L2.7001 155.8C2.9001 155.5 2.9001 155.1 3.0001 154.8C3.0001 154.7 3.1001 154.6 3.0001 154.5C2.8001 154.3 2.8001 154.1 2.8001 153.8C2.8001 153.6 2.8001 153.4 2.8001 153.3C2.8001 153.2 2.7001 153 2.7001 152.9C3.0001 152.6 2.5001 152.7 2.5001 152.6C2.5001 152.5 2.4001 152.4 2.7001 152.3C2.9001 152.3 2.9001 152.1 2.7001 152C2.6001 151.9 2.6001 151.7 2.7001 151.6L2.8001 151.5C2.8001 151.4 2.6001 151.3 2.7001 151.1C2.7001 151.1 2.7001 150.9 2.6001 150.8C2.5001 150.7 2.6001 150.7 2.6001 150.6C2.6001 150.5 2.6001 150.4 2.6001 150.3C2.5001 150.1 2.5001 150.1 2.7001 150C2.7001 150 2.7001 149.9 2.7001 149.8C2.7001 149.7 2.5001 149.6 2.5001 149.6C2.6001 149.5 2.6001 149.4 2.5001 149.3L2.6001 149.2C2.7001 149.2 2.7001 149.2 2.7001 149.1C2.6001 149 2.6001 149 2.5001 148.9C2.5001 148.9 2.5001 148.8 2.5001 148.7C2.7001 148.5 2.7001 148.5 2.7001 148.4C2.6001 148.3 2.7001 148.1 2.7001 148C2.8001 147.7 2.6001 147.4 2.6001 147.2C2.6001 147.1 2.8001 146.9 2.6001 146.8C2.8001 146.7 2.5001 146.6 2.6001 146.4C2.7001 146.1 2.5001 146 2.3001 145.8C2.2001 145.7 2.2001 145.7 2.1001 145.6C2.0001 145.5 2.0001 145.4 2.2001 145.4C2.3001 145.4 2.4001 145.3 2.4001 145.2C2.4001 144.9 2.6001 144.8 2.7001 144.5C2.7001 144.3 2.6001 144.4 2.5001 144.5C2.4001 144.5 2.4001 144.2 2.5001 144.2C2.7001 144.1 2.8001 144.1 2.6001 143.9C2.6001 143.9 2.6001 143.8 2.6001 143.7C2.6001 143.6 2.8001 143.5 2.7001 143.3C2.6001 143.2 2.8001 143 2.8001 142.8C2.8001 142.7 2.8001 142.5 2.7001 142.4C2.5001 142.2 2.5001 141.9 2.7001 141.7C2.7001 141.7 2.7001 141.6 2.8001 141.6C2.4001 141.5 2.7001 141.2 2.6001 141C2.6001 141 2.5001 141 2.5001 140.9C2.5001 140.9 2.4001 140.9 2.4001 140.8C2.5001 140.8 2.5001 140.8 2.6001 140.7C2.6001 140.6 2.7001 140.5 2.7001 140.5C2.5001 140.4 2.9001 140.2 2.7001 140.1C2.5001 140 2.7001 139.7 2.5001 139.6C2.4001 139.5 2.6001 139.3 2.5001 139.2C2.5001 139.2 2.6001 139.1 2.6001 139C2.7001 138.9 2.7001 138.9 2.6001 138.8C2.4001 138.7 2.5001 138.7 2.6001 138.5C2.7001 138.4 2.7001 138.3 2.7001 138.1C2.7001 138.1 2.6001 138 2.5001 138C2.5001 138 2.5001 137.9 2.5001 137.8C2.6001 137.7 2.7001 137.7 2.8001 137.6C2.9001 137.6 2.9001 137.5 3.0001 137.5C3.0001 137.5 2.9001 137.4 2.8001 137.4C2.6001 137.3 2.7001 137.2 2.7001 137.1C2.8001 137 2.8001 137.2 2.9001 137.2C3.0001 137.3 3.1001 137.4 3.2001 137.2C3.3001 137 3.3001 136.9 3.1001 136.9C2.9001 136.9 2.7001 136.8 2.6001 137H2.5001C2.4001 136.9 2.7001 136.8 2.5001 136.7C2.5001 136.7 2.5001 136.6 2.5001 136.5C2.6001 136.4 2.7001 136.2 2.8001 136.1C3.0001 135.9 3.0001 135.9 2.9001 135.6C2.8001 135.4 3.0001 135.5 3.0001 135.5C3.0001 135.4 3.0001 135.3 3.0001 135.3C2.8001 135.2 2.8001 135.2 2.9001 135C3.0001 134.9 3.0001 134.9 2.9001 134.8C2.8001 134.7 2.8001 134.5 2.5001 134.4C2.2001 134.3 2.2001 134.2 2.4001 134C2.4001 134 2.5001 134 2.6001 133.9C2.7001 133.7 2.9001 133.6 2.7001 133.4C2.7001 133.4 2.7001 133.3 2.7001 133.2C2.8001 133.2 2.9001 133.2 2.9001 133.2C3.0001 133.3 3.0001 133.2 3.0001 133.1C3.0001 132.9 2.8001 132.7 2.6001 132.8C2.4001 132.9 2.4001 132.8 2.5001 132.7C2.7001 132.5 2.6001 132.3 2.4001 132.2C2.3001 132.2 2.2001 132.2 2.3001 132.1C2.4001 132 2.4001 131.8 2.6001 132C2.7001 132.1 2.7001 132.1 2.8001 132.2C3.1001 132.5 3.1001 132.6 3.3001 132.5C3.4001 132.5 3.5001 132.5 3.5001 132.4C3.6001 132.1 3.7001 132.1 3.9001 132.1C4.0001 132.1 4.0001 132 4.1001 131.9L4.0001 131.8C3.9001 131.7 3.8001 131.7 3.8001 131.8C3.7001 131.9 3.7001 131.9 3.6001 132C3.4001 132.1 3.1001 132.1 3.0001 131.9C2.9001 131.7 2.9001 131.5 2.7001 131.4C2.7001 131.4 2.7001 131.3 2.7001 131.2C2.7001 131.1 2.8001 131.1 2.8001 131C2.8001 130.9 2.6001 130.9 2.7001 130.8C2.8001 130.6 2.9001 130.8 3.0001 130.8C3.1001 130.8 3.2001 130.8 3.1001 130.6C3.1001 130.6 3.2001 130.5 3.2001 130.4C3.3001 130.4 3.4001 130.4 3.5001 130.3C3.6001 130.2 3.8001 130.2 3.8001 130.1C3.8001 129.9 3.6001 130 3.5001 130C3.4001 130 3.4001 130 3.3001 130C3.3001 130 3.2001 130 3.2001 129.9L3.3001 129.8C3.6001 129.8 3.6001 129.5 3.6001 129.3C3.4001 129.2 3.4001 128.8 3.0001 128.8C2.9001 128.8 2.8001 128.8 2.8001 128.6C2.8001 128.5 2.8001 128.4 2.9001 128.3C2.9001 128.2 3.0001 128 3.2001 128.2C3.3001 128.3 3.4001 128.4 3.5001 128.1C3.5001 128 3.6001 128 3.6001 128C3.7001 127.8 3.6001 127.7 3.3001 127.7L3.2001 127.8C3.1001 127.8 3.0001 127.8 3.0001 127.7C3.0001 127.4 3.0001 127.3 3.3001 127.3C3.5001 127.3 3.7001 127.2 3.8001 127.1V127C3.8001 127 3.7001 126.9 3.7001 127C3.6001 127 3.6001 127.2 3.5001 127C3.4001 126.8 3.4001 126.7 3.6001 126.6C3.8001 126.5 4.0001 126.4 4.2001 126.4C4.2001 126.4 4.3001 126.3 4.2001 126.3C4.2001 126.3 4.1001 126.2 4.0001 126.2C3.9001 126.2 3.8001 126.3 3.7001 126.4C3.6001 126.4 3.4001 126.5 3.4001 126.4C3.3001 126.2 3.0001 126.1 2.9001 125.9C2.9001 125.9 2.9001 125.8 2.9001 125.7C3.0001 125.7 3.1001 125.7 3.1001 125.7C3.4001 125.9 3.3001 125.9 3.5001 125.5C3.6001 125.4 3.5001 125.1 3.8001 125.1L3.9001 124.9C3.8001 124.7 3.8001 124.6 4.0001 124.7C4.1001 124.7 4.1001 124.7 4.2001 124.7C4.3001 124.6 4.3001 124.5 4.4001 124.4C4.3001 124.4 4.3001 124.4 4.2001 124.3C3.9001 124.2 3.9001 124.1 4.0001 123.9C4.1001 123.7 4.2001 123.6 4.3001 123.5C4.4001 123.4 4.4001 123.3 4.2001 123.3C4.2001 123.3 4.1001 123.2 4.2001 123.1C4.3001 123 4.4001 122.9 4.5001 122.8C4.6001 122.7 4.5001 122.7 4.4001 122.7C4.1001 122.7 4.0001 122.5 3.9001 122.2C3.8001 122 4.1001 122 4.1001 121.8C4.1001 121.8 4.1001 121.7 4.0001 121.7C3.8001 121.6 3.8001 121.6 3.9001 121.5C4.0001 121.4 4.2001 121.4 4.2001 121.2C4.2001 121.1 4.2001 121.1 4.1001 121.1C4.0001 121.1 4.0001 121.1 3.9001 121.1C3.9001 121 3.9001 121 4.0001 120.9C3.9001 120.9 3.7001 120.9 3.9001 120.7C4.0001 120.7 4.0001 120.6 4.1001 120.5C4.2001 120.4 4.2001 120.4 4.0001 120.4C3.8001 120.4 3.7001 120.3 3.6001 120.1V120L3.7001 119.9C4.1001 119.8 4.1001 119.7 3.9001 119.5C3.8001 119.3 3.8001 119.3 3.9001 119.2C4.1001 119.1 4.0001 118.9 4.0001 118.7C4.0001 118.5 3.8001 118.6 3.7001 118.6H3.5001L3.6001 118.5C3.7001 118.4 3.7001 118.2 3.9001 118.2C3.7001 118.1 3.8001 117.8 3.5001 117.8C3.4001 117.8 3.4001 117.6 3.3001 117.6C3.0001 117.6 2.7001 117.2 2.4001 117.3L2.3001 117.2C2.4001 117.2 2.4001 117.1 2.5001 117.1C2.6001 117.2 2.7001 117.1 2.8001 117.1C2.9001 117.2 3.1001 117.1 3.2001 117.2C3.2001 117.2 3.3001 117.3 3.3001 117.4H3.4001C3.4001 117.3 3.4001 117.2 3.4001 117.2C3.4001 117.1 3.3001 116.9 3.5001 116.9C3.5001 116.9 3.6001 117.1 3.7001 117.2C3.7001 117.3 3.7001 117.4 3.7001 117.6C3.7001 117.7 3.8001 117.7 3.8001 117.8L3.9001 117.7C4.0001 117.6 4.0001 117.5 4.1001 117.4C4.2001 117.3 4.2001 117.2 4.2001 117C4.2001 116.9 4.2001 116.9 4.2001 116.8C4.2001 116.9 4.2001 116.9 4.1001 117C4.0001 117.1 3.9001 117.1 3.8001 117.2C3.7001 117.1 3.7001 117 3.6001 116.9L3.7001 116.7C3.9001 116.7 3.9001 116.5 4.0001 116.4C4.0001 116.4 4.0001 116.3 4.0001 116.2H3.9001C3.8001 116.2 3.8001 116.3 3.7001 116.3C3.7001 116.3 3.6001 116.3 3.6001 116.2C3.6001 116.2 3.6001 116.1 3.7001 116H3.8001C3.9001 116 3.9001 116 4.0001 115.9C4.1001 115.8 4.1001 115.7 4.1001 115.6L4.0001 115.5C3.9001 115.5 3.7001 115.4 3.6001 115.3C3.5001 115.1 3.6001 115.2 3.7001 115.2V115.1C3.3001 115.1 3.9001 114.7 3.5001 114.7C3.5001 114.6 3.9001 114.6 4.0001 114.7C4.0001 114.7 4.0001 114.8 4.1001 114.8C4.2001 114.8 4.3001 114.5 4.2001 114.4L4.1001 114.3C3.8001 114.1 3.8001 114 4.1001 113.8L4.2001 113.7C4.1001 113.6 4.1001 113.5 4.2001 113.4L4.1001 113.2C4.0001 113 3.8001 112.8 4.1001 112.6C4.2001 112.5 4.1001 112.4 3.9001 112.4C3.7001 112.4 3.7001 112.4 3.7001 112.2C3.7001 112.1 3.6001 111.9 3.8001 111.9C3.8001 111.9 3.8001 111.6 3.7001 111.5C3.6001 111.5 3.5001 111.5 3.5001 111.6L3.4001 111.7C3.2001 111.5 3.2001 111.3 3.4001 111.2C3.5001 111.1 3.6001 111.1 3.6001 111.1C4.0001 110.9 4.1001 110.4 3.7001 110C3.6001 109.9 3.5001 109.8 3.5001 109.6C3.5001 109.6 3.6001 109.5 3.6001 109.4C3.7001 109.3 3.7001 109.4 3.7001 109.5C3.7001 109.6 3.8001 109.6 3.9001 109.5C4.1001 109.3 4.0001 108.9 3.8001 108.8C3.5001 108.7 3.8001 108.7 3.8001 108.6C3.8001 108.5 3.8001 108.4 3.7001 108.5C3.7001 108.5 3.6001 108.5 3.5001 108.5H3.4001C3.4001 108.5 3.4001 108.4 3.5001 108.4C3.7001 108.3 3.9001 108.3 4.0001 108.2C4.1001 108.2 4.2001 108 4.0001 108C4.0001 108 3.9001 107.9 3.9001 107.8H3.8001V107.9H3.7001C3.6001 107.7 3.3001 107.7 3.5001 107.4C3.5001 107.4 3.5001 107.3 3.4001 107.3C3.3001 107.3 3.2001 107.3 3.2001 107.3C3.1001 107.3 3.1001 107.2 3.1001 107.2C3.3001 106.9 2.9001 106.6 3.3001 106.4V106.3C3.2001 106.2 3.2001 106.1 3.3001 106C3.2001 105.9 3.1001 105.8 3.1001 105.7L3.0001 105.6C3.2001 105.5 2.9001 105.4 2.9001 105.3C2.9001 105.2 2.8001 105 2.8001 104.9C2.8001 104.8 2.9001 104.6 2.9001 104.5C2.8001 104.4 2.9001 104.3 2.9001 104.2C2.9001 104.1 3.0001 104.1 3.0001 104.1L3.1001 104.2C3.1001 104.4 3.3001 104.6 3.2001 104.9C3.2001 104.9 3.2001 105 3.2001 105.1C3.2001 105.1 3.2001 105 3.3001 105C3.6001 104.6 3.8001 104.3 3.3001 103.9C3.2001 103.8 3.2001 103.7 3.4001 103.7C3.5001 103.7 3.6001 103.7 3.6001 103.7C3.8001 103.5 3.9001 103.6 3.9001 103.9C3.9001 103.9 3.9001 104 4.0001 104L4.1001 103.9C4.2001 103.8 4.2001 103.8 4.1001 103.7C3.9001 103.5 3.9001 103.3 4.1001 103.1C4.2001 103 4.2001 102.8 4.0001 102.7C3.7001 102.4 3.6001 102 3.8001 101.5C3.9001 101.3 3.9001 101 3.8001 100.8V100.7C4.0001 100.6 4.0001 100.4 3.8001 100.3C3.8001 100.3 3.7001 100.2 3.8001 100.1C3.9001 100 3.9001 100.1 4.0001 100.1C4.2001 100 4.3001 99.8 4.1001 99.6C4.0001 99.5 3.9001 99.4 4.2001 99.4C4.2001 99.4 4.2001 99.3 4.3001 99.2C4.4001 99 4.1001 98.9 4.3001 98.7C4.2001 98.6 4.2001 98.5 4.1001 98.5C3.8001 98.5 3.9001 98.3 4.0001 98.2C4.1001 98 4.3001 97.9 4.4001 97.7V97.6H4.3001C4.2001 97.6 4.1001 97.7 4.1001 97.7C4.0001 97.8 4.0001 97.8 4.0001 97.7C4.2001 98.2 4.0001 98 4.0001 97.9C4.0001 97.9 3.9001 97.8 3.9001 97.7L4.0001 97.6C4.1001 97.6 4.1001 97.6 4.2001 97.7C4.2001 97.7 4.2001 97.8 4.3001 97.9L4.4001 97.8C4.4001 97.6 4.4001 97.4 4.4001 97.3C4.2001 97 4.6001 97.1 4.6001 96.9C4.6001 96.8 4.5001 96.8 4.5001 96.9C4.2001 97.1 4.0001 96.8 3.7001 96.8V96.7C4.0001 96.7 4.0001 96.4 4.0001 96.2L4.1001 96.1C4.1001 96.1 4.2001 96.1 4.2001 96.2C4.2001 96.2 4.2001 96.3 4.3001 96.4H4.4001L4.5001 96.3C4.5001 96.1 4.4001 95.9 4.3001 95.8C3.9001 95.4 4.0001 95.2 4.1001 95C4.2001 94.9 4.2001 94.8 4.2001 94.6C4.2001 94.5 4.2001 94.4 4.3001 94.4C4.2001 94.4 4.1001 94.4 4.0001 94.4C3.9001 94.4 3.9001 94.5 3.9001 94.5C3.8001 94.6 3.7001 94.6 3.7001 94.5C3.7001 94.5 3.7001 94.3 3.8001 94.3C3.8001 94.3 3.9001 94.3 4.0001 94.2C4.2001 94 4.3001 93.9 4.2001 93.6C4.1001 93.5 4.2001 93.3 4.2001 93.3C4.0001 93.1 4.4001 93.1 4.2001 93V92.9C4.2001 92.7 4.0001 92.7 4.0001 92.6C4.0001 92.5 4.2001 92.4 4.2001 92.3C4.1001 92.1 4.0001 92 4.0001 91.9C3.9001 91.7 3.9001 91.7 4.2001 91.7H4.3001C4.2001 91.5 4.1001 91.4 4.0001 91.2C3.9001 91.3 3.9001 91.3 3.8001 91.2C3.7001 91.1 3.8001 91 3.9001 91C4.0001 90.9 4.0001 90.9 3.9001 90.8C3.8001 90.8 3.7001 90.7 3.6001 90.6V90.5C3.9001 90.6 3.9001 90.3 4.1001 90.2C4.0001 90 4.1001 90 4.1001 90.1C4.1001 90.1 4.1001 90.2 4.2001 90.2V90.1C4.2001 90 4.2001 89.9 4.1001 89.8C4.0001 89.7 3.9001 89.6 4.1001 89.5C4.2001 89.4 4.3001 89.3 4.1001 89.3V89.2C4.1001 89.1 4.1001 89 4.0001 88.9C4.2001 88.7 4.0001 88.4 4.2001 88.3C4.4001 88.1 4.3001 87.9 4.3001 87.6C4.2001 87.3 4.3001 87.3 4.1001 87.2V87.1C4.2001 87 4.3001 86.8 4.4001 86.7C4.5001 86.6 4.6001 86.5 4.3001 86.5C4.2001 86.5 4.1001 86.2 4.2001 86.2C4.5001 86.1 4.4001 85.8 4.4001 85.8C4.2001 85.7 4.5001 85.3 4.1001 85.3C4.1001 85.1 4.2001 85 4.0001 84.8C4.0001 84.8 4.0001 84.7 4.0001 84.6C4.0001 84.6 4.0001 84.6 4.1001 84.6C4.2001 84.5 4.3001 84.5 4.2001 84.4C4.1001 84.3 4.0001 84.2 3.9001 84.1C3.7001 83.9 3.8001 83.7 4.1001 83.6C4.3001 83.5 4.2001 83.4 4.2001 83.3C4.1001 83.3 4.1001 83.2 4.0001 83.3C3.9001 83.3 3.8001 83.4 3.7001 83.4H3.6001V83.3C3.7001 83.2 3.8001 83 3.9001 82.9C4.1001 82.9 4.1001 82.8 4.0001 82.7C3.9001 82.6 3.8001 82.6 4.0001 82.5C4.1001 82.5 4.1001 82.3 4.0001 82.3C3.9001 82.3 3.8001 82.2 3.9001 82.1C4.0001 82 4.1001 81.9 3.9001 81.8V81.7C3.9001 81.6 4.0001 81.5 4.0001 81.5C3.9001 81.4 3.9001 81.3 3.7001 81.5L3.5001 81.4C3.5001 81.4 3.5001 81.3 3.6001 81.2C3.8001 81.1 3.7001 81 3.6001 80.9C3.4001 80.6 3.4001 80.6 3.7001 80.3L3.8001 80.2V80.1L3.7001 80C3.5001 80 3.5001 80 3.5001 79.9C3.5001 79.8 3.5001 79.6 3.4001 79.5C3.3001 79.4 3.3001 79.2 3.4001 79.1C3.6001 78.9 3.5001 78.7 3.3001 78.6C3.3001 78.6 3.2001 78.5 3.3001 78.5C3.6001 78.2 3.3001 77.9 3.5001 77.6C3.5001 77.5 3.6001 77.5 3.6001 77.4C3.7001 77.2 3.6001 77.1 3.5001 77C3.3001 76.9 3.3001 77.1 3.3001 77.2C3.3001 77.3 3.2001 77.3 3.2001 77.3C3.1001 77.3 3.0001 77.1 3.1001 77C3.1001 77 3.0001 76.7 3.2001 76.7C3.2001 76.5 3.2001 76.4 3.3001 76.2C3.3001 76.2 3.3001 76.1 3.2001 76.1L3.1001 76.2C3.1001 76.4 2.9001 76.4 2.8001 76.3C2.7001 76.3 2.6001 76.2 2.6001 76.1V76C2.8001 76 2.8001 75.9 2.7001 75.8C2.7001 75.7 2.8001 75.6 2.8001 75.6C2.9001 75.6 2.9001 75.7 3.0001 75.7H3.1001L3.2001 75.6L3.1001 75.5C3.1001 75.4 3.0001 75.4 3.0001 75.3C3.1001 75.3 3.2001 75.3 3.2001 75.3L3.3001 75.4C3.4001 75.4 3.4001 75.4 3.5001 75.4C3.5001 75.3 3.5001 75.3 3.5001 75.2C3.4001 75 3.0001 74.9 3.4001 74.6C3.2001 74.4 3.4001 74.3 3.5001 74.1C3.5001 74.1 3.5001 74 3.4001 74C3.3001 73.9 3.2001 73.8 3.1001 73.7C3.1001 73.7 3.0001 73.6 3.1001 73.6C3.2001 73.4 3.3001 73.3 3.4001 73.1C3.4001 73.1 3.5001 73.1 3.6001 73.2C3.6001 73.1 3.6001 73 3.5001 73C3.4001 73 3.4001 72.9 3.4001 72.8C3.8001 72.5 3.5001 72.1 3.6001 71.7C3.3001 71.5 3.6001 71.4 3.6001 71.3C3.6001 71.2 3.7001 71.2 3.8001 71.1V71H3.7001C3.7001 71 3.6001 71 3.6001 71.1C3.3001 71.2 3.2001 71.2 3.2001 70.8C3.2001 70.6 3.3001 70.4 3.4001 70.2C3.5001 69.9 3.5001 69.6 3.3001 69.3H3.1001C3.0001 69.2 3.0001 69.1 3.0001 69L3.1001 68.9C3.2001 68.9 3.3001 69.2 3.3001 68.9C3.3001 68.7 3.3001 68.5 3.1001 68.5C3.0001 68.2 3.0001 67.9 2.8001 67.7V67.6H2.9001C3.0001 67.7 3.1001 67.9 3.2001 68H3.3001V67.9C3.3001 67.7 3.3001 67.6 3.2001 67.5C3.1001 67.4 3.2001 67.2 3.3001 67.1C3.4001 67 3.5001 66.9 3.3001 66.7C3.3001 66.7 3.3001 66.5 3.4001 66.5C3.6001 66.3 3.6001 66.2 3.4001 65.9C3.4001 65.9 3.4001 65.8 3.5001 65.7L3.6001 65.8C3.7001 65.8 3.7001 65.8 3.8001 65.8C3.8001 65.7 3.8001 65.6 3.7001 65.6C3.6001 65.5 3.5001 65.4 3.4001 65.4C3.3001 65.3 3.3001 65 3.4001 65.1C3.7001 65.3 3.6001 65 3.6001 64.9C3.6001 64.8 3.6001 64.7 3.5001 64.6C3.4001 64.5 3.3001 64.4 3.5001 64.3C3.8001 64.1 3.7001 63.9 3.6001 63.6C3.6001 63.5 3.5001 63.4 3.5001 63.3C3.5001 63.2 3.5001 63.2 3.6001 63.1C3.6001 63.1 3.8001 63.1 3.7001 63C3.7001 63 3.6001 62.8 3.5001 62.9H3.4001C3.3001 62.7 3.2001 62.5 3.1001 62.3V62.2H3.2001C3.3001 62.3 3.3001 62.4 3.4001 62.5C3.4001 62.5 3.4001 62.6 3.5001 62.6L3.6001 62.5C3.6001 62.3 3.6001 62.2 3.5001 62C3.5001 61.8 3.6001 61.7 3.5001 61.6C3.4001 61.5 3.4001 61.5 3.6001 61.4C3.6001 61.4 3.7001 61.3 3.6001 61.3C3.5001 61.1 3.5001 60.8 3.5001 60.6C3.5001 60.3 3.5001 60.2 3.4001 60.1L3.3001 60C3.6001 59.8 3.5001 59.5 3.5001 59.2C3.5001 59 3.5001 58.9 3.3001 58.9C3.3001 58.8 3.3001 58.8 3.3001 58.7C3.3001 58.7 3.4001 58.7 3.5001 58.7C3.4001 58.5 3.8001 58.3 3.5001 58.1C3.4001 58 3.4001 57.7 3.5001 57.6C3.6001 57.4 3.5001 57.5 3.4001 57.4C3.2001 57.4 3.4001 57.3 3.4001 57.3C3.3001 57.1 3.4001 56.9 3.5001 56.7C3.6001 56.3 3.5001 56 3.2001 55.7C3.1001 55.6 3.0001 55.3 3.1001 55.1C3.1001 55.1 3.2001 55.1 3.3001 55.1H3.4001C3.4001 55 3.4001 54.9 3.4001 54.9H3.2001C3.2001 54.5 3.2001 54.2 3.2001 53.8C3.2001 53.8 3.3001 53.8 3.3001 53.7V53.6C3.3001 53.5 3.3001 53.4 3.2001 53.3C3.1001 53.1 3.1001 53.1 3.3001 53.1C3.4001 53.1 3.4001 52.9 3.4001 52.9V52.8C3.1001 52.8 3.0001 52.6 2.8001 52.4V52.3C2.9001 52.2 2.8001 52.1 2.7001 52C2.7001 52 2.6001 51.9 2.6001 51.8C2.7001 51.7 2.7001 51.5 2.7001 51.3C2.7001 51.1 2.8001 51.1 2.9001 51.1H3.0001L2.9001 51C3.0001 51.1 3.1001 51.1 2.9001 51C2.9001 51 2.9001 50.8 3.0001 50.8C3.1001 50.8 3.2001 50.8 3.1001 50.7C3.0001 50.6 2.9001 50.5 3.0001 50.4C3.3001 50.1 2.9001 50.3 2.9001 50.2V50.1C3.0001 50.1 3.1001 50 3.0001 49.9C2.8001 49.7 3.0001 49.5 2.9001 49.3L3.0001 49.2C3.1001 49.1 3.3001 49.1 3.3001 49C3.4001 48.9 3.3001 48.7 3.2001 48.6V48.5C3.2001 48.2 3.2001 48 3.1001 47.7C3.1001 47.6 3.0001 47.3 2.7001 47.4C2.6001 47.4 2.4001 46.9 2.5001 46.9C2.7001 46.7 2.8001 46.9 3.0001 47C3.0001 47 3.1001 47.1 3.1001 47C3.2001 47 3.3001 46.9 3.3001 46.9C3.2001 46.8 3.2001 46.8 3.1001 46.7C3.0001 46.6 2.8001 46.6 2.8001 46.5C2.8001 46.2 2.6001 46.4 2.5001 46.3L2.4001 46.4C2.3001 46.4 2.2001 46.3 2.1001 46.2C2.2001 46.2 2.2001 46.1 2.3001 46.1C2.6001 46.1 2.7001 45.6 3.0001 45.7C3.0001 45.5 2.9001 45.3 3.1001 45.1C3.0001 45.1 3.0001 45 2.9001 45C2.9001 44.9 3.0001 44.8 3.0001 44.8C3.1001 44.7 3.2001 44.5 3.1001 44.4C3.0001 44.3 2.9001 44.5 2.7001 44.5C2.6001 44.5 2.6001 44.5 2.5001 44.5V44.4C2.5001 44.3 2.6001 44.2 2.6001 44.1C2.6001 43.9 2.7001 43.8 2.9001 44H3.0001C3.0001 43.9 3.0001 43.7 3.0001 43.6C2.9001 43.6 2.9001 43.6 2.8001 43.7C2.8001 43.6 2.9001 43.5 2.9001 43.5V43.4C2.9001 43.2 3.0001 43 2.7001 42.9C2.5001 42.7 2.7001 42.5 2.6001 42.3C2.6001 42.2 2.5001 42.5 2.4001 42.3C2.4001 42.2 2.4001 42.1 2.3001 42V41.9C2.7001 41.9 2.5001 41.5 2.7001 41.4C2.8001 41.3 2.7001 41.3 2.5001 41.2C2.3001 41.1 2.3001 40.9 2.4001 40.9C3.0001 40.6 3.0001 40.5 2.8001 40.3C2.7001 40.2 2.7001 40.1 2.6001 40C2.6001 39.9 2.7001 39.8 2.8001 39.8C2.8001 39.8 2.8001 39.9 2.9001 39.9C2.9001 39.9 2.9001 40 3.0001 40C3.1001 39.9 3.1001 39.9 3.2001 39.8V39.7C3.1001 39.7 2.9001 39.7 2.8001 39.7C2.7001 39.7 2.6001 39.8 2.6001 39.9H2.5001C2.4001 39.8 2.3001 39.7 2.4001 39.6V39.5C2.1001 39.5 2.2001 39.2 2.2001 39.1C2.4001 38.9 2.3001 38.6 2.3001 38.4C2.3001 38.2 2.3001 38 2.3001 37.7C2.3001 37.5 2.4001 37.4 2.5001 37.6C2.6001 37.7 2.6001 37.5 2.7001 37.5L2.6001 37.4C2.4001 37.3 2.2001 37.3 1.9001 37.3L1.8001 37.2C1.9001 37 2.0001 36.7 1.8001 36.5L1.9001 36.4C2.1001 36.3 2.2001 36.2 2.4001 36.1C2.4001 36.1 2.5001 36.1 2.6001 36.2C2.6001 36.1 2.4001 35.8 2.4001 35.8C2.1001 36 2.2001 35.6 2.0001 35.6C2.0001 35.6 1.9001 35.5 1.9001 35.4C2.0001 35.4 2.0001 35.4 2.1001 35.4C2.2001 35.4 2.2001 35.4 2.3001 35.4C2.3001 35.3 2.3001 35.3 2.3001 35.2C2.2001 35 2.0001 34.9 2.3001 34.7V34.6C2.1001 34.6 2.0001 34.5 2.0001 34.3C2.0001 34.2 2.0001 34.1 2.0001 34C2.1001 33.8 2.0001 33.6 2.2001 33.4C2.0001 33.2 2.2001 33 2.2001 32.8C2.2001 32.7 2.1001 32.6 2.1001 32.5C1.9001 32.3 2.1001 32.4 2.2001 32.3C2.2001 32.3 2.3001 32.2 2.2001 32.2L2.1001 32.1C2.0001 32.1 1.9001 32.2 1.8001 32.2H1.7001V32.1C1.8001 32 1.9001 31.9 2.0001 31.8C2.0001 31.8 2.1001 31.9 2.2001 31.9C2.3001 31.9 2.4001 31.8 2.4001 31.8C2.4001 31.7 2.4001 31.5 2.3001 31.4C2.3001 31.3 2.3001 31.2 2.3001 31.2C2.5001 31.1 2.4001 30.9 2.4001 30.8C2.4001 30.6 2.6001 30.5 2.3001 30.6H2.2001C2.2001 30.4 2.3001 30.2 2.1001 30C1.9001 29.9 2.0001 29.9 2.0001 29.8V29.7C1.7001 29.7 1.8001 29.4 1.7001 29.2C1.6001 29.1 1.6001 29 1.4001 29.2C1.3001 29.3 1.2001 29.2 1.2001 29.1C1.2001 29 1.3001 28.8 1.3001 28.7C1.4001 28.6 1.4001 28.6 1.3001 28.5C1.2001 28.4 1.1001 28.4 1.0001 28.3C1.1001 28.2 1.2001 28.1 1.3001 28L1.4001 28.1C1.6001 28.1 1.7001 27.9 1.6001 27.8C1.5001 27.7 1.4001 27.6 1.4001 27.4C1.4001 27.4 1.3001 27.3 1.2001 27.3C1.0001 27.2 0.900098 27.2 1.1001 27C1.2001 26.9 1.3001 26.9 1.4001 26.8L1.5001 26.7C1.3001 26.6 1.4001 26.4 1.4001 26.2C1.4001 25.9 1.2001 25.9 0.900098 26C0.900098 17.7 0.900098 9.40001 0.900098 1.00001C1.0001 1.00001 1.1001 1.00001 1.1001 1.00001C1.4001 0.800007 1.7001 0.900007 2.1001 1.00001C2.5001 1.10001 2.9001 1.30001 3.3001 1.00001C3.3001 1.00001 3.3001 1.00001 3.4001 1.00001C3.5001 1.00001 3.6001 1.10001 3.7001 1.20001C3.6001 1.20001 3.4001 1.30001 3.4001 1.30001C3.3001 1.20001 3.2001 1.20001 3.1001 1.30001C3.1001 1.50001 3.0001 1.60001 2.9001 1.70001H2.8001C2.8001 1.30001 2.5001 1.50001 2.4001 1.60001C2.3001 1.60001 2.3001 1.70001 2.2001 1.60001C1.8001 1.40001 1.6001 1.60001 1.4001 1.90001V2.00001H1.5001C1.8001 2.00001 2.1001 2.00001 2.2001 2.00001C2.3001 2.10001 2.5001 2.30001 2.5001 2.40001C2.3001 2.50001 2.1001 2.50001 2.0001 2.40001C1.8001 2.30001 1.9001 2.40001 1.8001 2.50001H1.7001C1.5001 2.30001 1.4001 2.70001 1.2001 2.50001C1.2001 2.60001 1.1001 2.60001 1.1001 2.70001L1.2001 2.80001C1.4001 2.90001 1.6001 2.50001 1.8001 2.80001C2.0001 2.60001 2.1001 2.70001 2.1001 3.00001C2.1001 3.20001 2.2001 3.30001 2.3001 3.20001C2.5001 3.20001 2.7001 3.30001 2.9001 3.10001C3.0001 3.00001 3.3001 3.00001 3.3001 3.10001C3.7001 3.30001 4.2001 3.00001 4.6001 3.30001C4.9001 3.10001 5.2001 3.20001 5.6001 3.20001C5.8001 3.20001 5.8001 3.10001 5.8001 2.90001C5.8001 2.70001 5.9001 2.90001 6.0001 2.90001C6.1001 2.80001 6.3001 2.80001 6.4001 2.80001C6.6001 2.70001 6.2001 3.20001 6.2001 3.40001C6.2001 3.60001 6.2001 3.80001 6.2001 3.90001C6.3001 4.20001 6.5001 4.40001 6.6001 4.60001C6.9001 5.20001 6.7001 5.90001 6.5001 6.50001C6.2001 7.20001 5.9001 7.80001 6.1001 8.50001C6.2001 8.70001 6.3001 9.00001 6.4001 9.20001C6.6001 9.80001 6.6001 10.5 6.5001 11.2C6.4001 11.7 5.8001 11.8 5.7001 12.4H5.6001C5.6001 12.2 5.2001 12.2 5.3001 11.9C5.3001 11.8 5.3001 11.6 5.4001 11.5C5.3001 11.3 5.6001 11.2 5.4001 11L5.5001 10.8C5.6001 10.8 5.8001 10.8 5.8001 10.8C6.0001 11 6.1001 10.8 6.1001 10.9C6.2001 11 6.2001 10.8 6.3001 10.9L6.4001 12.8ZM2.6001 5.70001C2.5001 5.70001 2.4001 5.80001 2.3001 5.80001C2.2001 5.80001 2.2001 5.90001 2.2001 6.00001C2.3001 6.00001 2.3001 6.00001 2.4001 6.00001C2.6001 6.00001 2.8001 5.90001 2.9001 6.00001C3.1001 6.20001 3.5001 6.20001 3.7001 6.50001C3.8001 6.60001 3.9001 6.60001 4.0001 6.50001L4.1001 6.40001C4.1001 6.10001 4.3001 6.20001 4.5001 6.30001C4.6001 6.40001 4.7001 6.60001 4.8001 6.30001C4.8001 6.30001 4.9001 6.30001 5.0001 6.30001C5.1001 6.30001 5.2001 6.30001 5.4001 6.30001C5.6001 6.30001 5.6001 6.20001 5.6001 6.10001C5.6001 5.80001 5.4001 5.70001 5.3001 5.60001L5.2001 5.50001C5.2001 5.60001 5.2001 5.60001 5.2001 5.70001C5.2001 5.90001 5.1001 5.90001 5.0001 5.80001C4.9001 5.80001 4.9001 5.60001 4.8001 5.60001C4.6001 5.60001 4.4001 5.40001 4.2001 5.60001C3.9001 5.90001 3.8001 5.90001 3.5001 5.60001C3.0001 5.50001 2.9001 5.50001 2.9001 5.70001H2.8001C2.7001 5.70001 2.7001 5.70001 2.6001 5.70001Z"/>
</svg>
