<svg width="21" height="80" viewBox="0 0 21 80" fill="currentColor" xmlns="http://www.w3.org/2000/svg" preserveAspectRatio="none">
<path d="M7.4566 60.9819C7.44907 61.2136 7.59488 61.0328 7.63959 61.0922C7.65839 60.8725 7.63886 60.756 7.56859 60.7653C7.55694 60.7649 7.54529 60.7645 7.53364 60.7641C7.55092 60.9502 7.50357 60.9719 7.4566 60.9819Z"/>
<path d="M10.0022 60.5197C9.99539 60.3687 9.91197 60.424 9.8541 60.4105C9.8308 60.4098 9.8075 60.409 9.77256 60.4079C9.73761 60.4067 9.69101 60.4052 9.65607 60.4041C9.67598 60.5091 9.73385 60.5226 9.71542 60.7307C9.88489 60.8985 9.85372 60.4221 10.0022 60.5197Z"/>
<path d="M6.88356 61.3923C6.93243 60.9649 6.80091 61.065 6.69607 61.0616C6.66112 61.0604 6.66863 61.1882 6.65397 61.2805C6.68892 61.2816 6.73551 61.2832 6.77046 61.2843C6.82983 61.2514 6.83734 61.3792 6.88356 61.3923Z"/>
<path d="M6.31049 61.8027C6.43522 62.2705 6.60361 61.3948 6.64492 61.9179C6.65245 61.6863 6.62126 61.5693 6.53897 61.5898C6.52732 61.5894 6.51567 61.5891 6.50402 61.5887C6.51753 61.8906 6.29697 61.5008 6.31049 61.8027Z"/>
<path d="M3.96883 41.2736C3.97222 41.1694 3.96433 41.0532 3.96772 40.9489C3.88618 40.9463 3.80463 40.9436 3.73474 40.9414C3.58856 41.1337 3.86399 41.2702 3.96883 41.2736Z"/>
<path d="M19.4862 13.0346C19.5666 12.7125 19.4148 12.7192 19.4956 12.3856C19.5117 12.2469 19.5937 12.238 19.5877 12.0639C19.5072 12.0265 19.4877 11.9099 19.3464 11.9517C19.3487 11.8822 19.3626 11.8131 19.3652 11.732C19.4355 11.7227 19.4415 11.5374 19.4573 11.4104C19.4216 11.073 19.5824 11.1477 19.6227 10.9867C19.6249 10.9172 19.6388 10.8481 19.6415 10.767C19.6426 10.7323 19.6437 10.6975 19.6565 10.6632C19.6606 10.5358 19.6648 10.4084 19.5588 10.4397C19.5794 10.881 19.1748 10.4156 19.2503 10.963C19.18 10.9723 19.0763 10.9342 19.0488 11.0608C19.0763 11.2936 19.2991 11.2545 19.2412 11.6005C19.1597 11.5978 19.0781 11.5952 18.9966 11.5925C19.1014 11.2365 18.8155 11.4243 18.7125 11.363C18.6351 11.2329 18.5652 11.2307 18.4679 11.355C18.4735 11.1813 18.5149 10.9855 18.3736 11.0273C18.2966 10.8857 18.3537 10.5629 18.3864 10.2741C18.4014 10.1702 18.4048 10.066 18.4202 9.95053C18.3274 9.93592 18.1985 9.95492 18.2526 9.72478C18.2808 9.57497 18.4187 9.63742 18.5123 9.62887C18.5187 9.43196 18.4188 8.91855 18.5984 8.77366C18.6243 8.69334 18.6608 8.64814 18.7299 8.67358C18.7822 8.14192 18.8348 7.59868 18.8871 7.06702C18.9919 6.711 18.7063 6.88723 18.5913 6.83712C18.5891 6.90661 18.5752 6.97573 18.5725 7.05681C18.5372 7.06725 18.4906 7.06574 18.4993 7.15878C18.4527 7.15726 18.4177 7.15613 18.3711 7.15461C18.3163 7.04848 18.3839 6.76081 18.2069 6.82463C18.2047 6.89412 18.1908 6.96324 18.1881 7.04432C18.1648 7.04356 18.1415 7.0428 18.1182 7.04205C17.809 7.22911 18.0739 6.6116 17.8259 6.7079C17.8248 6.74265 17.8236 6.77739 17.8109 6.81176C17.4385 6.78807 17.8236 6.77739 17.7898 6.38208C17.9315 6.68814 17.9672 6.30668 18.0649 6.17071C18.1844 6.08184 18.272 5.89917 18.4133 5.85738C18.355 6.21492 18.6752 6.0514 18.7755 6.1938C18.7917 6.05519 18.8082 5.90499 18.8127 5.76601C18.8935 5.43239 18.8777 5.55941 18.865 5.23435C18.6925 5.15918 18.718 5.44987 18.6448 5.55184C18.4099 5.60219 18.4806 5.22186 18.5144 4.89831C18.2397 4.73865 18.4584 5.54579 18.2603 5.53936C18.1514 5.30392 17.8996 4.79717 18.024 4.55773C18.2112 4.54062 18.1172 4.92019 18.4013 4.79028C18.4479 4.7918 18.4828 4.79293 18.5294 4.79444C18.6564 4.83335 18.6854 5.01981 18.7635 5.1267C18.7579 4.941 18.8282 4.93169 18.9105 4.91118C18.8796 5.14207 18.9341 5.25978 19.0747 5.24116C19.0739 4.90489 19.2269 4.86348 19.2156 4.49209C19.1457 4.48982 19.0875 4.48792 19.0176 4.48565C19.0164 4.5204 19.0153 4.55515 19.0025 4.58952C18.9045 4.37763 18.7707 4.5472 18.6065 4.57665C18.6106 4.44924 18.6512 4.27664 18.5704 4.25083C18.4077 4.23395 18.2333 4.21669 18.2781 3.91668C18.2792 3.88193 18.2803 3.84718 18.2931 3.81281C18.375 3.80388 18.4457 3.78299 18.44 3.59729C18.4412 3.56254 18.4423 3.52779 18.4551 3.49343C18.2428 3.56769 18.4089 3.1209 18.1477 3.26314C18.1522 3.12415 18.0711 3.10992 18.1116 2.93732C18.2255 2.66275 18.3732 2.42406 18.5637 2.3027C18.5788 2.19884 18.5825 2.08302 18.5976 1.97915C18.5168 1.95334 18.4104 1.99626 18.4029 1.86848C18.3097 1.86545 18.25 1.90989 18.1898 1.96591C18.1433 1.96439 18.0967 1.96288 18.0617 1.96174C17.9967 1.8089 17.7126 1.93881 17.831 1.52525C17.7844 1.52373 17.7378 1.52222 17.7029 1.52108C17.6796 1.52033 17.6563 1.51957 17.633 1.51881C17.6352 1.44932 17.6491 1.3802 17.6518 1.29912C17.5248 1.26021 17.5071 1.44516 17.4349 1.51238C17.4391 1.38497 17.4316 1.25719 17.3139 1.28815C17.3076 1.48505 17.2241 1.54031 17.0971 1.5014C17.0738 1.50065 17.0505 1.49989 17.0272 1.49913C16.9573 1.49686 16.8991 1.49497 16.8292 1.4927C16.7593 1.49043 16.7011 1.48854 16.6312 1.48627C16.4902 1.51647 16.4222 1.45629 16.4519 1.26014C16.3366 1.22161 16.3211 1.33706 16.305 1.47567C16.2351 1.4734 16.1768 1.47151 16.107 1.46924C16.1611 1.2391 16.0322 1.2581 15.9277 1.24311C15.8578 1.24084 15.7996 1.23895 15.7297 1.23668C15.6365 1.23365 15.5549 1.231 15.4618 1.22798C15.4595 1.29747 15.4572 1.36697 15.443 1.44766C15.2175 1.56788 15.4193 1.09906 15.1938 1.21927C15.1006 1.21624 15.1179 1.40232 15.0469 1.4348C15.051 1.30739 15.0435 1.1796 14.9259 1.21057C14.9 1.29089 14.9075 1.41867 14.8489 1.42836C14.8023 1.42685 14.7557 1.42534 14.7207 1.4242C14.7117 1.34274 14.7275 1.21572 14.6696 1.20224C14.6538 1.32927 14.638 1.4563 14.5227 1.41777C14.6377 1.10845 14.2416 1.09558 14.3247 1.41133C14.2555 1.3859 14.2965 1.20171 14.2037 1.1871C14.0849 1.25281 14.1492 1.42882 14.2548 1.40906C14.1901 1.60407 14.1379 1.41686 14.0567 1.40263C13.8444 1.47689 13.9989 1.02972 13.7377 1.17197C13.7144 1.17121 13.6911 1.17045 13.6678 1.1697C13.5408 1.13078 13.5231 1.31573 13.451 1.38295C13.4044 1.38144 13.3578 1.37992 13.3228 1.37879C13.3138 1.29733 13.3296 1.1703 13.2717 1.15683C13.221 1.28272 13.2285 1.41051 13.1586 1.40824C13.0553 1.3585 13.1229 1.07083 12.8978 1.17946C12.8956 1.24896 12.8933 1.31845 12.8907 1.39953C12.8208 1.39726 12.8482 1.27061 12.8396 1.17757C12.7231 1.17379 12.6183 1.17038 12.5018 1.1666C12.4785 1.16584 12.4552 1.16508 12.4319 1.16433C12.3019 1.21808 12.0403 1.01247 12.0869 1.37342C11.9937 1.37039 11.9122 1.36774 11.819 1.36471C11.5962 1.04442 11.5574 1.51854 11.2903 1.12724C11.3496 1.45382 11.1328 1.30764 11.0152 1.3386C11.0141 1.37335 11.0129 1.4081 11.0118 1.44284C10.9652 1.44133 10.9186 1.43982 10.8837 1.43868C10.8025 1.42445 10.795 1.29666 10.689 1.328C10.6432 1.30333 10.6105 1.2327 10.6263 1.10567C10.4482 1.20423 10.3343 1.47881 10.2302 1.0928C10.2268 1.19704 10.2231 1.31287 10.2197 1.41711C10.1498 1.41484 10.0915 1.41295 10.0217 1.41068C9.76312 1.47184 9.51358 1.9739 9.21072 1.60463C9.11753 1.6016 9.05778 1.64604 9.0093 1.70244C9.01081 1.65611 9.00029 1.62098 8.98902 1.60902C8.97812 1.58548 8.96722 1.56193 8.9676 1.55035C8.95595 1.54997 8.95595 1.54997 8.94392 1.56118C8.93228 1.5608 8.9319 1.57238 8.91987 1.58358C8.83833 1.58094 8.74363 1.62424 8.68652 1.5876C8.6775 1.50614 8.69329 1.37911 8.62377 1.36526C8.55388 1.36299 8.49563 1.3611 8.42574 1.35883C8.40995 1.48586 8.42761 1.66035 8.35696 1.68124C8.2649 1.64347 8.23371 1.52651 8.09242 1.5683C8.06912 1.56754 8.04582 1.56678 8.02253 1.56603C7.71325 1.75309 7.94326 1.13445 7.69524 1.23074C7.46113 1.25792 7.80795 1.70979 7.62307 1.6574C7.45848 1.69843 7.47803 1.45558 7.28864 1.54218C7.44984 1.6054 7.34085 2.08883 7.61254 1.98171C7.63695 2.30715 7.39571 2.19496 7.27583 2.29542C7.27357 2.36492 7.27131 2.43441 7.26868 2.51549C7.05486 2.63608 7.11124 2.33645 7.0079 2.28672C6.78808 2.2332 6.89928 2.75857 6.61295 2.59854C6.54305 2.59627 6.48481 2.59437 6.41491 2.5921C6.36832 2.59059 6.32172 2.58908 6.28678 2.58794C6.20937 2.45788 6.05756 2.46455 5.8941 2.47083C5.89297 2.50558 5.89184 2.54033 5.89071 2.57507C5.86741 2.57432 5.84411 2.57356 5.82082 2.5728C5.82607 2.77008 5.75429 2.82572 5.62728 2.78681C5.57993 2.80847 5.49914 2.78265 5.49576 2.88689C5.50251 3.03784 5.46493 3.11779 5.42698 3.20931C5.77044 3.04655 5.5596 3.79335 5.81701 3.76693C5.89369 3.20128 6.23562 3.80372 6.4111 3.78623C6.42989 3.92598 6.50917 3.99812 6.47872 4.21743C6.26417 4.00176 6.24008 4.74303 6.22245 4.20911C6.28033 3.86315 6.12852 3.86981 6.02669 3.77374C6.0109 3.90077 5.91808 3.88616 5.82527 3.87155C5.8309 4.05725 5.82525 4.23099 5.83088 4.41668C5.60354 4.23538 5.79592 4.77498 5.63396 4.73494C5.67831 4.44651 5.50095 4.52191 5.43481 4.40382C5.50544 4.74236 5.33297 4.66718 5.3044 4.82858C5.22286 4.82593 5.12967 4.8229 5.04812 4.82026C5.01241 5.20172 5.24727 5.15138 5.43365 5.15743C5.42951 5.28484 5.41373 5.41187 5.31039 5.36213C5.00375 5.46812 5.0545 4.98279 4.72306 5.13435C4.65317 5.13207 4.59492 5.13018 4.52503 5.12791C4.37359 5.12299 4.22216 5.11807 4.07072 5.11315C4.06846 5.18265 4.07785 5.25252 4.0756 5.32202C4.14173 5.44011 4.3191 5.36471 4.27474 5.65314C4.20485 5.65087 4.1466 5.64897 4.07671 5.6467C4.00681 5.64443 3.94857 5.64254 3.87868 5.64027C3.77383 5.63686 3.66899 5.63346 3.5525 5.62967C3.55476 5.56018 3.54537 5.4903 3.548 5.40923C3.52997 5.24632 3.5608 5.01542 3.48038 4.97803C3.46873 4.97765 3.45709 4.97727 3.45671 4.98885C3.44506 4.98847 3.44468 5.00006 3.43303 4.99968C3.30414 5.01868 3.40975 4.63949 3.21961 4.74926C3.0039 4.92776 3.02154 5.46169 2.78405 5.59311C2.79118 5.73248 2.78629 5.88305 2.79342 6.02242C2.82009 6.27837 2.68105 6.25066 2.74116 6.55408C2.74004 6.58882 2.73891 6.62357 2.74943 6.6587C2.74717 6.72819 2.75656 6.79807 2.75393 6.87914C2.84373 6.98641 2.99555 6.97975 2.94931 7.32609C2.99515 7.35077 3.02784 7.4214 3.01205 7.54842C3.01806 7.72254 3.17251 7.6348 3.14131 7.87727C2.99964 7.93065 2.86849 8.01914 2.64866 7.96562C2.60131 7.98727 2.57576 8.05601 2.59492 8.18417C2.513 8.19311 2.40928 8.15495 2.3935 8.28198C2.4645 8.60894 2.41601 9.02477 2.61478 9.36747C2.62078 9.54159 2.43816 9.41971 2.4329 9.58187C2.49114 9.58376 2.56103 9.58603 2.61928 9.58792C2.56252 9.89913 2.34006 9.92669 2.32727 10.3205C2.3344 10.4599 2.44075 10.4169 2.45991 10.5451C2.455 11.0551 2.21338 10.9545 2.35841 11.5158C2.27647 11.8841 2.56621 11.5805 2.55793 11.8353C2.49967 12.1928 2.75069 12.0039 2.8653 12.0656C2.90475 12.2872 2.8074 12.771 2.94569 12.8218C2.95997 12.7411 2.99642 12.696 3.06556 12.7214C3.0727 12.8608 3.0678 13.0113 3.07494 13.1507C3.07268 13.2202 3.08207 13.2901 3.07944 13.3711C3.0501 13.9151 3.31841 13.9123 3.28907 14.4563C3.38074 14.865 3.13086 14.6598 3.17857 14.986C3.28379 14.9778 3.32662 15.0952 3.30782 15.3149C3.24958 15.313 3.19133 15.3111 3.13309 15.3092C3.10338 15.8648 3.37206 15.8503 3.33107 16.3939C3.39756 16.8599 3.27656 16.9951 3.23333 17.2488C3.41708 17.3359 3.34719 17.3336 3.52456 17.2582C3.52232 16.9683 3.50805 16.6895 3.50581 16.3996C3.50694 16.3649 3.50807 16.3301 3.50919 16.2954C3.43968 16.2815 3.37053 16.2561 3.3882 16.0711C3.4055 15.8978 3.5776 15.9845 3.49532 15.6456C3.48856 15.4947 3.51449 15.4143 3.55245 15.3228C3.70765 15.2119 3.84479 15.657 3.91357 15.3345C3.97182 15.3364 4.03006 15.3383 4.08831 15.3402C4.08718 15.375 4.08605 15.4097 4.08492 15.4445C4.20254 15.4135 4.27055 15.4737 4.26415 15.6706C4.17059 15.6791 4.03268 15.6167 4.02779 15.7673C4.03342 15.953 4.02777 16.1267 4.03378 16.3008C4.03265 16.3356 4.03152 16.3703 4.03039 16.4051C4.03263 16.695 4.09011 17.0795 3.86164 16.9329C3.85827 16.6777 3.95335 16.6228 3.90601 16.2851C3.91015 16.1577 3.88911 16.0874 3.84327 16.0627C3.73956 16.0246 3.73579 16.1404 3.73128 16.2794C3.73578 16.4998 3.74065 16.7087 3.74515 16.9291C3.72185 16.9284 3.71021 16.928 3.68691 16.9272C3.69028 17.1824 3.69403 17.4261 3.6974 17.6812C3.7034 17.8554 3.70903 18.0411 3.70338 18.2148C3.71052 18.3542 3.78004 18.368 3.76274 18.5414C3.79769 18.5425 3.84429 18.544 3.87923 18.5452C3.87699 18.2552 3.87475 17.9653 3.86048 17.6865C3.91873 17.6884 3.97697 17.6903 4.03522 17.6922C4.03183 17.7965 4.03972 17.9127 4.03633 18.0169C4.03857 18.3068 4.04081 18.5968 4.04343 18.8751C4.00849 18.874 3.96189 18.8725 3.92694 18.8714C3.92581 18.9061 3.92468 18.9409 3.92356 18.9756C3.99307 18.9895 4.06221 19.0149 4.04455 19.1998C3.92504 19.2887 3.91526 19.5898 3.93854 19.95C3.93629 20.0195 3.94568 20.0894 3.94304 20.1705C3.95018 20.3099 3.94528 20.4604 3.95242 20.5998C3.88177 20.6207 3.88853 20.7716 3.89529 20.9226C3.89303 20.9921 3.90242 21.062 3.89979 21.143C3.90429 21.3635 3.90916 21.5723 3.91366 21.7928C3.91816 22.0132 3.92304 22.2221 3.92754 22.4425C3.93204 22.663 3.93691 22.8718 3.94141 23.0923C3.93802 23.1965 3.94591 23.3127 3.94252 23.417C3.9985 23.8478 3.74749 23.6773 3.84817 24.1676C3.88009 24.6208 3.78724 25.325 3.98114 25.4589C3.92289 25.457 3.8763 25.4555 3.81805 25.4536C3.81092 25.3142 3.81581 25.1637 3.80868 25.0243C3.77373 25.0231 3.73878 25.022 3.69219 25.0205C3.68995 24.7306 3.67605 24.4402 3.67344 24.1619C3.67007 23.9067 3.66632 23.6631 3.66295 23.4079C3.66521 23.3384 3.65581 23.2685 3.65845 23.1874C3.63517 22.8273 3.6333 22.5257 3.7528 22.4369C3.47663 21.9641 3.71005 20.5223 3.53384 19.8441C3.53273 19.5194 3.51996 19.1944 3.51885 18.8697C3.49068 18.6601 3.58652 18.2226 3.39637 18.3324C3.23028 18.4197 3.44333 18.6817 3.40236 18.8659C3.31179 19.1412 3.39896 19.3296 3.3591 19.8385C3.31175 19.8601 3.24261 19.8347 3.25088 19.9393C3.54699 19.7982 3.39628 20.489 3.44436 20.8036C3.4684 21.1406 3.32296 21.3098 3.45485 21.5576C3.43643 21.7657 3.54127 21.7691 3.57245 21.886C3.53751 21.8849 3.49091 21.8834 3.45596 21.8823C3.42175 22.2174 3.64986 22.0161 3.57844 22.4196C3.35975 22.3313 3.51529 22.9277 3.48409 23.1702C3.75162 23.5499 3.35742 23.8386 3.61557 24.1484C3.55732 24.1465 3.49908 24.1446 3.45248 24.1431C3.37017 24.5231 3.64826 24.219 3.62833 24.4735C3.54527 24.8766 3.54265 24.5982 3.63432 25.007C3.63018 25.1344 3.54901 25.1202 3.46785 25.106C3.55201 25.387 3.69893 25.5309 3.70793 25.9718C3.71243 26.1922 3.7173 26.4011 3.7218 26.6215C3.76765 26.6462 3.82664 26.6249 3.83491 26.7296C3.85143 26.9388 3.76989 26.9361 3.73118 27.0508C3.75935 27.2605 3.67516 27.6983 3.85366 27.5882C3.83937 27.6689 3.81457 27.7144 3.74543 27.689C3.74317 27.7585 3.75256 27.8284 3.74993 27.9095C3.75706 28.0488 3.75217 28.1994 3.7593 28.3388C3.75592 28.443 3.7638 28.5592 3.76042 28.6634C3.76605 28.8491 3.77205 29.0233 3.76641 29.197C3.76978 29.4522 3.77352 29.6958 3.77689 29.951C3.7829 30.1251 3.78853 30.3108 3.78288 30.4845C3.78175 30.5193 3.78063 30.554 3.7795 30.5888C3.77724 30.6583 3.78663 30.7281 3.784 30.8092C3.83171 31.1354 3.73626 31.2019 3.73963 31.4571C3.78697 31.4354 3.78472 31.5049 3.79448 31.5632C3.80199 31.691 3.78809 31.7601 3.74074 31.7818C3.76178 31.852 3.87863 32.2037 3.75011 32.2111C3.74673 32.3153 3.75461 32.4315 3.75123 32.5358C3.71815 32.8362 3.82374 32.8164 3.81546 33.0712C3.76962 33.0465 3.76736 33.116 3.76548 33.1739C3.73053 33.1728 3.69558 33.1717 3.66064 33.1705C3.66664 33.3446 3.67227 33.5303 3.66663 33.7041C3.70157 33.7052 3.73652 33.7064 3.77147 33.7075C3.84023 33.7445 3.82106 33.9758 3.82744 34.1383C3.83344 34.3124 3.83907 34.4981 3.83343 34.6719C4.0044 34.7934 3.90259 34.3379 3.92063 34.1413C3.96647 34.166 3.96873 34.0965 3.97061 34.0386C3.96461 33.8645 3.95898 33.6788 3.96462 33.5051C3.95749 33.3657 3.96238 33.2151 3.95525 33.0757C3.95939 32.9483 3.96353 32.8209 4.05559 32.8587C4.05672 32.824 4.05785 32.7892 4.05898 32.7545C4.00111 32.741 3.93197 32.7156 3.94964 32.5306C3.94514 32.3102 3.94026 32.1013 3.93576 31.8809C3.93915 31.7766 3.93126 31.6604 3.93465 31.5562C3.94029 31.3824 4.06542 31.4793 4.03838 31.2349C4.097 31.2252 4.18906 31.263 4.1932 31.1356C4.12368 31.1217 4.06619 31.0967 4.08386 30.9117C4.1421 30.9136 4.1887 30.9151 4.24695 30.917C4.23944 30.7892 4.25673 30.6159 4.18759 30.5904C4.23757 30.4877 4.20038 30.1966 4.33791 30.2707C4.3289 30.1892 4.29546 30.1418 4.23646 30.163C4.24135 30.0125 4.24624 29.8619 4.1771 29.8364C4.17146 30.0102 4.18836 30.2078 4.07337 30.1577C4.0933 29.9033 3.97606 29.9227 4.00914 29.6223C3.90543 29.5841 3.91105 29.7698 3.85055 29.8374C3.87874 29.6876 3.77542 29.2784 3.89116 29.3054C3.97157 29.3428 3.97609 29.2038 4.04598 29.2061C4.04485 29.2408 4.04372 29.2756 4.0426 29.3103C4.11249 29.3126 4.16059 29.2678 4.19742 29.211C4.19968 29.1415 4.19029 29.0716 4.19292 28.9906C4.15835 28.9778 4.13505 28.9771 4.13806 28.8844C4.14032 28.8149 4.13093 28.745 4.13356 28.664C4.1501 28.5138 4.21023 28.4578 4.18243 28.2366C4.00995 28.1614 4.30686 27.2782 4.3444 27.9172C4.29856 27.8925 4.2963 27.962 4.29442 28.0199C4.41054 28.0353 4.32634 28.4731 4.35489 28.6712C4.35264 28.7407 4.36203 28.8105 4.35939 28.8916C4.37366 29.1703 4.38868 29.4259 4.20568 29.3156C4.20342 29.3851 4.21282 29.455 4.21018 29.5361C4.26843 29.538 4.31502 29.5395 4.37327 29.5414C4.37214 29.5761 4.37101 29.6109 4.36988 29.6456C4.33567 29.9807 4.33981 29.8533 4.37587 30.1791C4.37248 30.2834 4.38037 30.3996 4.37698 30.5038C4.3736 30.6081 4.38148 30.7243 4.3781 30.8285C4.37471 30.9328 4.3826 31.049 4.37921 31.1532C4.37582 31.2575 4.38371 31.3737 4.38032 31.4779C4.33108 31.9169 4.39871 31.9887 4.39192 32.5566C4.38967 32.6261 4.39906 32.696 4.39642 32.777C4.38477 32.7766 4.36148 32.7759 4.34983 32.7755C4.3487 32.8103 4.34757 32.845 4.34644 32.8798C4.35809 32.8801 4.38139 32.8809 4.39304 32.8813C4.4197 33.1372 4.30397 33.1103 4.35243 33.4133C4.33363 33.633 4.38962 33.7044 4.4084 33.8441C4.42605 34.0186 4.36743 34.0283 4.36292 34.1673C4.36066 34.2368 4.37005 34.3067 4.36742 34.3877C4.36403 34.492 4.37192 34.6082 4.36853 34.7124C4.38018 34.7128 4.40348 34.7136 4.41513 34.7139C4.4542 34.9471 4.13328 35.1338 4.36626 35.1414C4.364 35.2109 4.37339 35.2807 4.37076 35.3618C4.33581 35.3607 4.30086 35.3595 4.26591 35.3584C4.23172 35.3341 4.21068 35.2638 4.21482 35.1364C4.13328 35.1338 4.05173 35.1311 3.95854 35.1281C3.95967 35.0934 3.9608 35.0586 3.96193 35.0239C3.99687 35.025 4.03182 35.0261 4.06677 35.0273C4.05926 34.8995 4.05175 34.7717 3.95743 34.8034C3.91083 34.8019 3.85259 34.8 3.80599 34.7985C3.80373 34.868 3.81312 34.9379 3.81049 35.019C3.81273 35.3089 3.67332 35.2928 3.62183 35.4418C3.66843 35.4433 3.66429 35.5707 3.67293 35.6638C3.78754 35.7255 3.73795 35.4572 3.81987 35.4483C3.83037 35.8428 3.82923 36.237 3.83973 36.6316C3.88593 37.0041 3.80662 37.6508 3.86298 37.7106C3.86072 37.7801 3.87011 37.85 3.86748 37.9311C3.90354 38.2569 3.81974 38.3237 3.83476 38.5793C3.84641 38.5797 3.86971 38.5804 3.88135 38.5808C3.88811 38.7318 3.89487 38.8827 3.83587 38.904C3.88998 39.0333 3.89335 39.2885 3.89634 39.5553C3.90498 39.6483 3.88131 39.6591 3.84636 39.658C3.71521 39.7465 3.72311 39.5033 3.60512 39.5458C3.52168 39.9605 3.88393 39.9375 3.71218 40.1986C3.71106 40.2333 3.70993 40.2681 3.7088 40.3028C3.75539 40.3043 3.80199 40.3058 3.84859 40.3074C3.86023 40.3077 3.88353 40.3085 3.89518 40.3089C3.89968 40.5293 3.90456 40.7382 3.90906 40.9586C3.9068 41.0281 3.91619 41.098 3.91356 41.1791C3.91693 41.4343 3.92067 41.6779 3.92405 41.9331C3.9124 41.9327 3.8891 41.9319 3.87745 41.9316C3.8425 41.9304 3.8192 41.9297 3.78426 41.9285C3.76997 42.0092 3.78913 42.1374 3.74216 42.1475C3.73465 42.0197 3.72714 41.8919 3.64447 41.924C3.64108 42.0282 3.64897 42.1444 3.64558 42.2487C3.73877 42.2517 3.83197 42.2547 3.92516 42.2578C3.93267 42.3855 3.91876 42.4547 3.88306 42.4767C3.88193 42.5114 3.8808 42.5462 3.87967 42.5809C3.89132 42.5813 3.91462 42.5821 3.92627 42.5824C3.93228 42.7566 3.9379 42.9423 3.93226 43.116C3.88566 43.1145 3.83907 43.113 3.79247 43.1114C3.79961 43.2508 3.79471 43.4014 3.80185 43.5408C3.89617 43.509 3.9018 43.6947 3.94614 43.7657C3.94275 43.87 3.95063 43.9862 3.94725 44.0904C3.95589 44.1835 3.93221 44.1943 3.90891 44.1935C3.73945 44.0257 3.88522 44.5638 3.78189 44.5141C3.70072 44.4998 3.67366 44.6149 3.70146 44.8361C3.67854 44.8238 3.64359 44.8226 3.65825 44.7303C3.67479 44.5801 3.59477 44.1717 3.68721 44.1979C3.68007 44.0586 3.6222 44.0451 3.6395 43.8717C3.63124 43.7671 3.58389 43.7888 3.54969 43.7645C3.55645 43.9154 3.56321 44.0664 3.51586 44.088C3.49367 44.4119 3.59889 44.4038 3.57633 44.7393C3.58346 44.8786 3.57857 45.0292 3.5857 45.1686C3.58795 45.4585 3.60184 45.7488 3.60446 46.0272C3.44587 46.2423 3.34139 46.5868 3.17228 46.7668C3.17002 46.8363 3.17942 46.9062 3.17678 46.9873C3.04038 46.8785 3.09899 47.2282 3.10461 47.4139C3.13956 47.4151 3.16286 47.4158 3.19781 47.4169C3.51308 47.404 3.61193 46.8738 3.75362 46.461C3.78857 46.4622 3.81186 46.4629 3.84681 46.4641C3.99938 46.4342 4.12676 46.4616 4.16583 46.6947C4.24775 46.6858 4.26729 46.8024 4.26014 47.0225C4.25449 47.1962 4.15266 47.1001 4.17971 47.3445C4.12034 47.3773 4.09327 47.4924 4.00159 47.4431C3.99933 47.5125 4.00872 47.5824 4.00609 47.6635C3.99444 47.6631 3.97114 47.6624 3.95949 47.662C3.90311 47.9616 3.81329 48.2138 3.7137 48.4077C3.51192 48.1576 3.28756 48.6025 3.15228 48.8184C3.37135 48.8951 3.34162 49.8101 3.04627 49.5686C3.12103 50.1392 3.33559 50.3549 3.42387 50.8679C3.19878 50.9765 3.19128 50.4893 2.94176 50.6319C2.96843 50.8879 2.87599 50.8617 2.9128 51.1644C3.35996 51.3992 3.47565 52.5044 3.77023 53.1285C3.77624 53.3026 3.88409 53.2134 3.86454 53.4562C3.82884 53.4783 3.783 53.4536 3.77961 53.5578C3.91038 53.4809 3.83746 53.9307 3.99379 53.7851C4.00093 53.9244 3.99603 54.075 4.00317 54.2144C4.13994 54.3116 4.26545 54.3968 4.30038 54.7574C4.1978 54.6845 4.15909 54.7992 4.185 55.0783C4.18011 55.2289 4.0888 55.1679 4.01853 55.1772C3.94864 55.175 3.87874 55.1727 3.80885 55.1704C3.81561 55.3214 3.78967 55.4017 3.77502 55.494C3.70625 55.457 3.70249 55.5728 3.69797 55.7118C3.77951 55.7144 3.86106 55.7171 3.9426 55.7197C3.9659 55.7205 4.00085 55.7216 4.02414 55.7224C4.08239 55.7243 4.12899 55.7258 4.18723 55.7277C4.19436 55.867 4.18947 56.0176 4.19661 56.157C4.2229 56.4245 4.31308 56.5202 4.32697 56.8105C4.30629 57.0881 4.3495 57.1939 4.45622 57.1394C4.47725 57.5691 4.18152 57.3392 4.17665 57.1303C4.18265 57.3044 4.18828 57.4901 4.18264 57.6638C4.24088 57.6657 4.28748 57.6672 4.34572 57.6691C4.36938 58.0177 4.70121 57.4952 4.66136 58.004C4.67301 58.0044 4.68466 58.0048 4.6963 58.0052C4.69518 58.0399 4.69405 58.0747 4.69292 58.1094C4.60123 58.0601 4.72371 58.5974 4.57754 58.4303C4.58243 58.2797 4.57568 58.1288 4.52983 58.1041C4.50653 58.1034 4.47159 58.1022 4.44829 58.1015C4.4449 58.2057 4.45279 58.3219 4.4494 58.4262C4.44602 58.5304 4.4539 58.6466 4.45052 58.7508C4.44713 58.8551 4.45501 58.9713 4.45163 59.0755C4.47493 59.0763 4.49822 59.077 4.53317 59.0782C4.60307 59.0805 4.5546 58.7774 4.60195 58.7558C4.65982 58.7692 4.63952 59.0353 4.72294 58.98C4.76954 58.9815 4.75226 58.7954 4.79999 58.7622C4.82328 58.763 4.84658 58.7637 4.88153 58.7648C4.88491 58.6606 4.87703 58.5444 4.88042 58.4402C4.89206 58.4405 4.90371 58.4409 4.91536 58.4413C4.95031 58.4424 4.99691 58.4439 5.03185 58.4451C5.11452 58.413 5.1085 58.5983 5.15284 58.6693C5.15698 58.5419 5.16112 58.4145 5.22989 58.4515C5.24152 58.8113 5.14682 58.8546 5.11562 59.0971C5.10661 59.0157 5.08481 58.9686 5.03746 58.9902C5.03408 59.0945 5.04196 59.2107 5.03858 59.3149C5.16446 59.3886 5.11786 59.387 5.23661 59.3213C5.23548 59.3561 5.23435 59.3908 5.23322 59.4256C5.26817 59.4267 5.31477 59.4282 5.34971 59.4294C5.35084 59.3946 5.35197 59.3599 5.3531 59.3251C5.44629 59.3281 5.53949 59.3312 5.62103 59.3338C5.64433 59.3346 5.66762 59.3353 5.70257 59.3365C5.72324 59.4183 5.74352 59.5117 5.73863 59.6623C5.76193 59.663 5.78523 59.6638 5.82017 59.6649C5.78411 59.3391 5.90774 59.4823 5.97876 59.4498C6.00206 59.4506 6.02536 59.4513 6.0603 59.4524C6.07195 59.4528 6.0836 59.4532 6.09525 59.4536C6.1302 59.4547 6.17679 59.4562 6.21174 59.4574C6.28163 59.4596 6.33988 59.4615 6.40977 59.4638C6.40752 59.5333 6.40526 59.6028 6.40262 59.6839C6.48229 59.7444 6.53564 59.8969 6.55179 60.1177C6.57509 60.1185 6.59838 60.1192 6.63333 60.1204C6.71525 60.1114 6.65965 59.669 6.6777 59.4725C6.72392 59.4856 6.76976 59.5103 6.75209 59.6952C6.78704 59.6964 6.83364 59.6979 6.86858 59.699C6.97343 59.7024 7.09142 59.6599 7.13313 59.812C7.13425 59.7772 7.13538 59.7425 7.13651 59.7077C7.21956 59.664 7.21316 59.8609 7.20752 60.0347C7.21917 60.035 7.23082 60.0354 7.24247 60.0358C7.23721 59.8385 7.28569 59.7821 7.36611 59.8195C7.47095 59.8229 7.57579 59.8263 7.68063 59.8297C7.66072 59.7247 7.5912 59.7109 7.60962 59.5028C7.7107 59.622 7.80654 59.1845 7.8426 59.5103C7.80427 59.6135 7.75429 59.7162 7.71558 59.8309C7.71219 59.9351 7.70843 60.0509 7.70504 60.1552C7.7009 60.2826 7.70841 60.4104 7.77943 60.3779C7.74264 59.7158 8.14055 60.3896 8.14621 59.8565C8.07594 59.8658 8.05641 59.7492 8.07521 59.5295C8.07633 59.4948 8.07746 59.46 8.07859 59.4253C8.22365 59.2676 8.08985 59.7967 8.18455 59.7534C8.18869 59.6259 8.20447 59.4989 8.27324 59.5359C8.27437 59.5012 8.2755 59.4664 8.27663 59.4317C8.46226 59.4609 8.53027 59.5211 8.77415 59.5522C8.82037 59.5653 8.86621 59.59 8.84854 59.7749C8.71664 59.8866 8.75497 59.7835 8.61556 59.7674C8.59977 59.8944 8.60578 60.0685 8.57008 60.0905C8.51183 60.0886 8.55656 59.7886 8.49907 59.7636C8.54377 60.1824 8.38708 59.9802 8.36866 60.1883C8.40285 60.2126 8.41224 60.2825 8.39645 60.4095C8.41975 60.4103 8.44305 60.411 8.478 60.4122C8.4517 60.1447 8.6644 60.0588 8.63658 60.197C8.74368 60.131 8.69933 60.4194 8.74254 60.5251C8.83573 60.5282 8.86505 60.3436 8.9789 60.4285C9.04957 60.0481 8.85302 60.3548 8.87295 60.1004C8.93157 60.0907 9.00071 60.1161 8.99659 59.8841C8.96164 59.8829 8.91505 59.8814 8.8801 59.8803C8.90678 59.7768 8.97705 59.7675 8.97218 59.5586C8.98383 59.559 8.99548 59.5594 9.00713 59.5598C8.9763 59.7907 9.0586 59.7702 9.11647 59.7836C9.30624 59.6854 9.48321 59.9811 9.58243 59.7988C9.65119 59.8358 9.66886 59.6508 9.70607 59.5825C9.74101 59.5836 9.78761 59.5851 9.82256 59.5863C9.84585 59.587 9.86915 59.5878 9.9041 59.5889C9.88831 59.7159 9.8977 59.7858 9.9319 59.8101C9.9552 59.8109 9.97849 59.8116 10.0134 59.8128C10.0484 59.8139 10.095 59.8154 10.1299 59.8166C10.1724 59.9455 10.1525 60.1999 10.1322 60.4659C10.1555 60.4667 10.1788 60.4674 10.2137 60.4686C10.2126 60.5033 10.2114 60.5381 10.2103 60.5728C10.2471 60.516 10.284 60.4593 10.3302 60.4724C10.3584 60.3225 10.3133 59.9153 10.3941 59.9411C10.4174 59.9418 10.4407 59.9426 10.4756 59.9437C10.4527 60.2908 10.6451 59.7521 10.712 59.8471C10.7706 59.8374 10.756 59.5702 10.8473 59.6312C10.8841 59.5744 10.921 59.5176 10.9672 59.5307C11.0119 59.9496 10.7218 59.9053 10.8529 60.1763C10.9668 60.2611 10.9232 59.8075 11.0581 59.9627C11.075 59.8009 11.0709 59.5689 11.1303 59.536C11.1261 59.6634 11.1847 59.6537 11.2434 59.644C11.3741 59.5671 11.2663 60.0158 11.4226 59.8701C11.4399 59.6968 11.4459 59.5115 11.4632 59.3381C11.417 59.325 11.346 59.3575 11.3501 59.2301C11.3681 59.0336 11.3234 58.9741 11.2524 59.0066C11.2693 58.8448 11.349 58.9054 11.4189 58.9077C11.4471 59.1173 11.6395 58.938 11.6297 59.2392C11.6819 58.7075 11.745 59.2777 11.8277 59.2456C11.83 59.1761 11.8439 59.107 11.8465 59.0259C11.8582 59.0263 11.8698 59.0267 11.8815 59.027C11.9559 58.8903 12.125 59.0697 12.1366 58.7107C12.2065 58.713 12.2648 58.7148 12.3346 58.7171C12.3358 58.6824 12.3369 58.6476 12.338 58.6129C12.2678 58.6222 12.2599 58.506 12.2903 58.2867C12.2937 58.1824 12.3091 58.067 12.3125 57.9627C12.3009 57.9624 12.2892 57.962 12.2776 57.9616C12.2949 57.7883 12.3009 57.6029 12.3182 57.4296C12.2949 57.4288 12.2599 57.4277 12.2366 57.4269C12.2866 57.3242 12.337 57.2099 12.387 57.1072C12.3903 57.0029 12.4058 56.8875 12.4091 56.7832C12.4761 56.1593 12.2975 56.6289 12.2145 56.6726C12.157 56.6475 12.1709 56.2189 12.1329 56.6699C12.1097 56.6691 12.0747 56.668 12.0514 56.6673C12.0056 56.6426 12.0221 56.4924 12.0386 56.3422C12.1721 56.1842 12.3381 56.0968 12.4404 55.8219C12.3352 55.8301 12.242 55.827 12.1991 55.7097C12.2014 55.6402 12.2153 55.5711 12.2179 55.49C12.2213 55.3858 12.2367 55.2703 12.2401 55.1661C12.2168 55.1653 12.1819 55.1642 12.1586 55.1634C12.1469 55.1631 12.1353 55.1627 12.112 55.1619C12.1097 55.2314 12.0958 55.3005 12.0932 55.3816C12.0699 55.3808 12.0349 55.3797 12.0116 55.379C12.0128 55.3442 12.0139 55.3095 12.015 55.2747C12.071 54.9867 11.8144 55.3494 11.8707 55.0497C11.9421 55.0057 11.9282 54.7153 12.0526 54.8353C12.0537 54.8006 12.0549 54.7658 12.056 54.7311C11.9903 54.242 11.6855 54.6495 11.6111 54.0673C11.7351 54.1989 11.7216 53.897 11.793 53.8529C11.873 53.9019 11.7911 54.2703 11.9339 54.1822C11.9373 54.0779 11.9527 53.9625 11.9561 53.8582C12.0027 53.8598 12.0376 53.8609 12.0842 53.8624C12.0876 53.7582 12.103 53.6427 12.1064 53.5385C12.1353 53.7249 12.2022 53.8199 12.3439 53.7665C12.4156 54.0703 12.6051 53.6242 12.7633 53.7801C12.7606 53.8612 12.7824 53.9083 12.8414 53.887C12.9669 53.9722 12.9966 53.7761 13.1011 53.7911C13.1593 53.793 13.2176 53.7949 13.2642 53.7964C13.3108 53.7979 13.3457 53.799 13.3923 53.8006C13.5084 53.8159 13.6241 53.8429 13.5648 54.2352C13.5764 54.2355 13.5881 54.2359 13.6114 54.2367C13.6812 54.2389 13.7511 54.2412 13.821 54.2435C14.0292 53.9372 14.1965 53.4556 14.2694 52.6464C14.4171 52.7671 14.3758 52.244 14.5129 52.3297C14.7252 52.2554 14.676 52.6944 14.8635 52.6657C14.8793 52.5387 14.8849 52.3649 14.9439 52.3437C15.0864 52.2671 14.9552 52.715 15.1348 52.5702C15.2303 52.1443 15.0638 52.2432 14.959 52.2398C14.974 52.1359 14.9778 52.0201 14.9928 51.9162C14.9951 51.8467 15.009 51.7776 15.0116 51.6965C15.1292 51.6656 15.2258 51.5644 15.3017 51.3813C15.316 51.3006 15.3525 51.2554 15.3983 51.2801C15.4438 50.9569 15.2773 51.0559 15.2224 50.9497C15.2292 50.7413 15.2991 50.7435 15.3378 50.6288C15.3679 50.4211 15.298 50.4189 15.2901 50.3026C15.3134 50.3034 15.3484 50.3045 15.3717 50.3053C15.3833 50.3057 15.395 50.3061 15.4183 50.3068C15.5381 50.2064 15.6253 50.0353 15.6918 49.7823C15.7035 49.7827 15.7268 49.7835 15.7384 49.7839C15.6685 50.141 15.7854 50.1332 15.8143 50.3197C15.8207 50.1228 16.0868 49.83 15.8782 49.7884C15.8794 49.7536 15.8805 49.7189 15.8933 49.6845C15.9166 49.6853 15.9515 49.6864 15.9748 49.6872C16.0451 49.3184 15.8162 49.5429 15.8989 49.1514C15.914 49.0475 15.9177 48.9317 15.9328 48.8278C15.7862 48.6723 15.8181 49.1255 15.6926 49.0403C15.7223 48.8442 15.6776 48.7847 15.5833 48.8165C15.5532 49.0242 15.6231 49.0265 15.631 49.1427C15.6776 49.1442 15.7242 49.1457 15.7591 49.1468C15.7591 49.5063 15.6024 49.3041 15.519 49.3593C15.4848 49.335 15.4754 49.2651 15.5029 49.1385C15.4679 49.1374 15.4446 49.1366 15.4097 49.1355C15.3796 49.3432 15.4495 49.3455 15.4574 49.4617C15.3319 49.3764 15.3638 49.8297 15.2172 49.6742C15.2323 49.5703 15.236 49.4545 15.2511 49.3506C15.1564 49.0345 15.4176 48.5328 15.3244 48.1703C15.3823 48.1838 15.4518 48.1977 15.4676 48.0706C15.4792 48.071 15.5025 48.0718 15.5142 48.0722C15.6536 48.0883 15.3973 48.4394 15.5397 48.7223C15.6494 48.5751 15.7501 48.3465 15.7656 47.8716C15.6344 47.9601 15.6656 47.7176 15.5593 47.7606C15.5134 47.7359 15.53 47.5857 15.5465 47.4355C15.6048 47.4374 15.5886 47.576 15.6713 47.5439C15.6874 47.4053 15.7461 47.3956 15.7517 47.2219C15.6935 47.22 15.6352 47.2181 15.577 47.2162C15.5781 47.1814 15.5792 47.1467 15.592 47.1123C15.4252 47.2229 15.5563 46.7749 15.5627 46.578C15.5214 46.4143 15.5364 46.3105 15.6116 46.1506C15.5857 45.8715 15.8536 45.8802 15.6454 45.8271C15.6642 45.6074 15.6943 45.3996 15.7131 45.1799C15.8491 44.9409 16.0705 44.9481 15.8378 45.2883C15.9228 45.1868 16.0825 45.2963 16.1047 44.9724C15.9525 44.9906 15.9359 44.7814 15.7469 44.8564C15.8649 44.4544 15.8326 44.7316 15.7992 44.3247C15.8003 44.29 15.8014 44.2552 15.8142 44.2209C15.8492 44.222 15.8725 44.2228 15.9074 44.2239C15.8544 44.0599 15.8293 43.0387 16.0424 42.9413C16.1115 42.6073 15.8951 42.8089 16.0014 42.4066C16.0371 42.3846 16.0946 42.4096 16.1097 42.3058C16.0518 42.2923 16.0059 42.2676 16.0353 42.083C16.0146 41.6418 16.1743 41.7513 16.1961 41.439C16.1082 41.2738 16.1116 41.1695 16.245 41.0115C16.0883 41.1688 16.156 40.5217 16.2788 40.688C16.3717 40.3432 16.13 40.602 16.2229 40.2572C16.239 40.1186 16.3191 40.1675 16.3465 40.0409C16.2529 40.0495 16.245 39.9333 16.2871 39.7143C16.3905 39.7641 16.3969 39.5671 16.4142 39.3938C16.4164 39.3243 16.4303 39.2552 16.433 39.1741C16.5683 38.9582 16.4431 38.8614 16.5006 38.527C16.5018 38.4923 16.5029 38.4575 16.5157 38.4231C16.5668 37.9262 16.6183 37.4177 16.6694 36.9208C16.728 36.9111 16.8085 36.9485 16.8242 36.8215C16.8652 36.6373 16.8073 36.6238 16.7499 36.5988C16.7382 36.5984 16.7149 36.5977 16.7033 36.5973C16.7348 36.3432 16.7544 36.1004 16.786 35.8463C16.7281 35.8328 16.6706 35.8078 16.7116 35.6236C16.7138 35.1947 16.9183 35.3636 16.8875 34.8757C16.8897 34.8062 16.9036 34.737 16.9063 34.656C16.9112 34.5054 17.1986 34.6307 17.0705 34.986C17.0731 35.2643 17.0114 35.3667 16.8852 35.3046C16.8033 35.6729 17.0787 35.45 16.9844 35.8412C16.9423 36.0601 16.9618 36.1767 17.0554 36.1681C17.1445 35.5797 17.1328 35.5793 17.187 34.9897C17.1873 34.6187 17.3053 34.5762 17.3163 34.2403C17.2588 34.2152 17.2753 34.065 17.3035 33.9152C17.0525 34.1042 17.2825 33.4855 17.081 33.5833C16.9412 33.9382 17.2896 33.9843 17.0322 34.0108C16.966 34.2521 17.2306 34.365 17.0265 34.5439C16.9566 34.5417 16.9976 34.3575 16.9521 34.3212C16.9709 34.1015 17.001 33.8938 17.0198 33.6741C17.036 33.5355 17.0525 33.3853 17.0687 33.2467C17.0875 33.027 17.1175 32.8193 17.1363 32.5996C17.178 32.3922 17.0849 32.3892 17.0653 32.2726C17.0676 32.2031 17.0815 32.134 17.0841 32.0529C17.118 31.7294 17.1518 31.4058 17.1856 31.0823C17.1928 30.8622 17.2315 30.7475 17.3243 30.7621C17.4434 30.3254 17.242 30.4232 17.2871 30.1116C17.2398 30.1333 17.2142 30.202 17.2101 30.3294C17.0312 30.4512 17.0992 30.1519 17.0192 30.1029C16.9602 30.1242 16.9658 30.3099 16.8956 30.3192C16.8509 29.9003 17.0541 30.1041 17.0959 29.8967C17.1 29.7693 17.0057 29.801 16.9478 29.7876C16.8415 29.8305 16.7637 29.712 16.858 29.6803C17.203 29.4712 17.1797 29.8299 17.3544 29.4761C17.386 29.2221 17.4055 28.9792 17.4371 28.7251C17.5702 28.2193 17.4 27.7152 17.5721 27.4425C17.557 27.5464 17.6491 27.5842 17.6769 27.4459C17.6074 27.4321 17.5499 27.407 17.5909 27.2228C17.6382 27.2012 17.6957 27.2262 17.7108 27.1224C17.6758 27.1212 17.6409 27.1201 17.6059 27.119C17.5725 26.7121 17.7758 26.9158 17.7747 26.5911C17.6567 26.6336 17.6864 26.4375 17.7037 26.2641C17.5999 26.226 17.5827 26.0399 17.5162 25.9334C17.5312 25.8295 17.535 25.7137 17.55 25.6098C17.5733 25.6106 17.5849 25.611 17.6082 25.6117C17.712 25.2905 17.7909 25.7336 17.9344 25.6223C17.9367 25.5528 17.9506 25.4837 17.9532 25.4026C17.9728 25.1598 17.7217 25.3487 17.6304 25.2878C17.6654 24.9295 17.5895 24.7531 17.6737 24.3153C17.6748 24.2805 17.6759 24.2458 17.6887 24.2114C17.5087 24.3679 17.5764 23.7208 17.7225 23.8878C17.7398 23.7145 17.7695 23.5183 17.6399 23.5605C17.6827 23.3184 17.791 23.2176 17.8669 23.0345C17.8496 23.2079 17.8319 23.3928 17.8146 23.5662C17.8496 23.5673 17.8845 23.5685 17.9311 23.57C18.001 23.5722 18.0825 23.5749 18.1524 23.5772C18.0732 23.1456 18.4768 22.9268 18.2201 22.9301C18.0935 22.8796 18.2043 23.4165 18.0115 23.2479C18.0266 23.1441 18.0303 23.0282 18.0454 22.9244C18.0221 22.9236 18.0104 22.9232 17.9871 22.9225C17.9894 22.853 18.0033 22.7839 18.0059 22.7028C18.0315 22.6341 18.1942 22.2915 18.0548 22.2754C18.0589 22.148 18.0631 22.0206 17.9688 22.0523C18.0052 21.6477 17.9319 21.7496 18.0364 21.4052C18.1747 21.4561 18.3228 20.8464 18.2206 20.7619C18.2025 20.9584 18.1424 21.0144 18.0271 20.9759C18.0293 20.9064 18.0432 20.8373 18.0459 20.7562C17.8343 20.8073 17.9046 20.4385 17.9388 20.1034C17.6998 19.9217 17.8904 19.0815 17.9212 18.4912C18.0899 17.9633 17.7559 18.1959 17.8141 17.8384C17.8957 17.841 17.9656 17.8433 18.0471 17.846C18.0648 17.661 18.0697 17.5105 18.0261 17.4163C18.0843 17.4182 18.1426 17.4201 18.2008 17.422C18.2031 17.3525 18.217 17.2833 18.2196 17.2023C18.3958 17.5211 18.3353 17.9481 18.1579 18.3829C18.3672 18.4013 18.6382 18.3174 18.5901 18.7216C18.5859 18.849 18.5453 19.0216 18.6145 19.0471C18.8531 18.162 18.3932 17.6021 18.7589 17.1154C18.7611 17.0459 18.775 16.9768 18.7777 16.8958C18.7788 16.861 18.7799 16.8263 18.7927 16.7919C18.9464 16.3679 18.4534 16.4678 18.7439 16.141C18.6796 15.965 18.836 15.4599 18.6252 15.4878C18.6274 15.4183 18.6413 15.3492 18.644 15.2682C18.8871 15.3224 18.7499 14.8774 18.6928 14.8407C18.7988 14.8094 19.2426 14.4296 18.9315 14.3151C18.8969 14.3024 18.8619 14.3013 18.8766 14.209C18.8184 14.2071 18.7601 14.2052 18.6902 14.2029C18.709 13.9833 18.7391 13.7755 18.7579 13.5558C18.7601 13.4863 18.774 13.4172 18.7767 13.3362C18.9612 13.4001 19.0161 13.1468 19.2111 13.2459C19.1949 13.3845 19.1784 13.5347 19.1622 13.6733C19.3159 13.6088 19.5887 13.8263 19.6665 13.5854C19.6252 13.4217 19.4147 13.438 19.4862 13.0346Z"/>
<path d="M16.6754 37.8138C16.8411 37.738 16.7828 37.7361 16.92 37.8218C16.994 37.6966 17.0139 37.4422 17.0343 37.1762C17.0226 37.1758 16.9993 37.175 16.9877 37.1747C16.9298 37.1612 16.8471 37.1933 16.8513 37.0659C16.8163 37.0647 16.7814 37.0636 16.7464 37.0625C16.7302 37.2011 16.8249 37.1578 16.8208 37.2852C16.8336 37.6102 16.6423 37.3953 16.6754 37.8138Z"/>
<path d="M15.449 51.8731C15.4513 51.8036 15.4652 51.7345 15.4678 51.6534C15.4036 51.8368 15.2976 51.8682 15.2559 52.0755C15.2683 52.4122 15.4205 52.0345 15.449 51.8731Z"/>
<path d="M3.56588 42.5476C3.61247 42.5491 3.65907 42.5506 3.70566 42.5521C3.70679 42.5173 3.70792 42.4826 3.6974 42.4475C3.69966 42.378 3.69027 42.3081 3.6929 42.227C3.68464 42.1224 3.6884 42.0066 3.68014 41.9019C3.63354 41.9004 3.58695 41.8989 3.54035 41.8974C3.62226 42.2479 3.56702 42.1534 3.56588 42.5476Z"/>
<path d="M3.51684 31.1368C3.55179 31.1379 3.58674 31.1391 3.62169 31.1402C3.61719 30.9198 3.61231 30.7109 3.60781 30.4904C3.41279 30.3914 3.54729 30.9175 3.51684 31.1368Z"/>
<path d="M3.88737 36.9578C3.89075 36.8535 3.88287 36.7373 3.88625 36.6331C3.88851 36.5636 3.87912 36.4937 3.88176 36.4126C3.7213 36.3262 3.82312 36.7818 3.64163 36.6251C3.6405 36.6599 3.63937 36.6946 3.63824 36.7294C3.64387 36.9151 3.64987 37.0892 3.64423 37.2629C3.72464 37.3003 3.74005 37.1849 3.73292 37.0455C3.85955 37.096 3.77498 37.5454 3.64084 37.3672C3.62167 37.5984 3.71561 37.5783 3.79678 37.5925C3.78289 37.3022 3.96626 37.4009 3.88737 36.9578Z"/>
<path d="M3.41178 18.2169C3.33251 17.7853 3.60531 18.0029 3.51439 17.5709C3.43097 17.6262 3.20401 17.4333 3.21978 17.6657C3.46968 17.5115 3.24831 18.2232 3.41178 18.2169Z"/>
<path d="M11.4207 59.9281C11.409 59.9277 11.3974 59.9273 11.3857 59.9269C11.3898 60.159 11.3207 60.1335 11.2504 60.1428C11.1373 60.0348 11.161 60.3834 11.1433 60.5684C11.2016 60.5703 11.2714 60.5725 11.3297 60.5744C11.3925 60.4373 11.412 60.1945 11.4207 59.9281Z"/>
<path d="M13.2694 54.7125C13.1341 54.569 13.0191 55.2378 13.0852 55.3559C13.1089 54.9856 13.2889 55.1886 13.2694 54.7125Z"/>
<path d="M19.7647 3.02581C19.747 3.21075 19.7297 3.3841 19.7121 3.56905C19.782 3.57132 19.8402 3.57321 19.9101 3.57548C19.9308 3.29788 19.9515 3.02028 19.7647 3.02581Z"/>
<path d="M18.0173 27.7353C17.9358 27.7326 17.5758 27.6861 17.7344 27.8304C17.7693 27.8316 17.8043 27.8327 17.8392 27.8338C17.8204 28.0535 17.7904 28.2612 17.7716 28.4809C17.9102 28.5202 18.0057 28.4537 18.0267 28.1646C17.755 28.2717 17.9106 27.7898 18.0173 27.7353Z"/>
<path d="M18.5753 20.9705C18.7038 20.9631 18.6482 20.5207 18.7012 20.3253C18.6197 20.3226 18.5498 20.3204 18.4682 20.3177C18.4532 20.4216 18.4494 20.5374 18.4344 20.6413C18.4893 20.7474 18.41 21.0347 18.5753 20.9705Z"/>
<path d="M16.2073 43.6075C16.19 43.7809 16.1723 43.9658 16.155 44.1392C16.2659 44.3167 16.364 43.4503 16.2073 43.6075Z"/>
<path d="M16.8128 39.3256C16.8151 39.2561 16.829 39.187 16.8316 39.1059C16.8478 38.9673 16.8643 38.8171 16.8805 38.6785C16.8981 38.4935 16.9154 38.3202 16.9444 38.1472C16.8978 38.1457 16.8512 38.1442 16.7929 38.1423C16.8038 38.5253 16.5182 39.4204 16.8128 39.3256Z"/>
<path d="M6.61203 65.8011C6.55115 65.8802 6.49027 65.9594 6.44104 66.039C6.48914 65.9942 6.55002 65.915 6.597 65.9049C6.60864 65.9053 6.62067 65.8941 6.63232 65.8945C6.63345 65.8597 6.74281 65.7241 6.64736 65.7906C6.63571 65.7902 6.62368 65.8014 6.61203 65.8011Z"/>
<path d="M5.9405 66.3706C5.74772 66.5614 6.03407 66.362 5.92509 66.486C5.96079 66.464 5.99573 66.4651 6.03256 66.4084C6.05699 66.3744 6.08142 66.3404 6.10584 66.3064C6.20205 66.2167 6.2385 66.1715 6.25203 66.114C6.03745 66.2578 6.36251 65.9437 6.21972 66.0318C6.17086 66.0998 6.11073 66.1558 6.06188 66.2238C6.0134 66.2802 5.97695 66.3254 5.9405 66.3706Z"/>
<path d="M3.54142 77.7598C3.58613 77.8192 3.644 77.8327 3.68985 77.8573C3.77026 77.8947 3.85067 77.9321 3.93147 77.9579C3.80521 77.8959 3.67933 77.8222 3.54142 77.7598Z"/>
<path d="M3.96868 78.249C3.9574 78.2371 3.94575 78.2367 3.93448 78.2247C3.87887 78.1418 3.82251 78.0819 3.76502 78.0569C3.85482 78.1642 3.94274 78.3293 4.03518 78.3555C4.12499 78.4628 4.16107 78.4292 4.17271 78.4296C4.10545 78.3462 4.04909 78.2864 3.96868 78.249Z"/>
<path d="M8.11106 65.2468C8.08513 65.3272 7.99156 65.3357 7.92016 65.3798C7.89498 65.4369 7.88107 65.506 7.8559 65.5632C7.83222 65.574 7.82057 65.5736 7.7969 65.5845C7.76157 65.5949 7.71422 65.6166 7.6789 65.627C7.60449 65.7637 7.72286 65.7096 7.81718 65.6779C7.86416 65.6678 7.89986 65.6458 7.94683 65.6357C8.17305 65.4923 8.31734 65.7173 8.35193 65.3706C8.24558 65.4135 8.15126 65.4453 8.04491 65.4882C8.12796 65.4445 8.36021 65.1158 8.11106 65.2468Z"/>
<path d="M5.74583 66.6197C5.74622 66.6076 5.74622 66.6076 5.74583 66.6197V66.6197Z"/>
<path d="M6.0524 66.5138C6.05279 66.5016 6.05279 66.5016 6.0524 66.5138V66.5138Z"/>
<path d="M6.27793 66.3933C6.29009 66.3937 6.29047 66.3817 6.27793 66.3933V66.3933Z"/>
<path d="M4.82367 67.3662C4.8109 67.4006 4.78647 67.4346 4.76204 67.4686C4.77369 67.4689 4.77369 67.4689 4.78534 67.4693C4.79812 67.435 4.85862 67.3673 4.82367 67.3662Z"/>
<path d="M5.47758 66.6222L5.46555 66.6334C5.46518 66.645 5.45315 66.6562 5.45277 66.6678C5.4772 66.6338 5.4896 66.611 5.47758 66.6222Z"/>
<path d="M16.0814 76.9149C15.9104 77.1529 15.4137 77.0092 14.9729 76.9369C14.9624 76.9018 14.9402 76.8663 14.8823 76.8528C14.7778 76.8378 14.6734 76.8228 14.5689 76.8078C14.5137 76.7133 14.4941 76.5967 14.2018 76.622C13.9117 76.5778 13.61 76.5332 13.3199 76.489C13.1921 76.4732 13.0647 76.4459 12.9369 76.4302C12.9493 76.4074 12.9505 76.3726 12.9629 76.3498C12.9279 76.3487 12.8934 76.336 12.8584 76.3348C12.8118 76.3333 12.7776 76.309 12.7551 76.2851C12.8595 76.3001 12.964 76.3151 13.0685 76.3301C13.1962 76.3458 13.324 76.3616 13.4518 76.3773C13.6257 76.4061 13.7884 76.423 13.9624 76.4519C14.0436 76.4661 14.1364 76.4807 14.218 76.4834L14.2176 76.4949C14.2875 76.4972 14.357 76.5111 14.4269 76.5133C14.4735 76.5149 14.5434 76.5171 14.6012 76.5306C14.6711 76.5329 14.7294 76.5348 14.7993 76.537C14.8459 76.5385 14.8808 76.5397 14.9274 76.5412C14.6726 76.4865 14.4179 76.4319 14.1623 76.4004C14.0695 76.3858 14.0842 76.2935 14.177 76.3081C14.3626 76.3373 14.5389 76.2967 14.7249 76.3143C14.9229 76.3208 15.0961 76.3728 15.2957 76.3329C15.5779 76.2609 15.862 76.131 16.1333 76.0354C16.175 75.8281 16.2746 75.6342 16.3855 75.4523C16.5332 75.2136 16.7293 74.9185 17.0938 74.826C17.1761 74.8055 17.243 74.9004 17.1607 74.9209C16.8082 75.0022 16.6233 75.3093 16.4873 75.5483C16.4625 75.5939 16.4373 75.6511 16.4009 75.6963C16.567 75.6089 16.8015 75.5702 16.9976 75.6345C17.0209 75.6353 17.0322 75.6472 17.0314 75.6704C17.0434 75.6592 17.0551 75.6596 17.0671 75.6484C17.0822 75.5445 17.1438 75.4421 17.2114 75.5139C17.326 75.2162 17.0397 75.4156 17.1539 75.1294C17.1697 75.0024 17.2614 75.0517 17.2881 74.9483C17.1833 74.9448 17.1634 74.8399 17.2043 74.6557C17.3189 74.7174 17.325 74.532 17.3415 74.3818C17.3434 74.3239 17.3573 74.2548 17.3592 74.1969C17.4937 74.0042 17.3565 73.9185 17.3892 73.6297C17.3904 73.595 17.3915 73.5603 17.3923 73.5371C17.4066 73.097 17.3979 72.6445 17.3773 72.2032C17.4476 72.1939 17.54 72.2201 17.5434 72.1159C17.5487 71.9537 17.4908 71.9402 17.4213 71.9264C17.398 71.9256 17.3863 71.9252 17.363 71.9245C17.3469 71.7037 17.3191 71.4825 17.2913 71.2613C17.2218 71.2474 17.1522 71.2335 17.1575 71.0714C17.0531 70.697 17.3168 70.8331 17.1673 70.4108C17.1575 70.3525 17.1481 70.2827 17.1267 70.224C17.0959 70.0954 17.4198 70.1755 17.3977 70.4995C17.4713 70.7453 17.4333 70.8369 17.2834 70.7856C17.2962 71.1107 17.5243 70.9094 17.513 71.2569C17.5182 71.4541 17.5614 71.5599 17.6554 71.5398C17.6145 71.0051 17.6141 71.0167 17.5032 70.4797C17.3973 70.1516 17.5153 70.1091 17.4199 69.8161C17.3503 69.8022 17.3312 69.6741 17.3007 69.534C17.108 69.7248 17.1377 69.1692 16.9596 69.2678C16.9377 69.5801 17.3101 69.6038 17.0524 69.6418C17.0572 69.8507 17.3695 69.9304 17.212 70.1108C17.1421 70.1085 17.1241 69.9456 17.0666 69.9206C17.026 69.7337 16.9855 69.5469 16.9332 69.3597C16.9024 69.2311 16.8713 69.1142 16.8288 68.9853C16.7766 68.7981 16.7127 68.6105 16.6601 68.4348C16.6195 68.248 16.526 68.2566 16.4703 68.1736C16.4489 68.1149 16.4275 68.0563 16.4065 67.986C16.3103 67.7162 16.2024 67.446 16.083 67.1755C15.9838 66.9983 15.9639 66.8933 16.057 66.8963C15.9943 66.674 15.9259 66.6254 15.8463 66.5648C15.8354 66.5413 15.8241 66.5293 15.8248 66.5062C15.7828 66.3657 15.655 66.3499 15.5889 66.2318C15.5415 66.2535 15.4942 66.2751 15.4476 66.2736C15.4479 66.262 15.4483 66.2505 15.4374 66.2269C15.3822 66.1324 15.3228 66.1652 15.2646 66.1633C15.2044 66.2193 15.0789 66.1341 15.1387 66.0897C15.2977 65.8629 15.475 66.147 15.4382 65.8443C15.3281 65.6436 15.2064 65.4426 15.0842 65.2531C15.0515 65.1825 15.0072 65.1115 14.9512 65.0401C14.9862 65.0412 15.0211 65.0423 15.0681 65.0323C15.0346 64.9848 15.0012 64.9373 14.9678 64.8899C14.8757 64.8521 14.7739 64.756 14.6826 64.6951C14.6604 64.6596 14.6266 64.6237 14.6044 64.5882C14.5338 64.6091 14.4631 64.63 14.3925 64.6509C14.3586 64.615 14.3369 64.5679 14.303 64.532C14.362 64.5108 14.409 64.5007 14.468 64.4794C14.4797 64.4798 14.4797 64.4798 14.4917 64.4686C14.4473 64.3976 14.4026 64.3381 14.3812 64.2795C14.4485 64.3628 14.5184 64.3651 14.4519 64.2586C14.4169 64.2575 14.3936 64.2567 14.3478 64.232C14.3012 64.2305 14.2441 64.1939 14.1659 64.087C14.1103 64.004 14.0427 63.9322 13.9867 63.8608C13.9987 63.8496 14.022 63.8504 14.034 63.8392C14.0351 63.8045 14.0355 63.7929 14.0137 63.7458C13.9784 63.7562 13.9547 63.7671 13.9194 63.7775C13.86 63.8104 13.7661 63.8305 13.7646 63.8768C13.7405 63.8992 13.7165 63.9216 13.6819 63.9089C13.7383 63.9687 13.7826 64.0397 13.8273 64.0992C13.804 64.0984 13.7807 64.0976 13.7567 64.1201C13.8119 64.2146 13.7063 64.2344 13.6003 64.2657C13.5214 64.182 13.4561 64.0407 13.3738 64.0612C13.4072 64.1087 13.4406 64.1562 13.4854 64.2156C13.3677 64.2466 13.261 64.3011 13.1731 64.1359C13.0326 64.1545 13.11 64.2846 13.0728 64.3529C13.0292 64.2587 12.9717 64.2337 12.9022 64.2198C12.8574 64.1604 12.824 64.1129 12.7793 64.0535C12.7327 64.052 12.7883 64.135 12.8443 64.2064C12.8214 64.194 12.8097 64.1936 12.7868 64.1813C12.7631 64.1921 12.7398 64.1914 12.7162 64.2022C13.096 64.7131 12.3802 64.1333 12.6485 64.4899C12.6594 64.5134 12.6819 64.5373 12.6928 64.5609C12.4677 64.6695 12.6147 64.8134 12.7492 64.9801C12.8894 64.9731 12.8574 64.8793 12.8138 64.7851C12.8375 64.7743 12.8608 64.775 12.8845 64.7642C12.9386 64.8935 13.0197 64.9077 13.1253 64.888C13.1359 64.9231 13.1235 64.9459 13.134 64.981L13.1223 64.9806C13.0754 64.9907 13.028 65.0124 12.9694 65.022C12.8164 65.0635 12.6635 65.1049 12.5222 65.1467C12.4632 65.1679 12.4046 65.1776 12.3456 65.1989C12.3347 65.1754 12.3238 65.1518 12.3129 65.1283C12.302 65.1047 12.2907 65.0928 12.2795 65.0808C12.3035 65.0584 12.3388 65.0479 12.3745 65.0259C12.3516 65.0136 12.3287 65.0012 12.2941 64.9885C12.3182 64.9661 12.3535 64.9557 12.3892 64.9336C12.411 64.9807 12.4328 65.0278 12.4542 65.0865C12.4779 65.0757 12.5012 65.0764 12.5248 65.0656C12.4707 64.9363 12.4046 64.8182 12.3389 64.6885C12.4208 64.6796 12.4572 64.6344 12.4362 64.5641C12.4144 64.517 12.3809 64.4696 12.3592 64.4225C12.3122 64.4326 12.2648 64.4542 12.2295 64.4647C12.405 64.8066 12.0454 64.3891 11.9255 64.4896C11.9364 64.5131 11.9473 64.5367 11.9582 64.5602C11.8876 64.5811 11.8286 64.6024 11.7575 64.6348C11.7106 64.6449 11.6632 64.6666 11.6279 64.677C11.5456 64.6975 11.49 64.6146 11.3949 64.6694C11.3115 64.7247 11.3085 64.8174 11.1563 64.8356C10.9891 64.9577 10.9477 64.794 10.8049 64.8822C10.8158 64.9057 10.8151 64.9289 10.826 64.9524C10.8023 64.9632 10.779 64.9625 10.7553 64.9733C10.7444 64.9498 10.7452 64.9266 10.7343 64.9031C10.6873 64.9131 10.6516 64.9352 10.6046 64.9452C10.2514 65.0497 10.2247 65.1532 9.94402 65.1789C9.87337 65.1997 9.81437 65.221 9.74335 65.2535C9.6727 65.2744 9.61371 65.2957 9.54268 65.3281C9.47204 65.349 9.41304 65.3703 9.34202 65.4028C9.27137 65.4237 9.21237 65.4449 9.14135 65.4774C8.93918 65.5984 9.0102 65.5659 8.81104 65.5942C8.78736 65.6051 8.76407 65.6043 8.74039 65.6151C8.74002 65.6267 8.74002 65.6267 8.73964 65.6383C8.70356 65.6719 8.65584 65.7051 8.60849 65.7268C8.58745 65.6565 8.46945 65.6991 8.33906 65.7644C8.29208 65.7745 8.25639 65.7965 8.20941 65.8066C8.18574 65.8174 8.16207 65.8282 8.13839 65.8391C8.0918 65.8375 7.84416 65.9223 7.77313 65.9547C7.76073 65.9775 7.74833 66.0003 7.7363 66.0115C7.73668 65.9999 7.73706 65.9883 7.74908 65.9771C7.67806 66.0096 7.63033 66.0428 7.60628 66.0653C7.58261 66.0761 7.57058 66.0873 7.54691 66.0981C7.54729 66.0865 7.54804 66.0634 7.54841 66.0518C7.48942 66.0731 7.41877 66.0939 7.35977 66.1152C7.39622 66.07 7.40975 66.0125 7.43456 65.9669C7.41088 65.9777 7.38759 65.977 7.37556 65.9882C7.44997 65.8515 7.45148 65.8051 7.33348 65.8477C7.28425 65.9273 7.25794 66.0192 7.17527 66.0513C7.1283 66.0613 7.0926 66.0834 7.04563 66.0934C7.02082 66.139 6.9964 66.173 6.98324 66.2189C6.97122 66.2301 6.94754 66.241 6.93552 66.2522C6.88817 66.2738 6.85284 66.2843 6.81677 66.3179C6.79309 66.3287 6.78107 66.3399 6.75777 66.3392C6.74575 66.3504 6.74575 66.3504 6.74537 66.3619C6.67472 66.3828 6.6037 66.4153 6.62888 66.3582C6.60521 66.369 6.58191 66.3682 6.55823 66.379C6.50938 66.447 6.46053 66.515 6.42332 66.5834C6.42332 66.5834 6.4237 66.5718 6.42407 66.5602C6.4485 66.5262 6.46128 66.4918 6.4857 66.4579C6.46203 66.4687 6.43873 66.4679 6.41506 66.4788C6.41506 66.4788 6.40303 66.4899 6.37861 66.5239C6.41619 66.444 6.44099 66.3984 6.42859 66.4212C6.42896 66.4096 6.34215 66.5691 6.23129 66.7511C6.19597 66.7615 6.1723 66.7723 6.13697 66.7828C6.21176 66.6345 6.28579 66.5093 6.31022 66.4753C6.28654 66.4862 6.26324 66.4854 6.23957 66.4962C6.22754 66.5074 6.21514 66.5302 6.21477 66.5418C6.17944 66.5523 6.15577 66.5631 6.12045 66.5735C6.14487 66.5395 5.96111 66.8118 5.81342 67.0505C5.70256 67.2325 5.59132 67.4259 5.62815 67.3692C5.61537 67.4035 5.70256 67.2325 5.81342 67.0505C5.80177 67.0502 5.80177 67.0502 5.78974 67.0614C5.79012 67.0498 5.80177 67.0502 5.80214 67.0386C5.81455 67.0158 5.82695 66.993 5.83935 66.9702C5.87618 66.9134 5.91301 66.8567 5.93781 66.8111C6.01147 66.6975 6.07272 66.6068 6.08512 66.584C6.01448 66.6049 5.94383 66.6258 5.88446 66.6586C5.88521 66.6355 5.93369 66.5791 5.89836 66.5895C5.81494 66.6448 5.79051 66.6788 5.79013 66.6903C5.79013 66.6903 5.79013 66.6903 5.77849 66.69C5.77849 66.69 5.77849 66.69 5.77811 66.7015C5.76571 66.7243 5.71723 66.7807 5.66838 66.8487C5.66838 66.8487 5.65673 66.8483 5.65635 66.8599C5.64545 66.8364 5.59848 66.8464 5.71911 66.7228C5.70746 66.7224 5.61051 66.8352 5.50078 66.9824C5.52445 66.9716 5.55977 66.9611 5.58307 66.9619C5.53422 67.0299 5.48536 67.0978 5.43651 67.1658C5.41208 67.1998 5.38766 67.2338 5.36323 67.2678L5.35158 67.2674C5.35158 67.2674 5.35158 67.2674 5.35196 67.2558L5.35233 67.2443C5.35233 67.2443 5.35233 67.2443 5.35271 67.2327C5.35271 67.2327 5.35309 67.2211 5.36473 67.2215C5.36473 67.2215 5.36473 67.2215 5.36511 67.2099C5.36549 67.1983 5.37714 67.1987 5.37751 67.1871C5.37751 67.1871 5.37751 67.1871 5.37789 67.1755C5.37827 67.1639 5.38991 67.1643 5.39029 67.1527C5.43952 67.0732 5.51205 66.9944 5.50115 66.9708C5.45267 67.0272 5.40382 67.0952 5.36662 67.1636C5.33129 67.174 5.29597 67.1845 5.26065 67.1949C5.32153 67.1157 5.38278 67.025 5.44215 66.9921C5.39518 67.0022 5.34821 67.0122 5.29973 67.0686C5.26328 67.1138 5.22645 67.1706 5.19 67.2158C5.19 67.2158 5.19038 67.2042 5.20202 67.2046C5.32454 67.0231 5.4711 66.8191 5.52033 66.7396C5.44742 66.8299 5.28921 67.0335 5.17835 67.2154C5.15468 67.2262 5.11973 67.2251 5.09605 67.2359C5.03518 67.3151 4.98632 67.3831 5.09304 67.3286C5.05659 67.3738 5.02089 67.3958 4.9743 67.3943C4.9743 67.3943 4.9743 67.3943 4.97392 67.4059C5.00924 67.3954 5.04457 67.385 5.07989 67.3745C5.06711 67.4089 5.04306 67.4313 5.04231 67.4545C5.03066 67.4541 5.00736 67.4533 4.99571 67.453C4.97241 67.4522 4.94874 67.463 4.93672 67.4742C4.92469 67.4854 4.92431 67.497 4.91229 67.5082C4.86343 67.5762 4.81458 67.6442 4.76573 67.7122C4.72928 67.7574 4.69245 67.8141 4.65562 67.8709C4.59436 67.9617 4.54513 68.0413 4.48388 68.132C4.40984 68.2572 4.33619 68.3707 4.26215 68.4958C4.21255 68.587 4.16294 68.6781 4.11371 68.7577C4.10131 68.7805 4.08929 68.7917 4.08853 68.8149C4.06411 68.8488 4.05133 68.8832 4.0269 68.9172C3.97504 69.0779 3.88034 69.1212 3.81796 69.2467C3.86493 69.2366 3.85253 69.2594 3.83975 69.2938C3.81457 69.3509 3.77812 69.3961 3.74279 69.4065C3.74166 69.4413 3.77134 69.6046 3.64245 69.6236C3.61727 69.6807 3.59209 69.7379 3.56729 69.7835C3.45718 69.9422 3.58607 69.9232 3.51166 70.0599C3.46544 70.0468 3.45267 70.0812 3.43989 70.1156C3.40494 70.1144 3.36962 70.1249 3.33467 70.1238C3.29671 70.2153 3.2704 70.3072 3.23245 70.3987C3.26739 70.3998 3.30234 70.401 3.33766 70.3905C3.40718 70.4044 3.33315 70.5295 3.31887 70.6102C3.29256 70.7021 3.26625 70.794 3.23957 70.8975C3.40115 70.9491 3.37372 70.7163 3.43536 70.614C3.48158 70.6271 3.49435 70.5927 3.50713 70.5584C3.53344 70.4665 3.5714 70.3749 3.59808 70.2714C3.62401 70.1911 3.64957 70.1224 3.6755 70.0421C3.70106 69.9733 3.73826 69.905 3.81943 69.9192C3.83183 69.8964 3.83221 69.8848 3.84461 69.862C3.78636 69.8602 3.72812 69.8583 3.78975 69.7559C3.82846 69.6412 3.87844 69.5385 3.9288 69.4242C3.95398 69.367 3.97916 69.3099 4.00396 69.2643C4.05357 69.1732 4.14563 69.2109 4.17307 69.0843C4.23169 69.0746 4.31323 69.0772 4.35044 69.0089C4.29219 69.007 4.2456 69.0055 4.30685 68.9147C4.35383 68.9046 4.40042 68.9061 4.44739 68.8961C4.47295 68.8273 4.53421 68.7366 4.47596 68.7347C4.54774 68.679 4.58757 68.5296 4.69166 68.5562C4.70482 68.5102 4.6819 68.4979 4.6229 68.5192C4.66048 68.4392 4.70971 68.3597 4.66274 68.3697C4.61351 68.4493 4.57517 68.5524 4.48198 68.5494C4.56804 68.413 4.46207 68.4444 4.58383 68.286C4.50228 68.2833 4.45268 68.3745 4.39293 68.4189C4.46546 68.3401 4.50642 68.1559 4.58834 68.147C4.64659 68.1489 4.69544 68.0809 4.75406 68.0712C4.74166 68.094 4.72964 68.1052 4.71723 68.128C4.77586 68.1183 4.82358 68.0851 4.88295 68.0522C4.90738 68.0182 4.92016 67.9839 4.94459 67.9499C4.92129 67.9491 4.89799 67.9484 4.93444 67.9032C4.95887 67.8692 4.97165 67.8348 4.99607 67.8008C5.05658 67.7332 5.11633 67.6888 5.16631 67.5861C5.15466 67.5857 5.14339 67.5737 5.15579 67.5509L5.16744 67.5513C5.15541 67.5625 5.16744 67.5513 5.20427 67.4945C5.20427 67.4945 5.20427 67.4945 5.19262 67.4942C5.20464 67.4829 5.20464 67.4829 5.21667 67.4717C5.21629 67.4833 5.20464 67.4829 5.20427 67.4945C5.21592 67.4949 5.23959 67.4841 5.25124 67.4845C5.27454 67.4852 5.28656 67.474 5.30986 67.4748C5.29708 67.5091 5.28506 67.5203 5.29671 67.5207C5.30911 67.4979 5.32113 67.4867 5.33353 67.4639L5.32189 67.4636C5.32226 67.452 5.33391 67.4524 5.33429 67.4408L5.32226 67.452C5.40418 67.4431 5.19862 67.6683 5.17231 67.7602C5.14789 67.7942 5.13511 67.8285 5.11068 67.8625C5.04792 67.9996 4.97389 68.1247 4.85815 68.0978C4.83372 68.1318 4.82095 68.1662 4.79652 68.2002C4.84349 68.1901 4.89046 68.18 4.92541 68.1812C4.91301 68.2039 4.90098 68.2151 4.90023 68.2383C4.7781 68.4083 4.81493 68.3515 4.76306 68.5121C4.73788 68.5693 4.7127 68.6264 4.6879 68.672C4.66272 68.7292 4.63754 68.7863 4.61274 68.8319C4.58756 68.889 4.56238 68.9462 4.5372 69.0034C4.51202 69.0605 4.48684 69.1177 4.46166 69.1748C4.31397 69.4135 4.37146 69.4386 4.24519 69.7359C4.23241 69.7703 4.21926 69.8162 4.20648 69.8506C4.19483 69.8502 4.17153 69.8495 4.15988 69.8491C4.14748 69.8719 4.14711 69.8835 4.1347 69.9063C4.14635 69.9066 4.16965 69.9074 4.1813 69.9078C4.15349 70.046 4.04865 70.0426 4.03211 70.1928C3.96972 70.3183 4.01556 70.343 4.01293 70.4241C3.99827 70.5163 3.928 70.5257 3.91409 70.5948C3.90132 70.6291 3.88816 70.6751 3.88703 70.7098C3.8735 70.7674 3.85997 70.8249 3.84644 70.8824C3.86974 70.8832 3.88139 70.8836 3.90469 70.8843C3.9122 71.0121 3.53567 71.1158 3.79232 71.1126C3.77954 71.1469 3.77804 71.1933 3.76526 71.2276C3.73031 71.2265 3.69537 71.2254 3.66042 71.2242C3.62585 71.2115 3.60368 71.176 3.62923 71.1073C3.53604 71.1043 3.44247 71.1128 3.34928 71.1098C3.35003 71.0866 3.36206 71.0754 3.36281 71.0522C3.39776 71.0534 3.43271 71.0545 3.46765 71.0556C3.48156 70.9865 3.48382 70.917 3.38987 70.9372C3.33163 70.9353 3.28503 70.9338 3.22641 70.9435C3.21363 70.9778 3.20048 71.0238 3.19935 71.0585C3.15951 71.208 3.00807 71.203 2.9239 71.2815C2.98214 71.2834 2.94494 71.3517 2.95508 71.3984C3.07082 71.4254 3.06369 71.286 3.14523 71.2887C3.09186 71.4956 3.05014 71.703 3.02007 71.9107C3.02532 72.108 2.87424 72.4509 2.94338 72.4764C2.94226 72.5111 2.9291 72.5571 2.92797 72.5918C2.95728 72.7667 2.85131 72.798 2.84717 72.9254C2.87046 72.9262 2.88211 72.9266 2.90541 72.9273C2.90278 73.0084 2.90014 73.0895 2.8419 73.0876C2.90953 73.1593 2.89337 73.298 2.88886 73.4369C2.899 73.4836 2.86405 73.4825 2.82873 73.493C2.66451 73.5224 2.6803 73.3954 2.55179 73.4028C2.45182 73.6083 2.87081 73.6335 2.66864 73.7544C2.66788 73.7776 2.66751 73.7892 2.66676 73.8123C2.73627 73.8262 2.81782 73.8289 2.88733 73.8427C2.89522 73.9589 2.89183 74.0631 2.89972 74.1793C2.89859 74.2141 2.90911 74.2492 2.90761 74.2956C2.91512 74.4233 2.93427 74.5515 2.94178 74.6793C2.88392 74.6658 2.83732 74.6643 2.77945 74.6508C2.77795 74.6972 2.78771 74.7554 2.74112 74.7539C2.72008 74.6837 2.71031 74.6254 2.61712 74.6224C2.62689 74.6807 2.63703 74.7274 2.63515 74.7853C2.72834 74.7883 2.99476 74.8433 3.28448 74.8991C3.28335 74.9339 3.29387 74.969 3.30402 75.0157C3.34986 75.0404 3.38443 75.0531 3.39608 75.0535C3.40735 75.0654 3.40698 75.077 3.41825 75.089C3.30214 75.0736 3.19805 75.047 3.08193 75.0317C3.04699 75.0305 3.01242 75.0178 2.98912 75.0171C2.99776 75.1101 3.01804 75.2035 3.03871 75.2854C2.98084 75.2719 2.93462 75.2588 2.87637 75.2569C2.876 75.2685 2.88689 75.292 2.88652 75.3036C2.89817 75.304 2.90982 75.3044 2.93311 75.3051C2.95829 75.248 3.1319 75.2884 3.30551 75.3288C3.3149 75.3987 3.26604 75.4667 3.41635 75.5063C3.41748 75.4716 3.41861 75.4368 3.41974 75.4021C3.45431 75.4148 3.48926 75.4159 3.52383 75.4287L3.52345 75.4402C3.47723 75.4271 3.49827 75.4974 3.48512 75.5434C3.54299 75.5568 3.58921 75.5699 3.64745 75.5718C3.63693 75.5367 3.63806 75.5019 3.62791 75.4552C3.63956 75.4556 3.63956 75.4556 3.65121 75.456C3.7553 75.4826 3.82407 75.5196 3.78686 75.5879C3.80978 75.6003 3.83308 75.601 3.85638 75.6018C3.85751 75.567 3.84661 75.5435 3.84774 75.5088C3.93905 75.5697 4.03074 75.6191 4.12205 75.68C4.1337 75.6804 4.15662 75.6927 4.17992 75.6935C4.21449 75.7062 4.24944 75.7073 4.28401 75.72C4.28438 75.7085 4.28438 75.7085 4.28438 75.7085C4.49406 75.7153 4.70412 75.7105 4.91418 75.7057C4.91493 75.6826 4.91531 75.671 4.92771 75.6482C5.35722 75.7085 5.28019 75.5669 5.22684 75.4144C5.25051 75.4036 5.25089 75.392 5.26329 75.3692C5.41398 75.3973 5.50604 75.4351 5.5981 75.4729C5.58344 75.5651 5.56878 75.6574 5.55412 75.7497C5.41547 75.7104 5.33355 75.7193 5.29709 75.7645C5.29597 75.7993 5.28281 75.8452 5.28168 75.88C5.36285 75.8942 5.44402 75.9085 5.52518 75.9227C5.68676 75.9743 5.84834 76.0259 6.00993 76.0776C6.01068 76.0544 6.01105 76.0428 6.02346 76.02C6.15084 76.0474 6.26696 76.0627 6.39434 76.0901C6.47551 76.1043 6.55668 76.1185 6.63784 76.1328C6.80018 76.1612 6.79754 76.2423 6.99482 76.2719C7.16918 76.2892 7.25298 76.2223 7.49535 76.2997C7.85647 76.3115 7.79371 76.4486 8.09583 76.4816C8.09659 76.4584 8.10899 76.4356 8.10974 76.4125C8.14431 76.4252 8.19091 76.4267 8.23713 76.4398C8.23637 76.463 8.22397 76.4857 8.22322 76.5089C8.30439 76.5231 8.38555 76.5374 8.46672 76.5516C9.11493 76.7002 9.21075 76.6222 9.69512 76.7886C9.8225 76.816 9.93862 76.8313 10.066 76.8586C10.1934 76.886 10.3095 76.9013 10.4369 76.9287C10.5643 76.956 10.6804 76.9714 10.8078 76.9987C10.9352 77.026 11.0513 77.0414 11.1787 77.0687C11.3767 77.0751 11.4349 77.077 11.4928 77.0905C11.5026 77.1488 11.5597 77.1854 11.6995 77.19C12.3003 77.3602 12.3469 77.3618 12.7858 77.492C12.9155 77.4498 13.0902 77.4555 13.31 77.509C13.3104 77.4974 13.3224 77.4862 13.3228 77.4746C13.4964 77.515 13.6471 77.5431 13.6854 77.44C13.755 77.4539 13.8241 77.4793 13.7869 77.5477C14.5418 77.6418 13.6547 76.952 13.4946 77.2135C13.2616 77.2059 13.1943 77.1226 13.0797 77.0609C13.1278 77.0161 13.1868 76.9948 13.3138 77.0337C13.4762 77.0622 13.6501 77.091 13.8125 77.1195C13.8936 77.1337 13.9748 77.148 14.0676 77.1626C14.23 77.191 14.2687 77.0763 14.4648 77.1407C14.452 77.1751 14.4513 77.1982 14.4385 77.2326C14.6132 77.2383 14.7094 77.1486 14.9635 77.2265C14.9499 77.284 14.9248 77.3411 14.9108 77.4103C14.6298 77.4475 14.1018 77.1869 14.1582 77.6061C14.1927 77.6188 14.2393 77.6203 14.2739 77.6331C14.2258 77.6779 14.1672 77.6876 14.0518 77.649C13.6189 77.6929 14.4543 77.8244 14.6395 77.8652C14.6647 77.8081 14.6895 77.7625 14.7932 77.8006C14.9777 77.8646 15.0833 77.8449 15.1776 77.8131C15.3396 77.8532 15.5019 77.8816 15.5519 77.7789C15.5636 77.7793 15.5752 77.7797 15.5865 77.7916C15.5729 77.8492 15.5478 77.9063 15.5346 77.9523C15.3835 77.9358 15.3783 78.0979 15.3163 78.2119C15.3625 78.225 15.3974 78.2261 15.4437 78.2392C15.3328 78.4211 15.364 78.5381 15.5846 78.5684C15.6462 78.4661 15.6635 78.2927 15.8145 78.3092C15.8957 78.3234 15.9765 78.3493 16.0577 78.3635C16.0828 78.3063 16.0964 78.2488 16.1216 78.1917C16.2606 78.2194 16.4 78.2355 16.539 78.2632C16.5537 78.1709 16.5804 78.0674 16.6071 77.9639C16.6071 77.9639 16.6071 77.9639 16.5954 77.9636C16.5864 77.8821 16.53 77.8223 16.3906 77.8062C16.4162 77.7374 16.4297 77.6799 16.4553 77.6112C16.3625 77.5966 16.2813 77.5823 16.1885 77.5677C16.2268 77.4646 16.2651 77.3615 16.2678 77.2804C16.4767 77.3104 16.6736 77.3516 16.8825 77.3816C16.8825 77.3816 16.8825 77.3816 16.8822 77.3931C16.8822 77.3931 16.8822 77.3931 16.8942 77.3819C16.9058 77.3823 16.9175 77.3827 16.9291 77.3831C16.9419 77.3487 16.943 77.314 16.9558 77.2796C16.5293 77.1266 15.8608 77.244 16.0814 76.9149ZM5.85664 66.7969C5.84386 66.8312 5.81944 66.8652 5.79501 66.8992C5.79501 66.8992 5.78336 66.8988 5.78299 66.9104C5.80779 66.8648 5.83222 66.8308 5.85664 66.7969ZM5.18812 67.2737C5.17647 67.2733 5.15279 67.2842 5.11747 67.2946C5.07012 67.3163 5.02277 67.3379 4.98632 67.3831L4.98595 67.3947L4.99797 67.3835C5.01037 67.3607 5.02277 67.3379 5.03555 67.3035C5.09455 67.2823 5.15317 67.2726 5.21217 67.2513C5.20014 67.2625 5.20014 67.2625 5.18812 67.2737ZM3.71437 74.9479C3.56594 74.8503 3.63057 75.0147 3.62868 75.0726C3.55917 75.0588 3.48965 75.0449 3.41975 75.0427C3.39909 74.9608 3.3897 74.8909 3.45922 74.9048L3.45959 74.8932C3.56406 74.9082 3.66852 74.9232 3.75007 74.9258C3.76171 74.9262 3.76171 74.9262 3.77336 74.9266C3.76096 74.9494 3.73766 74.9486 3.71437 74.9479ZM3.88496 75.081C3.94245 75.106 3.99957 75.1427 4.08074 75.1569C4.01122 75.143 3.94133 75.1408 3.87181 75.1269C3.87218 75.1153 3.88459 75.0925 3.88496 75.081ZM4.04615 75.5036C4.0345 75.5032 4.02323 75.4913 4.01158 75.4909C4.02323 75.4913 4.03525 75.4801 4.05855 75.4808C4.04653 75.492 4.04615 75.5036 4.04615 75.5036ZM5.22945 67.4374C5.29032 67.3582 5.36285 67.2794 5.31626 67.2779C5.31626 67.2779 5.31663 67.2663 5.32828 67.2667C5.33993 67.267 5.33993 67.267 5.33956 67.2786L5.33918 67.2902C5.33918 67.2902 5.33918 67.2902 5.3388 67.3018C5.3388 67.3018 5.33843 67.3134 5.3264 67.3246C5.3264 67.3246 5.3264 67.3246 5.32602 67.3362C5.32565 67.3477 5.31362 67.3589 5.3016 67.3702C5.36135 67.3257 5.4226 67.2349 5.48085 67.2368C5.49325 67.214 5.50527 67.2028 5.51768 67.1801C5.4707 67.1901 5.42373 67.2002 5.42449 67.177C5.57667 67.1588 5.56314 67.2163 5.6973 67.0352L5.70895 67.0355C5.65972 67.1151 5.61087 67.1831 5.58569 67.2402C5.57366 67.2514 5.56164 67.2627 5.54999 67.2623C5.45492 67.3172 5.34782 67.3832 5.22945 67.4374ZM5.13743 74.9361C5.14907 74.9365 5.1611 74.9253 5.16148 74.9137C5.1844 74.9261 5.19567 74.938 5.20694 74.95C5.18402 74.9376 5.16072 74.9369 5.13743 74.9361ZM5.54886 67.297C5.53646 67.3198 5.53684 67.3082 5.56126 67.2742C5.54886 67.297 5.54848 67.3086 5.54886 67.297ZM5.41023 75.1537C5.42188 75.1541 5.42188 75.1541 5.41023 75.1537V75.1537ZM13.9555 64.1033C13.9667 64.1153 13.9776 64.1388 14.0006 64.1512C13.9893 64.1392 13.978 64.1272 13.9555 64.1033ZM13.9904 64.1045C13.9788 64.1041 13.9671 64.1037 13.9555 64.1033C13.8882 64.02 13.8548 63.9725 13.8559 63.9378C13.9014 63.974 13.9461 64.0334 13.9904 64.1045ZM13.8559 63.9378C13.8563 63.9262 13.8563 63.9262 13.8566 63.9146C13.8566 63.9146 13.8563 63.9262 13.8559 63.9378ZM13.2328 64.8103C13.3392 64.7674 13.4463 64.7013 13.5395 64.7043C13.6807 64.6625 13.8337 64.6211 13.9754 64.5678C14.0344 64.5465 14.0813 64.5364 14.1403 64.5151C14.1625 64.5506 14.1959 64.5981 14.2181 64.6336C14.1711 64.6437 14.1238 64.6653 14.0652 64.675C14.0422 64.6627 14.0186 64.6735 14.0054 64.7195C14.0054 64.7195 14.005 64.731 14.0167 64.7314C13.9355 64.7172 13.8536 64.7261 13.7709 64.7582C13.724 64.7683 13.665 64.7896 13.618 64.7996C13.5473 64.8205 13.465 64.841 13.3944 64.8619C13.3835 64.8384 13.3722 64.8264 13.3613 64.8029C13.326 64.8133 13.2907 64.8238 13.2554 64.8342C13.2328 64.8103 13.2219 64.7868 13.2106 64.7748C13.2219 64.7868 13.2332 64.7987 13.2328 64.8103ZM13.1686 64.6343C13.1686 64.6343 13.1689 64.6227 13.1573 64.6223L13.1686 64.6343ZM13.066 65.2803C13.0889 65.2926 13.0994 65.3277 13.1099 65.3629C13.0622 65.3961 12.957 65.4043 12.9893 65.4865C12.9089 65.4491 12.8525 65.3893 12.7845 65.3291C12.8333 65.2611 12.9044 65.2286 13.066 65.2803ZM11.818 65.2861C11.8297 65.2865 11.8533 65.2757 11.865 65.276L11.8646 65.2876C11.8995 65.2888 11.9349 65.2783 11.9702 65.2679C12.0033 65.3269 12.0611 65.3404 12.0946 65.3879C12.0356 65.4091 11.9769 65.4188 11.918 65.4401C11.8826 65.4505 11.8357 65.4606 11.8 65.4826C11.7909 65.4012 11.8045 65.3436 11.818 65.2861ZM11.5364 76.1064C11.8265 76.1506 12.1283 76.1952 12.4188 76.2278C12.4766 76.2413 12.5232 76.2428 12.5815 76.2447C12.5811 76.2563 12.5807 76.2678 12.5803 76.2794C12.6153 76.2806 12.6269 76.2809 12.6382 76.2929C12.6149 76.2921 12.5916 76.2914 12.5687 76.2791C12.3598 76.2491 12.1508 76.2191 11.9423 76.1775C11.8126 76.2197 11.6375 76.2256 11.4173 76.1837C11.4203 76.091 11.2106 76.0842 11.0603 76.0445C11.0607 76.033 11.0607 76.033 11.0727 76.0217C11.2231 76.0614 11.3858 76.0783 11.5364 76.1064ZM11.6662 65.6522C11.6767 65.6873 11.6876 65.7109 11.6981 65.746C11.6628 65.7565 11.6275 65.7669 11.5921 65.7773C11.5576 65.7646 11.5234 65.7403 11.4768 65.7388C11.5238 65.7287 11.5711 65.7071 11.6184 65.6854C11.6308 65.6627 11.6425 65.663 11.6662 65.6522ZM9.74785 65.4739C9.77115 65.4747 9.7828 65.4751 9.79407 65.487C9.79407 65.487 9.78242 65.4867 9.78204 65.4982C9.77002 65.5094 9.75837 65.5091 9.75799 65.5206C9.7471 65.4971 9.74747 65.4855 9.74785 65.4739ZM8.96022 65.6686C9.06619 65.6373 9.17216 65.606 9.27813 65.5746C9.32472 65.5761 9.3717 65.5661 9.40589 65.5904C9.40664 65.5672 9.43069 65.5448 9.44309 65.522C9.45474 65.5224 9.47842 65.5116 9.49007 65.5119L9.49044 65.5004C9.52577 65.4899 9.57311 65.4683 9.60844 65.4578C9.61783 65.5277 9.61557 65.5972 9.61331 65.6667C9.66029 65.6566 9.68396 65.6458 9.70764 65.635C9.72792 65.7284 9.87635 65.826 9.72077 65.9484C9.48403 66.0567 9.50132 65.8833 9.26421 66.0032C9.36266 65.844 9.84067 65.4886 9.27512 65.6673C9.20447 65.6882 9.13382 65.7091 9.06318 65.73C8.99328 65.7277 8.94631 65.7378 8.92188 65.7718C8.91023 65.7714 8.91023 65.7714 8.89859 65.771C8.91212 65.7135 8.93617 65.6911 8.96022 65.6686ZM7.2042 66.2377C7.23952 66.2273 7.28687 66.2056 7.32219 66.1952C7.28612 66.2288 7.23839 66.262 7.17977 66.2717C7.19179 66.2605 7.19217 66.2489 7.2042 66.2377ZM6.07873 66.7809C6.0776 66.8156 6.11217 66.8283 6.09864 66.8859C6.06143 66.9542 6.02423 67.0226 5.99905 67.0798L5.9874 67.0794C5.96297 67.1134 5.93817 67.1589 5.90209 67.1925C5.92878 67.0891 5.99229 66.9288 6.07873 66.7809ZM5.75028 67.1992C5.75103 67.176 5.75141 67.1645 5.76419 67.1301C5.75141 67.1645 5.75066 67.1876 5.75028 67.1992ZM5.81116 67.12C5.79913 67.1312 5.77584 67.1305 5.76381 67.1417C5.77621 67.1189 5.78861 67.0961 5.81342 67.0505L5.82507 67.0509C5.82431 67.0741 5.82356 67.0972 5.81116 67.12ZM5.57292 75.53C5.57405 75.4953 5.58645 75.4725 5.58758 75.4377C5.64545 75.4512 5.69205 75.4527 5.74992 75.4662C5.78486 75.4673 5.81943 75.4801 5.85438 75.4812C5.84047 75.5503 5.70069 75.5458 5.57292 75.53ZM6.16477 67.004C6.14147 67.0032 6.12945 67.0144 6.10615 67.0137C6.13246 66.9218 6.18281 66.8075 6.22115 66.7043C6.2328 66.7047 6.25647 66.6939 6.27977 66.6947C6.2918 66.6834 6.29255 66.6603 6.30457 66.6491C6.3042 66.6607 6.31622 66.6495 6.3399 66.6386C6.38687 66.6286 6.43497 66.5838 6.4609 66.5034L6.44925 66.5031C6.46128 66.4918 6.46203 66.4687 6.47406 66.4575C6.59205 66.4149 6.58942 66.496 6.66232 66.4056C6.67359 66.4176 6.70892 66.4071 6.74424 66.3967C6.71944 66.4423 6.69501 66.4763 6.67021 66.5218C6.76453 66.4901 6.85847 66.47 6.95279 66.4382C6.99977 66.4282 7.04711 66.4065 7.09409 66.3965C7.18841 66.3647 7.28235 66.3446 7.37667 66.3129C7.3173 66.3457 7.26957 66.379 7.22147 66.4238C7.10385 66.4547 6.90281 66.541 6.91709 66.4603C6.87989 66.5286 6.84268 66.597 6.86523 66.6209C6.77091 66.6526 6.67697 66.6728 6.58264 66.7045C6.59505 66.6817 6.59542 66.6701 6.60782 66.6473C6.63338 66.5786 6.67096 66.4987 6.69652 66.4299C6.6037 66.4153 6.54132 66.5408 6.4902 66.6783C6.47856 66.6779 6.46653 66.6891 6.45488 66.6887C6.44248 66.7115 6.4421 66.7231 6.4297 66.7459C6.40603 66.7567 6.37108 66.7556 6.34741 66.7664C6.335 66.7892 6.3226 66.812 6.31058 66.8232C6.33388 66.824 6.3692 66.8135 6.40452 66.8031C6.37934 66.8602 6.37784 66.9065 6.40038 66.9305C6.34176 66.9402 6.28276 66.9614 6.23579 66.9715C6.24782 66.9603 6.24857 66.9371 6.2606 66.9259C6.27337 66.8916 6.2978 66.8576 6.31058 66.8232C6.25233 66.8213 6.21438 66.9128 6.16477 67.004ZM5.97652 75.3112C5.97689 75.2997 5.98892 75.2884 6.00057 75.2888C6.09338 75.3034 6.19785 75.3184 6.29066 75.333C6.18544 75.3412 6.09188 75.3498 5.97652 75.3112ZM6.66268 66.7535C6.59204 66.7744 6.56648 66.8431 6.518 66.8995C6.518 66.8995 6.518 66.8995 6.50635 66.8991C6.53116 66.8535 6.54469 66.796 6.56949 66.7504C6.66381 66.7187 6.74611 66.6982 6.75663 66.7333C6.7446 66.7445 6.70965 66.7434 6.66268 66.7535ZM6.83554 66.8171C6.81261 66.8047 6.80172 66.7812 6.79082 66.7576C6.95842 66.6239 7.22786 66.5863 7.46309 66.5244C7.71224 66.3933 7.62467 66.576 7.72951 66.5794C7.63557 66.5996 7.5529 66.6317 7.45895 66.6518C7.41198 66.6619 7.35298 66.6831 7.30601 66.6932C7.34359 66.6133 7.33307 66.5781 7.2861 66.5882C7.26805 66.7847 6.98923 66.7525 6.83554 66.8171ZM7.89258 75.559C7.84598 75.5575 7.81028 75.5795 7.78623 75.6019C7.77233 75.671 7.73625 75.7046 7.68853 75.7379C7.57241 75.7225 7.46795 75.7075 7.35221 75.6806C7.31877 75.6331 7.23835 75.5957 7.27593 75.5158C7.12487 75.4993 7.02116 75.4611 6.97607 75.4133C7.05761 75.4159 7.11586 75.4178 7.14066 75.3722C7.15382 75.3263 7.15532 75.28 7.16848 75.234C7.37741 75.264 7.58634 75.294 7.79527 75.3239C7.78211 75.3699 7.78061 75.4162 7.76745 75.4622C7.84787 75.4996 7.91738 75.5134 7.89258 75.559ZM7.84713 66.5485C7.85878 66.5488 7.85916 66.5373 7.87081 66.5376C7.9531 66.5171 8.02375 66.4962 8.10605 66.4757L8.1177 66.4761C8.08237 66.4865 8.04705 66.497 8.01173 66.5074C7.95273 66.5287 7.89411 66.5384 7.84713 66.5485ZM8.20038 66.0846C8.15341 66.0946 8.10606 66.1163 8.05909 66.1263C7.96477 66.1581 7.93884 66.2384 7.82159 66.2578C7.834 66.235 7.83475 66.2118 7.84715 66.189C7.7408 66.232 7.67955 66.3227 7.53901 66.3413C7.56494 66.261 7.60252 66.1811 7.62845 66.1008C7.69759 66.1262 7.80281 66.118 7.86331 66.0504C7.87496 66.0508 7.88661 66.0512 7.89788 66.0631C7.91029 66.0404 7.91066 66.0288 7.92306 66.006C8.05308 65.9522 8.07488 65.9993 8.1568 65.9904C8.20377 65.9803 8.25112 65.9587 8.29809 65.9486C8.35671 65.9389 8.36949 65.9045 8.38264 65.8586C8.41797 65.8481 8.45329 65.8377 8.50064 65.816C8.51153 65.8396 8.52318 65.84 8.54611 65.8523C8.55662 65.8874 8.57879 65.9229 8.56489 65.9921C8.54121 66.0029 8.51792 66.0021 8.49424 66.0129C8.377 66.0323 8.28305 66.0525 8.20038 66.0846ZM8.19393 75.9746C8.14734 75.9731 8.11277 75.9604 8.06617 75.9589C8.0906 75.9249 8.09135 75.9017 8.08045 75.8782C8.13832 75.8916 8.18492 75.8931 8.24279 75.9066C8.20746 75.9171 8.19506 75.9398 8.19393 75.9746ZM9.21942 75.9963C9.1732 75.9832 9.12661 75.9817 9.06874 75.9682C9.12698 75.9701 9.18485 75.9836 9.25437 75.9975L9.26602 75.9978C9.25437 75.9975 9.23107 75.9967 9.21942 75.9963ZM9.30811 75.7789C9.26152 75.7774 9.22695 75.7647 9.18035 75.7632C9.01237 75.9084 8.62647 75.5828 8.17103 75.6028C8.13608 75.6017 8.11316 75.5894 8.07821 75.5882C8.2071 75.5692 8.27888 75.5136 8.52125 75.591C8.64901 75.6068 8.77678 75.6225 8.90416 75.6498C8.88649 75.8348 9.32127 75.733 9.40319 75.724C9.41295 75.7823 9.49299 75.8313 9.64443 75.8362C9.72597 75.8389 9.79587 75.8411 9.7861 75.7828C9.8327 75.7844 9.87892 75.7974 9.92513 75.8105C9.80789 75.8299 9.6309 75.8937 9.30811 75.7789ZM9.94014 76.4256C9.98673 76.4271 10.0333 76.4286 10.0566 76.4293C10.0326 76.4517 10.0198 76.4861 10.0074 76.5089C9.86874 76.4696 9.93075 76.3557 9.93376 76.263C9.73573 76.2566 9.73836 76.1755 9.70529 76.1165C9.91347 76.1696 10.11 76.2224 10.2235 76.3188C10.1972 76.4107 9.98937 76.346 9.94014 76.4256ZM10.1788 75.9C10.1904 75.9003 10.2133 75.9127 10.225 75.913C10.2133 75.9127 10.2017 75.9123 10.1784 75.9115L10.1788 75.9ZM10.6334 76.622C10.6086 76.6676 10.562 76.6661 10.4921 76.6638C10.5628 76.6429 10.5771 76.5622 10.6819 76.5656C10.6808 76.6003 10.6797 76.6351 10.6906 76.6586C10.6676 76.6463 10.6447 76.634 10.6334 76.622ZM10.8624 65.6261C10.6756 65.6316 10.4517 65.7055 10.3014 65.6658C10.4427 65.624 10.5956 65.5826 10.7369 65.5409C10.8654 65.5334 10.8684 65.4408 10.8477 65.3589C10.8714 65.3481 10.8947 65.3489 10.9184 65.338C10.9259 65.4658 11.0078 65.4569 11.1018 65.4368C11.1961 65.405 11.3021 65.3737 11.396 65.3536C11.455 65.3323 11.5136 65.3226 11.5726 65.3013C11.5839 65.3133 11.5948 65.3368 11.594 65.36C11.4411 65.4014 11.2882 65.4428 11.1469 65.4846C11.0984 65.541 10.9917 65.5955 10.8624 65.6261ZM11.3603 65.735L11.3486 65.7347C11.3475 65.7694 11.3351 65.7922 11.2998 65.8026C11.2889 65.7791 11.2896 65.7559 11.2787 65.7324C11.3017 65.7447 11.3253 65.7339 11.3603 65.735ZM11.8254 76.5448C11.8137 76.5444 11.8017 76.5556 11.7901 76.5552C11.4786 76.4523 11.4496 76.6253 11.1723 76.5467C11.0986 76.6603 11.1907 76.6981 11.3294 76.7374C11.2933 76.771 11.2925 76.7941 11.373 76.8315C11.3031 76.8293 11.2102 76.8146 11.1178 76.7885C11.1148 76.8811 11.055 76.9256 10.9502 76.9222C11.0111 76.843 10.9776 76.7955 10.9205 76.7589C11.2719 76.7123 10.7582 76.371 11.1332 76.3136C11.518 76.3145 11.4771 76.4987 11.8378 76.522C11.8378 76.522 11.8258 76.5332 11.8254 76.5448ZM12.0418 77.062C11.9723 77.0481 11.8911 77.0339 11.8216 77.02C11.834 76.9972 11.8351 76.9625 11.8475 76.9397C11.9287 76.9539 12.0099 76.9682 12.0794 76.982C12.0666 77.0164 12.0542 77.0392 12.0418 77.062ZM12.4743 77.0296C12.4627 77.0293 12.4627 77.0293 12.451 77.0289C12.4631 77.0177 12.4751 77.0065 12.4867 77.0068C12.4867 77.0068 12.4864 77.0184 12.4743 77.0296ZM12.628 76.9651C12.5935 76.9524 12.5702 76.9516 12.5469 76.9508C12.5946 76.9176 12.6656 76.8851 12.8039 76.936C12.8035 76.9476 12.8028 76.9707 12.8024 76.9823C12.7441 76.9804 12.6863 76.967 12.628 76.9651ZM15.9266 77.3737C15.9025 77.3961 15.8777 77.4417 15.8529 77.4872C15.8296 77.4865 15.8067 77.4741 15.7834 77.4734C15.7022 77.4592 15.6211 77.4449 15.5399 77.4307C15.3776 77.4022 15.2036 77.3734 15.0412 77.3449C15.3452 77.32 15.4693 77.0922 15.8743 77.1865C15.8976 77.1872 15.9322 77.1999 15.9555 77.2007C15.9536 77.2586 15.9401 77.3161 15.9266 77.3737Z"/>
<path d="M17.1333 75.7665C17.1097 75.7773 17.098 75.7769 17.0864 75.7765C16.8229 75.9883 16.5253 76.1757 16.2051 76.3392C16.1694 76.3612 16.112 76.3362 16.1014 76.3011C15.9827 76.3668 15.8639 76.4325 15.7339 76.4862C15.9094 76.4687 16.0736 76.4393 16.2378 76.4098C16.2615 76.399 16.2852 76.3882 16.3089 76.3774C16.546 76.2575 16.7606 76.1138 16.998 75.9824C16.9887 75.9125 17.0375 75.8445 17.1333 75.7665Z"/>
<path d="M16.3618 75.8225C16.4783 75.8263 16.5839 75.8066 16.6899 75.7752C16.7256 75.7532 16.7617 75.7196 16.7974 75.6976C16.6346 75.6807 16.458 75.7329 16.3618 75.8225Z"/>
<path d="M15.8481 76.2001C15.5768 76.2956 15.3269 76.4498 15.0127 76.428C14.9428 76.4257 14.8617 76.4115 14.7918 76.4093C14.977 76.4501 15.1626 76.4793 15.3483 76.5085C15.6072 76.4357 15.856 76.3163 16.0818 76.1845C16.0826 76.1613 16.0833 76.1381 16.0837 76.1266C16.0014 76.1471 15.9304 76.1796 15.8481 76.2001Z"/>
<path d="M16.151 76.5693C16.021 76.6231 15.8913 76.6653 15.7624 76.6843C15.8436 76.6985 15.9135 76.7008 15.9947 76.715C16.1021 76.6373 16.2092 76.5712 16.3167 76.4936L16.3051 76.4932C16.2573 76.5264 16.21 76.5481 16.151 76.5693Z"/>
<path d="M16.8695 76.3492C16.7861 76.4045 16.7023 76.4713 16.6189 76.5266C16.5114 76.6043 16.4156 76.6823 16.3085 76.7484L16.3201 76.7488C16.5448 76.6517 16.7241 76.5184 16.8695 76.3492Z"/>
<path d="M13.3202 78.9934C13.2951 79.0506 13.2819 79.0965 13.2567 79.1537C13.3612 79.1687 13.3815 79.2621 13.3059 79.4336C13.3405 79.4463 13.3638 79.4471 13.3984 79.4598C13.4717 79.3578 13.5055 79.0342 13.5976 79.072C13.6412 78.8067 13.4097 79.1123 13.3202 78.9934Z"/>
<path d="M14.9044 79.0449C14.8559 79.1013 14.7954 79.1689 14.7567 79.2836C14.7184 79.3867 14.8119 79.3781 14.8694 79.4032C14.8296 79.5526 14.7597 79.5504 14.7015 79.5485C14.6639 79.6284 14.7338 79.6307 14.7563 79.6546C14.8623 79.6233 15.1998 78.927 14.9044 79.0449Z"/>
<path d="M4.93262 76.2165C4.8631 76.2026 4.81763 76.1664 4.77254 76.1185C4.76353 76.0371 4.77668 75.9911 4.80111 75.9571C4.76955 75.8518 4.82779 75.8536 4.88566 75.8671C4.87589 75.8088 4.81765 75.8069 4.7718 75.7823C4.7361 75.8043 4.70041 75.8263 4.61924 75.8121C4.60759 75.8117 4.58467 75.7994 4.57302 75.799C4.57001 75.8916 4.68424 75.9649 4.59067 75.9735C4.60119 76.0086 4.59969 76.0549 4.61021 76.0901C4.70715 76.3367 4.46779 76.1666 4.56472 76.4132C4.75862 76.5471 4.63913 76.2765 4.78794 76.3625C4.79846 76.3976 4.79695 76.444 4.80747 76.4791C4.85482 76.4575 4.83453 76.364 4.93824 76.4022C4.939 76.379 4.92772 76.3671 4.92848 76.3439C4.94163 76.2979 4.93111 76.2628 4.93262 76.2165Z"/>
<path d="M4.00037 75.8384C3.97933 75.7681 3.89779 75.7655 3.83992 75.752C3.80535 75.7393 3.7704 75.7381 3.73583 75.7254C3.63099 75.722 3.61671 75.8027 3.5686 75.8475C3.60092 75.9297 3.70613 75.9216 3.78692 75.9474C3.91431 75.9747 4.09768 76.0734 4.00037 75.8384Z"/>
<path d="M4.43394 75.7713C4.33023 75.7331 4.33887 75.8262 4.29152 75.8478C4.281 75.8127 4.2825 75.7664 4.27198 75.7312C4.22576 75.7181 4.16789 75.7047 4.1213 75.7032C4.13182 75.7383 4.13031 75.7846 4.14083 75.8197C4.13632 75.9587 4.1923 76.0301 4.32082 76.0227C4.33059 76.081 4.34035 76.1393 4.35012 76.1976C4.48276 76.4222 4.51509 76.145 4.51735 76.0755C4.41326 76.0489 4.46588 75.8651 4.43394 75.7713Z"/>
<path d="M4.07656 77.0815C4.08444 77.1977 3.88942 77.0986 3.88603 77.2028C4.02394 77.2653 4.16185 77.3277 4.29975 77.3902C4.29262 77.2508 4.18815 77.2358 4.16862 77.1192C4.13405 77.1065 4.11113 77.0942 4.07656 77.0815Z"/>
<path d="M16.9416 76.6414C16.942 76.6298 16.942 76.6298 16.9416 76.6414C16.9702 76.48 16.9867 76.3298 17.0036 76.1681C16.9194 76.2465 16.6598 76.7018 16.9416 76.6414C17.0081 76.7479 17.205 76.7891 17.1174 76.9718C17.164 76.9733 17.1986 76.986 17.2452 76.9875C17.2967 76.8385 17.314 76.6651 17.5225 76.7067C17.3253 76.6771 17.1276 76.659 16.9416 76.6414Z"/>
<path d="M12.8241 78.4671C12.7896 78.4544 12.7433 78.4413 12.7084 78.4402C12.696 78.463 12.6832 78.4973 12.6825 78.5205C12.4397 78.4546 12.2082 78.4008 11.9655 78.3349C11.9249 78.8669 12.8211 78.5598 13.0552 78.8921C13.7489 78.7175 13.0872 78.6264 12.8241 78.4671Z"/>
<path d="M16.3977 79.3833C16.3849 79.4176 16.3722 79.452 16.3598 79.4748C16.4405 79.5006 16.5334 79.5152 16.6141 79.541C16.6266 79.5183 16.6269 79.5067 16.6393 79.4839C16.4868 79.5137 16.5856 79.343 16.6728 79.1719C16.5322 79.1905 16.4372 79.2454 16.3977 79.3833Z"/>
<path d="M10.5429 77.9756C10.2784 77.8627 10.0262 77.7269 9.91349 77.9668C10.0056 78.0045 10.1446 78.0323 10.1307 78.1014C10.2483 78.0704 10.4223 78.0992 10.6188 78.152C10.6564 78.0721 10.635 78.0134 10.5429 77.9756Z"/>
<path d="M14.399 78.0893C14.3179 78.0751 14.2371 78.0493 14.1559 78.035C13.7129 78.0322 13.4487 77.5483 13.3626 78.044C13.5595 78.0852 13.7677 78.1384 13.9646 78.1795C13.8245 78.1866 13.3265 78.4371 13.8365 78.5348C13.8981 78.4325 14.0819 78.5196 14.2329 78.5361C14.2709 78.4446 14.2972 78.3527 14.3348 78.2727C14.381 78.2858 14.4159 78.287 14.4505 78.2997C14.5317 78.3139 14.6125 78.3397 14.6936 78.354C14.8278 78.1728 14.5956 78.1421 14.399 78.0893Z"/>
<path d="M17.5008 77.019C17.5124 77.0194 17.5124 77.0194 17.5241 77.0198C17.5135 76.9846 17.5154 76.9267 17.506 76.8569C17.4925 76.9144 17.491 76.9607 17.5008 77.019Z"/>
</svg>
