<svg id="Layer_1" data-name="Layer 1" xmlns="http://www.w3.org/2000/svg" viewBox="0 0 50.64 8.41"><title>LinkSmearYellow</title><path d="M3.76,5.45a1,1,0,0,1-.41.06.14.14,0,0,0,0-.06H3.12V5.38H3.05a.18.18,0,0,1,0-.13h0c.15,0,.2,0,.17,0h0s.17,0,.17,0c.21,0,0,.06.28,0,.14,0,0,0-.17,0H3.49v0H3.37s-.05,0,.17,0c0,0-.11,0-.17,0v0c.25,0,.15,0,.17,0a.15.15,0,0,1,.11,0H3.8c.09,0,0,0,0,0h0c.11,0,.13,0,.14,0H3.76Z" transform="translate(-0.19 -0.15)" style="fill:#f9ec34"/><path d="M3.27,5.08c.09,0-.14,0-.17.06s-.08,0-.08,0,0,0,.08,0c-.06,0-.05,0,0-.07s.51,0,.42,0C3.22,5,3.47,5.08,3.27,5.08Z" transform="translate(-0.19 -0.15)" style="fill:#f9ec34"/><path d="M27.79.62c.1,0-.11.3-.15.32-.22,0,.12,0,0,0s-.34,0-.27,0l-.27,0v0c.13,0,.47,0,.45,0h.08s.15-.25.15-.23-.18.27-.14.25C27.49.83,27.58.64,27.79.62Z" transform="translate(-0.19 -0.15)" style="fill:#f9ec34"/><path d="M25.21,1.09h0Z" transform="translate(-0.19 -0.15)" style="fill:#f9ec34"/><path d="M4.48,5.44h.19l0,0C4.53,5.48,4.42,5.48,4.48,5.44Z" transform="translate(-0.19 -0.15)" style="fill:#f9ec34"/><path d="M5.19,5.31s-.05,0,0,0h0S5.19,5.3,5.19,5.31Z" transform="translate(-0.19 -0.15)" style="fill:#f9ec34"/><path d="M2.28,3.75H2.06c.13,0,.22-.06.14-.08h.18S2.22,3.72,2.28,3.75Z" transform="translate(-0.19 -0.15)" style="fill:#f9ec34"/><path d="M1.85,3.74h0C1.81,3.75,1.8,3.75,1.85,3.74Z" transform="translate(-0.19 -0.15)" style="fill:#f9ec34"/><path d="M47.23,1.36c.45,0,0,0-.09,0,.14,0,.3,0,.27,0-.52.07,0,.19-.45.27.38,0,.24.06.18.12s.16.1-.18.1c.32.1-.19.22,0,.33v.08s0,.1,0,.14a.27.27,0,0,0,0,.09h.18s.13.08-.18.08c.11.05.27.09.27.17a.16.16,0,0,0,0,.07h0s0,0,.18,0V3c-.1.13.48.11.09.24.05,0-.15.1.17.08,0,.11.18.17,0,.29-.37,0-.1.1-.18.15s.28,0,.18.06S47,4,47.42,4c-.15,0-.3,0-.44,0a0,0,0,0,1,0,0l-.38,0,.58,0h.09s0,0,0,.06a1.72,1.72,0,0,0,.26,0c.22,0,.41.09.19.11a3.71,3.71,0,0,1-.44-.07,5,5,0,0,1,.11.53c.05,0,.07,0,0,0h0c.25,0,0,0,.24,0h-.3v0h0c.14.75.33,1.88.38,1.9a2.22,2.22,0,0,1-.34,0l0,.07a0,0,0,0,0,0,0h.09c.24.08-.13.1.22.16-.3,0-.12,0-.15.07s.06,0,0,.08-.13.08,0,.12l-.22.08v0h.25a.31.31,0,0,1,0,.08h-.08a.06.06,0,0,0,0,0v0a.94.94,0,0,1-.35,0c-.09,0-.07,0-.07,0s.11.06-.07.06-.16,0-.17,0a2.84,2.84,0,0,0-.5,0s0,0-.07,0l-.09,0-.06,0a.22.22,0,0,0-.13,0h0l0,0s0,0,0,0a.07.07,0,0,0,0,0H46s0,0,0,0a2,2,0,0,1-.44,0v0h.17c.08,0,.3,0,.24,0h0a1.15,1.15,0,0,0-.34,0v0a5,5,0,0,1-.66,0s0,0,0,0c-.31,0-.15,0,0-.06h-.49l.23,0s-.06,0-.15,0h-.1c-.14,0-.16,0-.17,0H44.2c.08,0-.4,0-.48.06h.17l-.22,0s-.15,0-.17,0c-.18,0-.39,0-.73,0v0a3.86,3.86,0,0,0-.74,0,1.2,1.2,0,0,0-.33,0h-.17c-.23,0,.09,0-.25,0-.1,0-.1,0-.09,0s-.2,0-.17,0l-.26,0c-.13,0-.08,0-.08,0a.54.54,0,0,1-.18,0,1.08,1.08,0,0,0-.28,0h-.08c-.46,0-.47,0-.93,0s-.31,0-1.08,0c0,0,0,0,0,0h-.25s-.62,0-.77,0a1.42,1.42,0,0,0,.61-.08h.09s-.26.07,0,.08c-.05,0,.16,0,.24,0s0,0,0,0,0,0,.13,0h0a3.53,3.53,0,0,0-.39,0s0,0-.12,0v0c.05,0,0,0-.24,0a6.9,6.9,0,0,0-.77,0H35.57c-.08,0-.12,0-.1,0h-.15s0,0,0,0a1.26,1.26,0,0,1,.43,0,.58.58,0,0,1,.22,0c.38,0,.09,0,.5,0l0,0h.38v0a3.3,3.3,0,0,0-.62,0,.92.92,0,0,0-.24,0c-.31,0-.09,0-.45,0-.06,0,.21,0,.22,0-.36,0-.39,0-.22,0s-.15,0-.31,0-.22-.07,0-.1h-.3c-.12.08-.34.1-.25.18l-.33,0h0a1,1,0,0,0-.25,0,0,0,0,0,0,0,0c-.22,0-.43,0-.44,0-.28,0,.14,0-.12-.07h-.17c-.28,0-.25,0-.53,0H32c-.28,0,0-.09.14-.12-.34,0-.17,0-.33,0s-.08-.06-.36,0c0,0,0,0-.07,0v0c.14,0,.06,0,.25,0s.19.07.3.11a1.25,1.25,0,0,1-.27,0h-.43s0,0-.1,0c.06,0-.17,0-.16,0H30.7s.05.05-.07.05a0,0,0,0,0,0,0,.93.93,0,0,0-.25,0c-.34,0-.16,0-.42,0a3.1,3.1,0,0,1-.86,0h0a2.68,2.68,0,0,0-.5,0s-.11,0-.17,0h-.08a0,0,0,0,0,0,0h-.17a1.27,1.27,0,0,0-.36,0l0,0s-.11,0-.17,0a2.26,2.26,0,0,0-.43,0c-.17,0,0,.06-.33,0,.07,0,.21,0,.18,0h-.43c-.23,0-.37,0-.33,0-.14,0-.16,0-.18,0a.89.89,0,0,1-.25,0,0,0,0,0,0,0,0c-.09,0,0,0-.16,0s-.13,0-.27,0-.07,0-.07,0c-.36,0-.26,0-.51,0h-.51s-.28,0-.52,0c0,0,0,0-.07,0a3.82,3.82,0,0,1-.52,0,0,0,0,0,0,0,0,1.56,1.56,0,0,1-.27,0c.08.07-.17,0-.43,0h-.53c0-.07-.42,0-.24,0a1.37,1.37,0,0,0-.36,0,.06.06,0,0,0,0,0,2.33,2.33,0,0,0-.53,0c.11,0,.08,0,.1,0h-.09a4.6,4.6,0,0,0-.7,0,.16.16,0,0,1-.1,0,6.81,6.81,0,0,0-.7,0,.05.05,0,0,0,0,0c-.21,0-.54,0-.53,0h-.53s-.06-.06-.2-.07c-.33,0,.17,0,.1.07-.44,0-.87,0-1.25,0-.2,0-.35,0-.36,0h-.17s0,0-.09,0h-.27l-.18,0a3.29,3.29,0,0,0-.53,0,1.36,1.36,0,0,1-.36,0h-.17a1.06,1.06,0,0,1-.26,0c-.14,0-.62,0-.89,0,0,0-.14,0-.28,0l-.44,0h-.27a3.42,3.42,0,0,1-.54,0c-.15,0-.69.05-.63,0-.25,0-.61,0-1,.06,0-.06-.3-.05-.64,0-.16,0-.54,0-.44.05-.08,0-.08,0-.08,0a3.92,3.92,0,0,0-.71.05,3,3,0,0,0-1.16,0c-.34,0-.12.06-.43,0-.15-.07.24,0,.15-.09a.4.4,0,0,1-.18,0C7,8.44,7,8.48,7,8.5c-.32,0-.07-.06-.29-.05H6.54l-.25,0H6l0,0v0c-.19,0-.28,0-.26,0s-.43-.05-.39-.11c-.5,0-.72-.06-1.1-.08l0,0H3.82c.38,0-.2-.09-.31-.14s.29,0,.16-.06S3.82,8,3.45,8c-.21-.1,0-.18-.07-.29.33,0,.12-.05.16-.08-.43-.11.15-.12,0-.25a.44.44,0,0,0,0-.1c.16,0,.17,0,.18,0h0s0-.05,0-.07S3.81,7,3.91,7c-.3,0-.16-.05-.2-.07h.18s0-.06,0-.09,0-.09,0-.14a.24.24,0,0,0,0-.08c.16-.12-.38-.21-.08-.33-.34,0-.14-.06-.21-.09s-.23-.11.15-.13c-.47,0,0-.2-.52-.24,0,0,.12,0,.26,0-.05,0-.54,0-.1,0a1.37,1.37,0,0,1-.46-.07c.27,0,.4.07.44,0a1,1,0,0,0,.28,0c.13.06-.29,0-.16.09.31,0,.1-.06.44,0,0,0-.18,0-.19,0v0l1.12,0a.17.17,0,0,0-.11-.06h.09l.52,0,.25,0a.35.35,0,0,1,.17,0s0,0,0,.06l-.3,0h.13c.17,0,.53,0,.46,0,.11,0,.17,0,.35,0h.17s0,0-.19,0H6s-.18,0-.19,0,0,0,0,0a2.21,2.21,0,0,1-.32,0,1.93,1.93,0,0,0-.42,0H4.67s0,0,0,0,0,0,0,0,0,0,0,0h0l.14-.09,0,0,0,0,0,0a1.65,1.65,0,0,1,.29,0h0s0,.07,0,.1H5s.07,0,.21,0h.22c.08,0,.06,0,.08,0h.16s0,0,.1,0,0,0,0,0H6l0-.09-.21,0s0,0,0,0a1.57,1.57,0,0,0-.35,0h0a0,0,0,0,1,0,0,.33.33,0,0,0-.17,0,.14.14,0,0,0,0-.06h.16v0H5.18v0H4.92l-.06,0c-.08,0-.08,0-.08,0H4.55a.4.4,0,0,0-.22,0h0v0h.21s0,0,.12,0h.1l0,0,0,0c-.12,0,0,0-.17,0s-.16,0-.18,0H4.33a.83.83,0,0,1-.26,0v0c-.36,0-.13,0,.13,0,0,0-.11,0-.09,0s.08,0,.07,0H4.05s0,0,0,0h.24v0h0s0,0-.16,0,0,0-.09-.06,0,0-.08,0a1.36,1.36,0,0,1-.34,0V5.11l.17,0H3.53V5h.25V5l-.25-.07c.15,0,0-.07,0-.12s.19-.06,0-.08c0,0,.12-.09-.16-.06.34-.08,0-.08.17-.17v0h.09s0,0,0,0V4.34a1.85,1.85,0,0,1-.34,0,17.63,17.63,0,0,0-.12-1.91h0v0c-.1,0-.3,0-.29,0,.2,0,0-.05.23-.05h0s0,0,0,0c0-.24,0-.43,0-.53s-.28.07-.43.09,0-.12.17-.12a1.69,1.69,0,0,0,.25,0s0-.07,0-.07h.09s1.27-.09,1.43-.08,2.45,0,2.77,0c3.7-.15,7.25-.25,7.34-.27s0,.05.18,0c0,0,0,0,.09-.05-.18.06.5,0,.54,0,.48,0-.12.05,0,.08a2.75,2.75,0,0,0,.52-.06c-.11,0-.11,0,0,0a2.09,2.09,0,0,1,.28,0,3.56,3.56,0,0,1,.54,0c.07,0,.17,0,.18,0-.15,0-.17,0-.18,0a2.4,2.4,0,0,1-.36,0l.36,0c.18,0,.62,0,.54-.05h.18a2.41,2.41,0,0,0,.62-.07c.32,0,.06,0,.28,0-.06,0,0-.05.26-.05,0,0,.09,0,.28,0a1.18,1.18,0,0,0,.54.06h0s.29,0,.45,0c-.13-.06.3-.06.26-.1h.09s-.12.08-.26.1c.2,0,.29.05.44,0,0,0-.15,0-.17,0l1,0c.06,0-.1.09.1.08A2.35,2.35,0,0,1,22,1.23c.1,0-.14,0-.18.07l.72-.05s0,0,.09,0h.17s.23,0,.36,0,.11,0,.45,0h0v.05c-.25,0-.62,0-.53.07l.36,0s.09,0,.26,0l.27,0a.72.72,0,0,1,.18,0l.36,0s0,0,.17,0c0,0,0,.06.27,0,.05,0,.11,0,.09,0,.15,0,.2,0,.17-.06a6.46,6.46,0,0,0,.89-.05c-.14,0-.3,0-.26,0l.53,0s-.16,0-.09.07l.36,0a.16.16,0,0,1,0-.07h.17a.08.08,0,0,1,0,.07l.27,0v0c-.21,0-.19,0-.44,0h-.09c-.28,0-.2,0-.53,0,0,0,0,0-.18,0v0c-.17,0-.35,0-.53,0,0,0,0,0-.09,0v.06l-.54,0c-.64.05-1.14,0-1.5.07v0l-.53,0a4.89,4.89,0,0,0-.62,0s.13,0,0,0a4.12,4.12,0,0,0-.72,0c-.34,0-.19,0-.53,0a2.08,2.08,0,0,1-.53.06,3,3,0,0,0-.53,0c-.07,0,.15,0,.28,0a9.54,9.54,0,0,0,1.33,0,2.84,2.84,0,0,0,.72,0l.35,0c.1,0,.3.06.27,0l.54,0a.83.83,0,0,1,.26,0s0,0,.17,0a5.61,5.61,0,0,0,1.07,0c.15,0,0,0,0,0,.25,0,.23,0,.45,0a2.52,2.52,0,0,1,.61-.08l.53,0s0,0,.1,0-.11.11.09.1.07,0,.44,0V1.46l.26,0,.27,0,.45,0a.86.86,0,0,0,.5-.27c.11,0,.12,0,.27,0s0,0,.09,0,0,0,.18,0l.53,0v0s-.62.27-.5.32c-.14.08.42,0,.28.07h.08s0,0,0,0,.56,0,.53,0H30v0h0a1.22,1.22,0,0,1,.63,0l.27,0c-.34.07.22.07.26,0a.71.71,0,0,1,.27,0h.27s0-.31,0-.34a4.86,4.86,0,0,0,1,0c.18,0,.32.29.47.29s.14-.28.32-.28.32.24.4.26c-.14,0,.55-.24.41-.28h.27s-.08.29-.14.31A.24.24,0,0,0,34.65,1a.71.71,0,0,1,.26,0s.22.29.3.31a.68.68,0,0,0,.27,0c.16,0,.21,0,.18,0s.33,0,.27-.05,0,0,.08,0,0,0,.09,0a4.53,4.53,0,0,1,.9-.06,2.85,2.85,0,0,1,0-.29c-.15,0-.68,0-1,0s-.28,0-.27,0-.28.06-.27,0c-.49,0-.13-.05-.53,0h-.27L33.58,1c-.21,0-.66,0-.81,0s-.32,0-.63,0c0,0-.25-.07-.27-.05s0,0,.09,0H31.6l-.44,0a8.07,8.07,0,0,0-1.07,0s.12,0,.17-.05c-.4,0-.12.06-.44.06a2.25,2.25,0,0,0-.54,0H29c-.1,0,0,0-.27,0a.68.68,0,0,0-.26,0V1L29,1a4.33,4.33,0,0,0,.71,0s-.23,0-.18.05A1.71,1.71,0,0,0,30,1c-.16,0-.21,0-.18,0H30c-.14,0,.24,0,.27,0s-.16,0-.18,0c.23,0,.46,0,.45,0,.14,0,.58.06.53,0v0L30.6.9s.42,0,.27-.06.06-.06-.18,0-.06,0-.27,0-.07,0-.09,0-.5,0-.63,0-.19,0-.44,0v0c.06,0-.7,0-.62.06-.1,0-.21,0-.18,0h0c-.28,0-.22,0-.35,0s-.34.24-.5.28-.41,0-.27,0,.34,0,.36,0c.27,0,.14-.25.41-.28.1,0,0,0,.27,0t.09,0s.12,0,.26,0v0l.18,0h.27s-.4,0-.26.05l.35,0a.48.48,0,0,0,.18,0c.09,0,0-.05.27-.05a.06.06,0,0,1,0,0H30a1.72,1.72,0,0,0,.27,0l.36,0a9.63,9.63,0,0,0,1.06,0,0,0,0,0,1,0,.05c-.14,0-.34,0-.35,0,.21,0-.06.07.26,0,0,0-.12,0-.26,0,.13,0-.42.07-.09.09s.07-.06.36-.06c0,0,.09,0,.09-.05l.45,0s-.41,0-.27.06l.36,0c.48,0-.33.06,0,.06,0,0,0,0,.09,0s.1,0,.09-.05l.54,0S32.83,1,33,1s.22-.06.27-.1a3.52,3.52,0,0,0,.45,0c.09,0,.06,0,.17,0a3.34,3.34,0,0,1,.63-.05s0,0,.09,0a4.36,4.36,0,0,1,.54,0c-.12.06.21,0,.45,0v0c.39,0,.19-.07.54-.07.1,0,.07,0,.09,0,.22,0,.42,0,.53,0H37c-.19,0-.4.09,0,.08A1,1,0,0,0,37.23.8c.14,0,.31,0,.26,0s-.17,0-.18,0h.27a.16.16,0,0,1,0,.07h.18s0-.07.09-.09l.45,0s0,0,.09,0-.28-.07.18-.08h.27c.11,0,.1,0,0,.06.14,0,.31,0,.27,0h.27s.16,0,.08-.08h.28c-.09.05.66,0,.71,0s-.55,0-.53,0l.63,0c.11,0,.21,0,.18,0,.34,0,.18,0,.35,0s0-.13-.36-.08-.07.05-.35.05c-.13,0-.09,0-.18,0v0a2.21,2.21,0,0,0-.54,0s.12,0,.09-.05c.31,0,.88,0,.81-.08a1.08,1.08,0,0,1-.53,0c.34,0,.27,0,.54,0,0,0,.27,0,.17-.06h.54c.34,0,.17,0,.45,0s.17,0,.18,0c.23,0,.32,0,.26,0h.45c.12,0,.08,0,.18,0s.07,0,.27,0,0,0,.18,0,0,0,.17,0a0,0,0,0,1,0,0s-.48,0-.18.09c0,0,.23,0,.45,0q-.09.06.27,0h.88V.55c-.05,0-.11,0-.09,0-.42,0-.24.05-.08.07a1.41,1.41,0,0,0,.45,0c.23,0,.23.07.27,0a.91.91,0,0,1,.35,0c.14,0,.11.2.39.21,0,0,0,0,.09,0s0,0,0,0v0c-.11,0-.23-.34-.58-.28,0,0-.1,0-.08,0h-.18a8,8,0,0,1-.8,0s0,0,0,.06.12,0,.19,0c-.12,0-.18.27-.15.29v.1c.15,0,.2,0,.17,0,.22,0-.05.07.27,0v0c-.2,0-.29,0-.27.05s-.23,0-.18.05h-.36c-.15,0-.2,0-.17.05h.17a2.43,2.43,0,0,1,.36,0c-.1,0,.27,0,.45,0h.35a1.25,1.25,0,0,0,.27,0c.31,0,.81,0,1.25,0v0s-.22,0-.18.05c.33,0,.14,0,.46,0,.11-.06-.3,0-.18-.08a1.1,1.1,0,0,0,.27,0c.06.08.16,0,.44,0A2.09,2.09,0,0,1,47.23,1.36ZM44,.75h.45C44.56.69,43.84.71,44,.75Zm2.66,5.73a.08.08,0,0,0,0-.05h-.25S46.36,6.5,46.64,6.48ZM32.24,6a.08.08,0,0,1,0,.07C32,6,32,6,31.8,6v0c.34,0,.29,0,.71,0,.08,0,.09,0,.09,0s.06,0,.18,0a1,1,0,0,0-.27,0s.12-.09-.18-.07C32.36,5.93,32.25,5.93,32.24,6Zm.53-1.36h-.08a.87.87,0,0,1-.28,0s.07,0,.1.06a1.47,1.47,0,0,0,.27,0C32.62,4.62,32.77,4.61,32.77,4.59ZM35.28,6.7h.33v0a1.81,1.81,0,0,0-.52,0C35.2,6.67,35.32,6.67,35.28,6.7Zm1.08-.92h.21v0c-.12,0-.12,0-.11,0a.57.57,0,0,0-.31,0v.07s0,0,.11,0S36.12,5.78,36.36,5.78Zm1.4,1c-.06,0,.07,0,.1,0-.48,0-.25,0-.47,0,0,0,0,0,.12,0Zm-.16.33h.61C38.39,7.08,37.4,7.1,37.6,7.14Zm.13-.41h.12a.9.9,0,0,0,.24,0s.1,0,.1,0l0,0c.07,0-.21,0-.14-.08s0,0,0,0h-.23c-.06,0,.18.1-.08.11,0-.06-.36,0-.35,0s.18,0,.36,0-.54,0-.34,0A1.75,1.75,0,0,0,37.73,6.73Zm1.79-.6,0,.07h.18C39.67,6.17,39.81,6.11,39.52,6.13ZM39.63,6l0,0h-.27l0,0c-.29,0-.23.09,0,.07A2.18,2.18,0,0,0,39.63,6ZM38.54,4.59h-.27v0h-.64l0,0a5.25,5.25,0,0,1,.9,0Zm-2,2.77s0,0,0,.08h.25C37.07,7.42,36.94,7.33,36.53,7.36ZM35.54,6V6a1.21,1.21,0,0,0-.5.06C35.09,6.08,35.75,6.07,35.54,6ZM35,5.6s.32,0,.18-.08H35s-.12,0-.09.05S34.93,5.6,35,5.6Zm7.26,2.14c.15,0,.17,0,.18,0,.19,0-.2-.06-.45,0C42.27,7.74,41.89,7.8,42.28,7.74ZM41.1,7.6c.09,0,.32,0,.28,0h.08s0-.09-.29-.08h-.08A.09.09,0,0,1,41.1,7.6Zm-.3-1.4c.08,0,.08,0,.09,0s-.15,0-.13-.06c-.3,0-.11,0-.14.07A.42.42,0,0,1,40.8,6.2Zm.1,1.54h0v0h-.26A.67.67,0,0,0,40.9,7.74Zm-.73-1.17h.27a.16.16,0,0,1,0-.07h-.26Zm-.28,0c-.2,0-.11,0-.26,0h0l0,.07H40Zm-.12,1.12c-.08,0,.14-.1-.23-.08a2.92,2.92,0,0,1,.5,0c0-.05-.21,0-.32-.07.1,0-.14,0-.3,0a.43.43,0,0,1,0,0h.11v0a2.16,2.16,0,0,0-.67,0h.24s.15,0,.12,0A4.22,4.22,0,0,1,39.77,7.67Zm-.57.12h.33s-.09,0-.23,0H39c-.11,0-.44,0-.35.05C39.07,7.82,38.84,7.79,39.2,7.79Zm-.34,0c.11,0,.09,0,.11,0l-.73,0A3.56,3.56,0,0,0,38.86,7.84Zm-2.63-.15c.27,0,.23,0,.24,0H37s-.12,0-.13,0h-.26s0,0-.12,0h-.24A.17.17,0,0,1,36.23,7.69Zm-.15-.12h.5s0,0-.14,0c0,0,0,0,.12,0s0,0,.26,0c0,0,0,0,0,.05a3.06,3.06,0,0,0,.51,0h.25c.07,0-.17-.07.11-.07,0,0,.26-.06.34-.1h.25a0,0,0,0,0,0,0,4.17,4.17,0,0,0-.63,0c-.14,0,.61,0,.36-.08a1.84,1.84,0,0,1-.62,0c-.14,0-.08,0-.24,0,.24,0,.52,0,.39.08l0,0c-.22,0-.2,0-.37.05a6.28,6.28,0,0,0-.63,0s-.14,0-.38,0h-.47c.17,0-.3,0-.21.07h0C35.71,7.55,36.2,7.52,36.08,7.57Zm-1.15.13a5.34,5.34,0,0,1,1,0c.13,0-.32,0-.46,0,.08.06-.22,0-.31,0C35.19,7.67,34.78,7.65,34.93,7.7Zm-.56-2.17h.09c-.07,0,.14,0,.27-.06s-.5-.06-.37-.15c-.25,0-.23,0-.45,0h-.08c.09.06-.1.08-.18.11.11,0,.47,0,.45.1ZM33.59,6V6l.27,0V6h.27V6H34c-.17-.06.35,0,.26-.07s0,0,0,0a.42.42,0,0,0-.35,0c.06,0-.31,0-.18.07,0,0-.1,0-.08,0h-.18V6A.85.85,0,0,0,33.59,6ZM33,5.73c.16,0,.45,0,.36,0a.83.83,0,0,1-.27,0h-.26C33,5.7,33.07,5.7,33,5.73Zm-.33-1c.27,0-.08-.06,0-.1h-.28c.11,0,.12,0,.1.09Zm.28,3s0,0,.07,0c-.35,0-.22,0-.33,0Zm-.28,0a1.34,1.34,0,0,0-.35,0C31.5,7.77,32.81,7.82,32.71,7.75Zm-.37-1.67h-.53v0C32,6.09,32.43,6.13,32.34,6.08Zm-.17-1.31c-.43,0-.11.06-.53,0v0C32,4.84,32.17,4.82,32.17,4.77Zm-7.53-.06h0Zm.91,0c.23,0,.28,0,.25,0a.4.4,0,0,0,.18,0H25.9s0,0-.09,0-.06,0-.25,0-.08,0-.17,0,0,0,0,0h-.12s.06,0,.19,0S25.49,4.76,25.55,4.76Zm1.36-.09h0Zm3.74.2h.18v0h.36v0c-.09,0-.6,0-.53,0Zm-.53,0v0H30c-.14,0-.3,0-.26,0s0,0,.09,0Zm-.58,2.63v0h.35c.29,0,.28,0,.24,0-.21,0,.07.06-.24,0,0,0-.17,0-.1-.07-.33,0-.16,0-.43,0,0,0,0,0-.07,0s0,0-.18,0v0c-.27,0-.7,0-.5.08h.17s0,0,0,0,.07,0,.26,0c-.07,0,.11,0,.07-.07h0a2,2,0,0,1,.26,0C29.65,7.57,29.68,7.53,29.54,7.51ZM29,4.86c-.13,0-.33,0-.35,0a1.83,1.83,0,0,0,.54,0C29.07,4.9,29,4.89,29,4.86Zm.05,2.52s-.08,0-.27,0c0,0-.08,0-.07,0Zm-.5.08c.29,0,.1,0,.42,0C29,7.36,28.5,7.42,28.59,7.46Zm.8.45s0,0,0-.06C29.1,7.83,29.14,7.93,29.39,7.91ZM27.9,7.8c.55,0,1.44.09,1.44,0h-.25c-.27,0-.25,0-.51,0h-1.2S27.64,7.79,27.9,7.8ZM26.1,8h.34s0-.07-.28-.06c0,0,.13,0,.18,0C26.21,8,26,8,26.1,8ZM24.42,5c.2,0,0-.09-.19-.08C24.29,4.9,24.11,5,24.42,5Zm-5.06.1c.06.06.62,0,.26,0l.28,0a1,1,0,0,1,.61,0h0V5h.17s.39,0,.53,0,0,0,0,0h.09c-.17-.06.42,0,.25-.08.11-.06-.54,0-.55,0v0h.53c.15,0,.17,0,.19,0s.07,0,.08,0h.28c.05.07.31,0,.53,0h1a.15.15,0,0,0,0,.07c.38,0,.23,0,.45,0s0-.08.07-.11.08,0,.08,0h.53a3.24,3.24,0,0,1,.63,0c.22,0,.19,0,.45,0,0,0-.16,0,0,0a4.6,4.6,0,0,0,1.06,0c.15,0,.17,0,.18,0a1.34,1.34,0,0,1,.26,0h.54c0,.06.16,0,.27,0h.36a3.15,3.15,0,0,0,.71,0,10.19,10.19,0,0,0,1.33,0c.14,0,.36,0,.27,0a3.57,3.57,0,0,0-.53,0,1.78,1.78,0,0,1-.54,0c-.36,0-.18,0-.54,0a3.92,3.92,0,0,0-.71,0c-.13,0,0,0,0,0a5.53,5.53,0,0,0-.62,0h-.53v0c-.37,0-.87,0-1.52,0h-.53V4.74c-.12,0-.07,0-.08.06h-.54v0c-.2,0-.17,0-.17,0a4.83,4.83,0,0,0-.54,0h-.09c-.25,0-.24,0-.45,0v0h.27v0h-.21v0a1.72,1.72,0,0,0-.34.07.44.44,0,0,0-.17,0v0h-.25a1.89,1.89,0,0,0-.51,0h0a1.14,1.14,0,0,1-.43.06H22v0h-.26c-.25,0-.16,0-.26,0h-.27a2.27,2.27,0,0,0-.53,0c-.32,0-.06-.07-.46,0,.06,0,.21,0,.19,0h-.81l-.2,0-.07,0h-1s0,0,0,0h0s.07,0,.06,0h-.1L18,5h0a3.13,3.13,0,0,0,.81,0,.31.31,0,0,1,0,.08h.27A.76.76,0,0,1,19.36,5.05Zm5.85-.35h0Zm-6.63.08c-.12,0,0-.07-.35,0,.06,0,.08,0,.09,0h.26Zm-2.4,0c-.1,0-.39.06-.31,0l-.38,0,.38,0h.52C16.48,4.74,16.1,4.77,16.18,4.73Zm-.36-1.57a1.22,1.22,0,0,0-.52,0v0C15.11,3.21,15.78,3.19,15.82,3.16Zm.12.62a1.8,1.8,0,0,0-.52,0v0h.33C15.7,3.79,15.82,3.78,15.94,3.78Zm-.22-1.07c.09,0,.07,0,.09,0s-.08,0-.11-.05h-.19C15.39,2.7,15.73,2.67,15.72,2.71Zm-1,2.06h-.25s-.17,0-.13,0l.5,0s0,.05.25,0c0,0,0,0,0-.07h-.25C14.74,4.78,14.67,4.79,14.69,4.77ZM11,5.21c.12,0,.35,0,.29.08.09,0,.37-.09,0-.1h-.22a.54.54,0,0,0-.27,0h-.15a.65.65,0,0,1,.26,0C11.16,5.29,11,5.24,11,5.21Zm2.51-.13h0a.06.06,0,0,0,0,0h.12S13.58,5.09,13.55,5.08ZM17.94,5h-.22l-.28,0A1.27,1.27,0,0,0,17.94,5Zm2.42-.22s-.18,0-.18,0,.42,0,.26,0h.15s0,0,0,0-.15,0-.26,0-.22,0-.17,0c-.1,0-.09,0-.09,0l-.43,0a1.71,1.71,0,0,1-.23,0c.06.05.41,0,.53,0C19.89,4.75,20.13,4.75,20.36,4.74Zm.84,0a.78.78,0,0,0-.29,0,1.12,1.12,0,0,0-.26,0,0,0,0,0,1,0,0h0s0,0-.17,0a2,2,0,0,0,.46,0s-.18,0-.19,0A3.15,3.15,0,0,0,21.2,4.78Zm.73,0c.25,0,.27-.09,0-.06A.07.07,0,0,0,21.93,4.74Zm-3.08.08h.31s-.08,0-.06,0h-.28Zm.74-.1h-.05s0,0,0,0Zm-.21.08.13,0h-.14v0Zm-.11,0h0C19.35,4.85,19.33,4.84,19.27,4.84Zm.43-.18c-.12,0-.1,0-.08,0,.19,0,.13,0,.26,0v0c-.06,0-.08,0-.08,0Zm-1.12.22h0a.32.32,0,0,0-.13,0Zm-1.32,0v0h.18c.14,0,.1,0,.08,0Zm-.63,0-.08,0h-.13v0a1.48,1.48,0,0,0-.29,0c.06,0,.06,0,0,0a1.57,1.57,0,0,1,.38,0Zm-3.92.18h0s0,0,0,0ZM13.55,5h-.16l.11,0h.15C13.56,5,13.58,5,13.55,5Zm-2.86.25s0,0-.09,0h0A.24.24,0,0,0,10.69,5.24ZM9.89,5h.31v0H9.9c-.05,0-.06,0-.06,0Zm0-.17s0,0,.07,0S9.9,4.84,9.85,4.83Zm-.52,0s0,0,0,0h.05C9.46,4.85,9.39,4.84,9.33,4.83Zm.09.1a0,0,0,0,1,0,0,.35.35,0,0,0,.17,0,.89.89,0,0,0,.25,0H9.69A.6.6,0,0,0,9.42,4.93ZM9.18,4.7s-.07,0-.09,0H9.5A1.06,1.06,0,0,0,9.18,4.7Zm5.89.2a3.72,3.72,0,0,0-.62,0V5h.38a.08.08,0,0,1,0,0c.41,0,.1-.05.49-.05h.45a0,0,0,0,1,0,0c.11,0,.14,0,0,0a.49.49,0,0,1-.17,0l0,0h-.07s.28,0,.22,0c-.35,0-.15,0-.46,0Zm2.65,0h.34s0,0,0,0c.19,0,.16,0,.17,0h0s0,0,0,0c.23,0-.09,0-.16,0H17.8C17.69,4.86,17.7,4.87,17.72,4.88Zm.86-.06h0Zm.25-.06h.11a1.2,1.2,0,0,0-.36,0S18.68,4.77,18.83,4.76Zm.2-1.7V3l-.52,0C18.43,3.11,18.85,3.06,19,3.06Zm3,1.52h0a.46.46,0,0,0,.2,0H22Zm.28,0a1.05,1.05,0,0,1-.3,0,3.42,3.42,0,0,0,.83,0A3,3,0,0,0,22.3,4.6Zm.68,0h0ZM18.54,5a1.47,1.47,0,0,1-.27,0s0,0-.17,0,0,.14.29.08C18.1,5.09,18.37,5,18.54,5ZM19,5.2s.11,0,.17,0c-.31,0-.24,0-.19-.07h-.36s.51,0,.11.09A.94.94,0,0,1,19,5.2Zm-.81,2.37c.31,0,.33,0,.62,0q-.11-.08.24-.09s0-.06,0-.08h-.27C18.52,7.45,18.05,7.47,18.14,7.57ZM17.55,5h0a1,1,0,0,0-.29,0h.1ZM15.62,7.9a2.34,2.34,0,0,0,.53,0c.18,0,.62,0,.53,0s-.3,0-.53,0S15.58,7.85,15.62,7.9Zm-.73-2.75s0-.05.17-.05a1.35,1.35,0,0,0,.27,0c.07,0,.23,0,.26-.07s.15,0,.26,0,0,.07.29.06c-.07,0-.21,0-.19,0h.27c-.13,0,.6,0,.45,0h.21s0,0-.09,0a1,1,0,0,1-.18,0h-.74s.13,0,.21,0h0c-.06,0-.3,0-.31,0h-.72s-.15,0-.24,0h0s-.1,0-.26,0-.42,0-.63,0h-.23a2,2,0,0,0,.58,0h-.17a2.17,2.17,0,0,1,.38,0c.1,0,.07,0,.08,0h.09C14.56,5.15,14.8,5.13,14.89,5.15Zm-1.16.07a4.15,4.15,0,0,0-.54,0,.58.58,0,0,1,.17,0c.1,0,.07,0,.08,0h-.17c-.27,0-.17.07-.53.06,0,0,0,0-.08,0C12.93,5.23,13.51,5.28,13.73,5.22Zm-1.25,0h.26c.44,0,0,0-.28,0C12.46,5.19,12.47,5.21,12.48,5.21ZM11.23,8c.3,0,.35,0,.63,0,.05-.06-.15-.06-.12-.11-.3,0-.16,0-.19-.06h.17c.14,0,.33-.06.24-.13s0,0-.19,0a1.9,1.9,0,0,0-.74.29C11.32,7.86,11.18,7.93,11.23,8Zm-.52-2.62c.09,0,.07,0,.08,0a2.72,2.72,0,0,0-.45,0c-.07,0,.27,0,.18-.07l-.16,0s0,0,0,0,0,0-.18,0H10C10.1,5.31,10.56,5.29,10.71,5.33Zm-5.08,0H5.8v0h0s-.09,0-.26,0c0,0,0,0,0,0Zm-1-1.23H4.41s0,0,0,.06C4.69,4.13,4.68,4.1,4.66,4.07Zm.47,1.08H5.07s0,0,.07,0ZM9,2.15l-.46.09c-.16.13.06.24-.31.34a4.08,4.08,0,0,0,.72-.11c.21,0,.05-.11.11-.15v0c.36,0,.11-.09.19-.13v0Zm.71,2s0,0,0,0l0,0s-.25,0-.22.09c.19,0,.19,0,.16.1.32,0,.34,0,.35.06h.26c.06,0-.15,0-.07-.08v0H10C10.08,4.24,9.78,4.23,9.7,4.19Zm.45-.7s-.17,0-.11.07,0,0,.09,0a.57.57,0,0,1,.18,0S10.44,3.46,10.15,3.49Zm.45.36a.64.64,0,0,1,0,.07h.27s0,0,0-.07Zm.06.74s0,0,0,0c-.31,0-.05,0-.26,0v0s0,0,0,0,0,0,.09,0v0c.34,0,.24,0,.25.09s.12,0,.17,0,0,0,.09,0l.56,0h0s-.45,0-.29-.1c-.09,0-.33,0-.27,0C10.89,4.62,11,4.56,10.66,4.59Zm.46-.71s0,.07,0,.11h.27a.64.64,0,0,1,0-.07,0,0,0,0,1,0,0C11.24,3.9,11.32,3.86,11.12,3.88Zm.08-.35h.17a.64.64,0,0,1,0-.07C11.09,3.45,11.24,3.5,11.2,3.53Zm.33-.3s0,0,0,0h-.27s0,0,0,.06l.27,0C11.78,3.31,11.8,3.2,11.53,3.23Zm.23,1.69a0,0,0,0,1,0,0h.1v0c-.16,0-.41,0-.31,0-.1,0-.35,0-.29.08a2.93,2.93,0,0,1,.5,0c-.37,0-.17.05-.21.09h.31V5h.22s.11,0,.11,0h.24s0,0-.08,0,0,0,0,0a.42.42,0,0,1-.18,0h0Zm.54-3h-.08v0H12v0a5.48,5.48,0,0,1,.9,0v0Zm1,2c.18,0,.41,0,.35-.05s-.37-.06-.35,0c-.26,0,0-.07-.11-.11H13v.05c.08,0-.2,0-.12.09v0s.15,0,.11,0a.6.6,0,0,0,.23,0h.13l.35,0C13.87,3.88,13.28,3.94,13.33,3.91Zm0,.14h.24c.07,0,.14,0,.13,0-.24,0,0-.07-.48,0C13.24,4,13.37,4,13.32,4.05Zm-.38.33.62,0C13.75,4.31,12.76,4.34,12.94,4.38Zm1.49.24h.25s0-.06,0-.08C14.26,4.52,14.17,4.62,14.43,4.62Zm.21-1.72a.63.63,0,0,0-.32,0s0,0-.1,0V3h.21c.22,0,.05,0,.11.06s.11,0,.1,0Zm0,1.75a3.61,3.61,0,0,0-.62,0,3.14,3.14,0,0,0-.39-.05.08.08,0,0,1,0,0c-.14,0,.13-.07.37-.09-.17,0-.12,0-.25,0a1.85,1.85,0,0,1-.62,0c-.24.07.49,0,.38.06a6,6,0,0,0-.62,0,0,0,0,0,1,0,0h.25c.1,0,.35,0,.37.09.27,0,.06,0,.12.06h.25a3.05,3.05,0,0,0,.51,0v0c.22,0,.24,0,.25,0s.11,0,.13,0c-.14,0-.1,0-.12,0l.48,0c-.12,0,.37,0,.58,0v0c.08,0-.39,0-.23-.06l-.47,0C14.81,4.61,14.67,4.63,14.68,4.65ZM16.44,1.8l-.27,0-1.07,0v0c-.19,0-.24,0-.37,0a.28.28,0,0,1,0,.38h.1c.52-.14,1.29-.24,1.31-.41.22,0,.38,0,.45,0s.22-.05.26-.08Zm.39.58h-.09c-.22,0-.19,0-.44,0,.15.09-.38.1-.32.17s.35,0,.27,0h.36c0-.06.33-.08.43-.12C16.94,2.45,16.75,2.44,16.83,2.38Zm.41.62s0,0-.09,0c.11-.06-.25,0-.2-.07a.53.53,0,0,0-.36,0,.06.06,0,0,0,0,0c-.07.06.44,0,.29.06a1.3,1.3,0,0,0-.18,0v0H17v0a2.4,2.4,0,0,1,.27,0h.18V3Zm.38-.29-.26,0c-.08,0,.2,0,.36,0,0,0,.07,0,.17,0h-.27Zm.17-.93a.53.53,0,0,1,.18,0s0-.07.07-.09h-.27C17.85,1.71,17.52,1.77,17.79,1.78ZM18,1.59a1.28,1.28,0,0,1-.27,0h-.09s.16,0,0,0a2.31,2.31,0,0,0,.27,0S18.08,1.61,18,1.59ZM18.3,3A1.06,1.06,0,0,0,18,3c.11,0,.21,0,.19,0h.09c.42,0,.37,0,.71,0V3c-.21,0-.2,0-.45,0a.25.25,0,0,0,0-.07s-.11,0-.1,0C18.17,2.89,18.33,2.94,18.3,3Zm.57-1.2c-.41.05-.12-.06-.54,0,0,.05.2.07.55,0C18.87,1.78,18.87,1.78,18.87,1.77Zm.45,0v0l.36,0v0h.18v0C19.91,1.7,19.4,1.71,19.32,1.74Zm1.16,0h-.09v0l.27,0c.13,0,.07,0,.08-.06S20.62,1.72,20.48,1.72Zm.93,2.54c.07,0-.12,0-.08.07-.3,0-.06,0-.26,0,0,0,0,.07.26,0l.34,0v0c-.13,0-.08.07.18.05l.25,0v0s.16,0,.09.06a2.19,2.19,0,0,0,.25,0,.13.13,0,0,1,0-.06h.16c.08,0,.06,0,0,0h-.5v0c-.15,0-.16,0-.17,0s-.07,0-.08,0C21.57,4.29,21.73,4.22,21.41,4.26Zm.05-2.56s0,0-.17.05a1.68,1.68,0,0,0,.53-.06A1.52,1.52,0,0,0,21.46,1.7Zm.88,2.45c-.18,0-.27,0-.26,0l.34,0S22.38,4.16,22.34,4.15Zm-.16.09c.32,0,.13,0,.42,0C22.68,4.21,22.19,4.18,22.18,4.24Zm1,.29-.47,0s.15,0,.35,0l0,0h.25c.25,0,.51,0,.51-.07Zm.62.15v.05h.36s0,0,0,0l0,0h0a.06.06,0,0,1-.05,0h-.26Zm1.13,0c.06,0,.2,0,.17,0-.23,0-.25,0-.26.07h.34C25.26,4.65,25.1,4.66,25,4.67Zm1.28-3.19c-.24,0-.36.09-.17.1S26.19,1.51,26.24,1.48Zm5.34,0c.06,0,.14.06-.17.08.05,0,.2,0,.18,0a1.77,1.77,0,0,1,.27,0c-.4,0,.09,0,.09-.09Zm.81-.09c-.16,0-.21-.26-.22-.28s-.05.29-.23.3c.18,0,.45,0,.18.07C32.4,1.5,32.43,1.4,32.39,1.36Zm0,2.37h-.27s0,.06,0,.08c.23,0,.32,0,.26.07.28,0,.32,0,.62,0C33.08,3.78,32.6,3.78,32.39,3.73Zm2.68.34c-.23,0-.52,0-.53,0s.35,0,.54,0a2.35,2.35,0,0,0,.53,0S35.22,4,35.07,4.07Zm2.14-2.81H37s0,0,.1,0a.63.63,0,0,1,.17,0,3.48,3.48,0,0,0-.54,0c.24,0,.81,0,1.07,0,0,0-.09,0-.09,0C37.39,1.31,37.49,1.25,37.21,1.26Zm.54,0H38v0C37.77,1.24,37.3,1.29,37.75,1.28Zm.33-.37s.16,0,.18,0a1.36,1.36,0,0,1,.35,0,1.3,1.3,0,0,0,.18,0C38.88.85,38.12.89,38.08.91Zm1.11,2.75c-.08.07.12.09.27.12h.17s.13.08-.17.08c0,0-.16.05-.09.1.28,0,.31,0,.63,0,0,0-.13-.09.18-.08a2.28,2.28,0,0,0-.8-.25C39.17,3.61,39.19,3.64,39.19,3.66ZM40,.84c-.18,0-.25,0-.53,0s-.62,0-.54,0c-.07.11.36.22.3.29-.42,0-.1.06,0,.11-.08-.05.15-.07.27-.1s-.11.09.09.09c0-.06.43-.32.32-.4.12,0,.12,0,.27,0v0Zm.48.36c-.39.05-.11,0-.45,0-.13.05.25,0,.18.06s-.47,0-.45,0,0,0,.1,0,.69,0,.71-.11ZM41,.47s-.16,0-.09.07C41.34.54,41.38.45,41,.47Z" transform="translate(-0.19 -0.15)" style="fill:#f9ec34"/><path d="M1.85,3.75H2A.26.26,0,0,1,1.85,3.75Z" transform="translate(-0.19 -0.15)" style="fill:#f9ec34"/><path d="M5.16,5.25s-.06,0,0,0L5,5.25h.15Z" transform="translate(-0.19 -0.15)" style="fill:#f9ec34"/><path d="M3.27,5C3.05,5,3,5,3,4.93s0,0,.08,0h.17s.08,0,.25,0C3.49,4.93,3.14,4.92,3.27,5Z" transform="translate(-0.19 -0.15)" style="fill:#f9ec34"/><path d="M1.35,2.91a1.09,1.09,0,0,1,.27,0S1.34,3,1.35,2.91Z" transform="translate(-0.19 -0.15)" style="fill:#f9ec34"/><path d="M2.51,5.13H2.35a1.07,1.07,0,0,0-.26,0s.16,0,.17,0h.09a2.08,2.08,0,0,0,.26,0S2.45,5.09,2.51,5.13Z" transform="translate(-0.19 -0.15)" style="fill:#f9ec34"/><path d="M2.09,5H2s0,0,.08,0a1.7,1.7,0,0,0,.51-.05s0,0,0,.06,0,0-.08,0S2.21,5,2.09,5Z" transform="translate(-0.19 -0.15)" style="fill:#f9ec34"/><path d="M2.86,4.75l.25,0c.11,0-.25.07,0,.07a.06.06,0,0,1,0,0c-.13,0-.06,0-.25,0S3,4.79,3,4.77C2.88,4.78,2.86,4.77,2.86,4.75Z" transform="translate(-0.19 -0.15)" style="fill:#f9ec34"/><path d="M1.5,4.17c-.5,0,0-.07-.26-.09,0,0,.33,0,.09.08C1.44,4.15,1.65,4.15,1.5,4.17Z" transform="translate(-0.19 -0.15)" style="fill:#f9ec34"/><path d="M45.08,1.06c-.1,0-.1-.27-.12-.29-.19,0-.28,0-.27,0s.26,0,.54,0V.78C45.07.78,45.09,1.05,45.08,1.06Z" transform="translate(-0.19 -0.15)" style="fill:#f9ec34"/><path d="M29.71,1.4l0-.28.35,0c.22,0,.2,0,.45,0,0,.07-.28,0-.44,0C30.12,1.14,29.86,1.39,29.71,1.4Z" transform="translate(-0.19 -0.15)" style="fill:#f9ec34"/><path d="M26.78,1.48s0,.05-.18.05V1.45c.35,0,.36,0,.7,0,0,0-.22,0-.17.05Z" transform="translate(-0.19 -0.15)" style="fill:#f9ec34"/><path d="M45.76.49c-.34,0-.17,0-.45,0v0a1.11,1.11,0,0,0,.27,0c.09,0,.21.25.31.25S45.76.47,45.76.49Z" transform="translate(-0.19 -0.15)" style="fill:#f9ec34"/><path d="M38.07.73c-.15,0,0,0,0,0a1.07,1.07,0,0,0-.35,0s0,0-.18,0H37c-.14,0-.08,0-.27,0t-.27,0q-.15,0,0,.06c-.29,0-.29,0-.27-.05h-.09s.09,0,.09-.05l.54,0,.26,0c-.13-.06.47,0,.45-.06h.09a.72.72,0,0,1,.18,0c-.08,0,.35,0,.53,0a0,0,0,0,1,0,0A.53.53,0,0,1,38.07.73Z" transform="translate(-0.19 -0.15)" style="fill:#f9ec34"/><path d="M27.39,1.29h.18s-.12,0-.18.06c.27,0,.22-.3.5-.3v0h0c-.11,0-.35.26-.58.28h-.18v0C27.32,1.34,27.4,1.32,27.39,1.29Z" transform="translate(-0.19 -0.15)" style="fill:#f9ec34"/><path d="M41.29.33s-.11,0-.27,0h0s.12,0,.26,0c-.14.06.31,0,.27,0A2.25,2.25,0,0,0,41.29.33Z" transform="translate(-0.19 -0.15)" style="fill:#f9ec34"/><path d="M24.63,1.31a7.41,7.41,0,0,1-1,0l.72,0h.27c.27,0,.54,0,.54,0-.15,0-.3,0-.44,0A.17.17,0,0,0,24.63,1.31Z" transform="translate(-0.19 -0.15)" style="fill:#f9ec34"/><path d="M26.31,1.17a1.09,1.09,0,0,1-.27,0,.7.7,0,0,0-.26,0s.12,0,.18-.06h-.18s.09,0,.27,0h.18s-.18,0-.18,0h.27A0,0,0,0,0,26.31,1.17Z" transform="translate(-0.19 -0.15)" style="fill:#f9ec34"/><path d="M25.52,1.19a.77.77,0,0,0-.27,0c-.05,0,.17,0,.17-.05l.27,0s0,0,0,.06Z" transform="translate(-0.19 -0.15)" style="fill:#f9ec34"/><path d="M2.51,5.27s0,0,0,0h0c-.25,0-.18,0-.49,0v0A1.47,1.47,0,0,1,2.51,5.27Z" transform="translate(-0.19 -0.15)" style="fill:#f9ec34"/><path d="M1.75,5.08v0c-.31,0-.26,0-.26-.07A.76.76,0,0,0,1.75,5.08Z" transform="translate(-0.19 -0.15)" style="fill:#f9ec34"/><path d="M1.49,4.9c.09,0,.09,0,.08,0H1.49C1.41,5,1.6,5,1.57,5c-.34,0-.34,0-.34-.07S1.3,4.9,1.49,4.9Z" transform="translate(-0.19 -0.15)" style="fill:#f9ec34"/><path d="M2.6,4.87c-.31,0-.34,0-.34,0a1.06,1.06,0,0,1,.34,0h0Z" transform="translate(-0.19 -0.15)" style="fill:#f9ec34"/><path d="M.28,4.09H.19v0C.58,4.09.14,4.15.28,4.09Z" transform="translate(-0.19 -0.15)" style="fill:#f9ec34"/><path d="M39.36,1.19s0-.29.06-.3a.9.9,0,0,1,.26,0C39.77.94,39.52,1.18,39.36,1.19Z" transform="translate(-0.19 -0.15)" style="fill:#f9ec34"/><path d="M47,.85h-.09c-.17,0-.32,0-.17,0,.31,0,0,0,.26,0,0,0,.23,0,.18,0Z" transform="translate(-0.19 -0.15)" style="fill:#f9ec34"/><path d="M31,1.39c-.15,0-.18-.29-.48-.27a0,0,0,0,1,0,0c.35,0,.18,0,.53,0C31.09,1.1,31.18,1.38,31,1.39Z" transform="translate(-0.19 -0.15)" style="fill:#f9ec34"/><path d="M34.86.8c-.09,0-.07,0-.1,0-.27,0-.11,0-.44,0a1.08,1.08,0,0,0-.36,0v0h-.18c.07,0-.13,0-.09-.06a3.14,3.14,0,0,0-.81.06.16.16,0,0,0,0-.07.67.67,0,0,0,.27,0,4.92,4.92,0,0,1,.81,0l.36,0A6.5,6.5,0,0,1,35,.7c.09,0,.07,0,.09,0v0A.86.86,0,0,0,34.86.8Z" transform="translate(-0.19 -0.15)" style="fill:#f9ec34"/><path d="M44,.19h0a1.12,1.12,0,0,0-.27,0s.07,0,.18,0h.26S44.08.18,44,.19Z" transform="translate(-0.19 -0.15)" style="fill:#f9ec34"/><path d="M2.57,5.36h0s0,0,0,0h-.3V5.36A1.45,1.45,0,0,1,2.57,5.36Z" transform="translate(-0.19 -0.15)" style="fill:#f9ec34"/><path d="M47.66,7.73h0c-.09,0-.15,0-.06,0h0a.32.32,0,0,0,.15,0h.1s-.09-.06.16,0v0c-.05,0-.19,0-.18,0,.34,0,0-.06.24-.06,0,0,0,0,.18,0h0a.39.39,0,0,1,.06.13h-.07v.08h-.21s0,0,0,.06a.94.94,0,0,1-.42,0h-.1S47.55,7.73,47.66,7.73Z" transform="translate(-0.19 -0.15)" style="fill:#f9ec34"/><path d="M35.28,7.92h.32A2.58,2.58,0,0,1,35.28,7.92Z" transform="translate(-0.19 -0.15)" style="fill:#f9ec34"/><path d="M32.33,7.93a6.73,6.73,0,0,1-.78,0s.23,0,.52,0h0s0,0,0,0a1.21,1.21,0,0,1,.45,0h.62s0,0,.16,0c0,0,.08,0,.1.06l0,0h0c.17,0,.58,0,.51,0h.72c.08,0,.13,0,.12,0h-.18c-.1,0-.08,0-.07,0s-.21,0-.17,0c-.38,0-.21,0-.55,0,.07,0,0,0-.25,0,0,0-.08,0-.18,0H33s0,0,0,0h-.72Z" transform="translate(-0.19 -0.15)" style="fill:#f9ec34"/><path d="M45.88,7.83s0,0,.08,0h0s0,0,0,0h.14c.13,0,.24,0,.2,0h-.18a.42.42,0,0,0,0-.1h0a1.31,1.31,0,0,1,.29,0l0,0,0,0h0l.16.08h0s0,0,0,0-.06,0,0,0h-.35a1.48,1.48,0,0,0-.42,0h-.34s.13-.08-.15-.06h0C45.67,7.81,45.64,7.84,45.88,7.83Z" transform="translate(-0.19 -0.15)" style="fill:#f9ec34"/><path d="M48.17,7.31c.07,0,.07,0,0,.06.1,0,.1,0,.09,0s0,0-.08,0-.26,0-.18,0c-.2,0,0-.06-.27,0C47.65,7.29,48,7.31,48.17,7.31Z" transform="translate(-0.19 -0.15)" style="fill:#f9ec34"/><path d="M45.87,7.92h.86c-.07,0-.11.07-.08.12-.56,0-.5,0-.94,0V7.93Z" transform="translate(-0.19 -0.15)" style="fill:#f9ec34"/><path d="M46.74,7.8h.17c.08,0,0,0-.11.06l-.06,0h0S46.73,7.8,46.74,7.8Z" transform="translate(-0.19 -0.15)" style="fill:#f9ec34"/><path d="M31.86,8c.27,0,.24,0,.51,0,0,0,.07,0-.06,0H32s0,0-.08,0-.08,0-.19,0-.06,0-.07,0h-.44C31.25,8,31.68,8,31.86,8Z" transform="translate(-0.19 -0.15)" style="fill:#f9ec34"/><path d="M46.16,7.65h.05s0,0,0,0A.09.09,0,0,1,46.16,7.65Z" transform="translate(-0.19 -0.15)" style="fill:#f9ec34"/><path d="M44.19,7.77,44,7.8s0,0,0,0Z" transform="translate(-0.19 -0.15)" style="fill:#f9ec34"/><path d="M17.23,8.24h.09a4.63,4.63,0,0,1,.46,0h-.53l-.28,0S17.24,8.29,17.23,8.24Z" transform="translate(-0.19 -0.15)" style="fill:#f9ec34"/><path d="M48.53,6c.07,0,.09,0,.18,0-.08,0,0,0,.17.08h-.23C48.7,6,48.51,6,48.53,6Z" transform="translate(-0.19 -0.15)" style="fill:#f9ec34"/><path d="M49.07,6c.06,0,0,0,0,0Z" transform="translate(-0.19 -0.15)" style="fill:#f9ec34"/><path d="M48.9,6h0l.2,0S49,6,48.9,6Z" transform="translate(-0.19 -0.15)" style="fill:#f9ec34"/><path d="M46.26,7.62h0l.06,0-.11,0s0,0,0,0h.08Z" transform="translate(-0.19 -0.15)" style="fill:#f9ec34"/><path d="M48,7.19h.17c.08,0,.07,0,.09,0s0,.06-.24.06c.12,0-.22,0-.27,0C47.89,7.22,48,7.21,48,7.19Z" transform="translate(-0.19 -0.15)" style="fill:#f9ec34"/><path d="M49.08,5.12h.28S49.07,5.14,49.08,5.12Z" transform="translate(-0.19 -0.15)" style="fill:#f9ec34"/><path d="M46.83,7.76c-.13,0-.06,0-.18,0l0,0,0,0h.1c.07,0,.11,0,.11,0H47v0h.31s0,0,0,0H47.2s0,0,.08,0-.07,0-.08,0c.26,0,.5,0,.13,0v0a1.21,1.21,0,0,1-.25,0H47S47,7.77,46.83,7.76Z" transform="translate(-0.19 -0.15)" style="fill:#f9ec34"/><path d="M35,7.83h.19s0,0,.11,0h.09l-.22,0h-.26S35,7.85,35,7.83Z" transform="translate(-0.19 -0.15)" style="fill:#f9ec34"/><path d="M49,7.34s.22,0,.18,0h-.42c.05,0-.1,0-.11-.08a1.25,1.25,0,0,0,.27,0Z" transform="translate(-0.19 -0.15)" style="fill:#f9ec34"/><path d="M49.15,7.18c.1,0,.09,0,.1,0h-.09c-.12,0-.45,0-.43,0s-.1,0-.09,0a.19.19,0,0,0,0-.07A1.68,1.68,0,0,0,49.15,7.18Z" transform="translate(-0.19 -0.15)" style="fill:#f9ec34"/><path d="M48.12,7.13a.06.06,0,0,0,0,0c.24,0-.12,0,0-.06a2.26,2.26,0,0,1,.26,0s0,0-.17,0c0,0,.28,0,.19.05S48.25,7.13,48.12,7.13Z" transform="translate(-0.19 -0.15)" style="fill:#f9ec34"/><path d="M49.54,6.39c-.16,0,.05,0,.17,0-.25,0,.06-.09.07-.08C49.53,6.32,50,6.39,49.54,6.39Z" transform="translate(-0.19 -0.15)" style="fill:#f9ec34"/><path d="M23.88,4.89v0c-.19,0-.17,0-.19,0h-.36s-.17,0-.19,0h.71S23.88,4.88,23.88,4.89Z" transform="translate(-0.19 -0.15)" style="fill:#f9ec34"/><path d="M22.87,4.73H23s.09,0,.28,0v0h-.17a3.9,3.9,0,0,0-.62,0V4.76c.27,0,.27,0,.54,0C23,4.76,22.84,4.76,22.87,4.73Z" transform="translate(-0.19 -0.15)" style="fill:#f9ec34"/><path d="M36.8,8C37,8,37,8,37.18,8s.39,0,.37,0L36.7,8V8C36.78,8,36.79,8,36.8,8Z" transform="translate(-0.19 -0.15)" style="fill:#f9ec34"/><path d="M15.91,8.3v0a2.32,2.32,0,0,1-.46,0C15.58,8.3,15.91,8.26,15.91,8.3Z" transform="translate(-0.19 -0.15)" style="fill:#f9ec34"/><path d="M48.83,7.54h0a1.66,1.66,0,0,1,.51,0v0C49,7.54,49.1,7.56,48.83,7.54Z" transform="translate(-0.19 -0.15)" style="fill:#f9ec34"/><path d="M49.78,7.28s.08.09-.23.08c0,0,0,0,0-.06A1.07,1.07,0,0,0,49.78,7.28Z" transform="translate(-0.19 -0.15)" style="fill:#f9ec34"/><path d="M49.69,7.22s.15,0,.07-.07h-.09s0,0,.07,0,.13,0,.27,0S50,7.23,49.69,7.22Z" transform="translate(-0.19 -0.15)" style="fill:#f9ec34"/><path d="M49,7.07s0,.07-.33.06v0A1.08,1.08,0,0,1,49,7.07Z" transform="translate(-0.19 -0.15)" style="fill:#f9ec34"/><path d="M50.73,6.25c.15,0-.3,0,.09,0h-.09Z" transform="translate(-0.19 -0.15)" style="fill:#f9ec34"/><path d="M19.33,5l-.28,0c-.14,0-.08,0-.08,0,.27,0,.26,0,.52,0h.12a.94.94,0,0,1,.25,0H20a0,0,0,0,0,0,0c.26,0,.23,0,.45,0h.36V5c-.16,0-.44,0-.36,0l-.24,0h-.42a0,0,0,0,1,0,0c-.16,0-.17,0-.29,0S19.34,5,19.33,5Z" transform="translate(-0.19 -0.15)" style="fill:#f9ec34"/><path d="M48.79,7.63h0a.78.78,0,0,1,.32,0v.06h-.3Z" transform="translate(-0.19 -0.15)" style="fill:#f9ec34"/></svg>