<svg width="250" height="91" viewBox="0 0 250 91" fill="currentColor" preserveAspectRatio="none" xmlns="http://www.w3.org/2000/svg">
<path d="M249 53.5253C249 53.4253 248.9 53.3253 248.8 53.3253C247.7 52.9253 247.7 52.9253 247.2 52.3253C247 52.1253 246.8 51.8253 246.4 51.8253C245.4 51.8253 244.4 51.8253 243.3 51.8253C243.2 51.8253 243.1 51.7253 243.1 51.6253C243.1 51.5253 243.1 51.4253 243.1 51.4253C243.5 51.0253 243.9 50.6253 244.3 50.2253C244.5 49.9253 244.8 49.8253 245.2 49.8253C245.4 49.8253 245.6 49.7253 245.7 49.4253C245.8 49.2253 245.8 48.9253 245.7 48.7253C245.6 48.5253 245.4 48.4253 245.2 48.2253C245 48.0253 244.8 47.7253 244.4 47.7253C243.2 47.7253 241.9 47.7253 240.7 47.7253C240.6 47.7253 240.5 47.6253 240.4 47.5253C240.2 47.3253 240.2 46.8253 240.4 46.6253C240.5 46.5253 240.6 46.4253 240.6 46.4253C241 45.9253 241.8 45.6253 241.6 44.8253C242.3 43.6253 242.3 43.6253 242.3 43.0253C242.3 42.7253 242.3 42.6253 242.5 42.4253C242.7 42.3253 242.8 42.1253 242.9 41.9253C242.7 41.7253 242.6 41.6253 242.4 41.4253C242.2 41.2253 242.2 41.0253 242.2 40.8253C242.2 40.6253 242.1 40.4253 241.9 40.2253C241.6 40.0253 241.5 39.7253 241.5 39.3253C241.5 38.9253 241.2 38.7253 240.8 38.8253C240.5 38.8253 240.1 38.8253 239.8 38.8253C239.6 38.6253 239.3 38.3253 239.1 38.1253C238.8 37.9253 238.8 37.8253 239 37.6253C239.1 37.5253 239.2 37.5253 239.3 37.5253C239.6 37.5253 240 37.5253 240.3 37.5253C240.7 37.5253 240.8 37.1253 241.1 36.9253C241.2 36.8253 241.3 36.8253 241.4 36.8253C242 36.8253 242.5 36.8253 243.1 36.8253C243.2 36.8253 243.3 36.7253 243.4 36.7253C244.1 36.2253 244.1 36.2253 244.9 36.2253C245.5 36.2253 245.7 35.9253 245.7 35.4253C245.6 35.0253 245.5 34.8253 245 34.8253C244.7 34.8253 244.3 34.9253 244 34.8253C243.7 34.7253 243.7 34.5253 243.8 34.4253C243.9 34.3253 244 34.2253 244 34.2253C244.6 34.2253 245.1 34.2253 245.7 34.2253C246 34.2253 246.4 34.2253 246.7 34.2253C247 33.9253 247.3 33.6253 247.7 33.2253C247.7 33.0253 247.8 32.7253 247.7 32.5253C247.6 32.3253 247.4 32.1253 247.3 32.0253C247.1 31.8253 247 31.7253 247.1 31.4253C247.1 31.1253 247.1 31.0253 247.4 30.8253C247.7 30.6253 247.9 30.3253 248.1 30.1253C248.2 30.0253 248.3 29.9253 248.3 29.9253C248.5 29.7253 248.5 29.5253 248.5 29.3253C248.5 28.9253 248.6 28.4253 248.2 28.1253C248.1 28.0253 248 28.0253 248 27.9253C247.9 27.8253 247.9 27.7253 247.9 27.6253C247.7 26.9253 247.4 26.4253 246.8 26.1253C246.3 26.2253 246 25.9253 245.7 25.6253C245.6 25.4253 245.4 25.3253 245.2 25.1253C245.4 24.9253 245.5 24.8253 245.7 24.6253C246 24.3253 245.9 24.0253 245.8 23.7253C245.7 23.5253 245.5 23.4253 245.3 23.4253C244.8 23.4253 244.6 23.3253 244.6 22.9253C244.6 22.6253 244.6 22.3253 244.3 22.0253C244 21.8253 243.8 21.5253 243.6 21.3253C243.3 21.0253 243.3 21.0253 243.7 20.6253C244 20.3253 244.3 20.0253 244.6 19.6253C244.6 19.4253 244.6 19.2253 244.6 18.9253C243.9 18.2253 243.2 17.5253 242.4 16.7253C242.3 16.6253 242.2 16.5253 242.2 16.5253C242 16.6253 241.9 16.8253 241.7 17.0253C241.5 17.2253 241.3 17.2253 241.1 17.2253C240.3 17.2253 240.3 17.2253 239.6 17.7253C239.5 17.8253 239.4 17.8253 239.3 17.8253C239.1 17.8253 238.8 17.8253 238.7 17.7253C238.5 17.6253 238.4 17.4253 238.5 17.1253C238.5 16.7253 238.3 16.4253 237.9 16.4253C236.2 16.4253 234.5 16.4253 232.8 16.4253C232.7 16.4253 232.6 16.3253 232.5 16.2253C231.9 15.7253 231.9 15.7253 231.4 15.7253C231.1 15.7253 230.7 15.7253 230.4 15.7253C230 15.6253 229.8 15.9253 229.6 16.2253C229.4 16.4253 229.3 16.5253 229 16.4253C228.7 16.4253 228.3 16.4253 228 16.4253C227.8 16.2253 227.5 15.9253 227.3 15.7253C227.1 15.5253 227 15.4253 226.8 15.2253C226.5 14.9253 226 15.0253 225.6 15.4253C225.4 15.7253 225.1 15.8253 224.7 15.8253C224.2 15.8253 223.8 15.8253 223.3 15.8253C223.1 15.8253 222.9 15.7253 222.8 15.4253C222.7 15.2253 222.7 14.9253 222.8 14.7253C222.9 14.5253 223.1 14.4253 223.3 14.2253C223.4 14.1253 223.4 14.0253 223.4 14.0253C223.3 13.8253 223.1 13.7253 222.9 13.5253C222.7 13.2253 222.9 12.9253 222.7 12.6253C222.6 12.4253 222.4 12.3253 222.2 12.1253C222.1 12.0253 222 11.9253 222 11.9253C221.8 11.7253 221.5 11.4253 221.3 11.2253C221 10.9253 220.6 11.2253 220.4 10.9253C220.1 10.6253 219.8 10.2253 219.3 10.3253C219 10.2253 218.8 9.92529 218.5 9.72529C218.2 9.52529 217.9 9.72529 217.6 9.52529C217.4 9.32529 217.2 9.02529 216.8 9.02529C216.1 9.02529 215.4 9.02529 214.8 9.02529C214.4 9.02529 214.2 8.82529 214 8.52529C213.9 8.42529 213.8 8.32529 213.8 8.32529C213.3 8.32529 212.9 8.32529 212.4 8.32529C212.2 8.52529 212.1 8.62529 211.9 8.82529C211.7 9.02529 211.6 9.02529 211.3 9.02529C210.5 9.02529 210.5 9.02529 209.8 9.52529C209.7 9.62529 209.6 9.72529 209.5 9.62529C209 9.52529 208.7 9.92529 208.4 10.2253C208.2 10.4253 208.1 10.5253 207.9 10.7253C207.7 11.0253 207.3 11.0253 207 11.0253C206.7 11.0253 206.3 10.9253 206.1 11.2253C205.9 11.4253 205.8 11.6253 205.6 11.7253C205.4 11.8253 205.2 11.7253 204.9 11.7253C204.2 11.7253 204.2 11.6253 203.7 12.2253C203.4 12.6253 202.8 12.2253 202.5 12.7253C202.3 13.0253 202.1 13.2253 201.7 13.1253C201.3 13.1253 200.8 13.1253 200.3 13.1253C200.1 13.1253 199.9 13.2253 199.7 13.4253C199.5 13.7253 199.2 13.8253 198.8 13.8253C198.6 13.8253 198.4 14.0253 198.3 14.1253C197.9 14.5253 198 14.5253 197.6 14.1253C197.4 13.9253 197.3 13.8253 197 13.8253C194.8 13.8253 192.7 13.8253 190.5 13.8253C190.4 13.8253 190.3 13.7253 190.2 13.6253C189.9 13.4253 189.8 13.1253 189.4 13.1253C184.2 13.1253 179 13.1253 173.8 13.1253C173.7 13.1253 173.6 13.1253 173.5 13.1253C173.4 13.1253 173.3 13.0253 173.2 12.9253C173 12.7253 172.8 12.3253 172.4 12.4253C168.3 12.4253 164.2 12.4253 160.2 12.4253C160.1 12.4253 160 12.4253 159.9 12.4253C159.8 12.4253 159.7 12.6253 159.7 12.6253C159.5 12.8253 159.3 13.0253 158.9 13.0253C153.6 13.0253 148.3 13.0253 142.9 13.0253C142.4 13.0253 142.4 13.0253 141.8 13.5253C141.6 13.7253 141 13.7253 140.9 13.5253C140.5 13.0253 140 12.9253 139.4 12.9253C138.2 12.9253 136.9 12.9253 135.7 12.9253C135.6 12.9253 135.5 13.0253 135.4 13.0253C134.7 13.5253 134.7 13.5253 134.3 13.5253C131 13.5253 127.7 13.5253 124.4 13.5253H123C122.7 13.5253 122.3 13.6253 122 13.5253C121.7 13.4253 121.5 13.1253 121.2 12.9253C120.1 12.9253 118.9 12.9253 117.8 12.9253C117.7 12.9253 117.6 13.0253 117.5 13.1253C117.3 13.2253 117.2 13.4253 117 13.5253C116.8 13.3253 116.7 13.2253 116.5 13.0253C116.4 12.9253 116.3 12.8253 116.2 12.8253C112.7 12.8253 109.2 12.8253 105.7 12.8253C105.5 12.8253 105.3 12.9253 105.1 13.1253C104.9 13.4253 104.6 13.5253 104.2 13.5253C102.8 13.5253 101.5 13.5253 100.1 13.5253C99.8999 13.5253 99.6999 13.4253 99.5999 13.2253C99.4999 13.0253 99.2999 12.9253 99.0999 12.9253C96.1999 12.9253 93.1999 12.9253 90.2999 12.9253C89.8999 12.9253 89.6999 12.8253 89.3999 12.5253C89.1999 12.3253 89.0999 12.2253 88.7999 12.2253C87.1999 12.2253 85.5999 12.2253 83.9999 12.2253C83.6999 12.2253 83.2999 12.3253 82.9999 12.2253C82.6999 12.1253 82.4999 11.8253 82.1999 11.6253C81.5999 11.6253 81.0999 11.6253 80.4999 11.6253C80.1999 11.6253 80.0999 11.6253 79.8999 11.4253C79.7999 11.2253 79.5999 11.1253 79.3999 10.9253C79.0999 10.9253 78.6999 10.9253 78.3999 10.9253C78.0999 10.9253 77.8999 10.9253 77.7999 10.6253C77.5999 10.2253 77.6999 9.92529 77.8999 9.72529C77.9999 9.62529 77.9999 9.52529 78.0999 9.52529C78.3999 9.32529 78.3999 8.92529 78.3999 8.62529C78.3999 8.42529 77.9999 8.22529 77.5999 8.22529C77.3999 8.22529 77.0999 8.22529 76.8999 8.22529C76.6999 8.22529 76.4999 8.42529 76.3999 8.52529C75.8999 9.02529 75.4999 9.02529 74.9999 8.52529C74.7999 8.32529 74.4999 8.02529 74.2999 7.82529C73.9999 7.52529 73.6999 7.62529 73.3999 7.52529C73.2999 7.52529 73.1999 7.42529 73.1999 7.32529C72.9999 7.12529 72.8999 6.92529 72.6999 6.92529C72.4999 6.82529 72.2999 6.92529 71.9999 6.92529C71.7999 6.92529 71.4999 6.92529 71.2999 6.92529C71.0999 6.82529 70.9999 6.62529 70.7999 6.42529C70.5999 6.22529 70.3999 6.22529 70.1999 6.22529C69.9999 6.22529 69.7999 6.32529 69.5999 6.52529C69.3999 6.82529 69.0999 6.92529 68.6999 6.92529C68.1999 6.92529 67.7999 6.92529 67.2999 6.92529C67.0999 6.92529 66.8999 7.12529 66.7999 7.22529C66.3999 7.62529 65.8999 7.72529 65.5999 7.42529C65.3999 7.22529 65.0999 6.92529 64.8999 6.72529C64.6999 6.52529 64.5999 6.32529 64.3999 6.22529C64.1999 6.12529 63.9999 6.22529 63.6999 6.22529C63.4999 6.22529 63.1999 6.32529 62.9999 6.22529C62.9999 6.22529 62.7999 5.92529 62.6999 5.82529C62.3999 5.52529 61.8999 5.52529 61.4999 5.92529C61.1999 6.22529 60.8999 6.52529 60.4999 6.92529C60.3999 7.02529 60.2999 7.02529 60.1999 7.02529C59.6999 6.92529 59.3999 7.32529 59.0999 7.62529C58.8999 7.82529 58.4999 7.62529 58.1999 7.82529C57.9999 8.02529 57.7999 8.32529 57.3999 8.32529C56.8999 8.32529 56.4999 8.32529 55.9999 8.32529C54.4999 8.32529 53.0999 8.32529 51.5999 8.32529C51.4999 8.32529 51.3999 8.42529 51.2999 8.52529C50.9999 8.72529 50.8999 9.02529 50.4999 9.02529C48.8999 9.02529 47.2999 9.02529 45.6999 9.02529C45.3999 9.02529 44.9999 9.02529 44.6999 9.02529C44.5999 9.02529 44.4999 9.12529 44.4999 9.22529C44.2999 9.42529 44.1999 9.62529 43.9999 9.62529C43.7999 9.72529 43.5999 9.62529 43.2999 9.62529C43.0999 9.62529 42.8999 9.62529 42.5999 9.62529C42.3999 9.82529 42.1999 10.2253 41.7999 10.2253C41.4999 10.3253 41.0999 10.2253 40.7999 10.2253C40.3999 10.2253 40.1999 10.4253 40.1999 10.8253C40.1999 11.1253 40.1999 11.3253 39.9999 11.4253C39.8999 11.5253 39.7999 11.5253 39.6999 11.5253C39.2999 11.5253 39.0999 11.6253 38.7999 11.9253C38.6999 12.1253 38.4999 12.2253 38.2999 12.4253C37.9999 12.8253 37.6999 13.0253 37.1999 12.9253C37.0999 12.9253 36.9999 12.9253 36.8999 12.9253C36.7999 12.9253 36.6999 12.9253 36.5999 12.9253C35.8999 12.9253 35.7999 12.8253 35.3999 13.3253C35.0999 13.7253 34.4999 13.3253 34.1999 13.8253C34.0999 13.9253 33.9999 14.0253 33.9999 14.0253C33.7999 14.2253 33.6999 14.2253 33.4999 13.9253C32.9999 13.3253 32.5999 13.3253 32.0999 13.8253C31.8999 14.0253 31.7999 14.2253 31.5999 14.2253C30.3999 14.2253 29.0999 14.2253 27.8999 14.2253C27.7999 14.2253 27.6999 14.2253 27.5999 14.1253C27.0999 13.6253 26.5999 13.1253 26.1999 12.7253C25.9999 12.5253 26.0999 12.3253 25.9999 12.1253C25.9999 11.7253 25.7999 11.5253 25.2999 11.6253C24.5999 11.6253 23.8999 11.6253 23.2999 11.6253C22.9999 11.6253 22.8999 11.6253 22.6999 11.8253C22.4999 12.1253 22.1999 12.3253 21.9999 12.5253C21.5999 12.9253 21.5999 12.9253 21.2999 12.6253C21.0999 12.4253 20.7999 12.1253 20.5999 11.9253V11.2253C20.5999 10.0253 20.5999 8.72529 20.5999 7.52529C20.5999 7.12529 20.8999 6.92529 21.0999 6.72529C21.2999 6.52529 21.2999 6.32529 21.2999 6.12529C21.2999 5.32529 21.2999 5.32529 21.7999 4.62529C21.9999 4.52529 22.0999 4.32529 21.9999 4.12529C21.9999 4.02529 21.9999 3.92529 22.0999 3.82529C22.3999 3.52529 22.6999 3.22529 22.6999 2.72529C22.6999 2.52529 22.8999 2.32529 23.0999 2.22529C23.3999 2.02529 23.3999 1.62529 23.3999 1.32529C23.3999 1.02529 22.9999 0.825287 22.5999 0.825287C21.4999 0.825287 20.2999 0.825287 19.1999 0.825287C19.0999 0.825287 18.9999 0.825287 18.8999 0.925287C18.7999 1.02529 18.6999 1.12529 18.6999 1.12529C18.1999 1.62529 17.7999 1.62529 17.2999 1.12529C17.0999 0.925287 16.8999 0.825287 16.6999 0.825287C16.3999 0.825287 16.2999 0.825287 16.0999 1.02529C15.6999 1.42529 15.2999 1.82529 14.8999 2.22529C14.7999 2.32529 14.6999 2.22529 14.5999 2.22529C14.1999 2.22529 13.8999 2.42529 13.8999 2.82529C13.8999 3.32529 13.8999 3.72529 13.8999 4.22529C13.8999 4.62529 13.8999 4.72529 14.2999 5.12529C14.4999 5.32529 14.5999 5.42529 14.5999 5.72529C14.5999 6.32529 14.7999 6.52529 15.3999 6.42529C15.7999 6.42529 16.2999 6.52529 16.5999 6.12529C16.7999 5.92529 16.8999 5.82529 17.0999 5.92529C17.2999 6.02529 17.2999 6.22529 17.2999 6.52529C17.2999 7.32529 17.2999 8.12529 17.2999 9.62529C17.2999 9.82529 17.2999 10.7253 17.2999 11.6253C17.2999 11.7253 17.1999 11.8253 17.0999 11.8253C16.9999 11.8253 16.8999 11.8253 16.8999 11.7253C16.7999 11.6253 16.6999 11.5253 16.6999 11.4253C16.6999 10.4253 16.6999 9.42529 16.6999 8.32529C16.6999 8.12529 16.5999 7.92529 16.3999 7.82529C16.3999 7.82529 16.1999 7.92529 16.1999 8.02529C15.9999 8.22529 15.6999 8.52529 15.4999 8.72529C15.2999 9.02529 15.3999 9.32529 15.3999 9.72529C15.3999 10.3253 15.3999 10.8253 15.3999 11.4253C15.3999 11.6253 15.1999 11.8253 14.9999 11.9253C14.8999 11.9253 14.7999 11.9253 14.6999 11.9253C14.1999 11.9253 14.0999 12.1253 14.0999 12.5253C14.0999 12.8253 14.0999 13.2253 14.0999 13.5253C13.9999 13.7253 13.7999 13.9253 13.6999 14.0253C13.2999 14.3253 13.4999 14.6253 13.4999 14.9253C12.8999 16.1253 12.8999 16.1253 12.7999 17.0253C12.6999 17.2253 12.4999 17.3253 12.1999 17.3253C11.5999 17.4253 11.4999 17.4253 11.3999 18.1253C11.3999 18.3253 11.2999 18.5253 11.0999 18.6253C10.7999 18.8253 10.6999 19.1253 10.6999 19.5253C10.6999 19.6253 10.6999 19.7253 10.6999 19.8253C10.6999 20.2253 10.5999 20.4253 10.2999 20.7253C9.8999 21.1253 9.8999 21.5253 10.0999 21.9253C10.2999 22.1253 10.5999 22.3253 10.5999 22.7253C10.5999 25.2253 10.5999 27.7253 10.5999 30.2253C10.5999 30.6253 10.3999 30.8253 10.0999 31.0253C9.8999 31.2253 9.7999 31.3253 9.8999 31.6253C9.8999 31.7253 9.8999 31.9253 9.8999 31.9253C9.7999 32.1253 9.5999 32.2253 9.3999 32.4253C9.0999 32.7253 9.2999 33.0253 9.0999 33.3253C8.8999 33.6253 8.5999 33.7253 8.4999 34.1253C8.3999 34.4253 8.4999 34.8253 8.4999 35.1253C8.4999 35.3253 8.3999 35.5253 8.1999 35.6253C7.9999 35.7253 7.8999 35.9253 7.7999 36.1253C7.7999 36.9253 7.7999 37.7253 7.7999 38.5253C7.7999 38.6253 7.8999 38.7253 7.8999 38.8253C7.9999 38.8253 8.2999 38.9253 8.3999 39.1253C8.4999 39.3253 8.4999 39.5253 8.4999 39.7253C8.3999 40.0253 7.9999 40.2253 7.8999 40.5253C7.6999 40.8253 7.8999 41.1253 7.6999 41.4253C7.2999 41.7253 6.9999 41.8253 7.0999 42.3253C7.1999 43.1253 7.0999 43.9253 7.0999 44.7253C7.0999 44.8253 7.1999 44.9253 7.2999 44.9253C7.8999 45.3253 7.6999 45.9253 7.6999 46.4253C7.6999 46.8253 7.8999 47.0253 8.2999 47.0253C8.3999 47.0253 8.4999 47.0253 8.5999 47.0253C9.2999 47.0253 9.2999 47.0253 9.7999 46.6253C10.2999 46.2253 10.4999 45.7253 10.3999 45.1253C10.3999 45.0253 10.3999 44.9253 10.3999 44.8253C10.3999 44.6253 10.5999 44.4253 10.7999 44.3253C10.9999 44.4253 11.0999 44.6253 11.0999 44.9253C11.0999 45.4253 11.0999 45.8253 11.0999 46.3253C11.0999 46.7253 10.8999 46.9253 10.6999 47.2253C10.4999 47.4253 10.3999 47.5253 10.1999 47.7253C9.9999 47.9253 9.7999 48.0253 9.6999 48.2253C9.5999 48.4253 9.6999 48.6253 9.6999 48.9253C9.6999 49.5253 9.6999 50.0253 9.6999 50.6253C9.6999 50.9253 9.6999 51.0253 9.3999 51.2253C9.0999 51.4253 8.8999 51.7253 8.6999 51.9253C8.2999 52.3253 8.2999 52.3253 8.2999 52.8253C8.2999 53.1253 8.2999 53.5253 8.2999 53.8253C8.2999 54.4253 8.2999 54.4253 7.9999 54.7253C7.6999 55.0253 7.3999 55.3253 6.9999 55.7253C6.9999 55.9253 6.9999 56.1253 6.8999 56.4253C7.1999 56.9253 7.6999 57.2253 7.9999 57.6253C8.0999 57.7253 8.1999 57.8253 8.1999 57.8253C8.1999 58.3253 8.1999 58.7253 8.1999 59.2253C7.9999 59.4253 7.8999 59.5253 7.6999 59.7253C7.4999 59.9253 7.4999 60.1253 7.4999 60.3253C7.4999 60.8253 7.3999 60.9253 6.8999 60.9253C6.7999 60.9253 6.5999 60.9253 6.5999 60.9253C6.3999 61.0253 6.1999 61.2253 6.0999 61.3253C5.7999 61.7253 5.4999 61.4253 5.1999 61.6253C4.8999 61.7253 4.6999 62.0253 4.4999 62.3253C4.1999 62.3253 3.7999 62.2253 3.5999 62.6253C3.3999 62.9253 3.0999 63.1253 2.8999 63.3253C2.4999 63.7253 2.4999 63.7253 1.9999 63.7253C1.7999 63.7253 1.4999 63.7253 1.2999 63.7253C1.1999 63.7253 1.0999 63.8253 0.999902 63.8253C0.699902 64.0253 0.699902 64.1253 0.999902 64.3253C1.1999 64.4253 1.3999 64.6253 1.4999 64.8253C1.9999 64.8253 2.2999 64.7253 2.5999 64.7253C2.6999 64.7253 2.7999 64.8253 2.8999 64.9253C3.1999 65.3253 3.7999 65.6253 3.6999 66.3253C3.9999 66.8253 4.3999 67.2253 4.7999 67.4253C4.8999 67.4253 4.9999 67.4253 5.0999 67.4253C5.4999 67.5253 5.6999 67.6253 5.6999 68.1253C5.6999 68.8253 5.6999 69.5253 5.6999 70.1253C5.6999 70.4253 5.6999 70.5253 5.8999 70.7253C6.1999 71.0253 6.4999 71.3253 6.8999 71.7253C7.0999 71.9253 7.0999 72.1253 7.0999 72.3253C7.0999 72.5253 6.9999 72.7253 6.7999 72.9253C6.4999 73.1253 6.3999 73.4253 6.3999 73.8253C6.3999 74.3253 5.7999 74.4253 5.6999 74.9253C5.6999 75.0253 5.6999 75.1253 5.6999 75.2253C5.6999 75.3253 5.5999 75.4253 5.5999 75.5253C5.0999 76.1253 5.0999 76.1253 5.0999 77.0253C5.0999 77.5253 5.3999 77.8253 5.8999 77.8253C6.7999 77.8253 7.6999 77.8253 8.5999 77.8253C8.6999 77.8253 8.7999 77.8253 8.8999 77.9253C8.9999 77.8253 9.0999 77.8253 9.0999 77.9253C9.0999 78.0253 8.9999 78.1253 8.8999 78.1253C8.4999 78.3253 7.9999 78.2253 7.5999 78.2253C6.9999 78.1253 6.4999 78.4253 6.0999 78.8253C5.6999 79.2253 5.6999 79.2253 5.9999 79.5253C6.0999 79.6253 6.1999 79.7253 6.1999 79.7253C6.3999 79.9253 6.3999 80.3253 6.1999 80.6253C6.0999 80.8253 5.8999 80.9253 5.5999 80.8253C5.2999 80.7253 5.0999 80.8253 4.9999 81.1253C4.9999 81.4253 5.0999 81.7253 4.9999 81.9253C4.8999 82.2253 4.5999 82.4253 4.3999 82.7253C4.1999 82.9253 4.0999 83.1253 3.8999 83.2253C3.5999 83.4253 3.5999 83.5253 3.8999 83.7253C3.9999 83.7253 4.0999 83.8253 4.1999 83.8253C4.4999 83.8253 4.8999 83.7253 5.1999 83.8253C5.6999 83.9253 5.8999 84.4253 6.1999 84.6253C6.2999 84.7253 6.3999 84.8253 6.3999 84.8253L6.5999 85.0253C6.7999 84.9253 6.8999 84.7253 7.0999 84.6253C7.1999 84.5253 7.2999 84.4253 7.2999 84.4253C7.6999 84.4253 8.1999 84.4253 8.6999 84.4253C8.8999 84.6253 8.9999 84.7253 9.1999 84.9253C9.3999 85.1253 9.5999 85.1253 9.7999 85.1253C13.5999 85.1253 17.4999 85.1253 21.2999 85.1253C21.4999 85.1253 21.6999 85.2253 21.8999 85.4253C22.0999 85.7253 22.3999 85.8253 22.7999 85.8253C25.4999 85.8253 28.1999 85.8253 30.9999 85.8253C31.1999 85.8253 31.3999 85.9253 31.4999 86.1253C31.5999 86.3253 31.7999 86.5253 31.9999 86.4253C32.3999 86.4253 32.6999 86.5253 32.8999 86.8253C33.1999 87.3253 33.7999 86.9253 34.0999 87.3253C34.2999 87.5253 34.3999 87.7253 34.5999 87.8253C34.7999 87.9253 34.9999 87.8253 35.2999 87.8253C35.4999 87.8253 35.7999 87.7253 35.9999 87.8253C36.1999 87.9253 36.3999 88.1253 36.4999 88.2253C36.6999 88.4253 36.7999 88.4253 37.0999 88.4253C37.6999 88.4253 38.1999 88.4253 38.7999 88.4253C38.9999 88.6253 39.2999 88.8253 39.4999 89.1253H40.4999C40.5999 89.1253 40.6999 89.1253 40.7999 89.1253C41.1999 89.1253 41.1999 89.1253 41.8999 89.6253C41.9999 89.8253 42.0999 89.8253 42.1999 89.8253C42.9999 89.8253 43.7999 89.8253 44.5999 89.8253C44.7999 89.8253 44.9999 89.9253 45.0999 90.1253C45.1999 90.3253 45.3999 90.4253 45.5999 90.4253C48.6999 90.4253 51.6999 90.4253 54.7999 90.4253C54.8999 90.4253 54.9999 90.3253 55.0999 90.3253C55.1999 90.2253 55.2999 90.1253 55.2999 90.0253C55.4999 89.2253 55.4999 89.2253 55.7999 88.9253C55.9999 88.7253 56.0999 88.5253 56.2999 88.4253C56.4999 88.3253 56.6999 88.4253 56.9999 88.4253C57.1999 88.4253 57.4999 88.5253 57.6999 88.4253C57.8999 88.3253 58.0999 88.1253 58.1999 87.9253C58.3999 87.7253 58.4999 87.7253 58.7999 87.7253C75.9999 87.7253 93.1999 87.7253 110.4 87.7253C110.7 87.7253 110.8 87.8253 111 88.0253C111.2 88.3253 111.4 88.5253 111.8 88.4253C112.9 88.4253 114.1 88.4253 115.2 88.4253C115.6 88.4253 115.8 88.7253 116 88.9253C116.2 89.1253 116.7 89.1253 116.9 88.9253C117.1 88.8253 117.2 88.6253 117.4 88.4253C117.6 88.2253 118.1 88.3253 118.3 88.4253C118.9 88.9253 118.9 88.9253 119.4 88.9253C119.7 88.9253 120.1 88.9253 120.4 88.9253C120.8 88.9253 121 88.7253 121.2 88.5253C121.5 88.2253 121.5 88.2253 122.5 88.2253C122.8 88.2253 122.9 88.2253 123.1 88.4253C123.3 88.6253 123.5 88.9253 123.9 88.9253C124.8 88.9253 125.7 88.9253 126.6 88.9253C127 88.9253 127.2 88.6253 127.4 88.4253C127.6 88.2253 127.6 88.2253 128.7 88.2253C130.3 88.2253 131.9 88.2253 133.5 88.2253C133.7 88.2253 133.9 88.3253 134.1 88.5253C134.3 88.8253 134.6 88.9253 135 88.9253C135.3 88.9253 135.7 89.0253 136 88.8253C136.9 88.2253 136.9 88.2253 137.5 88.2253C139.2 88.2253 140.9 88.2253 142.6 88.2253C142.9 88.2253 143.1 87.8253 143.1 87.5253C143.1 87.0253 143 86.9253 142.5 86.9253C142.4 86.9253 142.3 86.9253 142.2 86.9253C142 86.8253 141.8 86.7253 141.8 86.4253C141.8 86.2253 141.8 85.9253 141.7 85.8253C141.5 85.4253 141.1 85.6253 140.8 85.5253C140.7 85.5253 140.6 85.4253 140.6 85.3253C140.5 85.1253 140.6 84.9253 140.9 84.9253C141.2 84.8253 141.5 85.0253 141.8 84.6253C142.2 84.1253 142.2 84.2253 143 84.2253C143.3 84.2253 143.7 84.2253 143.9 84.5253C144.1 84.8253 144.4 85.0253 144.6 85.2253C144.9 85.5253 145 85.5253 145.3 85.1253C145.9 84.5253 146.4 84.0253 147 83.5253C147.1 83.4253 147.2 83.5253 147.3 83.5253C147.7 83.5253 147.9 83.7253 147.9 84.1253C147.9 85.1253 147.9 86.1253 147.9 87.2253C147.9 87.4253 148.1 87.6253 148.3 87.6253C148.9 87.6253 149.4 87.6253 150 87.6253C150.4 87.6253 150.6 87.4253 150.6 87.0253C150.6 86.7253 150.6 86.6253 150.8 86.4253C151 86.3253 151.2 86.2253 151.4 86.3253C151.6 86.3253 151.9 86.3253 152.1 86.3253C152.4 86.3253 152.7 86.6253 152.6 87.0253C152.6 87.3253 152.6 87.5253 152.9 87.6253C153.3 87.8253 153.6 87.7253 153.8 87.5253C154 87.3253 154.1 87.2253 154.3 87.0253C154.5 87.1253 154.7 87.2253 154.8 87.4253C155 87.6253 155.1 87.7253 155.4 87.7253C157.4 87.7253 159.5 87.7253 161.5 87.7253C161.6 87.7253 161.7 87.7253 161.8 87.7253C161.9 87.7253 162 87.6253 162 87.5253C162.2 87.3253 162.4 87.0253 162.8 87.0253C164.8 87.0253 166.9 87.0253 168.9 87.0253C169.1 87.0253 169.3 86.9253 169.5 86.7253C169.7 86.4253 170 86.3253 170.3 86.3253C170.9 86.3253 171.4 86.3253 172 86.3253C172.4 86.3253 172.4 86.3253 173.1 85.7253C173.4 85.5253 173.8 85.7253 174 85.4253C174.4 84.9253 174.9 84.8253 175.5 84.8253C175.7 84.8253 176 84.8253 176.2 84.8253C176.6 84.8253 176.7 84.8253 177 84.4253C177.2 84.2253 177.3 84.1253 177.6 84.1253C177.9 84.1253 178.3 84.1253 178.6 84.1253C178.8 83.9253 179.1 83.7253 179.3 83.4253C179.4 83.3253 179.5 83.2253 179.5 83.2253C179.7 83.1253 179.8 82.8253 180 82.8253C180.2 82.7253 180.4 82.8253 180.7 82.8253C181.5 82.8253 181.7 82.8253 181.7 83.7253C181.7 84.7253 181.7 84.7253 182.5 84.8253C182.6 84.8253 182.7 84.8253 182.8 84.9253C183.7 85.5253 183.7 85.5253 184.3 85.5253C186.5 85.5253 188.6 85.5253 190.8 85.5253C191 85.5253 191.2 85.4253 191.3 85.1253C191.5 84.8253 191.8 84.8253 192.2 84.8253C192.5 84.8253 192.9 84.7253 193.2 85.0253C193.8 85.5253 193.8 85.5253 194.3 85.5253C195 85.5253 195 85.5253 195.5 85.9253C195.6 86.0253 195.7 86.1253 195.7 86.1253C196.9 86.1253 198.2 86.1253 199.4 86.1253C199.8 86.1253 200 85.8253 200.2 85.6253C200.9 84.9253 201 84.6253 200.3 84.0253C200 83.7253 200.1 83.4253 200.1 83.1253C200.1 83.0253 200.2 82.9253 200.3 82.9253C200.6 82.7253 201 82.7253 201.2 82.9253C201.9 83.4253 201.9 83.5253 202.7 83.4253C203.1 83.4253 203.3 83.6253 203.5 83.8253C203.7 84.0253 203.8 84.1253 204.1 84.1253C204.2 84.1253 204.4 84.1253 204.4 84.1253C204.8 84.4253 205 84.6253 205.5 85.7253C205.6 85.9253 205.7 86.0253 205.9 86.2253C206.3 86.7253 206.7 86.9253 207.3 86.8253C207.6 86.7253 208 86.8253 208.2 87.1253C208.3 87.3253 208.5 87.4253 208.7 87.4253C210.6 87.4253 212.5 87.4253 214.5 87.4253C214.6 87.4253 214.7 87.5253 214.8 87.5253C215.1 87.8253 215.4 88.1253 215.9 88.1253C216.6 88.1253 217.3 88.1253 217.9 88.1253C218 88.1253 218.1 88.2253 218.2 88.3253C218.5 88.5253 218.6 88.8253 219 88.8253C220 88.8253 221 88.8253 222.1 88.8253C222.2 88.8253 222.3 88.7253 222.4 88.6253C222.7 88.2253 222.6 87.8253 222.2 87.4253C221.9 87.1253 221.9 87.1253 222.3 86.7253C222.4 86.6253 222.5 86.6253 222.5 86.5253C222.5 86.3253 222.5 86.1253 222.6 85.8253C222.3 85.3253 221.7 84.9253 221.1 84.7253C220.7 84.6253 220.6 84.4253 220.6 84.0253C220.6 83.9253 220.6 83.8253 220.6 83.7253C220.6 83.5253 220.6 83.2253 220.6 83.0253C220.7 82.8253 220.9 82.7253 221.1 82.5253C221.3 82.3253 221.3 81.7253 221.2 81.6253C220.9 81.3253 220.6 81.0253 220.2 80.6253C219.8 80.2253 219.7 79.7253 220 79.4253C220.5 78.9253 221 78.4253 221.4 78.0253C221.8 77.6253 222.1 77.1253 222.8 77.2253C223.1 77.0253 223.3 76.8253 223.5 76.5253C223.7 76.5253 223.9 76.5253 224.2 76.5253C224.3 76.5253 224.4 76.6253 224.4 76.7253C224.6 77.0253 224.6 77.4253 224.4 77.6253C224.3 77.7253 224.3 77.8253 224.2 77.8253C223.9 78.0253 223.9 78.1253 224 78.3253C224.2 78.5253 224.4 78.5253 224.6 78.5253C225.4 78.5253 226.2 78.5253 227 78.5253C227.4 78.5253 227.4 78.5253 228.1 79.0253C228.2 79.1253 228.3 79.1253 228.4 79.1253C229.4 79.1253 230.4 79.1253 231.5 79.1253C231.7 79.1253 231.9 79.0253 232 78.8253C232.3 78.3253 232.8 78.4253 233.2 78.5253C233.7 78.5253 234.1 78.3253 234 77.8253C234 77.6253 234 77.3253 234 77.1253C234 76.9253 234.1 76.7253 234.3 76.5253C235 75.8253 235 75.8253 235.4 75.8253C235.8 75.8253 236.1 75.7253 236.1 75.3253C236.1 75.1253 236.1 74.8253 236.2 74.7253C236.8 74.0253 236.8 74.0253 236.8 73.2253C236.8 73.1253 236.8 73.0253 236.8 72.9253C236.9 72.7253 237 72.5253 237.2 72.5253C238 72.3253 238 72.3253 238.3 71.9253C238.5 71.7253 238.8 71.5253 238.8 71.1253C238.8 70.2253 238.8 69.3253 238.8 68.4253C238.8 68.1253 238.9 68.0253 239 67.8253C239.6 67.3253 240.1 66.7253 240.7 66.1253C240.8 66.0253 240.9 65.7253 240.8 65.5253C240.7 65.2253 240.5 65.0253 240.1 65.0253C240 65.0253 239.9 65.0253 239.8 65.0253C239.6 64.9253 239.5 64.7253 239.3 64.5253C239 64.2253 238.6 64.4253 238.4 64.2253C238 63.9253 237.8 63.6253 237.4 63.2253C237.4 63.0253 237.4 62.7253 237.4 62.5253C237.5 62.3253 237.7 62.2253 237.9 62.2253C238.1 62.2253 238.4 62.2253 238.5 62.0253C238.7 61.8253 239 61.5253 239.2 61.3253C239.6 60.9253 239.6 61.0253 240.4 60.8253C240.5 60.8253 240.6 60.7253 240.6 60.6253C241.2 59.3253 241.2 59.3253 241.6 59.0253C241.8 58.8253 242 58.8253 242.2 58.8253C242.3 58.8253 242.4 58.8253 242.5 58.7253C242.8 58.4253 243.1 58.0253 243.6 58.1253C244.1 58.0253 244.3 57.6253 244.6 57.3253C245.2 56.8253 245.7 56.2253 246.3 55.6253C246.5 55.4253 246.8 55.1253 247 54.9253C247.3 54.6253 247.7 54.8253 247.9 54.7253C248.2 54.5253 248.4 54.2253 248.6 54.0253C249.1 54.1253 249 53.8253 249 53.5253ZM8.2999 82.1253C8.1999 82.2253 8.1999 82.3253 8.0999 82.3253C7.9999 82.3253 7.8999 82.3253 7.7999 82.3253C7.3999 82.3253 7.0999 82.1253 7.1999 81.9253C7.2999 81.7253 7.4999 81.6253 7.7999 81.7253C7.8999 81.7253 7.9999 81.7253 8.0999 81.7253C8.2999 81.8253 8.3999 82.0253 8.2999 82.1253ZM18.3999 82.3253C17.3999 82.4253 16.3999 82.3253 15.4999 82.4253C14.3999 82.4253 13.3999 82.4253 12.3999 82.4253C12.2999 82.4253 12.1999 82.3253 12.0999 82.3253C11.8999 82.1253 11.8999 82.0253 12.1999 81.8253C12.5999 81.4253 12.9999 81.0253 13.3999 80.6253C13.5999 80.4253 13.6999 80.3253 13.9999 80.4253C14.5999 80.4253 15.0999 80.4253 15.6999 80.4253C15.7999 80.4253 15.8999 80.3253 15.8999 80.2253C15.9999 80.0253 15.8999 79.9253 15.5999 79.8253H11.8999C11.3999 79.8253 11.0999 79.5253 11.1999 78.9253C11.1999 78.8253 11.2999 78.7253 11.2999 78.6253C11.4999 78.3253 11.5999 78.4253 11.7999 78.6253C11.8999 78.8253 12.0999 79.0253 12.2999 78.9253C12.3999 78.9253 12.4999 78.8253 12.4999 78.7253C12.6999 78.4253 12.9999 78.3253 13.3999 78.3253C14.6999 78.3253 16.0999 78.3253 17.3999 78.3253C17.7999 78.3253 17.9999 78.5253 17.9999 78.9253C17.9999 79.2253 17.9999 79.3253 17.7999 79.5253C17.3999 79.9253 16.9999 80.3253 16.5999 80.7253C16.5999 80.9253 16.5999 81.2253 16.5999 81.4253C16.6999 81.6253 16.8999 81.7253 17.0999 81.7253C17.3999 81.7253 17.7999 81.7253 18.0999 81.7253C18.1999 81.7253 18.2999 81.8253 18.3999 81.8253C18.4999 81.9253 18.5999 82.0253 18.4999 82.0253C18.5999 82.2253 18.4999 82.3253 18.3999 82.3253ZM34.0999 40.1253C33.9999 40.1253 33.8999 40.1253 33.8999 40.1253C33.6999 40.0253 33.5999 39.8253 33.5999 39.5253C33.5999 39.3253 33.5999 39.1253 33.7999 38.9253C33.8999 38.9253 33.9999 38.9253 33.9999 38.9253C34.1999 39.0253 34.2999 39.2253 34.1999 39.5253C34.2999 39.8253 34.2999 40.0253 34.0999 40.1253ZM41.3999 35.5253C41.1999 35.4253 41.0999 35.2253 41.0999 35.0253C41.0999 34.9253 41.0999 34.8253 41.0999 34.7253C41.0999 34.5253 41.1999 34.3253 41.3999 34.2253C41.5999 34.3253 41.6999 34.5253 41.6999 34.7253C41.6999 34.8253 41.6999 34.9253 41.6999 35.0253C41.6999 35.2253 41.5999 35.3253 41.3999 35.5253ZM48.3999 18.3253C48.2999 18.4253 48.1999 18.5253 48.1999 18.5253C47.7999 18.5253 47.2999 18.5253 46.8999 18.5253C46.6999 18.4253 46.5999 18.2253 46.6999 18.0253C46.7999 17.9253 46.7999 17.8253 46.8999 17.8253C47.0999 17.8253 47.2999 17.8253 47.5999 17.8253C47.8999 17.8253 48.0999 17.7253 48.2999 17.8253C48.3999 17.9253 48.4999 18.1253 48.3999 18.3253ZM51.0999 19.0253C50.9999 19.2253 50.7999 19.2253 50.4999 19.2253C50.2999 19.2253 50.0999 19.2253 49.8999 18.9253C49.7999 18.7253 49.7999 18.5253 49.7999 18.3253C49.7999 18.2253 49.8999 18.1253 49.8999 18.0253C50.0999 17.7253 50.1999 17.7253 50.3999 18.0253C50.5999 18.3253 50.8999 18.5253 51.0999 18.7253C51.1999 18.8253 51.0999 18.9253 51.0999 19.0253ZM58.9999 18.5253C58.6999 18.5253 58.3999 18.5253 57.9999 18.5253C57.7999 18.6253 57.5999 18.6253 57.3999 18.7253C57.3999 18.7253 57.3999 18.8253 57.3999 18.9253C57.2999 19.1253 57.0999 19.2253 56.8999 19.2253C56.5999 19.2253 56.1999 19.2253 55.7999 19.2253C55.9999 19.1253 56.1999 19.0253 56.2999 18.9253C54.9999 19.1253 54.6999 18.9253 54.3999 18.6253C54.2999 18.5253 54.1999 18.5253 54.0999 18.5253C53.8999 18.5253 53.6999 18.5253 53.3999 18.5253C52.8999 18.5253 52.8999 18.5253 52.5999 18.9253C52.3999 19.1253 52.2999 19.2253 52.0999 19.0253C51.8999 18.8253 51.8999 18.6253 51.8999 18.4253C51.9999 18.0253 52.0999 17.8253 52.4999 17.8253C52.5999 17.8253 52.6999 17.8253 52.7999 17.8253C53.9999 17.1253 53.9999 17.1253 54.4999 17.1253C54.8999 17.1253 55.0999 17.2253 55.1999 17.6253C55.1999 17.7253 55.1999 17.8253 55.1999 17.9253C55.2999 18.3253 55.4999 18.4253 55.8999 18.4253C56.1999 18.4253 56.5999 18.4253 56.8999 18.4253H56.9999C57.0999 18.3253 57.1999 18.2253 57.1999 18.1253C57.2999 17.9253 57.4999 17.8253 57.6999 17.7253C58.0999 17.7253 58.5999 17.6253 58.9999 17.8253C59.0999 17.8253 59.1999 17.9253 59.1999 18.0253C59.3999 18.3253 59.1999 18.4253 58.9999 18.5253ZM166 67.6253C166.1 67.8253 166 67.9253 165.7 68.1253C163.7 68.1253 161.7 68.1253 159.6 68.1253C159.5 68.1253 159.4 68.0253 159.4 67.9253C159.3 67.7253 159.4 67.6253 159.7 67.4253H163.1C164 67.4253 164.9 67.4253 165.8 67.4253C165.8 67.4253 165.9 67.5253 166 67.6253ZM162.7 64.0253C163 64.0253 163.4 63.9253 163.7 64.0253C164 64.1253 164 64.3253 163.9 64.4253C163.8 64.5253 163.7 64.6253 163.7 64.6253C163.4 64.6253 163 64.6253 162.7 64.6253C162.4 64.7253 162.3 64.6253 162.1 64.4253C162 64.2253 162.3 64.0253 162.7 64.0253ZM162.7 60.6253C162.9 60.6253 163.1 60.6253 163.3 60.8253C163.7 61.2253 163.7 61.2253 164.4 61.3253C164.6 61.4253 164.7 61.6253 164.6 61.8253C164.5 61.9253 164.5 62.0253 164.4 62.0253C164.3 62.0253 164.2 62.0253 164.1 62.0253H163.1C162.8 62.0253 162.4 62.0253 162.1 62.0253C161.8 62.0253 161.7 62.0253 161.5 61.8253C161.4 61.6253 161.4 61.5253 161.7 61.3253C161.9 61.2253 162 61.0253 162.2 60.8253C162.3 60.6253 162.5 60.6253 162.7 60.6253ZM160.8 56.8253C160.9 56.6253 161.1 56.5253 161.4 56.6253C161.5 56.6253 161.6 56.6253 161.7 56.6253C161.9 56.7253 162 56.9253 162 57.0253C161.9 57.1253 161.9 57.2253 161.8 57.2253C161.7 57.2253 161.6 57.2253 161.5 57.2253C160.9 57.2253 160.7 57.0253 160.8 56.8253ZM158.7 50.7253C158.8 50.5253 159 50.4253 159.3 50.5253C159.4 50.5253 159.5 50.5253 159.6 50.5253C159.8 50.6253 159.9 50.8253 159.9 50.9253C159.8 51.0253 159.8 51.1253 159.7 51.1253C159.6 51.1253 159.5 51.1253 159.4 51.1253C158.9 51.1253 158.6 50.9253 158.7 50.7253ZM156.3 61.3253C156.6 61.1253 156.8 60.9253 157 60.6253C157.2 60.6253 157.4 60.6253 157.7 60.6253C158.3 60.6253 158.8 60.6253 159.4 60.6253C159.9 60.6253 160.1 60.9253 160.1 61.5253C160.1 61.6253 160 61.7253 160 61.8253C159.9 61.9253 159.8 62.0253 159.8 62.0253C159.1 62.0253 158.5 62.0253 157.8 62.0253C157.5 62.0253 157.1 62.0253 156.8 62.0253C156.5 62.0253 156.4 62.0253 156.2 61.8253C155.9 61.6253 156 61.5253 156.3 61.3253ZM154.9 64.7253C155.7 64.5253 155.7 64.5253 156 64.2253C156.1 64.1253 156.2 64.0253 156.2 64.0253C157 64.0253 157.8 64.0253 158.5 64.0253C158.8 64.0253 159.2 64.0253 159.5 64.0253C159.8 64.3253 160.1 64.6253 160.5 64.9253V65.1253C160.4 65.2253 160.3 65.3253 160.3 65.3253C159.4 65.3253 158.5 65.3253 157.6 65.3253C156.7 65.3253 155.8 65.3253 154.9 65.3253C154.7 65.3253 154.5 65.1253 154.6 64.9253C154.7 64.9253 154.8 64.7253 154.9 64.7253ZM158.5 67.9253C158.4 68.1253 158.2 68.2253 157.9 68.1253C157.7 68.1253 157.5 68.1253 157.3 67.9253C157.3 67.8253 157.3 67.7253 157.3 67.7253C157.4 67.5253 157.6 67.4253 157.9 67.4253C158.1 67.4253 158.3 67.4253 158.5 67.6253C158.5 67.7253 158.5 67.8253 158.5 67.9253ZM153.3 73.1253C153.3 72.9253 153.8 72.8253 154.1 72.8253C154.3 72.8253 154.5 73.0253 154.6 73.2253C154.7 73.4253 154.7 73.5253 154.6 73.5253C153.5 73.5253 153.2 73.3253 153.3 73.1253ZM154.2 73.5253H154.5C154.5 73.6253 154.4 73.6253 154.2 73.5253ZM163.3 75.3253C163.2 75.5253 163 75.6253 162.7 75.5253C162.5 75.5253 162.3 75.5253 162.1 75.3253C162.1 75.2253 162.1 75.1253 162.1 75.1253C162.2 74.9253 162.4 74.8253 162.7 74.8253C162.9 74.8253 163.1 74.8253 163.3 75.0253C163.3 75.2253 163.3 75.3253 163.3 75.3253ZM161.9 73.5253C161.4 73.7253 161.4 73.8253 161.4 73.8253C161.3 74.0253 161.1 74.1253 160.9 74.1253C159 74.1253 157.1 74.1253 155.2 74.1253C155 74.1253 154.8 74.0253 154.7 73.8253C154.7 73.7253 154.7 73.6253 154.7 73.5253H155.7C155.9 73.3253 156 73.2253 156.2 73.0253C156.3 72.9253 156.4 72.8253 156.4 72.8253C157.3 72.8253 158.2 72.8253 159.1 72.8253C159.4 72.8253 159.8 72.8253 160.1 72.8253C160.5 72.7253 160.7 73.0253 160.9 73.3253C161.1 73.5253 161.2 73.6253 161.5 73.5253C161.5 73.5253 161.5 73.5253 161.6 73.5253C161.5 73.5253 161.5 73.4253 161.6 73.2253C161.7 73.0253 161.9 72.9253 162.1 72.9253C162.2 72.9253 162.3 72.9253 162.4 72.9253H164.1C163.6 73.1253 163.2 73.2253 162.9 73.3253C164.8 72.9253 165.3 72.9253 165.8 72.9253C166.2 72.9253 166.4 73.0253 166.4 73.5253C166.4 73.7253 166.4 73.9253 166.2 74.1253C166 74.3253 165.9 74.3253 165.7 74.0253C165.5 73.7253 165.3 73.6253 164.9 73.6253C163.7 73.5253 162.8 73.5253 161.9 73.5253ZM164.9 75.8253C165 75.6253 165.2 75.5253 165.5 75.6253C165.6 75.6253 165.7 75.6253 165.8 75.6253C166 75.7253 166.1 75.9253 166.1 76.0253C166 76.1253 166 76.2253 165.9 76.2253C165.8 76.2253 165.7 76.2253 165.6 76.2253C165 76.3253 164.7 76.0253 164.9 75.8253ZM166.7 78.7253C166.6 78.9253 166.4 79.0253 166.1 78.9253C165.9 78.9253 165.7 78.9253 165.5 78.7253C165.5 78.6253 165.5 78.5253 165.5 78.5253C165.6 78.3253 165.8 78.2253 166.1 78.2253C166.3 78.2253 166.5 78.2253 166.7 78.4253C166.7 78.6253 166.7 78.7253 166.7 78.7253ZM169.2 74.1253C169.1 74.1253 169 74.2253 168.9 74.2253C168.7 74.2253 168.5 74.2253 168.2 74.2253C168.1 74.2253 168 74.2253 167.9 74.2253C167.7 74.2253 167.4 74.1253 167.4 73.8253C167.4 73.5253 167.2 73.1253 167.6 72.9253C167.9 72.7253 168.3 72.7253 168.5 72.9253C168.7 73.1253 168.9 73.4253 169.2 73.6253C169.5 73.8253 169.5 74.0253 169.2 74.1253ZM172.2 20.5253C171.9 20.5253 171.5 20.6253 171.2 20.5253C170.9 20.4253 170.9 20.2253 171 20.1253C171.1 20.0253 171.2 19.9253 171.2 19.9253C171.5 19.9253 171.9 19.9253 172.2 19.9253C172.5 19.8253 172.6 19.9253 172.8 20.1253C172.9 20.3253 172.6 20.5253 172.2 20.5253ZM177.8 47.9253C177.9 47.7253 178.1 47.6253 178.4 47.6253C178.6 47.6253 178.8 47.6253 179 47.8253C179 47.9253 179 48.0253 179 48.0253C178.9 48.2253 178.7 48.3253 178.4 48.2253C178.2 48.2253 178 48.2253 177.8 48.0253C177.8 48.1253 177.7 48.0253 177.8 47.9253ZM178.9 54.3253C178.8 54.4253 178.8 54.5253 178.7 54.5253C178.6 54.5253 178.5 54.5253 178.4 54.5253C178 54.5253 177.7 54.3253 177.8 54.1253C177.9 53.9253 178.1 53.8253 178.4 53.9253C178.5 53.9253 178.6 53.9253 178.7 53.9253C178.9 53.9253 179 54.1253 178.9 54.3253ZM188.2 15.1253H190.5C191.1 15.1253 191.6 15.1253 192.2 15.1253C192.9 15.1253 192.9 15.1253 193.1 15.3253C193.3 15.5253 193.4 15.6253 193.6 15.8253C194.2 15.8253 194.7 15.8253 195.3 15.8253C195.8 15.8253 196.1 16.1253 196 16.7253C196 16.8253 195.9 16.9253 195.9 17.0253C195.7 17.3253 195.6 17.3253 195.4 17.0253C195.2 16.7253 195 16.5253 194.6 16.6253C193.5 16.6253 192.4 16.6253 191.3 16.6253C190.9 16.6253 190.7 16.3253 190.5 16.1253C190.3 15.9253 190.2 15.9253 189.9 15.9253C189.3 15.9253 188.8 15.9253 188.2 15.9253C188.1 15.9253 188 15.8253 188 15.7253C187.9 15.4253 188 15.2253 188.2 15.1253ZM188.2 18.5253C188.4 18.5253 188.7 18.6253 188.9 18.5253C189.1 18.4253 189.2 18.2253 189.4 18.0253C189.5 17.9253 189.6 17.8253 189.7 17.8253C190.6 17.8253 191.5 17.8253 192.4 17.8253C192.8 18.3253 193.2 18.5253 193.8 18.5253C194.2 18.4253 194.7 18.4253 195.1 18.6253C195.2 18.6253 195.3 18.7253 195.3 18.8253C195.3 18.9253 195.2 19.0253 195.1 19.0253C195 19.1253 194.9 19.1253 194.8 19.1253C193.7 19.1253 192.5 19.1253 191.4 19.1253C189.6 18.8253 188.5 18.7253 187.8 18.5253C187.8 18.5253 188 18.4253 188.2 18.5253ZM182.5 54.7253C182.5 54.6253 182.6 54.5253 182.7 54.5253C183.4 54.5253 184 54.5253 184.7 54.5253C184.9 54.6253 185 54.8253 185 54.9253C185 55.0253 184.9 55.1253 184.8 55.1253C184.5 55.1253 184.1 55.1253 183.8 55.1253C183.5 55.1253 183.1 55.1253 182.8 55.1253C182.5 55.1253 182.5 54.9253 182.5 54.7253ZM185.1 75.1253C185.1 75.3253 184.9 75.5253 184.7 75.5253C184 75.4253 183.7 75.8253 183.8 76.5253C183.7 76.7253 183.5 76.9253 183.4 76.8253C183.3 76.8253 183.2 76.7253 183.2 76.6253C183.2 76.4253 183.2 76.2253 183.2 75.9253C183.2 75.1253 183.2 75.1253 182.9 74.9253C182.6 74.7253 182.5 74.5253 182.5 74.1253C182.5 74.0253 182.5 73.9253 182.6 73.8253C182.6 73.7253 182.7 73.6253 182.8 73.6253C183 73.6253 183.1 73.7253 183.2 73.9253C183.2 74.0253 183.2 74.1253 183.2 74.2253V74.8253C183.3 74.8253 183.4 74.8253 183.5 74.8253C184.3 74.8253 184.3 74.8253 184.4 74.6253C184.5 74.4253 184.5 74.2253 184.5 74.0253C184.5 73.8253 184.7 73.6253 184.9 73.5253C185.1 73.6253 185.2 73.8253 185.2 74.1253C185.1 74.5253 185.2 74.8253 185.1 75.1253ZM185.5 68.8253C185.4 68.7253 185.3 68.7253 185.3 68.6253C185.1 68.3253 185.1 68.0253 185.3 67.7253C185.4 67.6253 185.5 67.5253 185.5 67.5253C185.7 67.5253 185.9 68.0253 185.8 68.3253C185.8 68.5253 185.7 68.6253 185.5 68.8253ZM187.5 18.5253C187.4 18.5253 187.4 18.5253 187.3 18.5253C186.6 18.3253 186.5 18.2253 186.5 18.1253C186.5 17.9253 187 17.8253 187.3 17.8253C187.5 17.8253 187.7 18.0253 187.8 18.2253C188 18.5253 187.9 18.6253 187.5 18.5253ZM188.4 19.2253C188.2 19.2253 188 19.1253 187.9 18.9253C187.9 18.8253 187.8 18.7253 187.8 18.7253C190.3 19.2253 189.3 19.2253 188.4 19.2253ZM190 75.1253C190 75.0253 190.1 74.9253 190.2 74.9253C190.6 74.9253 191.1 74.8253 191.5 74.9253C191.8 74.9253 191.8 75.2253 191.8 75.3253C191.8 75.4253 191.7 75.5253 191.6 75.5253C191.4 75.5253 191.2 75.5253 190.9 75.5253C190.6 75.5253 190.4 75.6253 190.2 75.5253C190 75.5253 189.9 75.3253 190 75.1253ZM190 71.7253C190.1 71.5253 190.3 71.4253 190.6 71.5253C190.7 71.5253 190.8 71.5253 190.9 71.5253C191.1 71.6253 191.2 71.8253 191.2 71.9253C191.1 72.0253 191.1 72.1253 191 72.1253C190.9 72.1253 190.8 72.1253 190.7 72.1253C190.2 72.2253 189.9 72.0253 190 71.7253ZM191.7 82.9253C191.5 83.0253 191.3 83.0253 191.1 83.0253C191 83.0253 190.9 82.9253 190.8 82.9253C190.5 82.8253 190.5 82.6253 190.8 82.4253C191.1 82.2253 191.3 81.9253 191.5 81.7253H191.7C191.8 81.8253 191.9 81.9253 191.9 81.9253C191.9 82.4253 192.1 82.7253 191.7 82.9253ZM194.6 82.7253C194.6 82.8253 194.5 82.9253 194.4 82.9253C194.2 83.0253 194.1 82.8253 193.5 82.2253C193.3 82.0253 193.3 81.9253 193.6 81.7253C193.7 81.7253 193.8 81.6253 193.9 81.6253C194.4 81.5253 194.7 81.8253 194.7 82.3253C194.7 82.5253 194.7 82.6253 194.6 82.7253ZM194.6 46.6253C194.5 46.8253 194.3 46.9253 194.2 47.1253C193.6 47.7253 193.6 47.7253 192.7 47.7253C192.4 47.7253 192.1 47.6253 191.9 47.3253C191.8 47.1253 191.6 47.0253 191.4 46.8253C191.1 46.5253 191.1 46.0253 191.5 45.6253C191.7 45.4253 191.8 45.3253 192 45.1253C192.2 44.9253 192.3 44.8253 192.6 44.8253C192.9 44.8253 193 44.8253 193.2 45.1253C193.4 45.4253 193.5 45.4253 194.4 45.6253C194.6 45.7253 194.8 46.4253 194.6 46.6253ZM192 26.9253C192.1 26.7253 192.3 26.6253 192.6 26.7253C192.7 26.7253 192.8 26.7253 192.9 26.7253C193.1 26.8253 193.2 27.0253 193.2 27.1253C193.1 27.2253 193.1 27.3253 193 27.3253C192.9 27.3253 192.8 27.3253 192.7 27.3253C192.2 27.3253 191.9 27.1253 192 26.9253ZM193.3 41.3253C193.6 41.0253 193.9 40.7253 194.2 40.4253C194.2 40.4253 194.3 40.4253 194.4 40.4253C194.5 40.5253 194.6 40.5253 194.6 40.6253C194.6 40.8253 194.6 41.0253 194.6 41.2253C194.4 41.4253 194.1 41.7253 193.9 41.9253C193.7 42.1253 193.6 42.2253 193.4 42.1253C193.3 42.0253 193.2 42.0253 193.2 41.9253C193.3 41.7253 193.3 41.5253 193.3 41.3253ZM195.3 28.0253C195 28.0253 194.6 28.1253 194.3 28.0253C194 27.9253 194 27.7253 194.1 27.6253C194.2 27.5253 194.3 27.4253 194.3 27.4253C194.6 27.4253 195 27.4253 195.3 27.4253C195.6 27.3253 195.7 27.4253 195.9 27.6253C196 27.8253 195.7 28.0253 195.3 28.0253ZM197.9 22.3253C197.9 22.4253 197.7 22.5253 197.7 22.5253C197.1 22.5253 196.6 22.5253 196 22.5253C195.6 22.5253 195.4 22.2253 195.2 22.0253C195.1 21.9253 195 21.8253 195 21.8253C194.7 21.8253 194.3 21.8253 194 21.8253H189C188.8 21.7253 188.7 21.5253 188.7 21.4253C188.7 21.3253 188.9 21.2253 188.9 21.2253C190 21.2253 191.1 21.2253 192.3 21.2253C193.4 21.2253 194.5 21.2253 195.7 21.2253C195.8 21.2253 195.9 21.3253 196 21.4253C196.2 21.6253 196.4 21.9253 196.8 21.9253C197.1 21.9253 197.5 21.8253 197.8 21.9253C197.9 21.9253 198 22.2253 197.9 22.3253ZM202.7 60.4253C202.6 60.6253 202.4 60.7253 202.1 60.6253C201.9 60.6253 201.7 60.6253 201.5 60.4253C201.5 60.3253 201.5 60.2253 201.5 60.2253C201.6 60.0253 201.8 59.9253 202.1 59.9253C202.3 59.9253 202.5 59.9253 202.7 60.1253C202.7 60.2253 202.7 60.3253 202.7 60.4253ZM204.3 56.1253C204.4 55.9253 204.6 55.8253 204.9 55.9253C205 55.9253 205.1 55.9253 205.2 55.9253C205.4 56.0253 205.5 56.2253 205.5 56.3253C205.4 56.4253 205.4 56.5253 205.3 56.5253C205.2 56.5253 205.1 56.5253 205 56.5253C204.4 56.5253 204.2 56.3253 204.3 56.1253ZM206.1 59.7253C206 59.9253 205.8 60.0253 205.5 59.9253C205.3 59.9253 205.1 59.9253 204.9 59.7253C204.9 59.6253 204.9 59.5253 204.9 59.5253C205 59.3253 205.2 59.2253 205.5 59.2253C205.7 59.2253 205.9 59.2253 206.1 59.4253C206.1 59.5253 206.1 59.6253 206.1 59.7253ZM206.6 57.2253C206.3 57.2253 206.2 56.9253 206.3 56.8253C206.3 56.7253 206.5 56.6253 206.5 56.6253C207.4 56.6253 208.3 56.6253 209.2 56.6253C209.4 56.7253 209.5 56.9253 209.5 57.0253C209.5 57.1253 209.4 57.2253 209.3 57.2253C208.9 57.2253 208.4 57.2253 208 57.2253C207.5 57.2253 207 57.3253 206.6 57.2253ZM211.5 59.0253C211.4 59.1253 211.3 59.2253 211.3 59.2253C210.7 59.2253 210.2 59.2253 209.6 59.2253H207.9C207.7 59.1253 207.6 58.9253 207.7 58.7253C207.8 58.6253 207.9 58.5253 207.9 58.5253C209 58.5253 210.1 58.5253 211.3 58.5253C211.5 58.7253 211.6 58.9253 211.5 59.0253ZM217 49.5253C216.9 49.6253 216.9 49.7253 216.8 49.7253C216.7 49.7253 216.6 49.7253 216.5 49.7253C216.1 49.7253 215.8 49.5253 215.9 49.3253C216 49.1253 216.2 49.0253 216.5 49.1253C216.6 49.1253 216.7 49.1253 216.8 49.1253C217 49.2253 217 49.4253 217 49.5253ZM216.5 15.1253C215.4 15.1253 214.2 15.1253 213.1 15.1253C212.7 15.1253 212.4 15.3253 212.3 15.5253C212 16.0253 211.4 15.6253 211.1 16.0253C210.9 16.2253 210.7 16.6253 210.3 16.5253C210.1 16.5253 209.9 16.5253 209.6 16.5253C209.3 16.5253 209.1 16.5253 208.9 16.5253C208.6 16.5253 208.4 16.5253 208.3 16.3253C208.2 16.1253 208.3 16.0253 208.6 15.8253C208.8 15.6253 209 15.3253 209.3 15.2253C209.5 15.4253 209.6 15.5253 209.8 15.7253C209.9 15.7253 210 15.8253 210 15.7253C210.3 15.4253 210.7 15.1253 211 14.7253C211.2 14.5253 211.3 14.4253 211.6 14.4253C213.3 14.4253 215 14.4253 216.7 14.4253C216.9 14.4253 217.1 14.6253 217.1 14.8253C216.9 15.0253 216.7 15.1253 216.5 15.1253ZM219.7 14.2253C219.7 14.3253 219.6 14.4253 219.5 14.4253C219.3 14.4253 219.1 14.4253 218.8 14.4253C218.6 14.4253 218.3 14.5253 218.1 14.4253C217.8 14.3253 217.8 14.1253 217.8 14.0253C217.8 13.9253 217.9 13.8253 218 13.8253C218.4 13.8253 218.9 13.7253 219.3 13.8253C219.7 13.8253 219.8 14.0253 219.7 14.2253ZM221.5 49.7253C221.3 49.6253 221.2 49.4253 221.3 49.2253C221.4 49.1253 221.4 49.0253 221.5 49.0253C221.7 49.0253 221.9 49.0253 222.2 49.0253C222.5 49.0253 222.7 48.9253 222.9 49.0253C223.2 49.1253 223.2 49.3253 223.1 49.4253C223 49.5253 222.9 49.6253 222.9 49.6253C222.4 49.8253 222 49.7253 221.5 49.7253ZM224.4 74.0253C224.4 74.1253 224.3 74.2253 224.2 74.2253C224 74.2253 223.8 74.2253 223.5 74.2253C223.3 74.2253 223 74.3253 222.8 74.2253C222.5 74.1253 222.5 73.9253 222.5 73.8253C222.5 73.7253 222.6 73.6253 222.7 73.6253C223.1 73.6253 223.6 73.5253 224 73.6253C224.4 73.6253 224.5 73.8253 224.4 74.0253ZM229.1 22.5253C228.5 22.7253 227.8 22.6253 227.1 22.6253C226.6 22.6253 226 22.7253 225.5 22.5253C225.4 22.5253 225.3 22.3253 225.3 22.3253C225.3 22.2253 225.4 22.1253 225.5 22.1253C225.6 22.0253 225.7 22.0253 225.8 22.0253C226.4 22.0253 226.9 22.0253 227.5 22.0253C228 22.1253 228.5 21.9253 229.1 22.1253C229.2 22.1253 229.3 22.3253 229.3 22.3253C229.3 22.3253 229.2 22.4253 229.1 22.5253ZM231.6 53.1253C231.5 53.1253 231.4 53.1253 231.3 53.1253C230.8 53.1253 230.9 53.1253 230.7 53.4253C230.5 53.7253 230.3 53.8253 229.9 53.8253C229.8 53.8253 229.7 53.8253 229.6 53.7253C229.5 53.7253 229.4 53.6253 229.4 53.5253C229.4 53.3253 229.5 53.2253 229.7 53.1253C229.8 53.1253 229.9 53.1253 230 53.1253C230.5 53.1253 230.4 53.1253 230.6 52.8253C230.8 52.5253 231 52.4253 231.4 52.4253C231.5 52.4253 231.6 52.4253 231.7 52.5253C231.8 52.5253 231.9 52.6253 231.9 52.7253C232 52.9253 231.8 53.1253 231.6 53.1253ZM232 42.3253C231.9 42.3253 231.8 42.3253 231.7 42.3253C231.6 42.3253 231.5 42.2253 231.5 42.1253C231.4 41.9253 231.5 41.8253 231.8 41.7253C231.9 41.7253 232 41.7253 232.1 41.7253C232.4 41.6253 232.5 41.7253 232.7 41.9253C232.7 42.1253 232.4 42.3253 232 42.3253ZM161.4 73.5253C161.5 73.5253 161.6 73.5253 161.7 73.5253C161.8 73.5253 161.8 73.5253 161.9 73.5253C162.1 73.4253 162.3 73.3253 162.7 73.2253C162.3 73.3253 161.9 73.4253 161.4 73.5253ZM57.0999 18.5253C56.9999 18.6253 56.6999 18.7253 56.2999 18.9253C56.5999 18.8253 56.9999 18.8253 57.3999 18.6253C57.3999 18.5253 57.2999 18.4253 57.0999 18.5253Z"/>
</svg>
