<svg width="105" height="116" viewBox="0 0 105 116" fill="none" xmlns="http://www.w3.org/2000/svg">
<path d="M22.2661 31.8664C22.7043 31.4472 23.1017 31.2612 23.4585 31.3084C23.8152 31.3556 24.0167 31.677 24.0629 32.2725C24.0778 32.4639 24.0501 32.6586 23.9799 32.8567C23.9097 33.0547 23.8268 33.227 23.7311 33.3735C23.6355 33.52 23.4884 33.6919 23.2897 33.8892C23.0911 34.0865 22.9366 34.2322 22.8262 34.3264C22.7158 34.4206 22.5445 34.5569 22.3123 34.7354C22.0801 34.9139 21.9337 35.0269 21.8732 35.0744C21.4105 35.4527 20.9108 35.7697 20.3744 36.0253C19.9851 36.2481 19.2617 36.5076 18.2041 36.8036C17.1465 37.0997 16.3093 37.2717 15.6925 37.3196C15.182 37.3593 14.4559 37.2391 13.5141 36.9592C12.5722 36.6793 11.7654 36.4156 11.0936 36.1682C10.4217 35.9208 10.0883 35.829 10.0932 35.8928C10.0932 35.8928 10.0188 35.8986 9.86991 35.9101C9.72103 35.9217 9.55537 35.9239 9.37293 35.9166C9.19049 35.9094 8.93778 36.0307 8.61481 36.2804C8.29184 36.5302 7.96774 36.903 7.64249 37.399C7.16196 38.0997 6.75317 39.0355 6.41614 40.2064C6.07911 41.3773 5.83708 42.1183 5.69004 42.4293C5.51038 42.8712 5.33035 43.3773 5.14996 43.9477C4.96958 44.518 4.7879 45.0029 4.60493 45.4022C4.42197 45.8016 4.16621 46.228 3.83766 46.6815C3.54835 47.0891 3.3166 47.3424 3.14242 47.4416C2.96823 47.5407 2.66184 47.5217 2.22324 47.3845C1.69792 47.2328 1.29262 46.7667 1.00736 45.9865C0.722106 45.2062 0.630798 44.5125 0.733442 43.9054C0.790443 43.5372 1.00279 43.034 1.37047 42.3956C1.73815 41.7572 1.96443 41.2956 2.04931 41.0109C2.1505 40.6607 2.24912 40.1395 2.34516 39.4473C2.44119 38.7551 2.53165 38.2666 2.61653 37.9819C2.73073 37.5237 2.9581 36.8694 3.29864 36.0192C3.63917 35.1689 3.86819 34.536 3.9857 34.1203C4.15215 33.5082 4.24937 32.7625 4.27737 31.883C4.30538 31.0035 4.35795 30.1649 4.43509 29.3672C4.51224 28.5695 4.70765 27.8483 5.02134 27.2034C5.05727 27.115 5.11158 26.9877 5.18427 26.8216C5.25697 26.6555 5.32516 26.5004 5.38887 26.3564C5.45258 26.2123 5.53059 26.0458 5.6229 25.8568C5.71521 25.6677 5.80385 25.5003 5.88883 25.3547C5.9738 25.209 6.06818 25.0465 6.17195 24.8673C6.27572 24.688 6.38114 24.5301 6.48821 24.3934C6.59528 24.2567 6.70808 24.1249 6.82662 23.998C6.94515 23.8711 7.07024 23.7598 7.20188 23.6639C7.33353 23.5681 7.46151 23.494 7.58582 23.4415C8.335 23.1694 8.89915 23.27 9.27827 23.7434C9.65739 24.2168 9.67947 24.7768 9.34451 25.4233C8.86253 26.3809 8.77858 26.8153 9.09266 26.7268C9.40344 26.5956 9.89234 26.1404 10.5593 25.3611C11.3441 24.4443 12.0913 23.7336 12.801 23.2292C13.5108 22.7247 14.3482 22.3494 15.3134 22.1033C16.236 21.8605 16.7162 21.7055 16.7537 21.6384C16.8372 21.6105 16.9264 21.6571 17.0214 21.7781C17.1163 21.8991 17.2155 22.0733 17.3187 22.3007C17.4007 22.5297 17.4851 22.7906 17.5721 23.0834C17.6394 23.3991 17.7067 23.7149 17.774 24.0306C17.8413 24.3463 17.8865 24.6531 17.9096 24.9509C18.1179 27.909 17.842 29.8669 17.0819 30.8246C16.6127 31.3959 16.2588 31.937 16.0203 32.4476C15.9501 32.6457 15.859 32.7811 15.747 32.854C15.6349 32.9269 15.5413 32.9609 15.466 32.9561C15.3908 32.9512 15.2803 32.9758 15.1347 33.0299C14.9892 33.084 14.8698 33.2003 14.7767 33.3787C14.5037 33.7209 14.197 33.9052 13.8567 33.9316C13.5819 33.9743 13.2367 34.1455 12.8214 34.4453C12.406 34.745 12.2049 34.9799 12.2181 35.1501C12.2231 35.2139 12.3413 35.2903 12.5729 35.3793C12.8045 35.4683 13.0835 35.5483 13.41 35.6192C13.7365 35.6902 14.0724 35.7443 14.4176 35.7817C14.7629 35.8191 15.0525 35.8287 15.2865 35.8105C15.648 35.7825 16.0799 35.6954 16.5821 35.5494C16.767 35.4495 16.9939 35.3409 17.263 35.2238C17.532 35.1066 17.7802 34.9964 18.0076 34.8931C18.235 34.7899 18.4198 34.6899 18.5621 34.5933C20.1337 33.6154 21.3684 32.7064 22.2661 31.8664ZM9.55996 31.5049C9.63388 31.9057 9.83417 32.2807 10.1608 32.6298C10.4875 32.9789 10.7891 33.1427 11.0656 33.1212C11.5548 33.0832 12.2756 32.5833 13.228 31.6213C14.1804 30.6594 14.7611 29.8707 14.97 29.2554C15.1937 28.5533 15.2901 27.7969 15.2592 26.9862C15.2284 26.1754 15.0672 25.546 14.7756 25.0979C14.4857 24.6711 14.2213 24.5044 13.9825 24.5978C13.7437 24.6913 13.2311 25.1858 12.4448 26.0813C11.6927 26.8672 11.0139 27.84 10.4086 28.9997C9.80319 30.1594 9.52032 30.9945 9.55996 31.5049ZM52.9657 30.927C53.3827 30.5095 53.7584 30.3198 54.0931 30.358C54.4277 30.3962 54.6288 30.7123 54.6963 31.3061C54.7095 31.4763 54.681 31.6604 54.6108 31.8584C54.5406 32.0565 54.4572 32.2234 54.3608 32.3593C54.2644 32.4952 54.1217 32.656 53.9329 32.8419C53.744 33.0277 53.5997 33.1673 53.5 33.2606C53.4002 33.354 53.2392 33.4842 53.0168 33.6512C52.7944 33.8183 52.6529 33.9255 52.5924 33.973C52.1296 34.3513 51.6513 34.6666 51.1573 34.919C51.0952 34.9452 50.993 35.0066 50.8507 35.1032C50.3423 35.7205 49.8722 36.1421 49.4404 36.3682C49.0511 36.591 48.517 36.7395 47.838 36.8136C47.1527 37.0808 46.6733 37.1073 46.3999 36.8932C46.3344 36.8769 46.098 36.8631 45.6906 36.852C45.2831 36.8408 45.0103 36.8406 44.8721 36.8513C44.7338 36.8621 44.5105 36.8794 44.2021 36.9033C43.8937 36.9273 43.6352 36.9741 43.4266 37.0438C43.2181 37.1135 43.0116 37.2098 42.8071 37.3326C42.5635 37.5013 42.2289 37.6022 41.8035 37.6352C41.3978 37.6453 40.6893 37.6148 39.6781 37.5435C38.9696 37.5129 38.3691 37.4953 37.8766 37.4908C37.7686 37.4778 37.6512 37.4815 37.5244 37.5021C37.3976 37.5226 37.2589 37.528 37.1084 37.5183C36.9579 37.5086 36.849 37.485 36.7819 37.4474C36.5364 37.3167 36.2161 36.7745 35.8211 35.8209C35.7458 35.677 35.6654 35.4692 35.5802 35.1977C35.3757 35.3205 35.2531 35.3943 35.2122 35.4188C35.1517 35.4663 35.0707 35.5261 34.9693 35.5982C34.5198 36.1466 34.1004 36.5322 33.7111 36.755C33.3611 36.932 32.8891 37.0542 32.2953 37.1218C31.672 37.3627 31.2352 37.3859 30.9847 37.1914C30.9209 37.1964 30.7119 37.1912 30.3576 37.1759C30.0034 37.1606 29.7625 37.1579 29.6348 37.1678C29.5072 37.1778 29.3105 37.193 29.0446 37.2137C28.7788 37.2343 28.5522 37.2787 28.3649 37.3467C28.1776 37.4147 27.9915 37.4987 27.8067 37.5987C27.5843 37.7657 27.2915 37.8526 26.9283 37.8594C26.5667 37.8875 25.9335 37.8618 25.0286 37.7823C24.4052 37.7451 23.8685 37.7226 23.4185 37.7147C23.3122 37.723 23.2058 37.7312 23.0995 37.7395C22.9931 37.7477 22.8757 37.7515 22.7473 37.7508C22.6189 37.7501 22.5211 37.7309 22.454 37.6933C22.2314 37.5822 21.9365 37.0916 21.5694 36.2214C21.3825 35.7437 21.2471 35.2407 21.1633 34.7123C21.1255 34.5012 21.1115 34.3205 21.1212 34.1699C21.1716 33.7167 21.299 33.4286 21.5035 33.3057C21.564 33.2582 21.6936 33.2054 21.8923 33.1472C22.0911 33.0889 22.2297 33.014 22.3082 32.9223C22.4684 32.7815 22.5902 32.558 22.6734 32.252C22.755 31.9247 22.7932 31.5901 22.788 31.2481C22.7878 30.97 22.8049 30.7761 22.8391 30.6664C22.8947 30.5551 23.0239 30.4274 23.2266 30.2833C23.4294 30.1391 23.5406 30.0556 23.5603 30.0327C23.7597 29.846 23.9207 29.5767 24.0432 29.2249C24.1167 29.0694 24.2366 28.5465 24.4028 27.6563C24.5185 26.9412 24.6235 26.227 24.7179 25.5135C24.7893 24.7804 24.8282 24.1783 24.8344 23.7071C24.8303 22.5519 24.9001 21.8671 25.044 21.6527C25.1878 21.4382 25.4728 21.3198 25.899 21.2974C26.3253 21.275 26.7061 21.3578 27.0417 21.5457C27.1988 21.6405 27.3442 21.7897 27.4776 21.9933C27.6111 22.1969 27.7111 22.3817 27.7775 22.5478C27.8439 22.7138 27.9307 22.9371 28.0381 23.2176C28.1455 23.4981 28.2139 23.6907 28.2435 23.7954C28.6614 24.7687 28.977 25.6642 29.1903 26.4822C29.2805 26.8175 29.3823 27.3018 29.4957 27.9349C29.609 28.568 29.7338 29.1414 29.87 29.6551C30.0061 30.1688 30.1652 30.6325 30.3471 31.0463C30.7093 31.8527 30.8726 32.5782 30.8371 33.2229C30.8259 33.6304 30.8286 34.0099 30.8452 34.3617C30.8619 34.7135 30.9958 34.992 31.2471 35.1971C31.4984 35.4023 31.8564 35.4654 32.321 35.3866C32.6384 35.3405 32.9602 35.2139 33.2865 35.0067C33.6128 34.7995 33.8503 34.6205 33.9991 34.4699C34.1479 34.3193 34.3907 34.0704 34.7275 33.7233C34.8256 33.6087 35.0447 33.3991 35.3848 33.0945C35.4713 32.831 35.5759 32.6624 35.6985 32.5887C35.7787 32.5183 35.9243 32.4642 36.1353 32.4264C36.4967 32.1202 36.7272 31.9204 36.827 31.827C36.8253 31.8058 36.8449 31.7829 36.8858 31.7583C36.9071 31.7566 36.9169 31.7452 36.9153 31.7239C36.9708 31.6126 37.0059 31.5136 37.0206 31.4269C37.1201 31.0554 37.1665 30.688 37.1597 30.3248C37.1562 30.0041 37.1822 29.7881 37.2377 29.6768C37.2916 29.5442 37.4302 29.3997 37.6534 29.2433C37.8767 29.0869 37.9981 28.9972 38.0177 28.9743C38.2564 28.7418 38.4468 28.4381 38.5889 28.0634C38.6608 27.8866 38.7872 27.3097 38.9681 26.3328C39.1213 25.5506 39.2418 24.7602 39.3296 23.9617C39.4174 23.1632 39.4717 22.4849 39.4926 21.927C39.4786 20.6442 39.5533 19.8842 39.7167 19.6468C39.8802 19.4094 40.2016 19.2775 40.681 19.251C41.1604 19.2244 41.5908 19.3247 41.9721 19.5519C42.1522 19.6663 42.3147 19.8302 42.4597 20.0436C42.6046 20.2571 42.7164 20.457 42.7951 20.6435C42.8738 20.8299 42.9738 21.0843 43.0951 21.4065C43.2164 21.7288 43.291 21.9316 43.3189 22.015C43.7892 23.1126 44.1344 24.1129 44.3543 25.0159C44.4691 25.3921 44.5914 25.9336 44.7211 26.6404C44.8509 27.3471 44.9908 27.9782 45.141 28.5335C45.2911 29.0889 45.4702 29.6046 45.6783 30.0806C46.0897 30.9687 46.2702 31.7785 46.22 32.5099C46.1892 32.9403 46.1891 33.3522 46.2197 33.7457C46.2502 34.1392 46.4079 34.4479 46.6928 34.6718C46.9777 34.8958 47.3737 34.9667 47.8808 34.8845C48.2408 34.8352 48.6043 34.6946 48.9715 34.4628C49.3386 34.231 49.6068 34.0337 49.776 33.8707C49.9453 33.7078 50.2179 33.4299 50.5939 33.0369C50.8899 32.7144 51.3391 32.2997 51.9417 31.7929C52.5443 31.286 52.8856 30.9974 52.9657 30.927ZM27.0191 34.4823C27.8125 34.2281 28.2588 33.7762 28.3582 33.1265C28.4575 32.4769 28.2187 31.4684 27.6418 30.1009C27.0894 28.7744 26.7601 28.1152 26.6537 28.1235C26.5261 28.1334 26.4298 28.4083 26.3647 28.9483C26.2947 29.4245 26.1935 29.7747 26.0611 29.999C25.852 30.3362 25.553 31.0334 25.1644 32.0907C24.7757 33.1479 24.6183 33.7379 24.692 33.8606C24.787 33.9816 24.9785 34.1058 25.2665 34.2332C25.5546 34.3606 25.8611 34.4492 26.1859 34.4988C26.5107 34.5485 26.7884 34.543 27.0191 34.4823ZM41.9285 33.8703C42.8282 33.6078 43.3301 33.1141 43.4343 32.3892C43.5385 31.6643 43.2743 30.5347 42.6416 29.0004C42.0155 27.5512 41.6387 26.8316 41.5111 26.8415C41.3622 26.853 41.2675 27.1492 41.227 27.7301C41.1407 28.2718 41.0215 28.6662 40.8695 28.9133C40.6424 29.2947 40.3067 30.0697 39.8625 31.2383C39.397 32.4085 39.2118 33.0541 39.3068 33.1751C39.4247 33.3157 39.6444 33.4592 39.9661 33.6054C40.2877 33.7516 40.6326 33.8532 41.0008 33.9102C41.3689 33.9672 41.6782 33.9539 41.9285 33.8703ZM68.8829 29.017C69.3457 28.6387 69.7517 28.4949 70.1011 28.5854C70.4505 28.676 70.6271 29.0207 70.6308 29.6195C70.6211 29.7701 70.5852 29.928 70.5231 30.0933C70.4611 30.2586 70.3712 30.41 70.2535 30.5475C70.1358 30.6851 70.0226 30.8115 69.9138 30.927C69.8051 31.0424 69.6596 31.166 69.4772 31.2979C69.2949 31.4297 69.1424 31.5325 69.0197 31.6062C68.8971 31.6799 68.7388 31.7778 68.545 31.8998C68.3512 32.0219 68.2241 32.1066 68.1636 32.1541C67.6533 32.4719 67.1177 32.7382 66.5566 32.9529C66.537 32.9759 66.2892 33.1609 65.8133 33.5081C65.3375 33.8554 64.7949 34.2398 64.1858 34.6616C63.5766 35.0834 63.0749 35.3737 62.6807 35.5327C62.1425 35.7671 61.5798 35.9606 60.9925 36.1132C60.4053 36.2657 59.7832 36.3836 59.1263 36.4667C58.4694 36.5498 57.8313 36.5298 57.2119 36.4067C56.5925 36.2836 56.0676 36.0676 55.637 35.7587C55.1132 35.35 54.6669 34.7695 54.2982 34.0171C53.9295 33.2647 53.6622 32.4403 53.4963 31.5438C53.3304 30.6472 53.2169 29.8055 53.1558 29.0185C53.0947 28.2316 53.068 27.474 53.0756 26.7459C53.0886 26.6379 53.1403 25.7192 53.2307 23.9896C53.3211 22.2601 53.4033 20.5633 53.4774 18.8993L53.5885 16.4032C53.3217 16.2741 52.8349 16.2049 52.1281 16.1956C51.701 16.2074 51.265 16.2412 50.82 16.2972C49.7778 16.3781 49.0415 16.4032 48.6112 16.3724C48.5245 16.3577 48.4013 16.3566 48.2418 16.369C48.0823 16.3814 47.9228 16.3938 47.7633 16.4061C47.6037 16.4185 47.4442 16.4309 47.2847 16.4433C47.1252 16.4557 46.9963 16.4496 46.8981 16.4252C46.7999 16.4007 46.7377 16.3574 46.7115 16.2952C46.6425 15.9582 46.7618 15.7029 47.0693 15.5292C47.0889 15.5063 47.2254 15.4048 47.4789 15.2246C47.7324 15.0444 47.9969 14.8688 48.2725 14.6976C48.5481 14.5264 48.9259 14.3633 49.406 14.2084C49.8862 14.0534 50.3823 13.9667 50.8944 13.9484C52.5011 13.9734 53.4992 13.9441 53.8886 13.8603C54.2779 13.7766 54.6483 13.5178 54.9998 13.084C55.5328 12.5076 56.1903 11.0551 56.9724 8.72619C57.0083 8.63781 57.0622 8.50524 57.134 8.32848C57.4296 7.44963 57.6753 6.75652 57.8713 6.24916C58.0673 5.7418 58.3486 5.09408 58.7154 4.30599C59.0822 3.5179 59.5009 2.8488 59.9718 2.2987C60.4426 1.7486 60.9438 1.31383 61.4753 0.994392C63.1959 0.00489481 64.0933 -0.0112948 64.1676 0.945823C64.2106 1.49883 63.8924 2.77529 63.2132 4.7752C63.0205 5.3251 62.8826 5.75306 62.7994 6.05909C62.7015 6.45185 62.6306 6.9174 62.5868 7.45574C62.5431 7.99407 62.3823 8.5415 62.1045 9.098C61.6634 10.0309 61.2967 10.819 61.0043 11.4623C60.6563 12.2168 60.5404 12.6538 60.6567 12.7731C60.7763 12.935 61.8652 13.043 63.9236 13.0972C65.3602 13.1354 66.2368 13.1957 66.5535 13.2781C66.8702 13.3605 67.0188 13.5523 66.9994 13.8533C66.9882 14.2608 66.7674 14.4491 66.3371 14.4183C66.1653 14.4103 65.8242 14.426 65.3137 14.4657C64.8049 14.5266 64.2331 14.6031 63.5983 14.6952C62.9635 14.7872 62.3091 14.9022 61.6351 15.0402C60.9824 15.1764 60.4343 15.2832 59.991 15.3604C59.7603 15.4211 59.5048 16.1257 59.2243 17.4741C58.9439 18.8225 58.6481 20.4557 58.3369 22.3735C58.0258 24.2913 57.7887 25.5776 57.6255 26.2322C56.7935 29.5706 57.1051 31.7931 58.5605 32.8998C59.2202 33.4049 59.8152 33.6262 60.3452 33.5636C60.6643 33.5388 61.0061 33.3946 61.3708 33.1309C61.428 33.0409 61.6361 32.8963 61.9951 32.6973C62.3541 32.4982 62.725 32.3143 63.1077 32.1455C63.4905 31.9767 63.8835 31.8018 64.2867 31.6207C64.6898 31.4396 64.9021 31.3482 64.9233 31.3466C66.572 30.5338 67.8919 29.7573 68.8829 29.017ZM72.3795 30.9923C72.1357 30.8828 72.0666 30.4067 72.1724 29.564C72.2781 28.7213 72.5223 28.146 72.9049 27.8381C73.2614 27.4681 73.8188 27.275 74.5771 27.259C75.3355 27.2429 76.0461 27.3696 76.7089 27.6391C77.3964 27.9494 77.7811 28.2191 77.863 28.4481C77.945 28.6772 77.8489 29.2303 77.5746 30.1075C77.2399 31.0321 76.8759 31.6488 76.4826 31.9575C76.0893 32.2662 75.4337 32.4348 74.5158 32.4633C73.4703 32.5017 72.9302 32.2976 72.8956 31.8509C72.8609 31.4043 72.6889 31.118 72.3795 30.9923ZM28.3136 83.2966C28.7502 82.8561 29.1468 82.6595 29.5035 82.7067C29.8603 82.7539 30.0617 83.0752 30.108 83.6708C30.1212 83.8409 30.1074 84.0078 30.0666 84.1715C30.0258 84.3351 29.958 84.4955 29.8633 84.6527C29.7685 84.8098 29.6671 84.9514 29.5592 85.0775C29.4513 85.2035 29.3119 85.3374 29.1411 85.479C28.9702 85.6207 28.8349 85.7382 28.7351 85.8315C28.6354 85.9249 28.4948 86.0428 28.3132 86.1852C28.1317 86.3277 28.0107 86.4227 27.9502 86.4702C27.929 86.4719 27.8979 86.485 27.857 86.5095C27.8161 86.5341 27.7965 86.557 27.7981 86.5783C27.7376 86.6258 27.6571 86.6909 27.5565 86.7736C27.456 86.8563 27.3852 86.9099 27.3443 86.9345C26.6608 87.5011 26.0394 87.9024 25.48 88.1384C24.9172 88.3319 24.2138 88.5042 23.3696 88.6554C21.2183 89.0578 19.5631 88.6835 18.4038 87.5324C17.2445 86.3814 16.3144 84.1855 15.6134 80.9447C15.4049 79.9124 15.2262 79.402 15.0773 79.4136C14.9497 79.4235 14.2409 80.0777 12.9509 81.3761C12.22 82.1603 11.701 82.7784 11.3937 83.2302C11.2368 83.4136 11.1052 83.6484 10.9991 83.9349C10.8929 84.2213 10.7909 84.5608 10.693 84.9536C10.5951 85.3464 10.5192 85.609 10.4653 85.7416C10.4131 85.8954 10.2915 86.2579 10.1004 86.8291L9.71354 88.0467C9.64332 88.2447 9.61451 88.5626 9.62709 89.0003C9.63968 89.4379 9.58676 89.7898 9.46833 90.0557C9.34989 90.3217 9.10173 90.5014 8.72384 90.595C7.98767 90.7591 7.32399 90.479 6.7328 89.7546C6.35616 89.3131 6.14812 88.9762 6.10869 88.7439C6.06925 88.5116 6.15238 88.0665 6.35806 87.4086C6.41196 87.276 6.45523 87.1442 6.48786 87.0133C6.52214 86.9037 6.57599 86.7016 6.6494 86.407C6.72282 86.1124 6.77177 85.9161 6.79624 85.8179C6.82071 85.7197 6.86599 85.545 6.93207 85.2938C6.99816 85.0426 7.05283 84.8511 7.0961 84.7194C7.13936 84.5876 7.19528 84.4121 7.26384 84.1928C7.3324 83.9735 7.39812 83.7865 7.461 83.6318C7.52389 83.4772 7.59575 83.3004 7.6766 83.1016C7.75745 82.9027 7.84361 82.7034 7.9351 82.5038C8.28306 81.7492 8.49986 80.6144 8.58549 79.0992C8.67112 77.584 8.73758 76.7176 8.78487 76.5C9.02919 74.9618 9.57409 72.7476 10.4196 69.8575C10.5697 69.3109 10.7307 68.4906 10.9025 67.3967C11.0743 66.3028 11.252 65.2833 11.4353 64.3383C11.6187 63.3932 11.8639 62.4167 12.1707 61.4085C12.4776 60.4004 12.929 59.5309 13.5249 58.7999C14.1207 58.0689 14.8358 57.564 15.6701 57.2853C16.38 57.059 16.9731 57.0504 17.4494 57.2595C17.9257 57.4685 18.2679 57.8111 18.476 58.2871C18.6842 58.763 18.8196 59.3356 18.8822 60.0048C18.9449 60.6739 18.9596 61.2773 18.9265 61.8148C18.8933 62.3523 18.8319 62.8706 18.7423 63.3697C18.5694 64.1748 18.2682 65.1183 17.8387 66.2002C17.4075 67.2607 17.1135 68.0218 16.9568 68.4833C16.7234 69.3359 16.3739 70.2082 15.9082 71.1003C15.6811 71.4817 15.3502 72.1119 14.9156 72.9908C14.481 73.8698 14.1191 74.513 13.8298 74.9207C13.4293 75.5509 12.9856 76.1738 12.4984 76.7893C12.4396 76.8581 12.3214 76.9903 12.1441 77.186C11.9667 77.3816 11.815 77.5646 11.6892 77.7348C11.5633 77.9051 11.4849 78.0663 11.4539 78.2185C11.4376 78.2839 11.4593 78.3572 11.5191 78.4381C11.5789 78.519 11.6399 78.5464 11.702 78.5202C11.7446 78.5169 11.7961 78.4915 11.8566 78.444C12.0168 78.3032 12.2343 78.0723 12.5089 77.7514C12.7836 77.4305 13.0472 77.1747 13.2999 76.9839C13.5525 76.7931 13.8261 76.6649 14.1206 76.5992C14.2891 76.5647 14.4576 76.5302 14.6261 76.4957C15.5324 76.3184 16.2781 76.3461 16.8632 76.5788C17.4483 76.8115 17.9604 77.2746 18.3994 77.9681C18.7975 78.6861 19.0337 79.5236 19.108 80.4807C19.1741 81.3315 19.3899 82.3204 19.7556 83.4475C20.1 84.5762 20.4541 85.4153 20.8177 85.9648C21.0355 86.2903 21.2639 86.4758 21.5028 86.5215C21.7418 86.5671 22.2195 86.5193 22.936 86.3781C23.7998 86.204 24.5 85.9892 25.0365 85.7336C26.4233 84.8556 27.5157 84.0432 28.3136 83.2966ZM14.4213 64.7644C14.3854 64.8528 14.331 64.98 14.2584 65.1462C14.1857 65.3123 14.1228 65.4669 14.0697 65.6102C14.0166 65.7534 13.9631 65.8912 13.9093 66.0238C13.5173 67.0385 13.2244 68.0884 13.0304 69.1733C12.9555 69.5857 12.8596 70.005 12.743 70.4313C12.6263 70.8576 12.4786 71.3666 12.2998 71.9582C12.1211 72.5498 11.9974 72.9553 11.9289 73.1746C11.8277 73.5248 11.8663 73.7465 12.0447 73.8396C12.1347 73.8968 12.2484 73.8452 12.3857 73.6847C12.6996 73.318 12.9574 72.9182 13.1592 72.4853C13.361 72.0524 13.552 71.5507 13.7324 70.9804C13.9128 70.41 14.0659 69.9702 14.1917 69.6609C14.7209 68.4857 15.1322 67.0308 15.4255 65.2963C15.4598 65.1866 15.5296 64.9833 15.6349 64.6862C15.7402 64.3892 15.8267 64.1257 15.8945 63.8957C15.9622 63.6658 16.0013 63.4114 16.0117 63.1324C16.0222 62.8534 15.9496 62.6771 15.7941 62.6036C15.6353 62.4876 15.4595 62.5654 15.2666 62.8372C15.1097 63.0205 14.9169 63.4314 14.6883 64.0696C14.6197 64.2889 14.5307 64.5205 14.4213 64.7644ZM47.0247 80.5919C47.3569 80.7373 47.5453 81.0972 47.5899 81.6714C47.6624 82.3291 47.3381 82.9748 46.617 83.6086C46.3553 83.8214 46.0511 84.0376 45.7044 84.2571C45.6423 84.2834 45.5711 84.3317 45.491 84.4021C45.2065 84.5954 44.9587 84.7109 44.7476 84.7487C44.1128 84.8408 43.4762 84.6334 42.8377 84.1267C42.6789 84.0106 42.5021 83.7997 42.3071 83.4939L42.199 83.3418C41.9828 83.0376 41.7864 82.8496 41.6096 82.7777C41.4328 82.7058 41.2218 82.7436 40.9765 82.8911C40.6707 83.086 40.3495 83.6352 40.0131 84.5386C39.8564 85.0001 39.7208 85.3209 39.6064 85.5009C39.2485 86.1279 38.924 86.4954 38.6329 86.6036C38.2649 86.8248 37.7669 87.163 37.1389 87.6183C36.3687 88.1703 35.6236 88.4956 34.9038 88.5943C34.0792 88.7225 33.469 88.8555 33.0732 88.9932C32.9685 89.0227 32.8629 89.0416 32.7566 89.0499C32.5226 89.068 32.3173 89.0412 32.1405 88.9693C31.877 88.8828 31.4825 88.6246 30.957 88.1946C30.3873 87.7467 29.9922 87.3441 29.7719 86.9867C29.5516 86.6294 29.3094 85.9902 29.0453 85.0692C28.6074 83.5626 28.4375 82.3401 28.5359 81.4017C28.6342 80.4632 29.0183 79.3475 29.6882 78.0544C30.5444 76.4045 31.3812 75.1948 32.1988 74.4252C33.0163 73.6556 34.0516 73.0723 35.3046 72.6755C35.9115 72.5 36.4366 72.2345 36.8797 71.8792C37.5862 71.3322 38.2315 71.1002 38.8157 71.1832C39.3769 71.2466 40.0488 71.6331 40.8315 72.3426C41.2473 72.7383 41.5503 73.0571 41.7402 73.2991C41.9302 73.5412 42.0662 73.7767 42.1482 74.0057C42.2301 74.2347 42.2885 74.5725 42.3231 75.0192C42.4701 76.9122 42.6479 78.3748 42.8564 79.4071C42.9681 80.0189 43.1484 80.481 43.3974 80.7933C43.6463 81.1057 44.0654 81.4743 44.6548 81.8993L44.7455 81.8281C45.1085 81.5431 45.3693 81.3196 45.5279 81.1575C46.128 80.6188 46.6269 80.4302 47.0247 80.5919ZM39.2287 75.6767C39.1643 74.8472 39.0438 74.3965 38.867 74.3247C38.8278 74.3705 38.7894 74.427 38.7518 74.4941C38.6603 74.6938 38.7048 75.129 38.8852 75.7997C39.0083 76.2823 39.1173 76.5841 39.2123 76.7051C39.2629 76.53 39.2684 76.1872 39.2287 75.6767ZM38.685 80.6618C38.7321 80.166 38.6942 79.8158 38.5714 79.6114C38.4698 79.4053 38.1783 79.0963 37.697 78.6843C36.9422 78.0582 36.5475 77.5218 36.5129 77.0751C36.4897 76.7774 36.3668 76.4339 36.144 76.0446C35.9212 75.6554 35.7091 75.4044 35.5078 75.2916C35.3506 75.1968 35.2189 75.1536 35.1125 75.1618C35.0275 75.1684 34.9547 75.1955 34.8942 75.243C34.6897 75.3658 34.2843 75.7932 33.6778 76.525C33.1481 77.1438 32.668 77.9193 32.2375 78.8514C31.8071 79.7836 31.5054 80.6522 31.3326 81.4573C31.1564 82.2199 31.156 82.7656 31.3313 83.0943C31.5262 83.4002 31.664 83.9351 31.7448 84.6991C31.8532 85.2685 31.9713 85.6872 32.0991 85.9555C32.2236 86.1812 32.3955 86.3283 32.6148 86.3969C32.857 86.4851 33.244 86.5085 33.7757 86.4672C34.031 86.4474 34.2428 86.4203 34.4113 86.3858C34.5815 86.3726 34.7393 86.3389 34.8849 86.2848C35.0305 86.2307 35.1646 86.1668 35.2873 86.0931C35.4296 85.9964 35.571 85.8892 35.7117 85.7713C35.8523 85.6534 36.0223 85.5011 36.2218 85.3144C36.9805 84.6136 37.3982 84.0676 37.4748 83.6765C37.571 83.2625 37.7932 82.8173 38.1414 82.3409C38.4536 81.9529 38.6348 81.3932 38.685 80.6618ZM66.7742 79.5078C65.9986 79.4396 65.3359 79.3092 64.786 79.1165C64.5667 79.048 64.1014 78.7738 63.3901 78.2941C62.6789 77.8144 62.1833 77.564 61.9035 77.543C61.5616 77.5481 61.252 77.6257 60.9747 77.7756C60.6975 77.9255 60.4612 78.1203 60.2659 78.3602C60.0705 78.6 59.8736 78.8881 59.675 79.2245C59.4765 79.5609 59.3143 79.8838 59.1885 80.1931C59.0628 80.5024 58.9227 80.8343 58.7683 81.1886C58.614 81.543 58.4706 81.8323 58.3382 82.0565C58.1487 82.3708 57.7068 82.8117 57.0126 83.3791C56.3185 83.9465 55.6374 84.4755 54.9694 84.966C54.3013 85.4566 53.9477 85.7247 53.9085 85.7706C53.6485 86.0047 53.1119 86.1908 52.2988 86.3289C51.4858 86.4669 50.6574 86.4777 49.8139 86.3613C48.9704 86.2449 48.4159 85.9938 48.1506 85.6078C48.031 85.4459 47.9179 85.1605 47.8113 84.7515C47.7046 84.3426 47.6209 83.9532 47.5601 83.5835C47.4993 83.2137 47.4278 82.7753 47.3456 82.2681C47.2635 81.761 47.2158 81.4223 47.2025 81.2522C46.994 80.2199 47.0253 79.3829 47.2965 78.7413C47.3896 78.5629 47.473 77.9145 47.5466 76.7961C47.6203 75.6778 47.7437 74.4432 47.917 73.0924C48.0903 71.7416 48.3419 70.711 48.6719 70.0006C49.43 68.4653 50.5729 68.4408 52.1005 69.927C52.4706 70.2834 52.6518 70.9648 52.6444 71.971C52.6582 72.9756 52.4798 73.9845 52.1091 74.9975C51.9001 75.6129 51.6504 76.531 51.36 77.7518C51.0468 78.953 50.8387 79.7181 50.7359 80.047C50.38 81.2515 50.4715 82.1538 51.0102 82.7539C51.1281 82.8945 51.3335 82.9214 51.6263 82.8344C51.9191 82.7475 52.234 82.6 52.5709 82.392C52.9078 82.1839 53.212 81.9678 53.4834 81.7434C53.7549 81.519 53.9486 81.3275 54.0647 81.1687C54.4733 80.6448 55.0158 79.5703 55.692 77.945C56.3682 76.3198 56.7445 75.1726 56.821 74.5033C56.9366 73.7882 57.2298 73.0861 57.7005 72.3969C58.1713 71.7077 58.7108 71.1469 59.3191 70.7145C59.9275 70.2821 60.5769 70.1033 61.2675 70.1781C61.958 70.2529 62.5457 70.6566 63.0305 71.3892C63.25 71.736 63.4775 72.3923 63.713 73.3583C63.9485 74.3243 64.2979 75.0354 64.7613 75.4916C65.2017 75.9281 65.658 76.2244 66.1302 76.3803C66.6023 76.5362 67.1771 76.636 67.8545 76.6797C68.532 76.7234 69.067 76.7942 69.4598 76.892C69.9197 77.0275 70.2991 77.2976 70.598 77.7024C70.8968 78.1071 70.9434 78.4994 70.7375 78.8791C70.4777 79.3914 69.8119 79.6357 68.7402 79.6119C67.8828 79.5929 67.2275 79.5582 66.7742 79.5078ZM83.4027 80.335C83.8409 79.9158 84.2383 79.7298 84.5951 79.777C84.9518 79.8242 85.1533 80.1456 85.1995 80.7411C85.2356 80.9309 85.2133 81.1252 85.1324 81.3241C85.0516 81.5229 84.9634 81.6956 84.8677 81.8421C84.7721 81.9886 84.6299 82.1548 84.4411 82.3406C84.2522 82.5265 84.0973 82.6669 83.9763 82.7619C83.8553 82.8569 83.6787 82.9936 83.4464 83.1721C83.2142 83.3506 83.0785 83.4628 83.0393 83.5087C82.5552 83.8886 82.0564 84.2162 81.5429 84.4915C81.502 84.516 81.4456 84.5472 81.3736 84.5848C81.3016 84.6225 81.2243 84.6606 81.1417 84.6991C81.0591 84.7376 80.9765 84.7762 80.8939 84.8147C80.8113 84.8532 80.7443 84.8851 80.6928 84.9105L80.6155 84.9486C79.3593 85.5811 77.9901 85.9977 76.5079 86.1984C74.9831 86.4023 73.8557 86.3508 73.1258 86.0437C73.0374 86.0078 72.6855 85.8853 72.0702 85.6763C71.4548 85.4673 71.0121 85.277 70.742 85.1054C70.228 84.8244 69.7064 84.1695 69.1772 83.1407C68.199 81.2908 67.653 79.6321 67.5391 78.1646C67.4697 77.2712 67.5384 76.0891 67.7451 74.618C67.7598 74.5312 67.783 74.3476 67.8147 74.0669C67.8464 73.7863 67.8781 73.5752 67.9099 73.4337C67.9417 73.2921 67.98 73.0965 68.0249 72.847C68.0697 72.5974 68.1174 72.3851 68.168 72.21C68.2186 72.0349 68.2794 71.8536 68.3504 71.6662C68.4215 71.4789 68.4937 71.3074 68.5673 71.1519C68.966 70.5004 69.2929 70.0257 69.548 69.7277C70.604 68.4475 72.0197 67.8026 73.7949 67.7931C75.6357 67.8 76.6717 68.3294 76.9032 69.3813C77.0952 70.2009 77.1138 71.0607 76.9591 71.9607C76.8043 72.8607 76.5843 73.6107 76.2992 74.2105C76.0142 74.8104 75.6147 75.5903 75.1008 76.5503C74.5869 77.5103 74.2213 78.2448 74.0041 78.7538C73.2053 80.5919 72.8191 81.681 72.8455 82.0213C72.867 82.2978 73.1634 82.6707 73.7348 83.1399C74.0999 83.4325 74.4178 83.6004 74.6887 83.6435C74.9595 83.6867 75.4409 83.6172 76.1329 83.4351C77.2273 83.2003 78.4084 82.8412 79.6761 82.3576C80.1521 82.1494 80.8423 81.807 81.7468 81.3302C82.6512 80.8534 83.2032 80.5217 83.4027 80.335ZM70.8481 79.031C71.0395 79.0161 71.5068 78.1453 72.25 76.4186C72.972 74.6936 73.3198 73.6609 73.2933 73.3206C73.2619 72.9164 73.0237 72.6728 72.5786 72.5897C72.1335 72.5066 71.7957 72.6344 71.5653 72.9733C71.3724 73.245 71.1894 73.6444 71.0164 74.1714C70.8433 74.6984 70.7136 75.2327 70.6273 75.7743C70.5622 76.3143 70.5061 76.8322 70.4591 77.328C70.412 77.8238 70.4225 78.2349 70.4906 78.5613C70.5588 78.8876 70.6779 79.0442 70.8481 79.031ZM103.066 77.2034C103.481 76.7646 103.867 76.5688 104.224 76.616C104.58 76.6632 104.792 76.9838 104.86 77.5777C104.873 77.7478 104.859 77.9147 104.819 78.0784C104.778 78.242 104.704 78.3975 104.598 78.5448C104.492 78.6922 104.385 78.8342 104.278 78.9709C104.171 79.1076 104.037 79.2463 103.877 79.3872C103.717 79.528 103.581 79.6455 103.471 79.7397C103.361 79.8338 103.214 79.9468 103.032 80.0787C102.85 80.2105 102.729 80.3108 102.67 80.3796C102.186 80.7595 101.687 81.0765 101.171 81.3305C101.13 81.355 101.069 81.3919 100.987 81.441C100.953 81.5507 100.875 81.6424 100.752 81.7161C100.629 81.7898 100.443 81.8685 100.193 81.9521C99.7248 82.2666 99.0165 82.5142 98.0676 82.6948C97.1188 82.8755 96.2488 82.9698 95.4577 82.9777C94.6666 82.9856 94.1491 82.9349 93.9052 82.8254C93.7039 82.7127 93.4706 82.4633 93.2052 82.0774C92.9399 81.6914 92.7065 81.303 92.5049 80.9121C92.3034 80.5212 92.1731 80.221 92.114 80.0117C91.9173 79.4064 91.8129 78.7512 91.8009 78.046C91.8086 77.3179 91.838 76.1815 91.8893 74.6369L91.8546 74.1903C91.8463 74.0839 91.8029 74.0071 91.7244 73.9597C91.6458 73.9123 91.5419 73.8829 91.4126 73.8715C91.285 73.8814 91.1148 73.8947 90.9021 73.9112C90.6469 73.931 90.3565 73.9107 90.0308 73.8504C89.7052 73.7901 89.3853 73.7347 89.0711 73.6842C88.7569 73.6337 88.4828 73.6176 88.2489 73.6357C88.2701 73.6341 88.2217 73.9749 88.1036 74.6581C87.9854 75.3413 87.8223 76.0654 87.6143 76.8305C87.4062 77.5955 87.2008 78.0501 86.998 78.1943C86.267 78.7004 85.4835 79.0822 84.6476 79.3396C83.5614 79.6808 83.8738 77.2279 85.5848 71.981C85.6174 71.8501 85.7031 71.576 85.8419 71.1586C85.9806 70.7413 86.0757 70.4504 86.1272 70.2859C86.1786 70.1215 86.2598 69.8584 86.3708 69.4967C86.4818 69.135 86.5605 68.8401 86.607 68.6118C86.6535 68.3835 86.7015 68.1069 86.7512 67.7821C86.8009 67.4573 86.8305 67.1501 86.8401 66.8605C86.8497 66.5709 86.843 66.2772 86.8199 65.9794C86.7934 65.6391 86.9644 65.016 87.3327 64.1101C87.701 63.2042 88.0053 62.6456 88.2457 62.4344C88.5712 62.2165 89.0284 62.1115 89.6174 62.1192C90.2065 62.127 90.6049 62.2298 90.8129 62.4276C91.0929 62.7268 91.1887 63.9605 91.1002 66.1285C91.0178 67.5471 91.0029 68.4577 91.0556 68.8601C91.1099 69.2839 91.2533 69.6151 91.4858 69.8538C91.7575 70.0467 91.9887 70.1304 92.1793 70.1049C92.3699 70.0794 92.7187 69.8865 93.2257 69.5261C93.9779 69.0184 94.5304 68.7615 94.883 68.7555C95.2356 68.7495 95.5789 68.969 95.913 69.4138C96.1734 69.7359 96.3037 70.0361 96.3039 70.3142C96.3041 70.5924 96.1859 71.1365 95.9492 71.9466C95.6113 73.1069 95.3284 74.4234 95.1004 75.8961C94.9344 77.0645 94.9207 77.9214 95.0593 78.467C95.198 79.0126 95.594 79.6345 96.2473 80.3327C96.5306 80.6744 96.7483 80.8608 96.9005 80.8918C96.966 80.9081 97.0764 80.8835 97.2318 80.8179C97.3872 80.7523 97.5524 80.6753 97.7274 80.5868C97.9024 80.4984 98.021 80.441 98.0832 80.4148C98.7293 80.1934 99.1546 80.0213 99.359 79.8985C100.931 78.9205 102.166 78.0222 103.066 77.2034ZM38.1134 108.646C38.5516 108.227 38.9491 108.041 39.3058 108.088C39.6625 108.135 39.8747 108.456 39.9422 109.05C39.957 109.241 39.9294 109.436 39.8591 109.634C39.7889 109.832 39.706 110.004 39.6104 110.151C39.5148 110.297 39.3672 110.464 39.1678 110.65C38.9683 110.837 38.8134 110.977 38.703 111.072C38.5926 111.166 38.4213 111.302 38.1891 111.481C37.9569 111.659 37.8105 111.772 37.75 111.82C37.1254 112.317 36.5244 112.846 35.9473 113.404C35.169 114.128 34.3431 114.652 33.4696 114.976C32.4505 115.355 31.6546 115.577 31.082 115.643C30.4881 115.711 29.7453 115.651 28.8534 115.463C28.0074 115.315 27.3208 115.085 26.7938 114.773C26.2667 114.461 25.8434 114.039 25.524 113.507C25.2045 112.976 25.0069 112.29 24.931 111.451C24.8551 110.612 24.8823 109.652 25.0124 108.572C25.1196 107.472 25.3371 106.14 25.6648 104.573C25.7627 104.181 25.7053 103.993 25.4926 104.009C24.9183 104.054 23.881 105.161 22.3805 107.332C20.88 109.503 19.7419 111.517 18.966 113.374C18.4237 114.658 17.9498 115.443 17.5442 115.732C17.1387 116.02 16.6502 115.929 16.0788 115.46C15.6008 115.091 15.358 114.719 15.3503 114.345C15.3427 113.971 15.5577 113.158 15.9953 111.904C16.3726 110.976 16.548 110.342 16.5216 110.002C16.4985 109.704 16.6739 109.07 17.0479 108.099C17.2631 107.013 17.315 106.441 17.2037 106.386C16.9698 106.404 16.5365 106.818 15.9038 107.626C15.2712 108.435 14.6182 109.395 13.9449 110.507C13.2716 111.618 12.7716 112.55 12.4449 113.303C11.9353 114.455 11.4474 115.199 10.9813 115.535C10.5152 115.871 10.0211 115.845 9.49887 115.458C8.99792 115.069 8.77625 114.556 8.83388 113.92C8.89151 113.285 9.23721 112.225 9.87099 110.743C10.049 110.279 10.2056 109.609 10.3408 108.732C10.4759 107.855 10.6252 107.228 10.7885 106.852C11.3732 105.287 12.0555 104.154 12.8354 103.451C13.0153 103.288 13.207 103.139 13.4106 103.005C13.6142 102.872 13.8265 102.781 14.0473 102.731C14.2682 102.682 14.4224 102.74 14.5101 102.904C14.5977 103.068 14.6147 103.356 14.561 103.767C14.4208 104.441 14.5184 104.733 14.8537 104.643C15.1073 104.602 15.3828 104.291 15.6801 103.712C16.1115 102.929 16.6387 102.279 17.2617 101.76C17.5038 101.57 17.7066 101.425 17.8701 101.327C18.0762 101.226 18.2103 101.162 18.2725 101.135C18.3739 101.063 18.5211 101.031 18.7142 101.037C18.9072 101.043 19.0471 101.054 19.1339 101.069C19.219 101.062 19.3924 101.091 19.6542 101.157C19.9374 101.22 20.1542 101.257 20.3047 101.266C20.9102 101.348 21.2211 101.495 21.2377 101.708C21.2835 101.747 21.3402 102.063 21.4077 102.657C21.4717 102.93 21.5406 103.128 21.6143 103.251C21.688 103.374 21.8202 103.422 22.0107 103.397C22.2013 103.371 22.4295 103.279 22.6953 103.119C22.9611 102.959 23.3564 102.677 23.8813 102.273C25.0947 101.365 26.1538 100.812 27.0584 100.614C27.7341 100.497 28.1607 100.48 28.3383 100.562C28.5159 100.645 28.7161 100.881 28.9389 101.27C29.2453 101.91 29.3637 102.746 29.2941 103.778C29.2245 104.811 29.0223 105.789 28.6876 106.714C28.289 107.644 28.1079 108.342 28.1442 108.81C28.174 109.193 28.1007 109.766 27.9246 110.528C27.7402 111.185 27.8236 111.777 28.175 112.306C28.5263 112.835 29.0366 113.138 29.7059 113.215C30.0937 113.249 30.591 113.178 31.1979 113.002C31.3648 112.947 32.3633 112.441 34.1935 111.486C34.1935 111.486 34.3812 111.354 34.7565 111.089C35.1318 110.825 35.5378 110.542 35.9744 110.24C36.4111 109.939 36.842 109.633 37.2672 109.322C37.6924 109.01 37.9745 108.785 38.1134 108.646ZM53.2934 108.751C53.7316 108.332 54.129 108.146 54.4858 108.193C54.8425 108.24 55.044 108.562 55.0902 109.157C55.1263 109.347 55.104 109.541 55.0231 109.74C54.9423 109.939 54.8541 110.112 54.7584 110.258C54.6628 110.405 54.5206 110.571 54.3318 110.757C54.1429 110.943 53.988 111.083 53.867 111.178C53.746 111.273 53.5694 111.41 53.3371 111.588C53.1049 111.767 52.9692 111.879 52.93 111.925C52.4459 112.305 51.9471 112.632 51.4336 112.908C51.3927 112.932 51.3362 112.963 51.2643 113.001C51.1923 113.039 51.115 113.077 51.0324 113.115C50.9498 113.154 50.8672 113.192 50.7846 113.231C50.702 113.269 50.635 113.301 50.5835 113.327L50.5062 113.365C49.25 113.997 47.8808 114.414 46.3986 114.615C44.8738 114.818 43.7464 114.767 43.0165 114.46C42.9281 114.424 42.5762 114.301 41.9609 114.092C41.3455 113.883 40.9028 113.693 40.6327 113.522C40.1187 113.241 39.5971 112.586 39.0679 111.557C38.0897 109.707 37.5437 108.048 37.4297 106.581C37.3604 105.687 37.4291 104.505 37.6358 103.034C37.6505 102.947 37.6737 102.764 37.7054 102.483C37.7371 102.202 37.7688 101.991 37.8006 101.85C37.8324 101.708 37.8707 101.513 37.9156 101.263C37.9604 101.014 38.0081 100.801 38.0587 100.626C38.1093 100.451 38.1701 100.27 38.2411 100.082C38.3122 99.895 38.3844 99.7236 38.458 99.5681C38.8567 98.9166 39.1836 98.4418 39.4386 98.1439C40.4947 96.8636 41.9104 96.2188 43.6856 96.2093C45.5264 96.2162 46.5624 96.7455 46.7939 97.7974C46.9859 98.617 47.0045 99.4768 46.8498 100.377C46.695 101.277 46.475 102.027 46.1899 102.627C45.9049 103.227 45.5054 104.006 44.9915 104.966C44.4776 105.926 44.112 106.661 43.8948 107.17C43.096 109.008 42.7098 110.097 42.7362 110.437C42.7577 110.714 43.0541 111.087 43.6255 111.556C43.9906 111.849 44.3085 112.017 44.5794 112.06C44.8502 112.103 45.3316 112.033 46.0236 111.851C47.118 111.616 48.2991 111.257 49.5668 110.774C50.0428 110.566 50.733 110.223 51.6374 109.746C52.5419 109.27 53.0939 108.938 53.2934 108.751ZM40.7388 107.447C40.9302 107.432 41.3975 106.561 42.1407 104.835C42.8627 103.11 43.2104 102.077 43.184 101.737C43.1526 101.333 42.9144 101.089 42.4693 101.006C42.0242 100.923 41.6864 101.051 41.456 101.389C41.2631 101.661 41.0801 102.061 40.9071 102.588C40.734 103.115 40.6043 103.649 40.518 104.19C40.4529 104.73 40.3968 105.248 40.3497 105.744C40.3027 106.24 40.3132 106.651 40.3813 106.977C40.4495 107.304 40.5686 107.46 40.7388 107.447Z" fill="#252627"/>
</svg>
