<svg width="451" height="457" viewBox="0 0 451 457" fill="currentColor" xmlns="http://www.w3.org/2000/svg">
<path d="M420.614 231.581C420.614 330.32 339.378 410.365 239.169 410.365C138.959 410.365 57.7236 330.32 57.7236 231.581C57.7236 132.841 138.959 52.7964 239.169 52.7964C339.378 52.7964 420.614 132.841 420.614 231.581Z"/>
<path d="M36.9852 87.3256C37.2728 85.3135 36.1224 84.1638 34.972 83.014C34.3967 82.4391 33.8215 81.8643 33.5339 82.1517C32.6711 82.4392 32.671 83.014 32.671 83.8763C32.671 84.4512 32.671 85.3135 32.671 85.8884C32.671 86.4633 32.671 87.3257 32.671 87.9005C32.3834 89.6252 33.5339 90.7749 34.972 90.4875C35.5472 90.4875 36.41 90.4875 36.9852 90.4875V89.3377C36.9852 88.7629 36.6976 87.9005 36.9852 87.3256ZM22.317 152.862C23.7551 153.724 25.1931 153.437 25.7684 151.712C26.3436 150.563 26.056 149.7 24.9055 149.125C23.4675 148.263 22.0294 148.551 21.4542 150.275C20.879 151.425 21.1666 152.287 22.317 152.862ZM35.2596 99.3982C33.8215 100.26 35.2596 102.273 33.8215 103.135C32.9587 103.71 32.0958 104.285 32.3834 105.722C32.6711 107.446 32.3834 109.171 32.3834 111.183V116.645C32.3834 116.932 32.3834 117.507 32.3834 117.794C32.3834 118.082 32.6711 118.369 32.9587 118.657C33.2463 118.657 33.5339 118.657 33.8215 118.657C34.6843 117.794 35.2596 117.219 36.1224 116.357C36.9852 115.495 36.41 114.345 36.9852 113.483C37.5605 112.62 38.4233 112.045 38.9985 111.183C38.7109 109.459 39.5738 108.596 40.7242 107.446C41.0118 107.159 41.0118 106.872 41.2994 106.584C41.2994 103.997 41.2994 101.698 41.2994 99.1107C41.2994 98.2484 41.587 97.9609 42.1623 97.386C43.0251 96.8112 43.6003 95.9489 43.3127 94.7991C43.3127 93.3619 43.3127 91.9247 43.3127 90.4875C43.3127 89.9126 43.0251 89.0503 42.1623 88.7628C41.587 88.4754 40.7242 88.4754 40.149 88.7628C39.5737 89.0503 38.9985 89.6251 38.7109 90.2C38.1357 90.7749 37.5605 91.0623 36.9852 91.0623V92.2122C36.9852 93.9368 36.9852 95.9489 36.9852 97.6735C36.9852 98.2484 36.1224 99.1107 35.2596 99.3982ZM85.0165 47.6588C85.0165 47.9463 85.3041 48.2337 85.5917 48.5211C86.1669 48.8085 86.4545 48.8085 87.0298 47.9462C87.3174 45.3592 87.3174 45.3593 88.4678 44.2095C89.6183 43.3472 89.043 42.1974 89.043 41.3351C89.043 40.7602 87.605 39.8979 86.4545 40.1853C85.3041 40.4728 84.7289 41.0476 84.7289 42.4848C84.7289 43.0597 84.7289 43.9221 84.7289 44.497C85.0165 45.6467 85.0165 46.5091 85.0165 47.6588ZM53.0915 131.591C53.9544 131.879 55.1048 132.166 55.9676 131.304C56.2553 131.017 56.5429 130.729 56.8305 130.442C57.6933 129.579 58.5561 129.005 59.1314 128.142C59.9942 126.993 61.1447 127.28 62.0075 127.567C63.1579 127.567 63.4456 127.567 63.158 126.418C62.8703 125.555 62.2951 125.268 61.4323 125.268C60.2818 125.268 59.1314 125.268 58.2685 125.268C57.4057 125.268 55.9676 125.268 55.1048 125.268C53.0915 125.268 52.5163 125.843 52.5163 127.567C52.5163 128.43 52.5163 129.005 52.5163 129.867C51.9411 130.729 52.2287 131.304 53.0915 131.591ZM8.51163 235.933C9.08685 236.795 9.37446 236.795 9.94969 236.507C10.5249 235.933 10.5249 235.358 10.5249 234.783C10.5249 233.92 10.2373 233.633 9.66208 233.058C8.51163 232.196 8.51163 231.908 8.22401 229.321C8.22401 229.034 7.64879 228.747 7.36118 228.459C6.78595 228.459 6.21073 228.746 5.92311 229.321C5.92311 229.609 5.92311 229.896 5.92311 230.471V233.633C7.07356 234.495 7.64879 235.07 8.51163 235.933ZM415.195 110.033C416.058 110.033 416.633 110.033 416.921 109.171C417.496 108.309 417.496 106.872 416.921 106.297C416.058 105.147 414.908 104.285 414.045 103.135C413.757 103.422 413.47 103.71 413.182 103.997C412.607 105.434 412.894 106.872 412.894 108.021C412.894 109.459 414.045 110.033 415.195 110.033ZM133.911 26.6756C135.061 27.2505 136.211 27.2505 136.787 26.6756C137.937 25.5258 139.375 24.0887 140.526 22.9389C141.676 21.7891 141.964 21.7891 140.526 20.6393C140.238 20.3519 139.95 20.0645 139.663 19.777C139.088 19.2021 138.512 18.9147 138.225 18.3398C137.937 18.6273 137.65 18.9147 137.362 19.2021C135.924 20.6393 134.198 22.364 132.76 23.8012C132.76 24.6635 132.76 25.2384 132.76 26.1008C133.048 26.3882 133.623 26.6756 133.911 26.6756ZM46.4764 140.502C47.3393 140.79 47.9145 139.927 47.9145 138.49C47.9145 138.203 47.9145 137.628 47.9145 137.34C47.9145 137.053 47.3393 136.765 47.0517 136.478C46.4764 136.191 45.9012 136.478 45.6136 137.34C45.6136 137.628 45.6136 137.915 45.6136 138.49C45.326 139.352 45.6136 139.927 46.4764 140.502ZM126.433 216.387C126.72 216.387 127.008 216.674 127.295 216.674C126.72 216.387 126.433 216.387 126.433 216.387ZM130.747 225.585C131.034 225.585 131.034 225.872 131.61 226.16C131.322 225.872 131.034 225.585 130.747 225.585C130.747 225.297 130.747 225.297 130.747 225.585ZM160.658 312.679C160.083 313.542 160.083 313.829 160.658 314.117C161.234 313.829 161.809 313.254 163.535 312.104C162.672 312.392 161.809 312.392 160.658 312.679ZM303.602 92.4995C303.027 92.787 302.451 93.3619 301.013 94.2242C301.588 94.2242 302.451 94.2242 303.889 93.9367C304.177 93.6493 304.177 93.0744 304.465 92.787C303.889 92.787 303.602 92.787 303.602 92.4995ZM54.8172 450.651C53.9544 450.938 52.8039 451.513 51.9411 452.088C51.6535 452.663 51.3658 453.525 51.0782 454.1C51.0782 454.962 51.6535 455.537 52.2287 455.825C52.8039 456.112 53.6667 456.4 54.242 456.4C54.5296 456.4 54.8172 456.112 55.1048 456.112C55.9676 455.825 57.1181 455.25 57.9809 454.963C57.4057 454.1 57.1181 452.95 56.5429 452.088C56.2553 450.076 56.2553 450.076 54.8172 450.651ZM8.51163 221.561C9.37446 221.561 9.94968 221.56 10.2373 220.698C10.5249 220.123 10.8125 219.548 10.5249 218.686C10.5249 218.399 10.2373 218.111 10.2373 217.824C9.94968 216.961 9.37446 216.961 8.51163 216.961C7.64879 216.961 7.07357 216.961 6.78595 217.824C6.21073 218.686 6.21073 219.548 6.78595 220.698C7.07357 221.56 7.64879 221.561 8.51163 221.561ZM67.4721 92.787C67.4721 91.6372 66.8969 90.7749 66.0341 90.2C64.8836 89.0503 63.4456 87.6131 62.2951 86.4633C61.7199 85.8885 61.1447 85.8884 60.2818 86.1759C59.9942 86.1759 59.7066 86.4633 59.419 86.4633C57.9809 87.9005 56.2553 89.3377 54.8172 91.0623C54.242 91.6372 54.242 93.3618 54.5296 93.9367C56.5429 96.8111 56.5429 96.8111 56.5429 99.6855C56.5429 99.973 56.5429 100.548 56.8305 100.548C57.4057 101.41 58.2685 101.985 59.1314 102.847C59.7066 103.422 60.2818 103.71 60.8571 103.71C61.7199 103.71 62.2951 103.422 62.8703 102.847C63.4456 101.985 64.0208 101.123 65.4588 101.41C66.0341 101.41 66.8969 101.41 67.4721 101.41V97.0986C67.4721 95.6614 67.4721 94.2242 67.4721 92.787ZM188.557 416.158C187.982 416.158 187.694 416.158 187.694 416.445C188.269 416.445 189.132 416.733 189.995 416.733C189.42 416.445 188.844 416.158 188.557 416.158ZM447.983 143.952C447.983 143.089 448.271 142.514 447.983 141.939C447.695 141.365 447.12 140.79 446.545 140.502C445.682 139.64 445.107 139.065 444.244 138.203C443.669 137.628 443.669 137.053 443.669 136.191C443.669 135.616 443.094 135.041 442.518 134.466C441.368 133.316 441.368 133.316 442.806 132.166C443.669 131.592 443.957 131.017 443.094 130.729C442.806 130.442 442.518 130.154 442.231 130.154C440.793 130.154 439.355 130.154 437.917 130.154C436.191 130.154 436.191 130.154 435.041 129.005C433.027 126.992 431.014 124.98 429.001 122.681C428.713 122.393 428.713 122.106 428.713 121.819C428.713 120.381 428.713 118.944 428.713 117.507C428.713 115.782 428.713 115.782 427.563 114.632C426.7 113.77 426.125 113.195 425.262 112.333C424.111 112.333 422.961 112.333 422.098 112.333C420.66 112.333 420.085 112.908 420.085 114.345C420.085 116.932 420.085 119.519 420.085 122.106C420.085 122.393 419.797 122.681 419.51 122.968C418.934 123.543 417.784 123.831 416.633 123.256C415.771 122.968 415.483 122.106 415.771 121.531C415.771 121.244 416.058 120.669 415.771 120.381C415.483 119.806 414.908 119.232 414.333 118.944C413.182 118.082 414.045 116.932 413.47 116.07C412.894 115.207 412.032 114.345 411.456 113.77C411.456 112.62 411.456 111.758 410.594 110.896C409.731 110.321 409.155 109.459 408.293 108.596C407.142 107.446 407.142 107.446 407.142 105.722C407.142 105.434 407.142 104.86 407.142 104.572C407.142 101.985 407.142 101.985 405.129 98.8232C404.554 97.9609 405.129 96.8112 404.266 95.9489C403.403 95.0865 402.828 94.5117 401.965 93.6494C400.24 91.9247 398.226 89.9125 396.501 88.1879C395.638 87.3256 394.775 86.7507 394.2 85.8884C393.624 84.7387 393.912 83.3015 392.762 82.1517C391.036 80.7145 389.598 78.9899 388.16 77.5527C387.297 76.6903 386.722 76.1154 385.859 75.2531C384.996 74.3907 385.571 73.241 384.996 72.3787C384.708 71.8038 383.846 71.2289 383.558 70.9415C382.695 69.7917 380.969 69.2169 380.969 67.7797C380.969 65.4802 379.244 64.9053 378.093 63.4681C376.655 61.7434 374.93 60.3062 373.492 58.869C372.629 58.0067 372.053 57.4318 372.053 55.9946C372.053 54.2699 370.04 53.9825 370.04 52.5453C370.04 52.2578 370.04 51.683 370.04 51.3955C370.04 51.1081 370.04 50.5332 369.753 50.5332C368.602 49.6709 367.739 48.5211 368.027 46.7964C367.164 45.3592 366.014 43.9221 364.288 43.0597C364 42.7723 363.425 43.0597 363.138 43.0597C361.699 42.7723 361.124 42.4848 361.412 41.0476C361.412 40.1853 361.412 39.6105 360.549 39.0356C360.261 38.7482 359.974 38.7481 359.686 38.7481C355.084 38.7481 350.195 38.7481 345.593 38.7481C345.305 38.7481 345.018 38.4607 344.73 38.4607C343.868 37.5984 343.292 37.0235 342.429 36.1612C340.704 34.4365 340.704 34.4365 338.69 34.4365C337.54 34.4365 336.39 34.4365 335.527 34.4365C334.089 34.1491 333.513 35.2988 332.938 35.8737C332.651 36.1612 332.363 36.4486 332.075 36.4486C331.5 36.4486 330.637 36.4486 329.774 36.4486C328.912 37.3109 328.049 37.8858 327.474 38.7481C326.323 38.7481 325.173 39.0355 324.597 37.8858C324.31 37.3109 323.447 36.736 322.872 36.736C322.584 36.736 322.009 36.736 321.721 36.736C320.571 36.736 319.996 35.5862 319.133 35.0114C318.27 34.4365 317.12 35.0114 316.257 34.1491C313.956 32.4244 313.956 32.4244 311.655 32.4244C311.367 32.4244 310.792 32.4244 310.504 32.4244C310.217 32.4244 309.929 32.137 309.642 31.8496C308.779 31.2747 308.491 30.1249 307.053 30.1249C303.314 30.1249 299.863 30.1249 296.124 30.1249H292.96C292.097 30.9872 291.522 31.5621 290.659 32.4244C288.646 32.4244 286.92 32.4244 284.907 32.4244V32.1369C284.619 31.5621 284.332 30.6998 284.044 30.1249C283.757 29.8375 283.469 29.8374 283.181 29.55C282.894 29.55 282.318 29.2625 282.318 29.2625C281.743 27.2504 279.73 25.5259 281.168 23.2263C281.168 22.364 280.88 21.7891 280.305 21.5017C279.155 20.9268 277.429 20.6393 276.279 19.4896C275.703 18.9147 275.703 18.0524 275.416 17.4775C275.128 17.1901 275.128 16.9026 274.553 16.6152C271.677 15.4654 269.088 14.3157 266.212 13.1659C264.774 12.591 264.774 12.591 263.048 13.1659C260.172 14.3157 257.296 15.4654 254.708 16.9026C254.708 14.6031 254.708 12.591 254.708 10.2915C254.708 9.42919 254.42 9.14173 253.845 8.56685C252.982 7.99196 252.407 7.12959 251.544 6.26727C250.681 6.26727 250.106 6.26727 249.243 6.26727C248.38 5.40494 247.805 4.8301 246.942 3.96778C245.792 2.81801 244.354 1.38084 243.203 0.231079C243.203 0.231079 242.628 0.231079 242.34 0.231079C240.039 1.95572 240.327 1.95565 238.601 1.95565C232.849 1.95565 226.809 1.95565 221.057 1.95565C220.769 1.95565 220.482 2.24313 220.194 2.53057C219.619 3.10545 219.331 3.68033 218.756 3.96778C218.181 4.25522 217.318 3.96779 216.743 4.25523C216.455 4.25523 216.168 4.54262 215.88 4.83006C215.017 5.40494 214.73 6.55471 213.292 6.26727C212.141 5.97983 210.991 6.26727 210.128 6.26727C209.265 7.12959 208.69 7.70452 207.827 8.56685C207.252 9.14173 206.676 9.71661 206.389 10.0041C205.526 10.8664 204.376 10.2915 203.513 10.8663C200.637 12.8784 200.637 12.8785 198.911 12.8785C197.185 12.8785 195.172 12.8785 193.446 12.8785C193.159 12.8785 192.871 13.1659 192.583 13.1659C189.707 14.8906 189.707 14.8905 187.982 14.8905C186.831 14.8905 185.681 14.8905 184.818 14.8905C184.53 14.8905 184.243 15.178 183.955 15.4654C183.38 16.0403 182.805 16.6152 182.517 16.9026C181.367 16.9026 180.216 17.1901 179.353 16.9026C178.49 16.9026 177.915 16.9026 177.34 17.4775C176.765 18.0524 176.477 18.6273 175.902 18.9147C175.327 19.2022 174.464 18.9147 173.601 18.9147C172.738 18.9147 172.163 18.6273 171.3 18.9147C170.725 19.2022 170.15 19.7771 169.862 20.3519C169.574 20.6394 169.287 20.9268 168.999 20.9268C167.274 20.9268 165.26 20.9268 163.535 20.9268C162.672 20.9268 162.384 20.6394 161.809 20.0645C160.658 18.6273 160.371 18.9147 159.22 18.6273C157.207 18.6273 155.769 18.6273 154.619 20.3519C154.331 20.6394 154.043 20.6393 153.756 20.6393C152.03 20.3519 151.167 21.5017 150.304 22.6514C149.729 23.2263 149.442 23.5138 149.154 24.0886C148.579 24.3761 148.004 24.6636 147.428 24.6636C146.565 24.951 146.278 25.2384 145.99 26.1008C145.415 27.538 145.127 28.9751 144.265 30.1249C143.977 30.9872 143.977 31.5621 144.265 32.1369C144.265 32.1369 144.265 32.4244 144.552 32.4244L144.265 32.7119C143.402 33.5742 142.539 34.149 141.964 35.0114C141.101 35.8737 139.95 35.2988 139.088 35.8737C138.225 36.4486 137.65 37.5983 136.499 37.8858C135.924 38.1732 135.061 37.8858 134.486 37.5984C133.911 37.3109 133.335 36.4486 133.048 36.1612C132.472 35.5863 131.034 35.5863 130.172 36.1612C129.884 36.4486 129.596 36.736 129.596 37.0235C129.596 37.5984 129.596 38.4607 129.596 39.0356C129.596 39.323 130.172 39.6104 130.459 39.8979C131.897 41.3351 131.897 41.335 130.747 42.1974C129.884 43.0597 129.309 43.6346 128.446 44.497C127.583 44.497 127.008 44.497 126.145 44.497C123.557 44.497 123.557 44.497 122.981 47.3714C122.694 47.9462 122.406 48.8086 121.831 48.8086C121.256 49.096 120.393 48.8086 119.818 48.8086C117.229 46.2216 114.641 43.6346 112.052 41.0476C111.477 40.4727 110.902 40.1853 110.326 40.1853C107.163 40.1853 103.711 40.1853 100.548 40.1853C99.9723 40.4728 99.3971 41.0477 99.3971 41.6225C99.3971 43.3472 99.3971 45.3593 99.3971 47.0839C99.3971 47.6588 99.1095 48.2337 98.2466 48.8086C97.3838 49.3834 97.0962 50.5332 97.0962 51.683C97.0962 52.8327 96.8086 53.9825 97.6714 54.8448C99.3971 56.8569 99.3971 56.8569 99.3971 58.5815C99.3971 60.3062 99.3971 62.3183 99.3971 64.0429C99.3971 65.1927 98.8219 66.055 97.959 66.6298C97.0962 67.4922 96.2333 68.9294 94.5077 68.642C94.2201 68.642 93.9325 68.9294 93.6448 68.9294C92.782 70.0792 91.6316 70.9415 89.9059 70.6541C89.3307 70.9415 88.7554 71.5164 88.1802 71.8038C87.3174 72.6662 86.4545 73.241 85.8793 74.1033C85.0165 75.2531 83.866 74.3908 83.0032 74.9657C81.8527 75.5406 81.2775 77.2652 79.5518 76.9777C78.689 76.9777 78.689 76.9778 76.1005 79.2773C75.2377 80.1396 74.6624 81.0019 73.7996 81.5768C73.2244 82.1517 72.9368 82.7266 72.9368 83.5889C72.9368 84.4513 73.2244 85.0261 73.7996 85.3135C74.6624 85.8884 75.2377 86.7508 75.2377 87.9005C75.2377 90.4875 75.2377 90.4874 73.512 92.787C73.2244 93.0744 73.2244 93.3619 72.9368 93.6494C72.9368 95.374 72.9368 97.3861 72.9368 99.1107C72.9368 99.6856 72.6492 100.548 71.7863 100.835C71.4987 101.123 71.2111 100.835 70.6359 100.835C70.9235 101.698 70.6359 102.273 69.773 102.847C68.9102 103.422 68.0474 104.285 68.335 105.434C68.6226 106.584 68.335 107.734 68.335 108.596C68.335 110.033 68.335 111.471 68.335 112.908C69.1978 113.77 70.0606 114.345 70.3483 115.207C70.3483 116.932 70.3483 118.944 70.3483 120.669C70.3483 121.531 70.0606 121.819 69.4854 122.393C68.6226 122.968 68.0474 123.831 68.335 125.268C68.335 125.843 68.0474 126.705 67.1845 126.992C66.8969 127.28 66.6093 126.992 66.0341 126.992C66.0341 129.867 66.0341 132.741 66.0341 135.616C66.0341 137.053 65.1712 137.628 64.3084 138.203C63.7332 138.778 63.4456 139.352 63.7332 140.215C63.7332 141.364 63.7332 142.227 63.7332 143.377C63.1579 143.951 62.5827 144.526 62.2951 144.814C62.0075 145.101 61.7199 145.389 61.7199 145.676C62.0075 147.976 60.2818 148.838 59.1314 149.988C58.5561 150.563 57.9809 150.85 57.1181 150.85C56.2553 150.85 55.68 150.563 55.3924 149.988C54.8172 149.125 53.9544 148.55 52.8039 148.55C51.3658 148.55 50.7906 147.976 50.7906 146.538C50.7906 145.389 50.7906 144.239 50.7906 143.377C50.7906 142.802 49.9278 142.227 49.3526 141.939C48.4897 141.652 47.9145 141.939 47.3393 142.227C46.1888 143.089 45.326 144.239 44.4632 145.389C44.1755 145.676 44.4632 145.964 44.4632 146.538C44.4632 147.976 45.0384 148.55 46.4764 148.55C48.2021 148.838 49.065 149.125 48.7773 149.988C48.4897 150.85 47.9145 150.85 47.0517 150.85C45.6136 150.85 44.7508 151.425 44.7508 152.287C44.7508 153.437 44.4632 154.299 43.6003 155.162C43.0251 155.737 42.4499 156.024 42.1623 156.599C41.587 157.174 41.0118 157.174 40.149 157.174C39.2861 157.174 38.7109 156.886 38.4233 156.311C38.1357 156.024 37.8481 155.737 37.5605 155.449C36.9852 154.874 35.8348 154.587 34.6843 155.162C33.8215 155.449 33.8215 156.311 33.8215 156.886C33.8215 158.324 33.8215 159.761 33.8215 161.198C33.8215 162.348 34.1091 163.21 35.5472 163.497C35.8348 163.497 36.41 163.497 36.6976 163.497C37.8481 163.785 38.4233 164.36 38.4233 165.797C38.4233 166.947 38.4233 168.096 38.4233 168.959L39.8614 170.396C41.2994 171.833 43.0251 173.558 44.4632 174.995C45.0384 175.57 44.7508 177.295 44.1755 177.869C43.8879 178.157 43.6003 178.444 43.3127 178.732C42.7375 179.307 42.4499 179.882 42.4499 180.456C42.4499 181.319 42.4499 181.894 43.0251 182.469C43.6003 183.331 44.7508 183.618 44.7508 185.055C44.7508 187.93 44.7508 190.804 44.7508 193.679C44.7508 195.116 45.6136 195.691 46.1888 196.266C46.4764 196.553 46.764 196.841 46.764 197.128C46.764 197.703 47.0517 198.565 46.764 199.14C46.4764 200.002 45.9012 200.29 45.0384 200.29C44.1755 200.29 43.6003 200.29 42.7375 200.29C41.2994 200.29 40.149 199.715 40.149 198.853C40.149 197.703 40.149 196.841 41.0118 195.978C42.4499 194.828 42.1623 194.829 41.2994 193.679C40.7242 193.104 40.149 192.816 39.8614 192.242C39.2861 191.379 38.9985 191.667 38.1357 192.529C37.5605 193.391 36.6976 193.966 35.8348 194.828C35.8348 195.978 35.8348 197.128 35.8348 197.99C35.8348 199.428 35.8348 200.865 35.8348 202.302C36.1224 203.739 34.972 204.314 34.3967 204.889C34.1091 205.176 33.8215 205.464 33.5339 205.751C32.3834 206.901 32.671 206.614 31.233 205.464C29.7949 204.314 28.9321 202.877 29.2197 200.865C29.2197 200.577 29.2197 200.002 29.2197 199.715C29.2197 198.565 28.3569 197.99 27.2064 197.99C26.3436 197.99 25.7684 197.99 24.9055 197.99C23.4675 198.278 23.1798 197.128 22.317 196.553C22.0294 196.266 21.7418 195.978 21.4542 195.978C20.5913 196.266 20.3037 196.841 20.3037 197.703C20.3037 198.565 20.3037 199.14 20.3037 200.002C20.3037 200.865 20.3037 201.44 20.879 202.015C21.4542 202.589 22.0294 202.302 22.317 201.44C22.6046 201.152 22.8922 200.865 23.1798 200.577C23.4675 200.577 23.7551 200.29 24.0427 200.577C24.3303 200.865 24.6179 201.152 24.9055 201.44C24.9055 202.877 24.9055 204.314 24.9055 205.751L22.6046 208.051C21.4542 209.201 20.0161 210.638 18.8657 211.787C18.5781 212.075 18.5781 212.362 18.5781 212.65C18.5781 215.812 18.5781 219.261 18.5781 222.423C18.5781 222.71 18.8657 222.998 18.8657 223.285C19.1533 223.573 19.4409 223.86 19.7285 224.147C21.1666 225.585 21.1666 227.022 19.4409 228.747C18.8657 229.321 18.5781 229.896 18.5781 230.471C18.5781 231.333 18.5781 231.908 19.1533 232.483C19.7285 233.346 20.879 233.633 20.879 235.07C20.5913 236.507 20.879 237.945 20.879 239.957V239.382C21.7418 239.094 22.317 239.382 22.8922 240.244C24.0427 241.681 25.4807 242.831 26.6312 243.981C27.7816 244.843 27.2064 245.993 27.494 246.855C27.494 248.005 27.2064 249.155 28.0693 249.73C28.6445 250.305 29.2197 250.592 29.5073 251.167C29.7949 251.742 29.5073 252.604 29.5073 253.466C29.5073 254.329 29.2197 254.904 29.5073 255.479C29.7949 256.053 30.3702 256.628 30.9454 256.916C32.0958 258.066 31.233 259.79 31.5206 260.94C31.5206 261.802 31.233 262.377 30.6578 262.665C30.3702 262.665 30.0825 262.377 29.7949 262.377C29.2197 261.802 28.9321 261.227 28.3569 260.94C27.494 260.078 27.2064 259.215 27.2064 258.066C27.2064 257.778 26.9188 257.491 26.9188 257.203C25.1931 254.904 24.9055 254.904 25.1931 252.604C25.1931 251.454 24.6179 250.592 23.7551 250.017C22.317 249.155 23.4675 247.143 22.317 246.28C21.4542 245.705 20.5913 245.131 20.5913 243.694C20.879 242.544 20.5913 241.394 20.5913 239.957C19.7285 239.382 19.1533 239.382 18.2904 239.382C17.4276 239.669 16.8524 239.382 16.2772 238.52C15.9895 237.945 15.4143 237.657 14.8391 237.082C14.2639 237.657 13.6886 238.232 13.401 238.52C12.8258 239.094 12.2506 239.094 11.3878 239.094C10.8125 239.094 10.2373 239.382 9.66208 239.957C9.08685 240.819 7.9364 241.106 6.78595 241.106C5.6355 241.106 5.06028 241.969 5.06028 243.406C5.06028 244.556 5.06028 245.706 5.06028 246.568C5.6355 247.143 6.21073 247.718 6.49834 248.005C7.64879 249.155 9.08685 250.592 10.5249 251.742C10.8125 252.029 11.3877 251.742 11.6754 251.742C12.5382 251.454 13.1134 251.742 13.6886 252.604C14.2639 253.466 15.1267 254.329 16.2772 254.041C17.4276 254.041 18.2904 254.041 19.4409 254.041C20.3037 254.904 20.879 255.478 21.7418 256.341C22.0294 256.628 22.317 256.916 22.6046 257.203C22.6046 257.491 22.6046 257.778 22.6046 258.353C22.6046 259.503 22.6046 260.652 22.6046 261.515C23.4675 262.377 24.0427 262.952 24.9055 263.814C25.4807 264.389 26.056 264.964 26.3436 265.252C27.2064 266.114 26.9188 267.264 26.6312 268.126C26.3436 268.988 25.7684 268.988 24.9055 268.988C24.0427 268.988 23.4675 268.988 22.6046 268.988C20.879 268.701 20.0161 269.85 20.3037 271.575C20.3037 273.3 20.3037 275.312 20.3037 277.037C20.3037 277.324 20.3037 277.899 20.3037 278.186C20.3037 278.761 20.0161 279.336 19.1533 279.911C18.8657 279.624 18.5781 279.336 18.2904 279.049C16.8524 277.612 16.8524 277.611 14.5515 277.611C13.401 277.611 12.5382 277.611 11.6754 278.474C8.51162 281.923 5.06028 285.085 1.60893 288.534C0.458481 289.684 0.458481 289.684 1.60893 290.834C2.47177 291.696 2.75938 292.558 2.47177 293.708C2.47177 295.145 2.47177 296.582 3.90983 297.445C4.77267 298.02 5.34789 299.17 6.21073 299.744C7.36118 300.607 6.78595 301.757 7.07357 302.619C8.22402 303.769 9.66207 305.206 10.8125 306.356C11.1001 306.643 11.3878 306.93 11.3878 307.218C11.1001 309.517 12.8258 310.38 13.9763 311.529C14.5515 312.104 15.1267 312.392 15.9895 312.104C16.2772 312.104 16.8524 312.104 17.14 312.104C18.8657 312.104 18.8657 312.104 20.879 313.829C21.1666 314.116 21.4542 314.404 21.7418 314.404C24.0427 314.116 24.9055 315.266 24.6179 317.566C25.4807 318.428 26.056 319.003 26.9188 319.865V324.177C26.9188 325.327 26.9188 326.476 26.9188 327.339C26.9188 328.201 27.2064 328.776 27.7816 329.351C29.2197 330.501 30.3702 331.938 31.5206 333.088C32.0958 333.662 32.6711 333.95 33.5339 333.95C35.8348 333.95 37.8481 333.95 40.149 333.95C41.0118 333.95 41.587 334.237 42.1623 334.812C43.6003 336.537 45.326 337.974 46.764 339.411C47.9145 340.561 47.9145 340.561 49.0649 339.411C49.9278 338.549 50.7906 338.262 51.9411 338.549C52.2287 338.549 52.5163 338.836 52.8039 339.124C53.6667 340.273 54.8172 341.136 56.5429 340.848C56.8305 341.136 57.1181 341.423 57.4057 341.711C57.4057 341.998 57.4057 342.286 57.1181 342.573C56.8305 342.86 56.5429 343.435 56.8305 343.723C57.1181 344.873 57.6933 345.735 57.9809 346.885C57.6933 347.747 57.1181 348.897 57.6933 350.047C58.2685 350.909 58.5561 352.059 59.1314 353.208C59.419 353.783 59.419 354.071 59.419 354.358C57.9809 354.358 56.5429 354.358 55.68 355.508C54.8172 356.658 53.6667 357.52 52.5163 358.67C51.3658 358.957 50.2154 358.382 49.6402 359.532C49.065 360.394 49.6402 361.544 48.7773 362.407C47.0517 364.706 47.0517 364.706 47.0517 366.143C47.0517 369.018 47.0517 371.892 47.0517 374.766C47.0517 375.054 46.7641 375.341 46.4764 375.629C45.9012 376.204 45.326 376.491 45.0384 377.066C44.7508 377.641 45.0384 378.503 45.0384 379.078C45.0384 379.94 45.326 380.515 45.0384 381.378C44.7508 381.952 44.1755 382.527 43.6003 382.815C42.1623 383.677 43.6003 385.689 42.1623 386.551C41.2994 387.126 40.4366 387.989 40.7242 389.139C40.7242 389.426 40.7242 390.001 40.7242 390.288C40.7242 396.612 40.7242 396.612 41.587 397.474C41.8746 397.762 42.1623 398.049 42.4499 398.337C42.7375 398.624 43.0251 398.912 43.0251 399.199C42.7375 400.924 43.8879 401.786 44.7508 402.936C45.0384 403.223 45.326 403.511 45.6136 403.798C46.1888 404.373 46.764 404.948 47.0517 405.235C47.6269 405.81 48.2021 406.385 48.4897 406.672C49.3526 407.247 49.9278 408.397 51.0782 408.684C51.9411 408.684 52.8039 408.685 53.0915 408.972C54.242 410.697 55.9676 410.984 57.6933 410.697C59.1314 410.697 59.1314 410.697 60.5694 411.846C61.1447 412.421 61.7199 412.709 62.2951 412.709C69.1978 412.709 76.1005 412.709 83.0032 412.709C83.5784 412.134 84.1536 411.846 84.7289 411.271C85.3041 410.697 85.8793 410.122 86.7422 410.409C87.605 410.697 88.1802 410.409 88.7554 409.547C89.043 409.259 89.043 408.972 89.043 408.684C89.043 407.822 89.0431 407.247 89.6183 406.672C91.344 404.948 93.0696 402.936 95.0829 401.211C96.2333 400.349 95.6581 399.199 95.6581 398.337C95.6581 397.474 95.9457 396.899 95.6581 396.325C95.3705 395.75 94.7953 395.175 94.2201 394.887C93.6448 394.312 93.6448 393.738 93.6448 392.875C93.6448 391.725 93.6448 390.863 93.6448 389.713C93.0696 389.139 92.4944 388.564 92.2068 388.276C91.3439 387.414 91.6316 386.264 91.6316 385.114C91.6316 383.102 91.6316 383.102 90.4811 382.24C90.1935 381.952 90.1935 381.953 89.9059 381.665C90.4811 381.953 90.7687 381.952 91.3439 382.24C92.2068 381.952 93.3572 381.378 94.2201 381.09C95.6581 380.515 95.6581 380.515 94.7953 378.791C94.5077 378.216 94.2201 377.353 93.9325 376.779C93.6448 376.204 93.0696 375.629 92.4944 375.629C90.7687 375.054 90.4811 375.341 89.6183 377.641C89.6183 377.928 89.3307 378.216 89.3307 378.216C89.3307 377.066 89.3307 376.204 89.3307 375.054C89.3307 374.479 89.9059 373.617 90.4811 373.617C91.3439 373.617 92.4944 373.329 93.3572 374.479C94.5077 375.916 94.7953 375.916 97.0962 375.916C98.2466 375.916 99.1095 375.916 99.9723 376.779C101.123 378.216 102.561 379.366 103.711 380.515C104.286 381.09 104.286 381.378 103.424 382.24C101.986 383.39 102.273 383.39 103.136 384.54C104.574 385.977 106.875 386.839 106.587 389.713C106.587 390.576 107.45 390.863 108.888 391.151C109.176 391.151 109.751 391.151 109.751 391.438C112.34 394.025 114.928 396.612 117.517 399.199C118.379 400.061 119.242 400.636 119.818 401.498C120.68 402.648 121.831 401.786 122.694 402.361C123.557 402.936 124.132 403.798 124.995 404.373C126.72 404.085 127.583 404.948 128.734 406.098C129.021 406.385 129.309 406.672 129.596 406.385C130.747 406.385 131.61 406.672 132.473 407.535C133.048 408.397 134.198 408.972 134.773 409.834C135.349 410.409 135.924 410.697 136.499 410.697C137.937 410.697 139.375 410.697 140.813 410.697C141.676 410.697 142.251 410.697 142.827 411.271C144.84 413.284 146.853 415.583 149.154 417.308C149.729 417.308 150.592 417.308 151.167 417.02C152.893 415.296 154.906 413.571 156.632 411.559C157.207 410.984 157.782 410.697 158.358 410.697C161.521 410.697 164.973 410.697 168.136 410.697C168.999 410.697 169.287 409.834 169.287 409.259C169.287 408.972 168.712 408.685 168.424 408.397C167.849 408.397 166.986 408.397 166.411 408.397C165.548 408.11 165.26 407.535 165.548 406.96C165.836 406.672 166.123 406.385 166.411 406.385C168.999 406.385 171.588 406.385 174.176 406.385C175.614 406.385 175.902 407.247 176.765 408.11C177.628 408.972 178.778 408.397 179.641 408.972C180.216 409.259 180.791 410.122 181.079 410.409C181.942 411.272 183.092 410.696 184.243 410.984C184.53 410.984 185.106 410.984 185.393 410.984C186.831 410.984 188.269 410.984 189.707 410.984C190.283 410.984 191.145 411.271 191.433 412.134C191.433 412.421 191.433 412.709 192.296 413.284C192.296 413.284 192.296 413.284 192.583 413.284C193.159 413.571 194.022 413.284 194.597 413.284C195.172 413.571 195.747 413.858 193.734 413.858C195.747 415.008 194.309 415.583 193.159 415.296C192.583 415.296 192.008 414.721 191.721 414.146C191.721 413.858 191.433 413.571 191.721 413.571C189.132 413.284 187.694 413.284 186.256 413.284C184.53 413.284 182.517 413.284 180.791 413.284C179.353 413.284 178.778 412.421 178.203 411.559C177.34 410.697 176.19 410.984 175.327 410.984C174.464 411.271 174.176 411.846 174.464 412.709C174.464 413.571 174.464 414.146 174.464 415.008C174.464 416.445 175.039 417.308 175.902 417.595C177.052 417.595 177.915 417.595 178.778 416.445C179.066 416.158 179.353 415.871 179.641 415.583C180.216 415.008 181.942 415.008 182.517 415.583C184.818 417.308 184.818 417.308 186.256 417.308C187.982 417.308 189.995 417.308 191.721 417.308C193.159 417.308 193.159 417.308 194.309 418.745C195.172 419.607 196.322 419.607 197.185 419.607C198.048 419.607 198.048 419.32 198.336 417.02C198.336 416.733 198.623 416.445 198.623 416.158C198.911 415.583 199.199 415.296 199.486 415.296C199.199 415.583 198.911 415.87 198.911 416.445C198.623 417.883 198.623 418.17 200.061 419.032C201.499 419.895 202.65 419.32 203.225 417.883C203.225 417.883 203.225 417.883 203.225 417.595C204.663 417.595 206.101 417.595 207.252 417.595C207.252 417.595 207.252 417.883 207.252 418.17C207.252 418.745 206.676 419.032 205.814 419.32C204.663 419.607 204.376 419.895 204.951 420.757C205.238 421.044 205.238 421.332 205.526 421.619C207.827 422.769 208.115 422.769 211.566 422.194C211.853 422.194 212.429 422.194 212.716 422.194C215.017 423.057 217.606 424.206 219.907 425.069C220.194 425.069 220.482 425.069 221.057 425.069C221.632 424.781 222.495 424.494 223.07 424.206C224.221 425.356 225.659 426.793 226.809 428.23C227.385 428.805 227.96 429.093 228.823 429.093C230.261 429.093 231.699 429.093 233.137 429.093C234.575 429.093 235.15 429.38 235.438 430.817C235.438 431.68 235.438 432.255 236.013 432.83C237.739 434.842 237.739 434.842 237.739 437.429C237.739 439.441 238.314 440.016 240.327 440.016C241.478 440.016 242.628 440.016 243.491 440.016C244.929 440.016 244.929 440.016 247.23 438.291C247.805 437.716 249.531 437.716 250.106 438.291C251.256 439.441 252.119 440.303 253.845 440.016C254.132 440.016 254.42 440.303 254.708 440.591C256.721 442.315 256.721 442.315 258.447 442.315C260.748 442.315 260.748 442.315 262.186 443.752C262.473 444.04 262.761 444.615 263.048 444.615C264.486 444.615 265.925 444.615 267.363 444.615C267.938 444.04 268.513 443.752 268.801 443.177C269.664 442.028 270.814 442.602 271.677 442.602C272.827 442.602 273.69 442.89 274.553 441.74C275.416 440.59 276.566 439.728 277.717 438.578C278.867 437.429 280.018 435.704 282.031 435.991C283.757 435.129 284.619 433.692 286.057 432.255C286.92 431.392 287.783 430.817 288.358 429.955C289.221 428.805 291.234 429.955 292.097 428.518C293.248 427.081 293.535 427.081 294.686 427.081C296.124 427.081 297.562 427.081 299 427.081C299.863 427.081 300.15 427.368 300.726 428.23C301.301 429.093 302.451 429.38 303.602 429.38C304.752 429.38 305.327 430.53 306.19 431.105C307.053 431.68 308.204 431.105 309.066 431.967C311.08 433.692 311.08 433.692 312.805 433.692C314.243 433.692 315.681 433.692 316.544 435.129C316.832 435.416 317.12 435.991 317.407 435.991C319.996 435.991 322.584 436.279 325.173 435.991C326.611 435.991 327.186 436.854 327.761 437.716C328.336 438.291 328.912 438.578 329.774 438.291C331.213 438.003 332.651 438.866 333.801 437.429C334.376 436.566 335.239 435.991 336.39 435.991C338.69 435.991 340.704 435.991 343.005 435.991C343.867 435.991 344.155 435.704 344.73 434.842C345.306 433.979 346.456 433.404 347.606 433.692C347.894 433.692 348.182 433.692 348.469 433.404C349.332 432.255 350.483 431.392 352.208 431.68C353.646 431.105 354.509 429.955 355.372 428.805C356.81 427.656 357.961 426.218 359.111 425.069C359.974 424.206 360.549 423.344 361.412 422.769C361.987 422.194 362.562 421.619 362.275 421.044C361.987 419.607 363.137 419.032 363.713 418.458C366.589 415.583 369.465 412.709 372.341 410.122C373.204 409.259 373.204 408.397 373.204 407.247C373.204 406.385 373.204 405.81 373.204 404.948C373.204 403.511 373.204 402.073 374.642 401.211C375.505 400.636 376.08 399.486 376.943 398.912C378.093 398.049 377.231 396.899 377.806 396.037C378.381 395.175 379.244 394.312 379.819 393.738C379.531 392.013 380.394 391.151 381.545 390.001C382.12 389.426 382.12 388.851 382.12 387.989C382.12 386.839 382.12 385.689 382.12 384.827C382.12 383.102 382.12 383.102 380.969 381.952C379.244 380.228 377.23 378.503 375.505 376.491C375.217 376.204 375.505 375.916 375.505 375.341C375.792 374.479 375.505 373.904 374.642 373.329C374.354 373.042 374.067 373.042 373.779 373.042C372.629 373.042 371.478 373.042 370.615 373.042C369.753 373.042 368.89 371.892 368.89 370.742C368.89 369.88 368.89 369.305 369.753 369.018C370.903 368.443 372.053 368.73 372.629 369.305C372.916 369.592 373.204 369.88 373.492 370.167C374.067 371.03 374.642 371.317 374.93 370.455C375.217 370.167 375.217 369.88 375.505 369.593C376.08 366.718 376.08 366.718 378.669 366.718C379.819 366.718 380.969 366.718 381.832 366.718C383.27 367.006 383.846 365.856 384.421 364.993C384.996 364.419 385.571 364.131 386.434 364.419C386.722 364.419 387.297 364.419 387.585 364.419C388.447 363.844 389.023 362.694 389.885 362.407C391.611 362.694 392.474 361.544 393.624 360.682C396.501 357.807 399.377 354.933 401.965 352.059C402.828 351.196 403.978 350.909 403.691 349.472C403.403 347.747 405.129 347.172 405.704 346.022C405.704 345.16 405.704 344.585 405.704 343.723C406.567 342.861 407.142 342.286 408.005 341.423C408.58 340.849 409.155 340.274 409.443 339.986C410.306 339.124 409.731 337.974 410.306 337.112C410.881 336.249 412.032 335.674 412.319 334.525C412.319 334.237 412.319 333.662 412.319 333.375C412.319 333.087 412.319 332.513 412.607 332.513C413.757 331.363 414.62 330.501 414.62 328.776C414.62 328.201 415.195 327.626 415.771 327.051C416.921 326.189 416.633 325.327 416.633 324.177C416.921 322.74 418.934 322.452 418.934 320.728C418.934 319.578 418.934 319.578 421.235 317.278C421.81 316.703 422.386 316.129 422.673 315.841C423.248 315.266 423.248 314.691 423.248 313.829C423.248 313.542 423.248 312.967 423.536 312.967C424.111 312.392 424.687 311.817 424.974 311.529C425.837 310.667 424.974 309.517 425.837 308.655C426.7 307.505 427.85 306.643 427.563 304.918C427.85 303.769 429.001 303.481 429.576 302.331C430.151 301.469 429.576 300.319 430.439 299.457C431.302 298.595 432.164 298.307 432.164 296.87C432.164 295.72 432.164 294.57 432.164 293.708V289.397C433.315 288.247 434.178 287.384 435.328 286.235C435.616 285.947 435.903 285.66 436.191 285.372C437.054 284.51 436.479 283.36 437.054 282.498C437.629 281.636 438.78 281.061 439.067 279.911C439.067 279.624 439.067 279.049 439.067 278.761C439.355 277.611 440.218 277.037 440.793 276.174C441.368 275.312 440.793 274.162 441.656 273.3C443.381 271.288 443.381 271.288 443.381 269.563C443.381 267.264 443.381 265.251 443.381 262.952C443.381 262.664 443.669 262.377 443.957 262.09C444.532 261.227 445.682 260.94 445.682 259.503C445.682 257.203 445.682 255.191 445.682 252.891V249.73C446.545 248.867 447.12 248.293 447.983 247.43C447.983 245.131 447.983 243.119 447.983 240.819C447.983 238.519 447.983 236.507 447.983 234.208C447.983 233.92 448.558 233.633 448.846 233.346C449.709 232.483 450.284 231.908 450.284 230.759C450.284 228.172 450.284 228.172 448.558 226.16C448.271 225.872 448.271 225.585 447.983 225.297C447.983 219.836 447.983 214.374 447.983 208.913C447.983 208.626 447.983 208.338 447.695 208.051C447.12 207.476 446.545 207.188 446.257 206.614C445.682 205.751 446.257 204.601 445.395 203.739C443.669 201.727 443.669 201.727 443.669 200.002C443.669 198.853 443.669 197.703 443.669 196.841C443.957 195.691 443.094 194.829 442.231 194.254C441.08 193.391 441.656 192.242 441.368 191.379C441.08 190.804 440.505 190.229 439.93 189.942C438.78 189.08 439.642 187.93 439.067 187.068C438.492 186.205 437.629 185.343 437.054 184.768C437.341 183.043 436.479 182.181 435.328 181.031C434.753 180.456 434.753 179.882 434.753 179.019C434.753 177.582 434.753 176.145 434.753 174.708C434.753 174.133 434.465 173.558 433.602 172.983C433.027 172.408 432.452 171.833 432.452 171.258C432.452 169.821 432.452 168.384 432.452 166.947C432.452 165.797 432.164 164.935 431.302 164.072C430.439 163.497 430.439 162.923 431.014 162.635C431.589 162.06 432.164 162.06 433.027 162.06C433.89 162.06 434.178 162.635 434.753 163.21C436.479 164.935 437.629 164.935 439.355 163.21C441.368 161.198 443.381 159.186 445.395 156.886C446.545 155.737 448.271 154.587 447.983 152.575C448.558 151.712 449.709 151.137 449.996 150.275C450.572 149.413 449.709 148.263 450.859 147.401C448.271 146.251 447.983 145.964 447.983 143.952ZM27.2064 286.81C26.3436 287.385 24.9055 287.385 24.3303 286.81C23.4675 285.947 22.8922 285.372 22.0294 284.51C21.1666 283.935 21.1666 283.36 22.317 283.073C22.6046 282.785 22.8922 282.785 23.1798 282.785C23.7551 282.785 24.6179 282.785 25.1931 282.785C25.4807 282.785 25.7684 282.785 26.3436 282.785C26.9188 282.785 27.7816 283.36 27.7816 283.935C28.0693 284.798 28.6445 286.235 27.2064 286.81ZM43.0251 209.775C42.4499 210.638 42.1623 210.638 41.587 209.775C41.2994 209.201 40.7242 208.913 40.149 208.338C39.5737 208.913 38.9985 209.201 38.7109 209.775C38.1357 210.35 37.5605 210.35 36.9852 210.638C36.1224 210.638 35.5472 210.638 35.2596 209.775C34.972 209.201 35.2596 208.913 36.1224 208.338C36.6976 207.763 37.2728 207.476 37.5605 206.901C38.1357 206.326 38.7109 206.039 39.2861 206.326C39.8614 206.326 40.7242 206.326 41.2994 206.326C43.0251 206.326 43.6003 207.188 43.6003 208.913C43.3127 209.2 43.3127 209.488 43.0251 209.775ZM120.68 132.454C121.256 131.879 121.831 131.592 122.118 131.017C122.406 131.879 122.406 132.166 121.543 132.454C120.968 132.741 120.68 132.741 120.105 133.029C120.393 132.741 120.393 132.454 120.68 132.454ZM115.216 144.239C115.503 143.951 115.503 143.664 115.503 143.377C115.503 142.514 115.503 141.939 116.079 141.364C116.079 141.364 116.079 141.365 116.366 141.077C117.229 140.215 118.092 139.065 117.804 137.628C118.092 137.053 118.379 136.765 118.955 136.478C119.242 136.478 119.53 136.478 119.53 136.765C120.105 138.778 122.118 140.502 120.68 142.802C120.968 143.377 120.968 144.239 121.256 144.814C121.831 145.676 121.543 146.251 121.256 146.826C120.968 147.688 120.68 148.263 119.818 148.263C119.242 148.551 118.379 148.838 117.804 149.125C116.366 149.988 116.366 149.7 115.791 147.976C115.503 147.113 115.216 146.826 114.353 146.538C114.065 146.538 113.778 146.251 113.49 146.251C114.065 145.676 114.641 144.814 115.216 144.239ZM112.915 151.425C113.202 151.425 113.49 151.425 113.778 151.425C114.065 151.712 114.353 152.287 114.065 152.287C113.778 152.862 113.778 153.15 113.49 153.724C112.052 153.724 111.189 153.15 110.902 152.287V152C111.764 152 112.34 151.712 112.915 151.425ZM105.725 131.879C106.3 131.304 106.875 131.017 107.163 130.442C107.738 129.579 108.313 129.579 108.601 130.442C108.601 130.729 108.888 131.017 108.888 131.304C109.176 135.041 108.888 135.041 106.3 137.628C105.725 138.203 105.149 138.49 104.862 137.628C104.862 137.34 104.574 137.053 104.574 136.765C104.574 136.191 104.574 135.328 104.574 134.466C104.574 133.604 104.862 132.741 105.725 131.879ZM62.5827 352.346C61.7199 353.208 60.857 354.071 59.9942 354.933C59.9942 354.646 59.9942 354.646 59.7066 354.358C59.7066 354.071 59.9942 353.783 59.9942 353.208C59.9942 352.921 60.5694 352.346 60.2818 352.059C59.9942 351.484 59.7066 350.622 59.419 350.047C59.1314 349.472 59.419 348.609 59.419 348.035C59.7066 348.322 59.9942 348.322 60.5694 348.035C61.4323 347.747 62.0075 348.034 62.2951 348.897C63.158 350.334 63.4456 351.196 62.5827 352.346ZM67.4721 344.01C67.4721 345.447 66.8969 346.31 66.0341 346.022C65.1712 345.735 65.1712 345.16 65.1712 344.298C65.1712 344.01 65.4589 343.435 65.1712 343.148C64.0208 341.711 62.8703 340.561 61.4323 339.411C60.5694 338.836 60.5694 338.262 61.4323 337.974C62.0075 337.687 62.5827 337.399 63.4456 337.687C63.7332 337.687 64.0208 337.974 64.3084 337.974C64.596 338.262 64.8836 338.549 65.1712 338.836C66.0341 339.699 66.6093 340.274 67.4721 341.136V344.01ZM63.4456 329.351C63.7332 328.489 64.3084 328.489 65.1712 328.489C66.0341 328.489 66.6093 328.489 66.8969 329.351C66.8969 329.638 66.8969 329.926 66.8969 330.213C66.6093 331.075 66.0341 331.075 65.1712 331.075C64.3084 331.075 63.7332 331.075 63.4456 330.213C63.4456 329.926 63.4456 329.638 63.4456 329.351ZM80.9899 194.254C80.4147 194.541 79.5518 194.828 78.9766 194.828C77.5386 193.966 76.1005 194.254 74.95 195.116C74.6624 195.403 74.0872 195.403 74.0872 195.116C72.6492 194.254 71.2111 194.829 70.0606 195.403C69.1978 195.978 68.0474 196.266 67.7597 197.415C66.8969 200.29 65.4588 202.877 64.596 205.751C64.0208 207.188 63.1579 207.476 62.0075 206.901C61.7199 206.901 61.7199 206.901 61.4323 206.614C61.4323 206.039 61.4323 205.176 61.4323 204.601C61.4323 200.002 61.4323 195.116 61.4323 190.517C61.4323 190.229 61.4323 189.942 61.7199 189.655C62.0075 189.367 62.2951 189.08 62.5827 188.792C62.8703 188.792 63.1579 189.08 63.4456 189.367C63.7332 189.655 63.7332 189.942 63.7332 190.229C63.7332 191.954 63.7332 193.966 63.7332 195.691C63.7332 196.553 64.8836 197.415 66.0341 197.415C67.4721 197.415 68.0474 196.841 68.0474 195.691C68.0474 193.104 68.0474 190.517 68.0474 187.93C68.0474 187.355 68.6226 186.78 69.4854 186.493C70.0606 186.493 70.9235 186.493 71.4987 186.78C71.7863 186.78 72.0739 187.355 72.3615 187.642C72.9368 188.217 73.512 188.505 73.7996 189.08C74.9501 190.804 76.6757 191.092 78.4014 190.804C79.2642 190.804 79.8395 190.804 80.4147 191.379C81.2775 192.242 82.1404 193.104 82.7156 193.679C81.8527 193.679 81.5651 193.966 80.9899 194.254ZM81.8527 141.077C80.7023 139.927 80.7023 139.927 82.1404 137.915C82.7156 137.34 82.7156 136.765 82.7156 135.903C82.7156 135.328 83.0032 134.466 83.866 134.178C84.4413 133.891 85.3041 134.178 86.1669 134.178C87.8926 135.903 89.9059 137.915 91.6316 139.64C91.6316 140.502 91.9192 141.077 91.6316 141.652C91.3439 142.514 90.7687 142.802 89.9059 142.802C89.6183 142.802 89.043 142.802 88.7554 142.802H86.4545C84.7289 143.377 83.2908 142.514 81.8527 141.077ZM97.6714 376.779C96.521 376.779 95.3705 377.066 94.5077 376.491C93.6448 375.916 93.0696 375.054 92.2068 374.192C91.6316 373.617 91.3439 373.042 91.6316 372.179C91.6316 371.892 91.6316 371.317 91.6316 371.03C91.6316 370.167 91.9192 369.593 91.6316 369.018C91.3439 368.443 90.7687 367.868 90.1935 367.58C89.9059 367.293 89.6183 367.006 89.3307 366.718C87.8926 365.568 87.0298 364.131 87.3174 362.119C87.605 360.969 87.0298 360.107 86.1669 359.245C85.0165 358.095 85.0165 358.095 86.1669 356.945C86.7421 356.37 87.3174 355.795 87.605 355.508C88.1802 354.933 88.1802 354.933 89.9059 356.658C91.0563 357.808 91.9192 358.67 93.0696 359.819C93.9325 360.682 94.5077 361.257 95.3705 362.119C95.9457 362.694 95.6581 363.844 95.9457 364.419C93.3572 365.568 93.6448 364.993 94.7953 367.868C94.7953 368.155 95.0829 368.443 95.3705 369.018C95.9457 370.167 96.2334 371.03 96.8086 372.179C97.3838 373.329 98.5342 373.042 99.3971 373.904C99.6847 374.479 99.9723 375.054 100.26 375.629C99.6847 376.491 99.1095 376.779 97.6714 376.779ZM110.326 288.534C110.039 290.259 108.888 290.834 107.163 290.259C106.3 290.259 105.725 289.684 105.725 288.822C105.725 288.247 106.012 287.959 106.875 287.672C107.45 287.384 108.313 287.097 108.888 286.81C109.751 286.235 110.326 286.235 110.326 287.384C110.326 287.959 110.326 288.247 110.326 288.534ZM111.189 248.58C110.614 248.292 110.326 247.718 110.039 246.855C110.326 246.855 110.614 246.568 110.902 246.568C112.052 246.28 112.915 246.855 113.49 247.718C113.778 248.005 113.778 248.292 114.065 248.58C114.065 249.155 112.052 249.155 111.189 248.58ZM111.477 189.655C111.477 189.655 111.477 190.229 111.477 190.517C111.764 191.092 112.052 191.954 112.34 192.529C111.764 192.816 111.189 193.104 110.326 193.391C108.888 193.966 107.738 194.541 106.3 193.679C106.012 193.679 105.725 193.679 105.149 193.679C104.574 193.966 103.711 194.254 103.136 194.541C102.848 193.966 102.273 193.391 102.273 192.816C101.986 191.954 101.698 191.379 100.835 191.379C100.835 191.667 100.548 192.242 100.26 192.529C99.6847 193.104 98.8219 193.104 98.2466 192.816C95.9457 191.954 93.6448 190.804 91.3439 189.942V189.655C91.3439 189.367 91.0563 189.08 90.7687 188.792C90.1935 188.217 89.9059 187.642 89.3307 187.355C89.9059 186.78 90.4811 186.205 90.7687 185.918C91.6316 185.343 91.3439 184.193 91.3439 183.331C91.9192 184.768 92.4944 186.205 93.0696 187.642C93.3572 188.505 93.6448 188.792 94.5077 189.08C95.6581 189.367 96.521 189.942 97.6714 190.229C98.2466 190.517 99.1095 190.804 99.6847 191.092C99.9723 191.092 100.26 191.379 100.835 191.379C101.123 189.942 102.273 189.942 103.424 189.367C103.711 189.08 104.286 188.792 104.286 188.792C103.711 187.355 103.136 185.918 102.561 184.768C101.986 184.481 101.123 184.193 100.548 183.906C98.2466 183.043 98.2466 183.043 97.6714 181.031C97.3838 179.882 96.8086 179.019 96.521 177.869C96.2334 177.295 95.9457 177.007 95.6581 176.72C96.521 175.857 97.3838 174.995 98.2466 174.133C98.8219 173.558 99.3971 173.27 99.6847 172.696C100.835 171.258 102.273 170.396 104.286 170.683C105.437 170.683 106.3 170.971 107.163 171.833C107.738 172.408 108.313 172.983 108.888 172.983C110.326 172.983 111.764 172.983 113.202 172.983C114.065 172.983 114.353 172.983 114.641 172.696C114.928 173.27 115.216 174.133 115.503 174.708C115.791 175.282 116.366 175.57 117.229 175.857C117.804 176.145 118.379 176.72 118.379 177.582C118.667 178.444 118.955 178.732 119.53 179.307C121.543 180.456 121.831 180.744 120.968 182.469C120.393 183.331 120.105 184.481 119.53 185.343L117.517 186.205C115.791 187.93 113.49 188.792 111.477 189.655ZM120.105 210.063C119.818 210.638 118.955 210.638 118.379 210.35C118.092 210.063 117.804 209.775 118.092 209.488C118.379 208.913 118.667 208.051 118.955 207.476C119.242 206.901 119.242 206.039 119.818 205.464C120.393 204.889 120.968 204.889 121.543 205.176C121.831 205.464 122.118 206.039 121.831 206.039C121.256 207.476 120.68 208.913 120.105 210.063ZM134.198 228.172C132.76 227.022 131.897 226.447 131.322 226.16C133.623 228.746 132.185 228.747 131.322 228.172C130.747 227.884 130.459 227.309 130.459 226.447C130.459 226.16 130.459 225.872 130.747 225.585C130.172 225.297 130.172 225.01 129.884 225.01C128.734 222.71 127.871 220.123 126.72 217.536C126.72 217.249 127.008 216.961 127.008 216.674C126.72 216.674 126.433 216.674 125.857 216.387C125.857 216.387 125.857 216.387 125.57 216.387C125.857 216.387 125.857 216.387 126.145 216.674C125.857 216.674 125.857 216.387 125.57 216.387C125.282 216.387 125.282 216.099 124.995 216.099C123.556 215.524 123.269 215.237 122.694 215.237C121.831 214.949 121.256 214.662 121.256 213.8C121.256 213.225 121.831 212.937 122.694 212.65C123.557 212.362 123.844 212.075 124.419 211.5C125.282 209.775 125.857 209.201 126.433 209.775C127.008 210.35 127.008 211.213 126.72 211.787C125.857 212.937 126.72 213.8 127.008 214.949C127.008 215.237 127.295 215.524 127.295 216.099C127.295 216.674 127.295 216.961 127.008 217.249C129.309 218.111 130.747 218.686 131.897 219.261C132.472 219.548 132.76 220.411 132.76 220.986C132.185 222.71 131.61 224.148 130.747 225.872C131.034 225.872 131.322 225.872 131.61 226.16C132.185 226.447 133.048 226.734 133.623 227.022C134.198 227.022 134.486 227.597 134.198 228.172ZM144.84 321.303C143.689 321.877 142.251 322.452 141.101 323.027C140.813 322.452 140.526 322.165 140.526 321.877C140.526 320.728 140.813 319.865 141.676 319.29C142.827 318.428 143.689 319.29 144.552 319.578C144.84 319.578 144.84 320.153 145.127 320.44C145.127 321.015 144.84 321.303 144.84 321.303ZM148.579 312.679C148.004 313.254 147.428 313.254 146.853 312.967C146.566 312.679 146.278 312.392 146.565 312.104C146.853 310.955 147.428 310.092 147.716 308.942C148.004 307.793 148.291 306.93 148.866 306.068C149.442 305.493 150.017 305.206 150.592 305.781C150.88 306.068 151.167 306.643 150.88 306.643C150.304 308.655 149.442 310.667 148.579 312.679ZM157.782 284.798C158.358 284.223 158.933 284.51 159.796 284.798C160.659 285.085 160.946 285.372 161.234 286.235C161.234 286.81 161.234 287.672 160.658 288.247C160.371 288.534 160.371 288.822 160.083 289.109C159.22 289.971 158.933 289.684 158.645 288.534C158.358 287.384 157.782 286.522 157.495 285.66C157.495 285.372 157.782 285.085 157.782 284.798ZM164.973 314.404C163.247 315.266 163.247 315.266 160.946 314.404C160.658 314.404 160.658 314.404 160.371 314.117C160.083 314.404 159.796 314.404 159.508 314.691C158.645 315.266 157.782 315.554 156.632 314.979C156.344 314.691 156.057 314.691 155.769 314.404C155.481 314.116 155.194 313.829 155.481 313.542C155.769 312.967 156.344 312.679 156.92 312.679C157.207 312.679 157.495 312.967 157.782 312.967C158.645 312.679 159.508 312.679 160.083 312.392C160.371 311.529 160.658 310.38 161.521 310.092C161.809 310.092 162.097 309.805 162.384 310.092C162.959 310.38 163.822 310.667 164.397 310.955C163.822 311.242 163.247 311.817 162.959 312.104C165.836 311.817 166.698 312.104 166.698 312.967C166.986 313.829 165.836 314.116 164.973 314.404ZM169.287 183.906C169.862 183.331 170.725 183.331 171.3 183.906C171.588 184.193 172.163 184.193 172.163 184.193C172.738 184.768 172.738 185.343 172.451 185.918C172.163 186.205 171.875 186.205 171.588 186.205C171.3 186.205 171.013 185.918 170.725 185.918C169.287 185.63 168.712 184.481 169.287 183.906ZM170.15 303.194C169.574 302.619 169.862 302.044 170.15 301.182C170.437 300.319 170.725 299.744 171.588 299.744C171.875 299.744 172.163 299.744 172.163 300.032C172.738 300.607 172.451 301.182 172.163 302.044C171.875 302.906 171.588 303.481 170.725 303.481C170.725 303.481 170.437 303.194 170.15 303.194ZM173.889 309.805C173.889 310.667 173.313 311.242 172.451 311.242C171.588 311.242 171.3 310.092 171.875 308.942C171.875 308.655 172.163 308.08 172.163 308.08C172.451 307.793 172.738 307.793 173.026 307.793C173.601 307.793 173.889 308.08 174.176 309.23C174.176 309.23 173.889 309.517 173.889 309.805ZM175.902 286.522C175.902 285.66 176.477 285.085 177.34 285.085C177.915 285.085 178.203 285.372 178.49 286.235C178.778 286.81 179.066 287.672 179.353 288.247C179.928 289.109 179.929 289.684 178.778 289.684C178.49 289.684 178.203 289.684 177.915 289.684C175.902 289.397 175.327 288.247 175.902 286.522ZM179.929 324.464C179.641 325.039 179.353 325.902 179.066 326.476C178.49 327.626 177.915 328.201 176.765 327.914C175.039 327.626 174.464 326.476 175.039 324.752C175.327 323.889 175.902 322.74 176.19 321.59C177.628 321.015 178.778 320.44 180.216 319.865C180.216 319.865 180.791 320.153 180.791 320.44C181.079 320.728 181.079 321.015 181.079 321.303C180.791 322.452 180.504 323.315 179.929 324.464ZM182.805 323.027C183.38 321.59 184.818 321.015 186.256 321.877C187.406 322.452 187.406 323.315 187.119 324.464C186.544 325.901 185.106 326.476 183.667 325.614C182.805 325.039 182.517 324.177 182.805 323.027ZM186.831 370.167C185.681 370.455 185.106 371.317 184.818 372.179C184.53 372.754 183.955 373.042 183.092 373.329C182.517 372.754 182.517 371.892 182.805 371.317C183.092 370.742 183.38 369.88 183.667 369.305C183.955 368.443 184.243 367.868 184.818 367.58C185.393 367.006 185.968 367.293 186.831 367.58C187.694 367.868 188.269 368.155 188.269 369.018C188.269 369.593 187.694 370.167 186.831 370.167ZM191.145 314.404C190.858 314.979 190.57 315.841 190.283 316.416C189.995 318.141 187.982 318.141 186.831 317.278C186.544 316.991 186.256 316.703 185.968 316.703C185.106 315.841 185.393 315.554 186.544 315.266C187.982 314.691 187.982 314.691 189.42 312.392C189.707 312.104 189.995 312.104 190.283 312.104C190.858 312.104 191.145 312.679 191.145 313.542C191.721 313.829 191.433 314.116 191.145 314.404ZM219.044 303.769C220.194 304.056 220.769 304.631 221.057 305.781C221.345 306.643 221.632 307.218 222.208 307.505C223.358 307.793 224.221 308.368 224.221 309.517C224.221 310.092 223.933 310.955 223.358 311.529C223.07 311.817 222.783 311.817 222.495 311.817C222.208 311.817 221.92 311.529 221.92 311.529C220.482 308.943 220.482 308.943 219.331 308.655C217.893 308.08 216.743 307.505 215.305 306.93C214.442 306.643 214.154 305.493 214.73 304.343C215.305 303.194 216.168 302.619 217.03 302.906C217.606 303.194 218.181 303.481 219.044 303.769ZM212.141 38.7481C212.716 38.1733 213.292 37.8858 213.867 38.1732C215.305 38.1732 216.168 39.323 215.88 40.7602C215.88 41.0476 215.592 41.3351 215.592 41.6225C215.017 42.4849 214.73 42.4849 214.154 41.6225C213.867 41.0477 213.292 40.4728 212.716 40.1853C212.141 39.6105 211.853 39.0356 212.141 38.7481ZM211.853 27.2505C210.991 27.2505 210.415 27.2504 210.128 26.3881C209.84 25.8132 209.553 25.2384 209.84 24.3761C209.84 24.0887 210.128 23.8012 210.128 23.5137C210.703 22.6514 210.991 22.6514 211.566 23.5137C212.141 24.376 213.004 24.951 213.867 25.8133C213.867 25.8133 213.867 26.3881 213.867 26.6756C213.004 26.963 212.429 27.2505 211.853 27.2505ZM207.539 16.0403C207.539 14.8906 208.402 13.7407 209.265 13.7407C210.415 13.7407 211.278 13.7407 212.429 13.7407C213.004 13.7407 213.867 13.7407 214.442 13.7407C214.73 13.7407 215.017 13.7408 215.305 14.0282C216.168 14.6031 216.168 14.8905 215.592 15.4654C213.004 18.0524 213.004 18.0524 209.265 18.0524C208.977 18.0524 208.69 17.7649 208.402 17.7649C207.539 17.4775 207.252 16.9026 207.539 16.0403ZM207.252 376.779C206.964 377.353 206.389 377.928 205.526 377.928C204.951 377.928 204.088 377.353 203.513 377.066C202.938 376.779 202.075 376.779 201.499 376.204C200.924 375.629 200.924 375.054 201.212 374.479C201.499 374.192 201.787 373.904 202.075 374.192C204.376 374.766 204.663 375.054 206.101 374.192C206.964 373.617 207.539 373.617 207.539 374.766C207.539 375.341 207.539 375.916 207.252 376.779ZM207.827 320.728C207.539 322.452 206.389 323.027 204.663 322.452C204.376 322.452 204.088 322.165 203.8 322.165C203.225 321.877 202.362 321.59 201.787 321.303C201.499 321.015 201.499 320.728 201.212 320.44C201.212 319.865 201.787 319.29 202.362 319.29C204.663 319.865 204.663 319.865 206.389 319.29C207.252 318.716 207.827 319.003 207.827 320.153C208.115 319.865 208.115 320.153 207.827 320.728ZM208.114 48.5211C207.827 48.5211 207.539 47.9463 207.539 47.6588C207.539 47.3714 207.827 47.0839 208.114 46.7964C208.402 46.509 208.69 46.509 208.977 46.509C210.703 46.509 212.429 46.509 214.442 46.509C214.73 46.509 215.017 46.5091 215.305 46.2216C216.168 45.6467 216.743 45.3592 217.03 45.3592C216.743 45.9341 216.743 46.7965 216.743 47.3714C217.03 47.9462 217.03 48.2337 217.03 48.5211C216.168 48.5211 215.017 48.5211 214.154 48.5211C212.429 48.8085 210.128 49.3834 208.114 48.5211ZM213.292 349.472C213.004 349.184 212.716 349.184 212.429 349.184C210.128 348.322 210.128 348.322 209.84 347.46C209.553 346.885 209.553 346.885 211.853 345.735C212.429 345.448 213.292 345.16 213.867 344.873C214.154 345.447 214.442 346.022 214.73 346.885C215.017 347.172 215.017 347.46 215.017 347.747C215.592 348.609 215.592 349.184 215.017 349.472C214.442 350.047 213.867 350.047 213.292 349.472ZM218.181 381.09C217.03 381.09 215.88 381.09 214.73 381.09C214.73 380.803 214.73 380.515 215.017 380.515C215.592 379.94 216.168 379.94 216.743 379.94C217.606 380.228 218.181 380.515 218.756 381.09C218.756 381.09 218.469 381.09 218.181 381.09ZM224.508 345.16C223.933 346.597 223.358 348.034 222.783 349.184C222.495 350.046 221.057 350.334 219.907 349.759C218.469 349.184 218.181 348.609 218.756 347.172C219.044 346.31 219.331 345.735 219.044 345.16C218.469 344.01 218.181 343.148 217.606 341.998C217.318 341.423 216.743 340.561 216.743 339.986C216.743 339.411 217.318 338.549 217.606 337.974C217.893 337.399 218.181 336.537 218.469 335.962C218.756 335.387 219.044 334.525 219.331 333.95C219.619 333.662 219.907 333.662 220.194 333.375C220.482 333.375 220.769 333.662 220.769 333.662C221.92 336.249 223.07 339.124 224.221 341.711C225.084 343.723 225.084 343.723 224.508 345.16ZM228.247 282.21C227.96 282.785 227.097 282.785 226.522 282.498C226.234 282.211 225.946 281.923 226.234 281.636C226.522 281.061 226.809 280.199 227.097 279.624C227.385 279.049 227.385 278.186 227.96 277.611C228.535 277.037 229.11 277.037 229.685 277.324C229.973 277.611 230.261 278.186 229.973 278.186C229.398 279.624 228.823 281.061 228.247 282.21ZM252.694 420.182C252.407 420.47 252.119 420.47 251.832 420.47C250.969 420.47 250.393 420.47 249.818 420.182C249.818 419.895 250.106 419.607 250.106 419.32C250.106 419.032 250.394 418.745 250.394 418.458C250.681 418.458 251.256 418.458 251.544 418.458C251.832 418.458 252.119 418.745 252.407 418.745C252.694 419.032 252.982 419.32 253.27 419.607C252.982 419.607 252.982 419.895 252.694 420.182ZM260.172 334.237C260.172 334.525 259.885 334.812 259.885 335.1C259.597 335.675 259.022 335.962 258.159 336.249C257.871 335.674 257.584 334.812 257.871 334.237C257.871 333.95 258.159 333.662 258.159 333.375C258.447 332.8 259.022 332.513 259.885 332.225C260.172 332.8 260.46 333.663 260.172 334.237ZM272.827 80.4271C273.115 80.7145 273.115 80.7144 273.402 81.0019C273.978 81.5768 274.553 81.5768 275.416 81.5768C276.279 81.5768 276.854 81.2894 277.141 80.7145C277.429 80.4271 277.717 80.1396 278.004 79.8521C278.004 80.1396 277.717 80.427 277.429 81.0019C277.429 81.2893 276.854 81.2894 276.566 81.5768C274.841 82.1517 275.128 82.1517 273.69 84.4512C273.402 84.7387 273.115 84.7387 272.827 84.7387C272.252 84.7387 271.677 84.1638 271.964 83.3015C271.964 82.4391 272.54 81.5768 272.827 80.4271ZM278.004 91.9247C277.717 92.2121 277.717 92.787 277.717 92.787C277.141 93.3619 276.566 93.3619 275.991 93.0744C275.703 92.787 275.703 92.4996 275.703 92.2122C275.703 91.9247 275.991 91.6372 275.991 91.3498C276.566 89.9126 277.429 89.6251 278.004 90.2C278.579 90.4875 278.579 91.3498 278.004 91.9247ZM281.456 419.607C280.88 420.757 278.867 420.757 277.717 419.607C276.854 419.032 276.566 417.883 275.128 418.17C273.402 418.457 271.677 418.17 269.664 418.17C268.801 417.595 268.513 417.308 268.801 416.733C269.088 416.445 269.376 416.158 269.664 416.158C271.389 416.158 273.115 416.158 275.128 416.158C277.141 416.158 278.58 416.158 280.593 416.158C280.88 416.158 281.168 416.445 281.456 416.733C282.031 417.595 282.031 418.457 281.456 419.607ZM279.73 109.459C279.442 109.459 279.155 109.171 278.867 109.171C277.141 108.596 276.566 107.446 277.429 106.009C278.004 104.86 278.58 104.285 279.73 104.86C281.168 105.434 282.606 105.722 283.181 103.71C283.469 103.71 283.757 103.997 283.757 103.997C282.606 110.608 281.743 110.321 279.73 109.459ZM283.757 107.734C283.757 106.009 283.757 104.859 283.757 103.997C284.044 104.285 284.332 104.572 284.332 105.147C284.619 106.009 284.044 106.872 283.757 107.734ZM285.482 97.386C284.907 98.2484 284.619 99.3982 284.332 100.548C284.044 101.698 284.044 102.56 283.757 103.422C283.757 101.698 283.469 101.985 283.469 102.56C283.181 103.71 282.894 103.997 282.031 103.135C281.743 102.847 281.743 102.56 281.456 102.273C281.168 101.698 280.88 101.123 280.593 100.548C280.018 100.835 279.155 101.123 278.579 101.41C277.717 101.698 277.429 101.41 277.429 100.548C277.429 98.8233 278.292 97.9609 280.018 97.6735C280.88 97.3861 281.168 97.0986 281.456 96.2363C281.743 94.7991 282.606 94.5117 283.757 94.7991C285.482 94.7991 286.057 95.9488 285.482 97.386ZM294.111 81.5768C294.111 81.8642 293.823 82.4391 293.823 82.4391C293.535 82.7265 293.248 82.7266 292.96 83.014C292.385 83.014 292.097 82.4391 290.947 79.8521C290.659 78.9898 290.659 78.7024 291.81 78.4149C292.097 78.4149 292.385 78.4149 292.673 78.4149C294.111 78.9898 294.686 80.1396 294.111 81.5768ZM307.053 93.9367C306.765 93.9367 306.478 93.6494 306.19 93.6494C305.327 93.6494 304.465 93.9367 303.889 93.9367C303.314 95.6614 302.451 97.0986 301.876 98.8232C301.301 100.548 300.15 100.835 298.712 100.26C297.562 99.6856 296.987 98.8233 297.562 97.6735C297.85 97.0986 298.137 96.2363 298.425 95.6614C299.575 95.0865 300.438 94.5116 301.013 94.2242C299 94.2242 299.575 93.9368 300.438 93.6494C301.301 93.3619 302.451 92.787 303.314 92.4995H303.602C303.889 92.2121 304.177 92.2121 304.465 91.9247C305.327 91.3498 306.19 91.0623 307.341 91.6372C307.628 91.9247 307.916 91.9247 308.204 92.2122C308.491 92.4996 308.779 92.787 308.491 93.0744C308.491 93.6493 307.628 93.9367 307.053 93.9367ZM324.885 107.159C324.597 107.734 324.597 108.596 324.022 109.171C323.447 109.746 322.872 109.746 322.297 109.459C322.009 109.171 321.721 108.884 322.009 108.596C322.584 106.297 322.872 106.009 322.009 104.572C321.434 103.71 321.434 103.135 322.584 103.135C323.159 103.135 324.022 103.135 324.597 103.71C325.173 103.997 325.748 104.572 325.748 105.434C325.46 105.722 325.173 106.584 324.885 107.159ZM355.372 346.31C356.235 346.885 356.235 347.172 355.372 347.747C354.797 348.034 354.222 348.609 353.934 349.184C353.359 350.046 352.783 350.047 352.496 349.759C351.921 349.184 351.921 348.609 351.921 347.747C351.921 347.172 351.921 346.597 351.633 346.31C352.208 345.16 352.208 344.873 354.222 343.435C353.934 344.873 354.222 345.735 355.372 346.31ZM348.469 122.681C348.757 122.681 349.044 122.393 349.62 122.106C349.62 122.393 349.62 122.681 349.62 123.256C349.62 123.543 349.62 124.118 349.62 124.405C350.77 125.843 352.208 126.992 353.359 128.43C353.646 128.717 353.934 129.005 353.934 129.005C353.934 129.005 353.646 129.005 353.646 129.292C352.496 129.579 351.633 128.717 350.483 129.005C349.62 129.005 348.757 130.442 347.894 129.292C347.031 128.43 348.182 127.28 348.182 126.13C348.182 125.843 347.894 125.555 347.894 124.98C347.319 123.256 347.031 123.256 348.469 122.681ZM330.925 384.827C330.637 384.827 330.35 384.539 330.062 384.252C330.062 383.965 330.35 383.965 330.637 383.677C331.213 383.39 331.788 382.815 332.075 382.24C332.938 381.378 333.801 381.378 334.951 381.09C336.102 380.803 336.677 379.653 337.252 379.078C337.54 378.791 337.828 379.078 338.403 378.791C340.128 378.503 340.991 379.653 340.704 381.378C340.416 382.815 339.841 383.102 338.69 383.102C337.828 383.102 337.252 383.102 336.39 383.102C335.527 383.102 334.951 383.102 334.376 383.677C333.801 384.252 333.513 384.827 332.938 385.114C332.651 385.114 332.363 385.114 332.075 385.114C332.075 384.827 331.788 384.827 331.788 384.54C331.788 384.827 331.213 384.827 330.925 384.827ZM334.376 404.085C334.376 404.373 333.801 404.66 333.801 404.948C333.513 404.948 333.226 404.948 332.938 404.948C331.788 404.373 331.788 401.786 332.938 401.211C333.226 401.211 333.513 401.211 333.801 401.211C334.089 401.499 334.376 401.786 334.376 402.073C334.376 402.648 334.376 403.511 334.376 404.085ZM333.513 396.037C333.226 396.037 332.938 396.037 332.651 396.037C331.788 395.75 331.788 395.175 331.788 394.312C331.788 393.45 331.788 392.875 332.651 392.588C332.938 392.588 333.226 392.588 333.513 392.588C334.376 392.875 334.376 393.45 334.376 394.312C334.376 395.175 334.376 395.75 333.513 396.037ZM338.403 421.907C338.115 422.769 337.54 422.769 336.677 422.769C335.814 422.769 335.239 422.769 334.951 421.907C334.951 421.619 334.951 421.332 334.951 421.044C335.239 420.182 335.814 420.182 336.677 420.182C337.54 420.182 338.115 420.182 338.403 421.044C338.403 421.332 338.403 421.619 338.403 421.907ZM339.841 418.458C339.553 418.17 339.266 417.883 338.978 417.595C338.403 416.445 338.403 415.871 338.978 414.721C339.266 414.433 339.553 414.146 339.841 413.858C340.416 413.858 340.991 415.583 340.991 416.445C340.704 417.308 340.416 417.883 339.841 418.458ZM342.717 406.672C341.854 407.535 340.704 408.684 339.553 409.547C339.266 409.834 338.978 409.547 338.403 409.547C337.252 409.547 336.39 408.972 336.39 407.822C336.102 406.098 336.965 404.948 338.403 405.235C338.69 405.235 339.266 405.235 339.553 405.235C340.129 404.948 340.704 404.373 340.991 403.798C341.567 402.936 342.142 402.936 342.429 403.798C343.292 404.66 343.292 406.097 342.717 406.672ZM345.593 391.438C345.305 391.151 345.018 390.863 344.73 390.576C344.443 390.288 344.155 390.001 343.867 389.713C343.292 389.139 343.005 388.851 343.005 388.276C343.292 387.414 343.868 387.414 344.73 387.414C345.881 387.414 346.744 387.414 347.894 387.414C348.182 387.414 348.469 387.701 348.757 387.989C349.332 388.564 349.044 388.564 346.744 390.863C346.456 392.013 346.168 392.3 345.593 391.438ZM349.907 423.344C348.182 425.069 348.182 425.069 347.606 424.206C347.031 423.057 347.031 422.194 347.606 421.332C347.894 421.044 348.182 420.757 348.469 420.757C349.044 420.757 349.907 420.757 350.483 420.757C350.77 420.757 351.058 421.044 351.345 421.332C351.633 422.482 350.483 422.769 349.907 423.344ZM355.084 416.158C353.071 416.445 351.921 415.87 351.921 414.433C351.921 412.709 351.058 411.846 349.907 410.984V410.409C350.195 410.122 350.483 409.834 350.77 409.834C351.058 409.834 351.345 409.834 351.921 409.834C352.496 409.834 352.783 409.547 353.071 409.834C354.222 410.697 355.084 411.846 355.947 412.709C356.235 412.996 356.235 413.284 356.235 413.571C356.235 414.433 355.66 416.158 355.084 416.158ZM364.576 406.672C364.288 406.96 364 407.247 363.713 407.535C363.137 407.535 362.275 407.535 361.699 407.535C361.124 407.535 360.261 407.822 359.686 407.535C358.823 407.247 358.536 406.672 358.823 406.098C359.111 405.81 359.399 405.523 359.686 405.235C361.124 405.235 362.562 404.948 364 405.235C364.576 405.235 364.863 406.097 364.576 406.672ZM379.819 356.37C378.669 357.233 377.806 358.382 378.093 360.107C377.23 361.544 376.08 362.981 374.354 363.556C373.779 363.844 372.916 363.556 372.341 363.269C371.191 362.406 370.328 361.257 368.602 361.257C368.027 361.257 367.452 360.682 367.164 360.107C367.739 359.532 368.315 358.957 368.89 359.245C369.753 359.245 370.328 359.245 370.903 358.67C372.053 357.233 373.779 356.658 373.779 354.358C373.779 352.921 374.642 352.634 375.792 352.634C376.655 352.634 377.23 352.634 378.093 352.634C379.531 352.634 380.107 353.208 380.394 354.358C380.394 355.221 380.394 356.083 379.819 356.37Z"/>
</svg>
