<svg width="470" height="417" viewBox="0 0 470 417" fill="currentColor" xmlns="http://www.w3.org/2000/svg">
<path d="M456.501 168.592C455.981 168.592 455.461 168.332 455.201 168.592C454.421 169.112 453.901 169.632 453.901 170.673C453.901 171.453 453.901 172.494 453.901 173.274C453.641 174.575 454.421 175.615 455.461 176.396C456.241 176.916 456.501 177.696 456.501 178.477C456.501 181.858 456.501 185.24 456.501 188.622C456.501 189.922 456.501 191.223 456.501 192.524C455.721 193.564 454.941 194.345 454.161 195.385C454.161 197.466 453.901 199.547 454.161 201.628C454.161 203.189 453.381 203.969 452.341 204.75C451.561 205.27 451.301 206.05 451.561 207.091C451.821 208.131 451.301 208.652 450.521 209.172C449.481 209.952 448.701 210.733 448.961 212.294C448.961 213.074 449.221 213.854 450.001 214.375C451.041 215.155 451.561 216.195 451.561 217.496C451.301 219.577 451.821 221.658 451.041 223.739C450.781 223.999 450.521 224.52 450.261 224.52C447.402 225.04 447.402 225.04 445.842 226.34C444.542 227.381 443.502 228.682 443.762 230.503C442.982 231.543 441.942 232.323 441.422 233.364C441.162 233.884 441.422 234.925 441.162 235.705C440.382 236.746 439.082 237.526 438.822 238.566C438.302 239.607 439.082 240.908 437.782 241.948C435.963 243.509 436.223 243.509 436.223 246.37C436.223 248.191 436.223 248.191 438.302 250.532C438.562 250.793 438.822 251.313 438.822 251.573C438.562 253.654 439.862 254.434 440.902 255.735C441.682 256.776 440.902 258.076 441.942 259.117C442.722 260.157 443.762 260.938 444.542 261.718C445.322 262.498 446.362 263.539 447.142 264.319C447.402 264.579 447.922 264.84 448.182 264.84C451.041 264.84 454.161 264.84 457.021 264.84C458.061 264.84 458.841 265.88 458.841 267.441C458.841 269.522 458.841 271.603 458.841 273.684C458.841 273.944 458.321 274.204 458.061 274.464C456.501 276.025 456.501 276.025 456.501 278.886C456.501 280.707 456.501 280.707 454.421 283.049C454.161 283.309 453.901 283.829 453.901 284.089C453.901 285.39 453.901 286.69 453.901 287.991C454.161 290.332 453.641 292.153 451.821 293.454C451.041 294.494 451.821 295.795 451.041 296.835C450.261 297.876 449.221 298.656 448.441 299.437C448.181 299.697 447.922 299.957 447.662 300.217C444.802 302.818 446.102 302.818 443.242 300.217C441.682 298.916 441.942 298.916 443.762 296.575C444.542 295.795 444.542 294.494 444.022 293.194C443.502 292.413 442.722 292.153 441.942 292.153C440.642 292.413 439.342 292.153 438.042 292.153C437.262 292.933 436.223 293.974 435.443 294.754C435.183 295.014 434.663 295.275 434.663 295.535C433.623 297.095 431.803 296.835 430.243 297.356C429.983 297.356 429.463 297.876 429.463 298.136C428.943 301.258 428.943 301.258 427.643 302.558C426.863 303.339 425.823 304.379 425.043 305.159C424.004 306.46 422.444 307.24 421.924 308.801C422.184 310.882 420.884 311.923 419.844 312.963C419.584 313.223 419.584 313.744 419.584 314.004C419.584 315.044 419.584 315.825 419.064 316.345C417.764 317.646 416.724 318.686 415.424 319.987C414.644 320.507 414.384 321.287 414.384 322.068C414.384 328.051 414.384 333.774 414.384 339.757C414.384 340.797 414.384 341.317 413.604 341.838C413.085 342.358 412.305 342.878 412.045 343.659C411.785 344.439 412.045 345.219 412.045 346.26C412.045 347.04 412.305 348.081 411.785 348.601C411.525 349.381 410.745 349.902 409.965 350.422C408.925 351.462 409.705 352.763 408.925 353.804C408.405 354.844 406.845 355.364 406.845 356.665C406.585 357.966 406.585 359.006 405.545 360.047C404.245 361.087 403.205 362.388 401.905 363.688C399.306 366.29 399.046 366.29 399.306 367.59C399.566 369.671 397.486 370.192 396.706 371.492C396.446 371.752 396.706 372.273 396.706 372.793C396.706 374.614 396.186 375.134 394.626 375.134C393.586 375.134 393.066 375.134 392.286 375.914C391.766 376.435 390.986 377.215 390.466 377.735C389.686 378.516 388.647 379.556 387.867 380.337C386.567 380.337 385.267 380.337 383.967 380.337C382.927 380.337 382.407 380.337 381.887 381.377C381.627 381.637 381.367 381.897 381.107 382.158C380.067 383.718 377.728 382.158 376.688 383.978C375.908 385.019 374.868 385.799 373.568 385.539C372.788 385.539 372.008 386.059 371.488 386.84C370.708 387.88 369.668 388.401 368.368 388.141C367.588 388.141 366.808 388.141 365.769 388.141C364.729 388.141 363.949 389.441 363.949 390.742C363.949 392.303 364.729 393.083 366.029 393.083C369.408 393.083 372.788 393.083 376.168 393.083C377.728 393.083 378.507 393.603 379.287 394.644C380.587 396.205 382.407 395.424 383.967 395.684C385.007 395.944 385.527 395.684 386.307 394.904C386.827 394.384 387.347 393.603 388.127 393.083C388.907 392.823 389.686 392.823 390.726 393.083C390.986 393.083 391.506 393.603 391.506 393.863C391.506 394.123 391.506 394.644 391.246 394.644C389.427 396.465 387.607 398.286 385.787 400.106C384.747 400.887 383.447 400.106 382.407 401.147C381.367 401.927 380.587 402.968 379.807 403.748C379.287 404.269 378.767 405.049 377.988 405.569C376.948 406.089 375.648 405.309 374.608 406.61C374.088 407.39 373.568 408.17 372.788 408.431C371.748 408.691 370.188 408.17 369.408 409.471C368.888 410.251 368.368 410.772 367.588 411.032C366.548 411.292 364.989 410.772 364.209 412.072C363.689 412.853 362.909 413.373 362.389 413.633C361.869 413.633 361.609 413.633 361.089 413.633C360.309 413.633 359.529 414.153 359.009 414.934C358.489 415.714 357.709 416.234 356.929 416.234C352.25 416.234 347.57 416.234 342.891 416.234C342.631 416.234 342.111 415.974 341.851 415.714C340.551 413.633 338.471 413.373 336.391 413.633C335.091 413.633 333.791 413.633 332.491 413.633C332.231 413.633 331.711 413.373 331.451 413.113C330.932 412.593 330.152 411.812 329.632 411.292C329.112 411.812 328.332 412.332 327.812 412.853C327.292 413.633 326.512 413.893 325.732 413.633C324.432 413.373 323.132 413.633 321.832 413.633C321.312 414.153 320.532 414.934 320.012 415.454C319.753 415.714 319.493 416.234 318.973 416.234C314.293 416.234 309.613 416.234 304.934 416.234C303.374 416.234 302.854 414.934 301.814 414.153C301.554 413.893 301.034 413.633 300.774 413.633C296.095 413.633 291.415 413.633 286.735 413.633C286.475 413.633 285.955 413.633 285.695 413.373C285.435 413.113 284.915 412.853 284.915 412.593C284.915 412.333 285.435 412.072 285.695 411.812C286.735 411.032 288.035 411.812 289.075 410.772C289.595 410.251 290.375 409.471 290.895 408.951C292.455 407.13 292.455 407.13 292.455 403.228C292.455 401.667 291.675 401.147 290.115 401.147C286.735 401.147 283.356 401.147 279.976 401.147C278.416 401.147 277.636 400.367 276.856 399.326C275.556 398.286 274.256 396.985 274.776 395.164C274.776 394.904 274.516 394.384 274.256 394.124C272.956 393.083 271.917 391.782 272.177 389.961C271.657 389.441 271.137 388.661 270.617 388.141C269.837 387.62 269.577 386.84 269.577 386.059C269.577 385.539 269.317 385.019 269.577 384.759C272.177 380.077 272.177 380.077 271.917 376.955C271.917 376.695 271.397 376.175 271.137 376.175C270.877 376.175 270.617 376.175 270.357 376.435C270.097 376.695 269.577 377.215 269.837 377.475C270.097 379.296 269.057 380.597 267.757 381.637C267.497 381.897 267.237 382.418 267.237 382.678C267.237 384.759 267.237 386.84 267.237 388.921C267.237 390.742 267.237 390.742 265.157 394.384C264.377 395.424 264.637 396.725 264.897 398.025C264.897 399.066 264.897 399.586 264.377 400.367C262.297 402.708 262.297 402.708 262.297 405.829C262.297 406.87 262.297 407.39 261.517 408.17C260.998 408.691 260.218 409.211 259.698 409.991C258.918 410.772 258.398 411.292 257.878 410.772C257.618 410.512 257.098 410.251 257.098 409.731C257.098 408.951 256.838 407.91 257.098 407.39C257.358 406.61 258.138 406.089 258.918 405.569C259.178 405.309 259.438 404.789 259.438 404.529C259.438 401.927 259.438 399.586 259.438 396.985C259.438 395.424 259.438 395.424 261.517 392.823C261.777 392.563 262.037 392.042 262.037 391.782C262.037 384.499 262.037 377.475 262.037 370.192C262.037 369.411 261.517 368.631 260.738 368.111C260.478 367.85 259.958 368.111 259.438 368.111C259.178 367.07 259.438 366.55 260.218 366.03C260.738 365.509 261.257 364.989 261.777 364.209C261.257 363.688 260.478 362.908 259.958 362.388C259.698 362.128 259.438 361.607 259.438 361.347C259.698 359.526 258.658 358.226 257.358 357.185C256.838 356.665 256.058 356.145 255.538 355.624C255.018 356.145 254.238 356.925 253.718 357.445C253.458 357.705 252.938 357.966 252.938 357.966C251.118 356.145 249.299 354.324 247.479 352.503C246.959 351.983 246.179 351.202 245.659 350.682C244.359 350.682 243.319 350.422 242.019 350.422C239.939 350.422 239.679 350.682 239.159 353.283C239.159 354.064 238.639 354.844 237.859 355.364C237.08 355.885 236.56 356.665 236.56 357.445C236.56 358.226 236.56 359.266 236.04 359.786C233.96 361.868 231.88 363.949 229.8 366.03C229.02 366.81 228.76 367.33 229.02 368.111C229.02 370.972 229.02 374.094 229.02 376.955C229.02 377.215 228.5 377.735 228.24 377.735C227.46 378.256 226.68 378.256 225.901 377.996C225.641 377.996 225.121 377.735 224.861 377.475C223.301 375.915 222.001 374.614 220.441 373.053C219.661 372.273 218.621 371.232 217.841 370.452C216.281 370.452 214.461 370.452 212.902 370.452C212.642 370.452 212.122 370.972 212.122 371.232C212.122 371.492 212.122 371.752 212.382 372.013C212.902 372.533 213.682 373.053 214.202 373.833C214.461 374.614 214.461 375.394 214.461 376.175C214.461 376.435 213.942 376.955 213.682 377.215C212.902 377.996 210.822 377.996 210.302 377.475C209.522 376.695 208.482 375.654 207.702 374.874C206.922 374.354 206.922 373.573 206.922 372.533C206.922 371.752 207.182 370.972 207.962 370.452C209.522 369.151 209.782 368.891 208.222 367.85C207.702 367.33 206.922 366.81 206.402 366.03C205.882 365.249 205.102 365.249 204.322 365.249C203.282 365.249 202.762 365.509 202.243 366.29C201.723 366.81 200.943 367.33 200.423 367.85C197.303 367.33 196.263 370.192 194.443 371.752C194.183 372.013 194.443 372.533 194.443 373.053C193.143 373.053 191.843 373.053 190.544 373.053C190.024 372.533 189.244 372.013 188.724 371.232C187.944 370.452 187.684 370.712 186.904 371.492C185.604 373.053 185.344 373.053 183.784 373.053C183.004 373.053 182.224 373.053 181.184 373.053C179.884 373.053 179.105 373.833 179.105 375.394C179.105 376.695 179.105 377.996 179.105 379.296C179.105 379.556 178.585 380.077 178.325 380.077C177.805 380.337 176.765 380.077 176.765 379.036C175.985 375.394 176.245 375.394 173.385 375.394C172.865 375.394 172.605 375.394 172.085 375.394C171.045 375.134 170.525 375.394 169.745 375.914C168.185 377.475 166.886 378.776 165.326 380.337C164.026 381.637 164.026 381.637 164.026 383.718C164.026 385.019 164.026 386.32 164.026 387.62C164.026 389.441 164.026 389.441 162.726 390.742C159.606 393.863 159.606 393.863 159.086 396.725C158.826 397.505 158.046 398.025 157.266 398.025C156.486 398.025 155.707 398.025 154.667 398.025C152.847 398.025 152.847 398.025 151.547 396.725C149.467 394.644 147.387 392.563 145.307 390.482C144.008 389.181 144.008 389.181 145.567 387.88C146.347 387.36 146.607 386.58 146.607 385.799C146.607 383.718 146.607 381.637 146.607 379.556C146.607 378.776 145.827 378.256 145.047 377.996C144.267 377.735 143.228 377.735 142.708 378.256C141.148 379.556 139.848 381.117 138.288 382.678C138.028 382.938 137.508 382.938 137.248 382.938C136.208 382.678 135.688 382.938 134.908 383.458C134.128 384.239 133.088 385.279 132.309 386.059C131.529 387.1 132.049 388.401 131.269 389.441C130.489 390.482 129.189 391.002 129.189 392.303C129.189 392.823 129.189 393.083 129.189 393.603C129.189 393.863 128.929 394.384 128.669 394.644C127.889 395.684 126.849 396.465 126.069 397.245C125.029 398.286 123.209 398.025 121.649 396.465C119.83 394.644 118.27 394.644 116.45 396.465C115.15 397.765 114.11 398.806 112.81 400.106C112.55 400.367 112.03 400.367 111.51 400.106C110.47 399.846 109.95 400.106 109.17 400.887C108.391 401.667 107.611 402.968 106.051 402.708C103.971 402.448 101.891 402.708 99.8113 402.708C99.5513 402.708 99.0314 402.187 99.0314 401.927C98.7714 401.667 98.7714 401.147 98.7714 400.887C98.7714 396.205 98.7714 391.522 98.7714 386.84C98.7714 386.059 97.9915 385.279 97.2115 385.019C96.4316 384.759 95.6517 385.019 94.8717 385.279C94.6117 385.279 94.3518 385.799 94.0918 386.059C93.5718 386.58 92.7919 387.1 92.2719 387.88C90.9721 389.701 89.1522 390.222 86.8124 390.222C85.5125 390.222 84.4726 389.701 83.6927 388.661C83.1727 387.88 82.3928 387.62 81.6129 387.62C80.5729 387.62 80.053 387.62 79.2731 388.401C77.9732 389.701 76.9333 390.742 75.6334 392.042C75.1134 392.823 74.3335 393.083 73.5535 392.823C71.9937 392.563 70.1738 392.823 68.614 392.823C67.5741 392.823 67.0541 392.563 66.5341 391.782C65.7542 390.742 64.7143 389.961 63.9344 389.181C63.9344 387.88 63.6744 386.58 63.6744 385.539C63.6744 375.394 63.6744 365.249 63.6744 355.104C63.6744 354.064 63.6744 353.543 64.4543 352.763C64.9743 352.243 65.7542 351.462 66.2742 350.942C65.7542 350.422 65.2343 349.641 64.4543 349.121C64.1943 348.861 63.6744 348.601 63.6744 348.081C63.6744 346.78 63.6744 345.479 63.6744 344.179C63.4144 342.618 64.7143 342.098 65.4942 341.057C66.5341 340.017 66.0142 338.716 66.0142 337.415C66.0142 336.115 66.0142 335.074 67.0541 334.034C68.354 332.993 69.3939 331.693 70.6938 330.392C70.6938 330.392 70.6938 329.872 70.4338 329.612C70.1738 329.351 69.9139 329.091 69.3939 328.831C65.7542 328.051 65.7542 328.051 65.7542 325.189C65.7542 321.287 65.7542 317.646 65.7542 313.744C65.7542 311.403 65.7542 311.403 68.8739 310.882C69.6539 310.622 70.6938 310.362 70.9538 309.582C71.4737 306.46 71.4737 306.46 72.7736 305.159C73.5535 304.379 74.5935 303.339 75.3734 302.558C75.6334 302.298 75.8933 301.778 75.8933 301.518C75.8933 300.737 75.8933 299.957 75.6334 299.177C75.1134 297.876 74.5935 298.136 73.8135 298.916C73.2936 299.697 72.7736 300.477 71.9937 300.477C70.9538 300.737 69.3939 300.217 68.614 301.518C68.094 302.038 67.3141 302.558 66.7941 303.078C66.5341 303.339 66.0142 303.078 65.4942 303.078C64.9743 303.078 64.7143 303.078 64.1943 303.078C62.3745 303.078 62.3745 303.078 60.0347 305.159C58.7348 306.2 56.915 305.42 55.6151 306.98C54.5752 308.541 54.3152 308.281 53.0153 306.98C52.2354 306.2 51.9754 305.94 51.1955 306.46C50.4155 307.24 49.6356 308.541 48.0757 308.281C45.4759 308.021 43.1361 308.281 40.5364 308.281C38.9765 308.281 38.1966 309.061 37.4166 310.102C36.8967 310.882 36.1167 310.882 35.0768 310.882C34.0369 310.882 33.517 310.622 32.997 309.842C32.2171 308.801 31.4371 308.021 29.8773 308.281C29.6173 308.281 29.0973 308.281 28.8374 308.021C27.5375 306.98 26.4976 305.68 25.1977 304.379C25.1977 303.078 25.1977 301.778 25.1977 300.477C25.1977 298.916 25.1977 297.095 25.1977 295.535C25.1977 294.494 24.9377 293.974 24.4177 293.454C17.3983 286.69 10.6389 279.667 3.8795 272.904C0.759766 273.684 0.759766 273.684 0.759766 271.863C0.759766 268.481 0.759766 265.1 0.759766 261.718C0.759766 261.458 1.01974 260.938 1.27972 260.677C1.79968 260.157 2.57961 259.637 3.09957 258.857C3.8795 257.296 3.35954 255.475 3.35954 253.914C3.35954 253.134 4.13948 252.613 4.91941 252.353C8.03914 252.874 9.07905 250.012 10.8989 248.451C11.1589 248.191 10.8989 247.671 10.8989 247.151C10.8989 246.63 10.6389 246.11 10.8989 245.85C11.4189 245.07 11.9388 244.549 12.7187 244.029C15.3185 241.428 18.1783 238.566 20.7781 235.965C24.1578 232.584 27.2775 229.462 30.6572 226.08C30.9172 225.82 31.1772 225.3 31.1772 225.04C31.1772 224.52 31.1772 224.259 31.1772 223.739C31.1772 223.479 31.4371 222.959 31.4371 222.699C31.6971 222.439 31.9571 222.178 32.2171 221.918C35.8568 218.276 36.1167 218.276 36.1167 217.236C35.8568 215.155 37.6766 214.375 38.4565 213.074C38.7165 212.814 38.7165 212.294 38.4565 211.773C38.1966 210.733 38.4565 210.212 39.2365 209.432C40.0164 208.652 41.3163 207.871 41.0563 206.311C40.7963 204.23 41.0563 202.148 41.0563 200.067C42.0962 198.767 43.6561 197.986 43.6561 195.905C43.3961 193.824 43.6561 191.743 43.6561 189.662C43.6561 188.102 43.6561 186.281 43.9161 184.72C43.9161 184.46 44.436 184.2 44.696 183.939C46.2559 182.379 46.2559 182.379 46.2559 180.818C46.2559 179.517 45.9959 178.217 46.5159 177.176C48.5957 173.274 48.5957 173.274 48.5957 171.713C48.5957 169.893 48.5957 169.893 49.8956 168.592C50.1555 168.332 50.4155 168.072 50.6755 167.811C51.4554 167.031 52.4953 165.991 53.2753 165.21C53.2753 163.91 53.5353 162.609 53.2753 161.568C53.2753 160.528 53.2753 160.008 54.0552 159.227C55.3551 158.187 56.395 156.886 57.6949 155.585C58.7348 154.545 57.9549 153.244 58.7348 152.204C59.2548 151.163 60.5547 150.643 61.0746 149.342C60.8146 147.521 62.1145 146.221 63.1544 145.18C64.4543 143.62 66.5341 142.579 66.0142 139.978C66.7941 138.417 68.094 137.376 69.3939 136.336C69.6539 136.076 70.1738 135.816 70.4338 135.816C73.2936 135.816 76.4133 135.816 79.2731 135.816C80.053 135.816 80.5729 136.336 81.3529 137.116C82.3928 138.417 82.6528 138.417 83.9527 136.856C84.2126 136.596 84.4726 136.076 84.7326 136.076C85.7725 135.556 87.3324 136.336 88.1123 135.035C88.8922 133.735 87.0724 133.214 86.5524 132.434C86.0325 131.393 86.5524 130.093 85.7725 129.052C84.7326 127.752 83.4327 126.711 82.1328 125.41C81.3529 124.63 80.313 123.59 79.533 122.809C78.4931 121.509 76.9333 120.728 76.1533 119.167C75.8933 118.907 76.1533 118.387 76.1533 117.867C76.1533 117.347 76.1533 117.086 75.8933 116.826C75.3734 115.786 74.8534 115.786 74.0735 116.566C72.7736 118.127 70.6938 119.167 70.9538 121.769C70.6938 123.069 69.9139 123.59 68.094 123.59C67.3141 123.59 66.5341 123.85 66.0142 124.63C64.9743 126.191 63.1544 126.191 61.5946 126.191C60.2947 126.191 59.2548 126.191 58.2149 127.492C56.915 128.792 56.915 128.792 55.6151 127.492C53.5353 125.41 51.4554 123.329 49.3756 121.248C48.0757 120.988 46.7758 121.769 45.9959 120.208C45.4759 119.167 45.9959 117.867 45.216 116.826C44.956 116.566 44.696 116.046 44.436 116.046C43.6561 115.526 43.3961 114.745 43.3961 113.965C43.3961 112.664 43.3961 111.364 43.3961 110.063C43.3961 109.283 44.1761 108.502 44.956 108.502C47.0358 108.502 49.1156 108.502 51.1955 108.502C51.4554 108.502 51.9754 108.502 52.2354 108.242C53.2753 107.462 54.0552 106.421 54.8351 105.641C56.135 104.34 57.4349 103.3 58.4748 101.999C59.5147 100.698 60.5547 100.958 61.8545 100.958C62.8945 100.178 63.6744 99.1375 64.7143 98.6172C65.7542 98.097 67.0541 98.8774 68.094 97.5767C68.8739 96.5362 69.9139 95.7558 70.6938 94.9754C70.9538 94.7153 70.9538 94.195 70.9538 93.9349C70.6938 92.8944 70.9538 92.3742 71.7337 91.5938C72.5136 90.8134 73.8135 90.2931 73.5535 88.4722C73.2936 86.3912 73.5535 84.3102 73.5535 82.2291C73.5535 81.969 74.0735 81.7089 74.3335 81.1886C74.8534 80.6684 75.6334 80.1481 75.8933 79.3677C76.1533 78.3272 75.6334 77.0266 76.9333 75.986C77.4532 75.4658 77.9732 74.6854 78.4931 74.1651C78.7531 71.3037 80.053 70.2632 81.3529 68.9626C82.3928 67.922 81.3529 65.5809 83.1727 64.5404C84.4726 63.76 84.4726 62.4593 84.4726 61.1587C84.4726 60.8986 84.7326 60.3783 84.9926 60.1182C85.2525 59.8581 85.5125 59.3378 85.7725 59.3378C86.5524 58.8175 86.8124 58.0372 86.8124 57.2568C86.8124 55.9561 86.8124 54.6555 86.8124 53.3548C87.5923 52.3143 88.3723 51.5339 89.4122 50.4934C93.8318 46.0712 98.2514 41.649 102.931 36.9667C103.191 36.7066 103.711 36.4465 103.971 36.4465C105.531 36.4465 107.351 36.4465 108.911 36.4465C110.47 36.4465 112.29 35.9262 113.85 36.7066C114.63 36.9667 115.15 38.0072 115.67 38.5275C115.93 38.7876 116.45 38.7876 116.71 38.7876C118.79 38.7876 120.869 38.7876 122.949 38.7876C123.209 38.7876 123.729 39.0478 123.989 39.3079C125.029 40.6085 126.329 41.649 128.149 41.3889C129.189 41.9092 129.969 42.9497 131.009 43.7301C131.269 43.9902 131.789 43.7301 132.309 43.7301C132.828 43.7301 133.348 43.4699 133.608 43.7301C135.688 45.8111 137.768 47.8921 139.848 49.9732C139.848 50.7536 139.588 51.7941 140.108 52.3143C140.628 53.3548 141.668 54.1352 142.708 55.1757C144.008 56.4764 144.008 56.4764 146.087 56.4764C147.647 56.4764 149.467 56.4764 151.027 56.4764C151.287 56.4764 151.807 56.2163 152.067 55.9561C153.367 54.9156 154.407 53.615 155.707 52.3143C157.266 50.7536 158.826 49.4529 160.126 47.8921C161.426 46.3314 162.986 46.3314 164.546 46.0712C165.846 44.7706 166.886 43.7301 168.185 42.4294C169.485 41.1288 169.485 41.1288 171.565 41.1288C173.125 41.1288 174.945 41.1288 176.505 41.1288C176.765 41.1288 177.285 40.8687 177.545 40.6085C178.845 39.568 179.884 38.2674 181.184 36.9667C182.744 35.406 184.304 34.1053 185.604 32.5445C186.904 30.9838 188.464 30.9838 190.024 30.7236C191.323 29.423 192.623 28.3825 193.663 27.0818C194.963 25.2609 197.563 26.5616 198.863 24.4805C199.643 23.1799 201.203 22.1394 202.503 20.8387C203.802 19.5381 205.102 18.4976 206.142 17.1969C207.182 15.6362 209.002 15.8963 210.562 15.376C212.122 14.8558 211.602 13.295 211.602 11.9944C211.602 8.6127 211.602 8.6127 214.721 8.09244C214.981 8.09244 215.501 7.83231 215.761 7.57218C216.021 7.31205 216.541 7.05192 216.541 6.7918C216.801 6.01141 216.541 5.23102 216.541 4.19051C217.841 2.88986 218.881 1.84935 220.181 0.548706C220.181 0.548706 220.701 0.808835 220.961 1.06896C220.961 2.62974 221.741 3.41012 222.261 3.93038C222.781 3.41012 223.561 2.88986 224.081 2.10948C224.601 1.32909 225.381 1.32909 226.16 1.32909C227.72 1.58922 229.54 0.548706 230.84 2.36961C231.62 3.41012 232.66 3.93038 233.96 3.93038C239.419 3.93038 244.879 3.93038 250.338 3.93038C251.638 3.93038 252.678 3.93038 253.718 4.97089C257.618 8.87283 261.517 12.7748 265.417 16.4166C265.677 16.6767 266.197 16.4166 266.717 16.4166C267.237 16.4166 267.757 16.4166 268.017 16.6767C271.397 19.7982 274.516 23.1799 277.896 26.5616C279.456 28.1224 281.016 29.423 282.316 30.9838C283.356 32.0243 284.655 31.7642 285.695 31.7642C287.775 31.7642 287.775 31.7642 289.855 33.5851C290.115 33.8452 290.635 34.1053 290.895 34.1053C292.195 34.1053 293.495 34.1053 294.795 34.1053C296.874 34.1053 296.874 34.1053 300.254 36.1863C300.514 36.4465 301.034 36.7066 301.294 36.7066C304.154 36.7066 307.274 36.7066 310.133 36.7066C310.393 36.7066 310.913 36.9667 311.173 37.2269C314.813 39.3079 314.813 39.3079 316.633 39.3079C317.933 39.3079 319.233 39.3079 320.532 39.3079C320.792 39.3079 321.312 39.568 321.572 39.8281C322.092 40.3484 322.872 41.1288 323.392 41.649C323.912 41.1288 324.692 40.6085 325.212 40.0883C326.512 39.0478 327.812 38.0072 327.292 35.9262C327.292 35.6661 327.552 35.1458 327.812 34.8857C329.632 33.0648 331.451 31.2439 333.271 29.423C333.791 28.9027 334.571 28.9027 335.611 28.9027C336.391 29.1629 337.431 29.423 337.431 30.2034C337.691 31.2439 337.951 32.5445 336.651 33.5851C335.611 34.3654 334.831 35.1458 335.091 36.7066C335.351 38.0072 335.091 39.3079 335.351 40.3484C335.351 40.6085 335.871 41.1288 336.131 41.1288C337.691 41.3889 339.511 41.3889 341.071 41.3889C342.111 40.6085 342.891 39.8281 343.93 38.7876C346.01 36.7066 348.09 34.6256 350.17 32.5445C350.43 32.2844 350.43 31.7642 350.17 31.2439C349.91 30.2034 350.17 29.423 350.95 29.1629C351.47 28.9027 351.99 29.423 352.77 29.9433C354.33 31.504 355.629 32.8047 355.109 35.406C354.849 37.487 355.109 39.568 355.109 41.649C355.109 43.2098 355.889 43.9902 357.449 43.7301C359.009 43.4699 359.789 44.5105 360.569 45.551C361.609 46.8516 362.909 46.5915 363.949 46.3314C364.729 46.0712 365.249 45.2908 365.249 44.5105C365.249 43.9902 364.989 43.4699 365.249 43.2098C366.289 41.3889 367.588 39.8281 369.408 39.0478C370.188 38.7876 370.968 39.0478 371.748 39.3079C372.528 39.8281 372.788 40.6085 372.788 41.3889C372.788 41.9092 372.788 42.1693 372.788 42.6896C372.788 43.2098 372.788 43.4699 372.788 43.9902C372.528 45.551 373.828 46.3314 374.608 47.1117C375.388 47.8921 376.168 49.1928 377.468 49.1928C377.987 49.1928 378.247 49.1928 378.767 49.1928C380.067 49.1928 381.367 49.1928 382.667 49.1928C384.227 48.9326 385.007 49.713 385.787 50.7536C387.087 52.0542 388.127 53.0947 389.427 54.3954C390.726 55.696 390.726 55.4359 390.726 57.777C390.726 59.0777 390.466 60.3783 391.246 61.4188C393.326 63.76 393.326 63.76 393.066 66.8815C393.066 67.922 393.066 68.4423 393.846 69.2227C394.366 69.743 395.146 70.2632 395.666 71.0436C395.926 71.824 395.666 72.6044 395.666 73.6449C395.666 74.4253 395.406 75.4658 395.666 76.2462C395.926 77.0265 396.706 77.5468 397.486 78.0671C398.266 78.5873 398.526 79.3677 398.266 80.4082C398.266 80.6684 398.266 81.4487 398.266 81.7089C399.306 83.0095 400.606 84.05 401.905 85.3507C402.685 86.1311 403.725 87.1716 404.505 87.952C405.805 86.6513 406.845 85.6108 408.145 84.3102C408.405 84.05 408.405 83.5298 408.405 83.2696C408.665 81.4487 409.185 80.6684 410.225 80.4082C412.565 80.1481 413.604 80.9285 413.604 83.0095C413.604 83.7899 413.604 84.8304 413.604 85.6108C413.864 86.6513 413.604 87.1716 412.825 87.6918C412.305 88.2121 411.785 88.7323 411.265 89.5127C411.785 90.033 412.565 90.8134 413.085 91.3336C413.345 91.5938 413.604 92.114 413.604 92.3741C413.604 94.4552 413.604 96.5362 413.604 98.6172C413.604 99.3976 413.085 100.178 412.565 100.698C411.005 101.999 411.005 101.999 412.565 103.3C413.604 104.34 413.864 105.381 413.864 106.681C414.904 108.502 416.204 109.803 418.284 110.843C420.104 110.583 421.404 111.884 422.444 112.924C422.704 113.184 423.224 113.445 423.484 113.184C424.784 112.924 425.823 113.445 426.603 114.745C427.123 115.526 427.903 115.786 428.683 115.786C431.283 115.786 433.623 115.786 436.223 115.786C439.082 115.786 439.082 115.786 442.722 118.127C442.722 118.127 443.502 117.867 443.502 117.347C444.542 115.786 443.762 114.225 444.022 112.404C444.022 111.624 443.502 110.843 442.722 110.323C441.942 109.803 441.422 109.022 441.422 108.242C441.422 105.381 441.422 102.259 441.422 99.3976C441.422 99.1375 441.682 98.6172 441.942 98.3571C442.462 97.8369 443.242 97.0565 443.762 96.5362C443.762 95.2356 444.022 93.9349 444.022 92.8944C444.022 91.3336 444.802 90.2931 445.842 90.033C447.922 89.7729 449.221 90.8134 449.221 92.6343C449.221 93.1545 449.221 93.4147 449.221 93.9349C449.221 94.7153 449.481 95.7558 449.221 96.5362C448.961 97.3166 448.182 97.8369 447.402 98.3571C447.142 98.6172 446.622 98.8774 446.622 99.3976C446.622 101.999 446.622 104.34 446.622 106.941C447.662 108.242 449.221 109.022 448.961 111.103C448.701 112.664 448.961 114.485 448.961 116.046C448.961 117.607 448.961 119.428 448.961 120.988C448.961 122.289 449.741 123.069 451.301 123.069C452.081 123.069 453.121 123.069 453.901 123.069C454.941 122.809 455.721 123.069 455.981 123.85C456.241 124.37 455.981 124.89 455.201 125.671C453.901 126.711 453.121 128.532 451.041 128.272C450.781 128.272 450.261 128.272 450.001 128.532C448.961 129.052 448.961 129.573 449.741 130.353C450.781 131.133 451.561 132.174 452.341 132.954C454.161 134.515 454.161 134.515 453.901 137.376C453.901 138.157 453.901 138.937 453.901 139.978C453.901 140.758 453.901 141.799 454.161 142.319C454.421 143.099 455.201 143.62 455.981 144.14C456.761 144.92 457.801 145.961 458.581 146.741C458.841 147.001 459.101 147.521 459.101 147.782C459.101 150.643 459.101 153.765 459.101 156.626C459.101 156.886 459.361 157.406 459.621 157.666C461.7 161.308 461.96 161.568 461.7 164.43C461.7 164.69 461.44 165.21 461.18 165.47C460.66 166.251 460.14 165.991 459.361 164.95C458.841 164.17 458.061 163.649 457.541 163.91C456.501 164.43 456.501 164.95 456.501 165.991C456.501 166.511 456.501 166.771 456.501 167.291C456.501 167.811 456.501 168.072 456.501 168.592ZM210.822 32.0243C210.822 30.7236 211.082 29.423 210.822 28.3825C210.302 26.8217 207.962 26.5616 208.482 24.4805C207.962 24.4805 207.702 24.2204 207.182 24.4805C205.882 25.0008 205.362 27.6021 206.402 28.6426C206.922 29.1629 207.702 29.6831 208.222 30.4635C208.482 30.7236 208.482 31.2439 208.482 31.504C208.742 33.5851 209.262 34.3654 210.042 34.1053C210.822 33.8452 211.342 33.0648 210.042 19.5381C209.522 19.5381 208.742 20.0584 208.482 20.8387C208.222 21.6191 208.482 22.3995 208.482 23.1799C208.222 24.4805 208.482 24.7407 209.782 24.2204C210.562 23.9603 211.082 23.1799 211.082 22.3995C211.082 21.0989 210.562 19.5381 210.822 32.0243ZM413.344 165.991C413.344 165.21 413.344 164.43 413.344 163.649C413.344 162.869 413.344 162.089 412.565 161.568C412.045 161.048 411.525 161.048 410.745 162.089C410.225 162.609 409.705 163.389 409.185 163.649C408.145 164.43 408.145 165.73 408.145 166.771C408.145 167.551 408.665 168.072 409.445 168.592C409.705 168.852 410.225 168.592 410.485 168.592C410.485 169.112 410.225 169.372 410.485 169.632C410.745 170.413 411.525 170.933 412.305 170.933C412.565 170.933 413.085 170.933 413.604 170.933C415.164 170.933 415.684 170.413 415.684 168.852C415.684 168.072 415.684 167.291 415.164 166.771C414.904 165.991 414.384 165.73 413.344 165.991ZM362.649 257.036C362.649 257.556 362.649 257.816 362.649 258.336C362.909 259.117 363.429 259.637 364.209 259.637C364.469 259.637 364.729 259.117 364.989 258.857C365.249 258.596 365.249 258.076 365.249 257.816C365.509 256.515 364.989 255.475 363.949 254.955C362.909 254.174 362.649 254.174 357.709 250.793C357.709 251.573 357.709 252.353 357.709 253.134C357.709 253.394 357.969 253.914 358.229 254.174C359.009 255.215 360.309 254.694 361.609 254.955C362.909 255.215 362.909 254.955 362.909 253.654C362.909 251.053 362.909 251.053 361.349 249.492C360.569 248.712 360.049 247.671 358.749 247.671C357.449 248.191 357.709 249.492 362.649 257.036ZM274.256 330.652C274.516 330.652 275.296 330.912 275.296 330.652C277.376 328.571 279.716 326.49 281.796 324.149C282.056 323.889 281.796 323.368 283.356 318.166C282.836 318.166 282.056 318.686 281.796 319.467C281.536 320.247 281.796 321.027 281.796 321.808C281.536 323.108 281.796 323.368 283.096 322.848C283.876 322.588 284.396 321.808 284.396 321.027C284.655 319.727 284.136 317.906 281.796 322.848C279.716 322.848 277.896 322.848 275.816 322.848C275.036 322.848 274.256 323.629 274.256 324.409C274.256 326.49 274.256 328.311 274.256 332.993C274.256 332.473 274.256 332.213 274.256 331.693C274.516 330.392 274.256 329.872 272.956 330.392C272.697 330.652 272.437 330.912 272.177 331.172C271.397 331.953 270.617 333.253 269.057 332.733C268.277 332.473 267.237 332.733 266.977 333.774C266.717 334.554 267.497 335.074 269.577 335.334C270.357 335.334 271.137 335.595 271.657 336.375C272.177 337.155 272.956 337.676 273.476 337.415C274.256 336.895 274.516 336.115 274.256 335.334C273.996 334.814 274.256 334.034 274.256 330.652ZM69.1339 194.084C69.1339 193.564 69.1339 193.304 69.1339 192.784C68.8739 192.003 68.354 191.483 67.5741 191.483C67.3141 191.483 67.0541 192.003 66.7941 192.264C66.5341 192.524 66.5341 193.044 66.5341 193.304C66.2742 194.605 66.7941 195.645 67.834 196.166C68.8739 196.946 69.1339 196.946 74.5935 201.368C75.6334 201.368 76.4133 201.368 77.1932 201.368C78.4931 201.368 79.2731 200.588 79.2731 199.027C79.2731 197.206 78.4931 196.166 76.4133 196.166C74.0735 196.166 71.4737 196.166 69.1339 196.166C69.1339 196.686 68.8739 197.206 69.1339 197.466C69.9139 198.507 70.9538 199.287 71.7337 200.067C72.5136 201.108 73.5535 201.628 69.1339 194.084ZM85.5125 214.114C84.2126 214.114 82.9127 214.114 81.8728 214.114C80.053 213.854 79.0131 215.155 79.2731 217.236C79.533 218.537 80.313 219.317 81.8728 219.057C82.9127 219.057 83.4327 219.057 83.9527 220.097C84.9926 221.658 86.5524 222.178 88.1123 221.658C89.1522 221.138 89.4122 220.618 88.6322 219.837C88.1123 219.317 87.3324 218.537 86.8124 218.016C87.3324 217.496 87.8523 216.716 88.3723 216.195C88.6323 215.935 89.1522 215.675 89.1522 215.415C89.6722 214.114 89.1522 213.854 87.8523 214.114C87.0724 214.375 86.2925 214.114 93.3119 211.513C92.2719 211.513 91.232 211.253 89.9321 212.033C89.1522 212.554 88.8922 213.334 89.1522 214.114C91.492 213.854 91.492 215.415 91.752 217.236C91.752 218.797 92.5319 219.317 94.0918 219.317C95.9116 219.317 96.6916 218.537 96.6916 216.456C96.6916 215.935 96.6916 215.675 96.6916 215.155C96.9515 212.293 96.6916 211.513 85.5125 214.114ZM109.69 78.8475C109.95 79.1076 110.21 79.3677 110.47 79.6278C112.03 80.9285 113.07 83.0095 115.41 82.4893C115.93 83.0095 116.71 83.2696 117.23 84.05C118.01 85.0905 118.27 85.0905 119.05 84.3102C119.57 83.7899 119.83 83.0095 119.57 81.969C119.57 81.1886 119.31 80.1481 118.27 80.1481C115.15 79.3677 115.15 79.3677 114.11 78.3272C113.33 77.5468 112.29 76.7664 111.51 75.7259C110.47 74.4253 109.17 74.9455 108.131 74.9455C107.611 74.9455 107.351 74.9455 106.831 74.9455C106.571 75.986 106.831 76.5063 107.611 77.0266C108.391 77.5468 108.911 78.0671 106.831 73.6449C106.831 72.3442 106.571 71.0436 106.831 70.0031C107.091 68.4423 105.791 67.6619 105.011 66.8815C104.231 66.3613 103.971 65.5809 104.231 64.8005C104.491 64.0201 104.231 63.2397 104.231 62.1992C104.491 61.1587 103.971 60.6384 103.191 60.1182C101.891 59.0777 102.151 59.0777 101.371 55.9561C101.371 55.696 100.851 55.1757 100.591 55.1757C99.8113 55.1757 99.2913 55.696 99.0314 56.4764C99.0314 58.0372 98.7714 59.8581 99.2913 61.4188C99.5513 62.1992 100.331 62.7195 101.111 63.2397C101.371 63.4999 101.631 64.0201 101.631 64.2802C101.631 65.5809 101.631 66.8815 101.631 67.9221C101.631 68.7024 102.151 69.4828 102.671 70.0031C103.711 70.7835 104.231 71.824 103.971 73.1246C103.971 73.905 104.491 74.6854 105.271 74.9455C107.091 75.4658 107.611 74.9455 109.69 78.8475ZM361.609 183.679C362.389 183.679 363.169 183.679 364.209 183.679C364.989 183.679 366.029 183.939 366.808 183.679C367.588 183.419 368.108 182.639 368.628 181.858C369.408 181.078 370.448 180.038 371.228 179.257C371.748 178.737 372.528 178.737 373.568 178.477C375.128 178.477 375.648 177.957 375.648 176.136C375.648 174.835 374.868 173.534 373.828 173.534C372.268 173.534 370.448 173.534 368.888 173.534C366.808 173.534 366.808 173.534 365.509 174.835C363.169 177.176 360.829 179.517 358.489 181.858C358.229 182.119 358.229 182.379 358.489 182.639C358.749 182.899 359.009 183.419 359.269 183.419C359.789 183.939 360.569 183.679 361.609 183.679ZM327.292 196.946C327.292 197.986 327.292 198.767 327.292 199.547C327.292 200.588 328.332 201.628 329.892 201.628C331.451 201.628 332.491 200.848 332.491 199.807C332.491 198.247 332.491 196.426 332.491 194.865C332.491 193.304 332.491 193.304 334.571 190.703C334.831 190.443 334.831 190.183 334.571 189.922C334.311 189.662 334.051 189.142 333.791 189.142C333.011 189.142 331.971 188.882 331.451 189.142C330.152 189.662 329.892 190.963 330.152 192.264C330.152 193.044 329.632 193.564 328.852 194.084C327.552 194.605 327.032 195.905 327.292 196.946ZM415.424 256.515C415.424 256.255 415.684 255.735 415.684 255.735C414.904 254.955 413.864 254.174 413.085 253.134C412.045 251.833 410.745 252.613 409.705 252.093C408.925 251.833 408.405 251.053 407.885 250.532C407.105 249.232 405.805 249.752 404.505 249.752C404.245 249.752 403.725 250.272 403.725 250.532C402.945 251.573 402.945 252.613 403.725 253.914C404.245 254.694 404.765 254.955 405.805 254.955C406.585 254.955 407.365 254.955 408.145 254.955C409.705 254.694 410.225 255.735 411.265 256.515C412.305 257.556 414.644 257.556 415.424 256.515ZM64.1943 229.462C63.4144 229.462 62.6345 229.462 61.8545 229.462C61.3346 229.462 61.0746 229.202 60.5547 229.462C59.5147 229.982 59.2548 230.503 59.5147 231.023C59.7747 231.283 60.0347 231.803 60.2947 231.803C61.5946 231.803 62.8944 232.063 63.9344 231.803C66.0142 231.543 66.5341 233.624 67.834 234.404C68.094 234.665 68.614 234.404 69.1339 234.404C70.4338 234.404 71.7337 234.665 72.7736 234.404C73.8135 234.144 74.0735 233.364 73.8135 232.844C73.5535 232.584 73.2936 232.063 73.0336 232.063C70.1738 231.543 70.1738 231.803 68.8739 230.242C68.614 229.982 68.354 229.462 68.094 229.462C66.5341 229.202 65.2343 229.462 64.1943 229.462ZM365.509 229.462C364.209 229.462 362.909 229.462 361.869 229.462C361.609 229.462 361.089 229.722 360.829 230.242C360.569 230.503 360.569 231.023 360.569 231.023C361.609 232.323 362.909 233.364 363.949 234.665C365.249 234.665 366.289 234.665 367.588 234.665C369.668 234.665 370.448 233.624 370.188 231.543C369.928 230.242 369.148 229.462 367.848 229.462C367.068 229.462 366.289 229.462 365.509 229.462ZM103.451 82.4893C102.671 82.4893 101.891 82.4893 101.111 82.4893C100.851 82.4893 100.331 83.0095 100.331 83.2696C100.071 83.5298 100.071 83.7899 100.071 84.05C100.331 84.3102 100.591 84.5703 100.851 84.8304C101.631 85.6108 102.671 86.6513 103.451 87.4317C104.751 87.4317 105.791 87.4317 107.091 87.4317C108.131 87.4317 108.651 87.4317 109.17 86.6513C109.69 86.1311 109.43 85.6108 108.391 84.8304C108.131 84.5703 107.871 84.3102 107.611 84.05C107.091 83.5298 106.571 82.7494 105.791 82.4893C105.011 82.2291 104.231 82.4893 103.451 82.4893ZM132.568 90.033C134.128 90.033 134.908 89.5127 134.908 87.952C134.908 86.6513 135.168 85.6108 136.208 84.8304C137.508 83.5298 137.768 83.0095 137.508 81.7089C137.508 81.4487 137.248 80.9285 137.248 80.6684C136.728 79.6278 136.208 79.6278 135.428 80.6684C134.388 82.2291 132.049 83.0095 132.568 85.6108C132.568 86.3912 132.049 86.9114 131.269 87.4317C130.489 87.952 130.229 88.4722 130.489 89.2526C130.749 90.033 131.529 90.033 132.568 90.033ZM115.93 95.2356C114.63 95.2356 113.59 95.2356 112.29 95.2356C110.21 95.2356 109.43 96.2761 109.69 98.3571C109.69 99.1375 109.95 99.9179 110.99 100.178C111.77 100.438 112.55 100.438 113.33 100.178C113.59 100.178 113.85 99.6578 114.37 99.3976C115.93 97.8369 115.93 98.097 118.53 97.5767C119.57 97.3166 119.83 96.5362 119.57 96.016C119.31 95.7558 119.05 95.2356 118.79 95.2356C117.75 94.9754 116.71 95.2356 115.93 95.2356ZM420.884 264.84C420.884 264.059 420.884 263.279 420.884 262.498C420.884 261.978 421.144 261.718 420.884 261.198C420.364 260.157 419.844 259.897 419.324 260.157C419.064 260.417 418.544 260.677 418.544 260.938C418.024 263.799 418.284 263.799 416.724 265.1C415.424 266.14 415.944 267.441 415.944 268.481C415.944 268.741 416.464 269.262 416.724 269.262C418.024 270.042 419.064 269.782 420.104 269.262C420.364 269.002 420.884 268.741 420.884 268.481C420.884 267.441 420.884 266.14 420.884 264.84ZM426.083 187.581C426.083 186.801 426.083 186.02 426.083 185.24C426.083 184.98 425.563 184.46 425.303 184.46C425.043 184.46 424.524 184.46 424.524 184.46C423.484 185.5 422.184 186.801 421.144 187.841C421.144 189.142 421.144 190.183 421.144 191.483C421.144 192.524 421.144 193.044 421.924 193.564C422.444 193.824 422.964 193.564 423.744 192.524C424.004 192.264 424.264 192.003 424.524 191.743C426.083 190.183 426.083 190.183 426.083 187.581ZM438.562 210.993C438.562 209.952 438.562 209.172 438.562 208.392C438.562 208.131 438.302 207.611 438.302 207.351C437.782 206.311 437.262 206.311 436.483 207.351C435.703 208.392 434.663 208.912 433.883 209.952C433.103 211.253 433.623 213.074 433.623 214.635C433.623 214.895 433.883 215.415 433.883 215.675C434.403 216.716 434.923 216.716 435.703 215.675C436.223 214.895 436.742 214.375 437.522 213.854C438.562 213.334 438.822 212.294 438.562 210.993ZM425.303 211.513C426.603 211.513 427.643 211.513 428.943 211.513C429.203 211.513 429.723 211.253 429.983 211.253C430.243 210.993 430.763 210.733 430.763 210.473C430.763 210.212 430.503 209.952 429.983 209.692C428.943 208.912 427.643 209.172 426.603 209.172C425.303 209.172 424.264 209.172 423.484 207.871C422.444 206.311 420.884 206.05 419.324 206.831C418.024 207.351 418.024 207.351 420.104 209.432C422.184 211.513 422.184 211.513 425.303 211.513ZM97.7315 105.641C96.9515 106.421 96.1716 107.462 95.1317 108.242C94.0918 109.022 94.0918 109.543 95.1317 110.063C95.3917 110.323 95.9116 110.323 96.1716 110.323C96.9515 110.583 97.7315 110.323 98.5114 109.803C99.8113 108.762 100.851 107.462 101.891 106.421C101.891 105.641 101.891 104.86 101.891 104.08C101.891 103.82 101.371 103.56 101.111 103.3C100.591 102.779 100.071 103.3 99.2913 104.08C99.0314 104.6 98.2514 105.12 97.7315 105.641ZM143.228 74.4253C143.488 74.4253 144.008 74.6854 144.008 74.4253C145.307 73.3847 146.347 72.0841 147.387 71.0436C147.387 70.2632 147.387 69.4828 147.387 68.7024C147.387 68.4423 146.867 68.1822 146.607 67.9221C146.087 67.4018 145.567 67.922 144.787 68.7024C144.008 69.7429 142.968 70.5233 142.188 71.3037C142.188 72.0841 142.188 72.8645 142.188 73.6449C142.708 73.905 142.968 74.1651 143.228 74.4253ZM165.326 64.0201C165.066 63.76 165.066 63.2397 164.806 62.9796C164.286 62.1992 163.766 61.9391 162.726 61.9391C161.686 61.9391 161.166 61.9391 160.646 62.7195C160.126 63.76 159.866 64.8005 160.646 66.1011C161.166 66.8815 161.686 67.1417 162.726 67.1417C163.766 67.1417 164.286 67.1417 164.806 66.3613C165.326 65.841 165.326 65.0606 165.326 64.0201ZM188.204 55.1757C188.464 53.3548 187.424 52.0542 185.604 52.0542C184.044 52.0542 183.264 52.5745 183.004 54.1352C182.744 55.9561 183.784 57.2568 185.604 57.2568C187.164 56.9966 187.944 56.4764 188.204 55.1757ZM203.282 29.1629C203.542 28.1224 203.282 27.6021 202.503 27.0818C201.983 26.8217 201.463 27.0818 200.683 27.8622C200.163 28.3825 199.643 29.1629 198.863 29.6831C197.563 30.7236 198.083 31.7642 198.083 33.0648C198.083 33.3249 198.603 33.5851 198.863 33.8452C199.123 33.8452 199.643 33.8452 199.643 33.8452C203.282 30.7236 203.282 30.7236 203.282 29.1629ZM362.909 269.782C364.209 269.782 365.509 269.782 366.548 269.782C366.808 269.782 367.328 269.262 367.328 269.002C367.588 268.481 367.328 267.961 366.289 267.441C363.689 267.441 361.349 267.441 358.749 267.441C358.489 267.441 357.969 267.961 357.969 268.221C357.709 268.741 357.969 269.522 359.009 269.782C360.309 270.042 361.609 269.782 362.909 269.782ZM109.69 334.294C109.69 335.074 109.43 336.115 109.69 336.635C109.95 337.676 110.73 337.936 111.25 337.676C111.51 337.415 112.03 337.155 112.03 336.895C112.55 334.034 112.29 333.774 113.85 332.733C114.89 331.953 114.89 331.432 113.85 330.912C113.59 330.652 113.07 330.652 112.81 330.392C110.99 330.132 109.69 331.172 109.69 332.993C109.69 333.513 109.69 334.034 109.69 334.294ZM104.491 345.74C105.791 345.74 106.051 345.479 109.17 342.358C109.17 342.098 109.17 341.838 109.17 341.577C108.911 341.317 108.651 340.797 108.391 340.797C107.611 340.797 106.831 340.797 106.051 340.797C105.271 341.577 104.491 342.618 103.451 343.398C102.671 344.179 102.411 344.439 102.671 345.219C102.931 345.74 103.711 346 104.491 345.74ZM352.51 205.27C352.51 204.75 352.51 204.49 352.51 203.969C352.51 201.888 351.47 201.108 349.39 201.368C349.13 201.368 348.61 201.628 348.35 201.628C347.31 202.148 347.31 202.669 348.09 203.449C349.65 204.75 349.39 205.01 349.91 207.611C350.17 208.652 350.95 208.912 351.47 208.652C351.73 208.392 352.25 208.131 352.25 207.871C352.77 207.091 352.51 206.05 352.51 205.27ZM410.745 182.379C410.745 181.598 411.005 180.558 410.745 180.038C410.485 179.257 409.705 178.737 408.925 178.737C408.145 178.477 407.365 178.737 406.585 178.997C405.545 179.517 405.545 180.038 406.585 180.818C408.145 182.119 407.885 182.119 408.405 184.98C408.405 185.24 408.925 185.76 409.185 185.76C409.705 186.021 410.485 185.76 410.745 184.72C411.005 184.2 410.745 183.159 410.745 182.379ZM365.249 224.78C365.509 222.959 364.469 221.658 362.649 221.658C361.089 221.658 360.309 222.178 360.049 223.479C359.789 225.3 360.829 226.601 362.649 226.601C364.209 226.861 364.989 226.34 365.249 224.78ZM411.525 206.571C412.305 206.571 413.085 206.571 413.864 206.571C414.644 206.571 415.164 206.05 415.684 205.27C415.164 204.49 414.644 203.969 413.864 203.969C412.565 203.969 411.525 203.709 410.745 202.669C410.225 201.888 409.705 201.628 408.925 201.888C408.145 202.409 408.145 203.189 408.145 203.969C408.145 205.01 408.145 205.53 409.185 206.05C409.965 206.571 410.485 206.571 411.525 206.571ZM377.988 184.98C377.988 184.46 377.988 184.2 377.988 183.679C378.247 182.639 377.988 182.119 377.208 181.598C376.688 181.338 376.168 181.598 375.388 182.379C375.128 182.639 374.868 182.899 374.608 183.159C374.088 183.679 373.568 184.2 373.048 184.98C373.568 185.5 374.088 186.021 374.868 186.801C376.948 188.882 376.948 188.882 377.468 188.362C377.987 187.841 377.988 187.841 377.988 184.98ZM352.77 221.658C351.99 221.658 351.21 221.658 350.43 221.658C349.91 221.658 349.65 221.658 349.13 221.658C348.35 222.178 347.83 222.699 348.09 223.219C348.35 223.479 348.61 223.999 348.87 223.999C351.73 224.52 351.99 224.259 353.03 225.82C353.81 226.861 354.33 226.861 354.849 225.82C355.109 225.56 355.109 225.04 355.369 224.78C355.369 223.479 354.589 221.398 352.77 221.658ZM75.3734 168.592C74.5935 168.592 73.5535 168.332 73.0336 168.592C72.2537 168.852 71.7337 169.632 71.7337 170.413C71.4737 171.193 71.7337 171.974 71.9937 172.754C72.5136 173.794 73.0336 173.794 73.8135 172.754C75.1134 171.193 75.1134 171.453 77.9732 170.933C78.2331 170.933 78.7531 170.413 78.7531 170.153C79.0131 169.632 78.7531 168.852 77.7132 168.592C77.1932 168.332 76.1533 168.592 75.3734 168.592ZM63.6744 212.554C63.4144 212.293 63.1544 211.773 62.8945 211.773C62.6345 211.513 62.1145 211.773 61.5946 211.773C59.7747 211.773 58.7348 212.814 58.9948 214.895C58.9948 215.155 59.2548 215.675 59.2548 215.935C59.7747 216.976 60.2947 216.976 61.0746 216.195C63.4144 213.594 63.9344 213.074 63.6744 212.554ZM298.174 199.027C298.954 199.027 299.734 199.027 300.514 199.027C300.774 199.027 301.294 198.507 301.294 198.247C301.554 197.726 301.294 196.686 300.254 196.686C298.694 196.426 296.874 196.686 295.315 196.686C295.055 196.686 294.535 197.206 294.535 197.466C294.275 197.986 294.535 198.767 295.575 199.027C296.614 199.027 297.394 199.027 298.174 199.027ZM443.762 127.492C443.762 126.711 443.762 125.931 443.762 125.15C443.762 124.37 443.242 123.59 442.462 123.329C441.682 123.85 441.162 124.37 441.162 125.15C441.162 126.451 441.162 127.752 441.162 128.792C441.162 129.573 441.682 130.353 442.462 130.613C442.982 130.873 443.762 129.052 443.762 127.492ZM327.292 249.492C329.112 249.492 330.152 248.451 329.892 246.37C329.892 246.11 329.632 245.59 329.632 245.33C329.112 244.289 328.592 244.289 327.812 245.33C327.292 246.11 326.772 246.63 325.992 247.151C325.212 247.671 324.952 248.191 325.212 248.972C325.732 249.492 326.512 249.752 327.292 249.492ZM422.964 128.012C422.184 128.012 421.404 128.012 420.624 128.012C419.844 128.012 419.064 128.532 418.804 129.312C419.324 130.093 419.844 130.613 420.624 130.613C421.924 130.613 423.224 130.613 424.264 130.613C425.043 130.613 425.823 130.093 426.083 129.312C425.563 128.532 425.043 128.012 424.264 128.012C423.744 128.012 423.224 128.012 422.964 128.012ZM73.0336 264.84C74.0735 263.539 75.1134 262.498 76.1533 261.198C76.4133 260.938 76.1533 260.677 76.1533 260.417C75.8933 260.157 75.6334 259.637 75.3734 259.637C74.3335 259.637 72.7736 259.117 71.9937 260.417C71.4737 261.458 71.2137 262.498 71.9937 263.799C72.2537 264.319 72.5136 264.579 73.0336 264.84ZM77.4532 112.404C77.7132 112.404 78.2331 112.664 78.2331 112.404C79.0131 111.624 79.793 110.583 80.8329 109.803C81.8728 109.022 81.8728 108.502 80.8329 107.982C80.5729 107.722 80.053 107.722 79.793 107.462C79.0131 107.201 78.2331 107.462 77.4532 107.722C76.6733 108.242 76.4133 108.762 76.4133 109.803C76.6733 111.103 76.6733 111.884 77.4532 112.404ZM333.011 269.262C333.271 269.262 333.791 269.522 333.791 269.262C334.571 268.481 335.351 267.441 336.391 266.66C337.431 265.88 337.431 265.36 336.391 264.84C336.131 264.579 335.611 264.579 335.351 264.319C334.571 264.059 333.791 264.319 333.011 264.579C332.231 265.1 331.971 265.62 331.971 266.66C332.231 268.221 332.491 269.002 333.011 269.262ZM380.587 271.083C379.287 270.042 378.247 269.002 376.948 267.961C376.688 267.701 376.428 267.961 376.168 267.961C375.908 268.221 375.388 268.481 375.388 268.741C375.388 269.782 374.868 271.343 376.168 272.123C377.208 272.643 378.247 272.903 379.547 272.123C379.807 271.863 380.067 271.603 380.587 271.083ZM360.309 320.507C360.309 318.686 359.009 317.646 357.189 317.906C356.929 317.906 356.409 318.166 356.149 318.166C355.109 318.686 355.109 319.206 356.149 319.987C356.929 320.507 357.449 321.027 357.969 321.808C358.489 322.588 359.009 322.848 359.789 322.588C360.309 322.068 360.569 321.287 360.309 320.507ZM128.929 81.969C129.189 81.7089 129.449 81.4487 129.709 81.1886C128.929 80.4082 127.889 79.6278 127.109 78.5873C126.329 77.8069 126.069 77.5468 125.289 77.8069C124.509 78.3272 124.509 79.1076 124.509 79.888C124.509 81.7089 125.809 82.7494 127.629 82.2291C128.409 82.4893 128.669 82.2291 128.929 81.969ZM267.757 343.398C268.537 343.398 269.317 343.398 270.097 343.398C270.357 343.398 270.877 342.878 270.877 342.618C271.137 342.098 270.877 341.057 269.837 341.057C268.277 340.797 266.457 341.057 264.897 341.057C264.637 341.057 264.117 341.577 264.117 341.838C263.857 342.358 264.117 343.138 265.157 343.398C266.197 343.398 266.977 343.398 267.757 343.398ZM166.626 56.9966C167.406 56.9966 168.185 56.9966 168.965 56.9966C169.225 56.9966 169.745 56.4764 169.745 56.2163C170.005 55.696 169.745 54.6555 168.705 54.6555C167.146 54.3954 165.326 54.6555 163.766 54.6555C163.506 54.6555 162.986 55.1757 162.986 55.4359C162.726 55.9561 162.986 56.7365 164.026 56.9966C164.806 57.2568 165.846 56.9966 166.626 56.9966ZM176.765 52.0542C177.545 52.0542 178.325 52.0542 179.105 52.0542C179.364 52.0542 179.884 51.5339 179.884 51.2738C180.144 50.7536 179.884 50.2333 179.105 49.4529C177.545 49.4529 175.725 49.4529 174.165 49.4529C173.905 49.4529 173.385 49.9732 173.385 50.2333C173.125 50.7535 173.385 51.5339 174.165 51.7941C174.945 52.3143 175.985 52.0542 176.765 52.0542ZM199.903 43.9902C200.163 43.7301 200.683 43.4699 200.683 43.2098C200.943 42.9497 200.683 42.4294 200.683 41.9092C200.683 40.0883 199.643 39.0478 197.563 39.3079C197.303 39.3079 196.783 39.568 196.523 39.568C195.483 40.0883 195.483 40.6085 196.263 41.3889C198.863 43.7301 199.383 44.2503 199.903 43.9902ZM313.253 330.652C312.993 330.912 312.473 331.172 312.473 331.432C311.693 332.733 311.693 333.513 312.473 334.814C312.733 335.074 312.993 335.334 313.253 335.595C314.033 335.074 314.293 334.554 314.553 333.774C314.813 332.473 314.033 330.652 313.253 330.652ZM79.793 100.178C80.053 99.9179 80.5729 99.9179 80.8329 99.6578C81.0929 99.3976 81.3529 99.1375 81.6129 98.8774C81.0929 98.097 80.5729 97.8368 79.793 97.5767C78.4931 97.3166 76.4133 98.097 76.6733 98.8774C76.9333 99.6578 77.7132 100.178 78.4931 100.178C79.0131 100.178 79.533 100.178 79.793 100.178ZM79.2731 226.861C79.793 226.861 80.053 226.861 80.5729 226.861C80.8329 226.601 81.3529 226.34 81.3529 226.08C81.6129 225.56 81.3529 224.78 80.313 224.52C80.053 224.259 79.533 224.52 79.0131 224.52C77.9732 224.259 77.4532 224.52 76.9333 225.3C76.6733 226.08 77.7132 226.861 79.2731 226.861ZM343.15 140.758C342.631 140.758 342.371 140.758 341.851 140.758C341.071 140.758 340.551 141.278 340.031 142.059C340.551 142.839 341.071 143.359 341.851 143.359C342.371 143.359 342.631 143.359 343.15 143.359C343.93 143.359 344.45 142.839 344.97 142.059C344.45 141.278 343.93 140.758 343.15 140.758ZM223.561 297.616C223.561 297.095 223.561 296.835 223.561 296.315C223.301 296.055 223.041 295.535 222.781 295.535C222.261 295.275 221.481 295.535 221.221 296.575C220.961 296.835 221.221 297.356 221.221 297.876C220.961 298.916 221.221 299.437 222.001 299.957C222.781 300.217 223.561 299.176 223.561 297.616ZM177.025 66.8815C177.285 66.6214 177.805 66.3613 177.805 66.1011C177.805 65.3208 177.805 64.5404 177.805 63.76C177.805 63.4999 177.285 62.9796 177.025 62.9796C176.765 62.7195 176.505 62.7195 176.245 62.9796C174.945 63.4999 174.945 66.3613 176.245 67.1417C176.505 66.8815 176.765 66.8815 177.025 66.8815ZM132.049 61.4188C132.049 61.1587 132.049 60.8986 132.049 60.6384C131.529 59.8581 130.749 59.8581 129.969 59.8581C128.929 59.8581 128.409 59.8581 127.889 60.8986C127.889 61.1587 127.889 61.4188 127.889 61.679C128.409 62.4593 129.189 62.4593 129.969 62.4593C130.749 62.1992 131.529 62.1992 132.049 61.4188ZM99.5513 95.2356C99.5513 94.7153 99.8113 94.4552 99.5513 93.9349C99.0314 93.1545 98.5114 92.6343 97.9915 92.8944C97.7315 93.1545 97.2115 93.4147 97.2115 93.6748C96.9515 93.9349 97.2115 94.4552 97.2115 94.9754C97.2115 96.5362 97.9915 97.5767 98.7714 97.0565C99.5513 96.7963 99.8113 96.0159 99.5513 95.2356ZM352.77 241.948C352.25 241.948 351.99 241.688 351.47 241.948C350.69 242.468 350.17 242.989 350.43 243.509C350.69 243.769 350.95 244.289 351.21 244.289C351.47 244.549 351.99 244.289 352.51 244.289C354.07 244.289 355.109 243.509 354.59 242.729C354.33 241.948 353.55 241.688 352.77 241.948ZM96.4316 89.2526C96.4316 88.9925 96.4316 88.7323 96.4316 88.4722C95.9116 87.6918 95.1317 87.6918 94.3518 87.6918C93.3118 87.6918 92.7919 87.6918 92.2719 88.7323C92.2719 88.9925 92.2719 89.2526 92.2719 89.5127C92.7919 90.2931 93.5718 90.2931 94.3518 90.2931C95.3917 90.033 96.1716 90.033 96.4316 89.2526ZM347.05 248.712C347.05 248.451 347.05 248.191 347.05 247.931C346.53 247.151 345.75 247.151 344.97 247.151C343.93 247.151 343.41 247.151 342.891 248.191C342.891 248.451 342.891 248.712 342.891 248.972C343.41 249.752 344.19 249.752 344.97 249.752C346.01 249.752 346.79 249.492 347.05 248.712ZM413.344 261.718C413.085 261.458 413.085 260.938 412.825 260.677C412.565 260.417 412.305 259.897 412.045 259.897C411.785 259.897 411.525 260.417 411.265 260.677C411.005 260.938 411.005 261.458 410.745 261.718C410.485 262.498 410.745 263.279 411.005 264.059C411.525 265.1 412.045 265.1 412.825 264.059C413.344 263.279 413.604 262.498 413.344 261.718Z"/>
<path d="M425.823 355.884C421.924 355.884 418.284 355.884 414.384 355.884C414.124 355.884 413.604 355.364 413.604 355.104C413.344 354.584 413.864 353.803 414.644 353.543C415.424 353.283 416.464 353.543 416.984 353.283C417.764 353.023 418.284 352.243 418.804 351.462C419.584 350.682 421.404 350.682 422.184 351.202C422.704 351.722 423.484 352.503 424.004 353.023C424.784 353.803 426.603 353.803 427.383 353.023C428.683 351.983 429.463 350.422 431.543 350.942C431.803 350.942 432.323 350.682 432.583 350.422C433.623 349.121 434.923 348.081 436.742 348.341C437.782 347.821 438.562 346.52 439.602 346C440.642 345.479 441.942 346.26 442.982 344.959C443.502 344.439 444.022 343.658 444.802 343.138C445.062 342.878 445.582 343.138 446.102 343.138C446.622 343.138 447.142 343.398 447.402 343.138C448.961 341.838 450.261 340.277 451.821 338.716C452.081 338.456 452.601 338.196 452.861 338.196C453.641 338.196 454.421 338.456 455.201 338.456C456.501 339.757 457.541 340.797 458.841 342.098C458.841 342.878 459.101 343.919 458.841 344.699C458.581 345.479 457.801 346 457.021 346C456.241 346 455.461 346 454.421 346C452.601 346 452.601 346 451.301 347.3C450.521 348.081 449.481 349.121 448.701 349.902C447.662 351.202 446.622 350.942 445.322 350.942C444.542 351.722 443.502 352.763 442.462 353.543C442.202 353.803 441.682 353.543 441.162 353.543C440.122 353.283 439.602 353.543 439.082 354.324C438.302 355.364 437.522 356.145 435.963 356.145C432.583 355.884 429.203 355.884 425.823 355.884Z"/>
<path d="M258.918 372.533C258.918 373.833 258.918 375.134 258.918 376.175C258.918 377.215 258.658 377.735 258.138 378.256C256.318 380.077 254.498 381.637 252.678 383.458C251.379 385.019 249.299 386.059 248.779 388.141C249.039 390.222 247.479 391.002 246.439 392.303C246.179 392.563 246.179 393.083 246.179 393.343C246.179 393.863 246.179 394.123 246.179 394.644C245.659 396.205 243.319 396.725 243.579 398.546C243.839 400.106 242.799 400.887 242.019 401.667C240.979 402.968 239.68 404.008 238.38 405.309C237.6 406.089 237.08 406.35 236.56 405.829C236.04 405.309 235.78 404.529 236.04 403.488C236.04 402.708 236.3 401.927 237.08 401.407C237.86 400.887 238.38 400.106 238.38 399.586C238.38 398.806 238.38 397.765 238.9 397.245C239.94 395.944 241.239 394.904 240.979 393.083C240.979 392.823 241.239 392.303 241.499 392.042C243.579 389.441 243.579 389.441 243.579 386.58C243.579 385.019 244.099 384.239 245.139 383.458C245.399 383.198 245.919 382.938 245.919 382.678C246.179 381.637 245.659 380.337 246.699 379.296C247.739 378.516 248.519 377.475 249.299 376.695C250.859 375.134 251.119 375.134 250.859 372.273C250.859 371.492 250.859 370.712 250.859 369.671C252.159 368.371 253.198 367.33 254.498 366.03C254.498 366.03 255.018 366.29 255.278 366.55C256.318 367.33 256.838 368.631 258.398 368.371C258.398 368.891 258.398 369.151 258.398 369.671C258.918 370.712 258.918 371.492 258.918 372.533Z"/>
<path d="M464.821 305.42C461.961 305.42 461.701 305.159 461.441 303.078C461.441 302.038 461.441 301.518 462.221 300.997C462.741 300.477 463.261 299.957 464.041 299.176C465.341 297.876 465.341 297.876 466.64 298.916C467.42 299.697 468.46 300.737 469.24 301.518C469.24 302.298 469.5 303.078 469.24 303.859C468.98 304.639 468.2 305.159 467.42 305.159C466.38 305.42 465.601 305.42 464.821 305.42Z"/>
<path d="M198.083 413.113C198.083 413.893 198.083 414.674 198.083 415.454C198.083 415.714 197.563 416.234 197.303 416.234C196.783 416.495 196.003 416.234 195.743 415.194C195.484 414.414 195.743 413.633 195.743 412.853C195.743 412.072 196.003 411.032 195.743 410.512C195.484 409.731 194.704 409.211 194.184 408.691C192.884 407.65 193.404 406.35 193.404 405.309C193.404 405.049 193.924 404.529 194.184 404.529C194.444 404.529 194.964 404.529 194.964 404.529C196.003 405.569 197.303 406.87 198.343 408.17C198.343 409.471 198.343 410.512 198.343 411.812C198.083 412.072 198.083 412.593 198.083 413.113Z"/>
<path d="M223.561 402.968C224.081 404.268 223.561 404.789 222.261 404.268C221.482 404.008 220.962 403.228 220.962 402.187C220.962 400.887 220.442 399.846 219.402 399.066C218.622 398.546 218.362 397.765 218.362 396.985C218.362 395.684 218.362 394.384 218.362 393.083C218.362 392.303 219.142 391.522 219.922 391.782C220.182 391.782 220.702 392.303 220.702 392.563C221.482 395.684 221.222 395.684 222.521 396.725C223.301 397.245 223.561 398.025 223.301 398.806C223.301 400.367 223.561 401.667 223.561 402.968Z"/>
<path d="M432.323 330.652C433.103 330.652 434.143 330.392 434.663 330.652C435.443 330.912 435.963 331.693 435.963 332.473C436.223 333.774 435.443 335.594 434.663 335.594C433.623 335.594 432.323 336.115 431.283 334.814C430.763 334.294 430.243 333.513 429.463 332.993C428.683 332.473 428.423 331.693 428.683 331.172C429.203 330.392 429.983 330.132 430.763 330.392C431.543 330.652 432.063 330.652 432.323 330.652Z"/>
<path d="M194.964 376.435C194.444 375.914 193.664 375.394 193.144 374.874C192.104 373.573 192.104 373.573 195.484 373.573C196.263 373.573 197.043 373.573 197.823 373.573C199.903 373.573 200.683 374.354 200.683 376.435C200.683 377.215 200.423 377.995 199.643 378.516C198.603 379.036 197.303 379.036 196.263 378.256C195.744 377.735 195.484 377.215 194.964 376.435Z"/>
<path d="M456.501 170.933C456.501 170.153 456.501 169.372 456.501 168.592C457.281 168.592 458.061 168.592 458.841 168.592C460.66 168.592 461.7 169.632 461.44 171.453C461.18 173.014 460.92 173.534 459.36 173.534C457.281 173.794 456.501 173.014 456.501 170.933Z"/>
<path d="M223.561 406.35C223.561 403.228 223.561 403.228 224.601 404.008C225.641 404.529 226.161 405.569 225.901 406.87C225.901 407.13 225.901 407.65 225.641 407.91C225.381 408.17 225.121 408.691 224.861 408.691C224.341 408.691 223.821 408.17 223.301 407.39C223.301 407.39 223.561 406.87 223.561 406.35Z"/>
</svg>
