<svg width="64" height="58" viewBox="0 0 64 58" fill="none" xmlns="http://www.w3.org/2000/svg">
<path d="M10.3893 48.2781C10.8202 48.1377 10.6675 49.3562 11.1283 48.8941C11.3834 48.6256 11.4959 48.6523 11.7322 48.8466C11.9567 48.1902 12.2787 49.1229 12.4761 48.8235C12.6488 48.5615 12.7583 48.1981 12.898 47.8677C12.9227 47.8303 13.0599 47.8195 13.0902 47.8526C13.1259 47.9562 13.1096 48.0994 13.17 48.1657C13.2305 48.2319 13.3431 48.2585 13.4282 48.2873C13.4137 47.4013 13.9491 47.5366 14.1937 47.8367C14.5619 48.3045 14.8389 47.9633 15.1711 47.9727C16.6644 47.997 17.8438 46.8397 19.2298 46.5532C19.3917 46.505 19.5151 46.3178 19.6413 46.166C20.2359 44.9482 20.2359 44.9482 21.0131 45.3483C21.0405 45.3462 20.9856 45.3505 20.9582 45.3527C20.9773 45.2447 20.9718 45.1742 21.0183 45.0641C21.0156 45.0288 21.1309 45.0907 21.1886 45.1216C21.1392 45.1965 21.1173 45.2692 21.0131 45.3483C20.8842 45.4649 20.8404 45.6103 20.7664 45.7226C20.6677 45.8723 20.5662 45.9867 20.4647 46.1011C20.7639 46.0421 20.9841 46.7344 21.3817 46.1709C21.8039 45.5699 22.6385 45.6462 23.0468 44.8689C23.118 44.7214 23.4558 44.8012 23.7577 44.7774C23.7852 44.7753 23.7303 44.7796 23.7028 44.7818C23.7219 44.6738 23.7164 44.6033 23.7629 44.4932C23.7602 44.4579 23.8755 44.5198 23.9332 44.5507C23.8838 44.6256 23.862 44.6983 23.7577 44.7774C23.7663 45.238 23.9832 45.1855 24.1642 45.0293C24.2931 44.9127 24.3258 44.6263 24.3366 44.4125C24.3502 44.2341 24.2512 44.029 24.1796 43.8217C24.3554 43.9498 24.5065 44.1153 24.7015 44.1354C25.149 44.2067 25.6267 44.311 26.0604 44.2059C26.3046 44.1512 26.4881 43.6754 26.7515 43.5128C26.9381 43.4271 27.3199 43.7164 27.394 43.6041C27.8627 42.8931 28.4719 42.5613 29.2102 42.4677C29.2377 42.4655 29.2512 42.287 29.2704 42.1791C28.9382 42.1697 28.916 41.8876 29.0036 41.5969C29.25 40.8678 29.8212 41.1067 30.285 41.0347C30.2958 40.821 30.2406 40.4705 30.3477 40.4266C30.5315 40.3057 30.7538 40.3236 30.9762 40.3416C31.0311 40.3373 31.1412 40.6835 31.0919 40.7583C30.7986 41.2427 30.8646 41.3794 31.3559 41.3052C31.7099 41.2419 31.8827 40.9799 31.9317 40.5503C31.841 40.451 31.7201 40.3185 31.6239 40.1487C31.6211 40.1134 31.6267 40.184 31.6294 40.2192C31.5443 40.1904 31.4894 40.1948 31.4015 40.1307C31.3741 40.1329 31.4179 39.9875 31.4398 39.9148C31.5002 39.981 31.5579 40.012 31.6239 40.1487C31.7118 40.2127 31.8216 40.2041 32.044 40.2221C32.0658 40.1494 31.9779 40.0853 31.89 40.0213C31.9394 39.9465 32.0134 39.8342 32.0683 39.8299C32.1781 39.8212 32.2935 39.8831 32.4088 39.945C32.332 40.022 32.258 40.1343 32.0165 40.2242C31.8848 40.3056 31.8959 40.4466 31.9042 40.5524C32.7801 40.8028 33.3063 39.7679 34.0721 39.6721C34.7411 38.6969 35.9106 38.8177 36.5879 37.9483C37.065 37.3431 37.7595 37.3948 38.2339 36.7543C38.6068 36.2282 39.2242 36.0022 39.718 35.6085C39.7701 35.5689 39.759 35.4278 39.8056 35.3177C39.3827 35.2091 39.3852 34.8895 39.643 34.6563C39.7719 34.5397 40.0822 34.6218 40.258 34.7499C40.4915 34.9089 40.6645 35.0017 40.8372 34.7397C41.0346 34.4403 41.2292 34.1057 41.4541 33.8041C41.8279 34.3424 41.9235 33.8026 42.1264 33.5738C42.3568 33.3427 42.6202 33.1801 42.8506 32.9491C43.081 32.718 43.2672 32.2776 43.5115 32.2229C43.9754 32.1509 44.0435 31.6133 44.3316 31.4132C45.1245 30.9604 45.7771 30.1285 46.6305 29.7419C47.0833 29.5289 47.4232 28.9344 47.8016 28.4788C48.1279 28.0628 48.3965 27.6159 48.6651 27.169C48.9091 26.7595 49.3702 26.6522 49.4575 26.0066C49.471 25.8282 49.7976 25.767 49.9815 25.646C50.1378 25.5273 50.2859 25.3027 50.3984 25.3294C50.8185 25.4027 50.2109 24.3506 50.8453 24.691C50.9332 24.755 51.3144 24.3347 51.3033 24.1937C51.2534 23.5589 51.8329 23.9036 51.9368 23.4696C51.9942 23.1458 52.2548 22.9478 52.455 22.6837C52.603 22.4592 52.7236 22.2368 52.9018 22.0453C52.9759 21.933 53.1433 21.9553 53.2504 21.9114C53.2615 22.0525 53.2698 22.1583 53.2534 22.3015C53.2343 22.4095 53.1603 22.5217 53.1659 22.5923C53.4913 24.2698 53.0397 25.902 53.2828 27.5861C53.4817 29.0607 53.8975 30.4827 53.9345 32.0056C53.9376 32.3956 54.2179 32.7993 54.4132 33.1743C54.6716 33.6507 54.952 34.0544 55.2104 34.5308C55.2737 34.6323 55.3369 34.7337 55.4001 34.8352C55.4137 34.6567 55.43 34.5135 55.4711 34.3329C55.4846 34.1544 55.501 34.0112 55.5145 33.8327C55.6327 33.9299 55.7452 33.9565 55.8112 34.0932C56.0009 34.3976 56.2455 34.6977 56.3282 35.046C56.5074 35.919 56.8531 35.7498 57.2701 35.4331C57.2975 35.431 57.424 35.6339 57.5174 35.7685C57.7922 36.1017 58.0424 36.4723 58.3172 36.8055C58.4078 36.9048 58.5232 36.9667 58.6111 37.0307C58.6247 36.8523 58.641 36.709 58.6546 36.5306C58.6709 36.3873 58.7119 36.2067 58.7283 36.0635C58.7971 36.2355 58.8658 36.4075 58.9346 36.5795C59.0006 36.7162 59.0419 36.8904 59.0805 37.0293C59.1243 36.8839 59.1955 36.7363 59.1844 36.5953C59.1915 35.2819 59.1986 33.9685 59.1508 32.6594C59.103 31.3503 58.8356 30.0585 58.9003 28.776C58.9241 27.6742 58.7803 26.5501 59.139 25.4929C59.1828 25.3475 59.1113 25.1402 59.1248 24.9618C59.0989 23.58 58.9632 22.2068 59.1075 20.8826C59.2247 19.9154 59.1498 18.9633 59.1297 18.0068C59.1371 17.0482 59.1719 16.0874 59.237 15.1598C59.2802 14.3048 59.1559 13.4275 59.287 12.6366C59.418 11.8457 59.3844 11.0677 59.3508 10.2897C59.3369 10.1134 59.3533 9.97019 59.3668 9.79171C59.5278 8.67908 59.5031 8.7165 58.6929 8.24805C58.1436 7.93647 57.644 7.90483 57.2079 8.32947C56.7197 8.79369 56.2009 8.87001 55.5998 8.95281C55.081 9.02913 54.6036 9.27961 54.0876 9.3912C53.6265 9.49846 53.1158 9.32577 52.7127 9.81877C52.5619 10.0081 52.1939 9.89509 51.9194 9.9167C50.6019 10.0204 49.2402 9.91472 47.9421 10.2653C45.2635 10.9729 42.554 10.9378 39.8393 11.187C38.961 11.2561 38.0659 11.1137 37.1792 11.0771C36.9568 11.0591 36.7098 11.0785 36.493 11.1311C35.8644 11.2161 36.5537 11.5521 36.4551 11.7018C36.3317 11.8889 36.1177 11.9767 35.9943 12.1639C35.8709 12.351 35.8136 12.6748 35.6902 12.862C35.3667 13.3132 35.663 13.2189 35.891 13.3074C36.0612 13.365 36.1877 13.5679 36.336 13.6982C36.2867 13.773 36.2127 13.8853 36.1633 13.9602C36.114 14.035 36.0042 14.0436 35.9246 14.0854C36.1171 14.4251 36.5183 14.9612 36.4471 15.1087C36.2361 15.5866 36.1787 15.9105 36.6182 16.2307C36.9122 16.4559 37.2172 16.8222 37.5275 16.9043C38.5406 17.1438 39.5485 17.6677 40.6135 17.5129C41.5138 17.3711 42.357 17.9079 43.2792 17.6934C44.119 17.4853 45.0085 17.5572 45.8841 17.4528C46.5675 17.3635 47.2645 17.0958 47.9452 16.9712C48.0276 16.9647 48.1485 17.0971 48.2364 17.1612C48.1568 17.2029 48.0772 17.2447 48.0279 17.3195C47.3725 18.1163 46.6292 18.8489 46.0645 19.745C45.0557 21.3146 43.7005 22.3439 42.5954 23.7437C41.8167 24.7276 40.9556 25.7179 40.0174 26.4304C39.0517 27.1451 38.2428 28.0959 37.3706 28.9451C36.9591 29.3324 36.5422 29.649 36.0977 29.9679C35.8371 30.1658 35.4556 30.2313 35.3378 30.489C34.894 31.5174 33.9937 31.6593 33.3463 32.207C32.7237 32.7173 32.1367 33.3312 31.3546 33.5702C30.7618 33.7588 30.4553 34.7764 29.7058 34.729C28.0271 36.2094 25.9934 36.6889 24.2073 37.8585C23.027 37.9514 22.1881 39.2238 20.9804 39.3189C20.898 39.3254 20.8049 39.5456 20.7858 39.6536C20.7669 40.1163 20.572 40.0962 20.3413 39.9724C20.1958 39.8774 20.127 39.7054 19.924 39.9343C19.6717 40.238 19.3205 40.3366 18.9087 40.369C18.497 40.4015 18.1405 40.7843 17.737 40.9225C17.3062 41.0629 16.834 41.0291 16.3976 41.099C16.2329 41.1119 16.0188 41.1997 15.9476 41.3473C15.7804 41.6798 15.6463 42.0806 15.5121 42.4815C15.5972 42.5103 15.6824 42.5391 15.7675 42.5679C15.8526 42.5966 15.9405 42.6607 15.9982 42.6916C15.9488 42.7665 15.9325 42.9097 15.8776 42.914C15.444 43.0191 15.076 42.9061 14.8888 42.2822C14.2849 42.3297 13.7085 42.3751 13.1046 42.4227C12.8576 42.4421 12.6682 42.4925 12.7015 42.9157C12.7071 42.9862 12.6386 43.169 12.5837 43.1733C12.2571 43.2345 11.9524 43.223 11.6258 43.2842C11.3815 43.3389 11.198 43.8146 10.8846 43.3425C10.8544 43.3094 10.6157 43.4347 10.5691 43.5448C10.5225 43.6549 10.5969 43.8974 10.6601 43.9989C10.7838 44.1666 10.9294 44.2616 11.1051 44.3897C11.193 44.4537 11.3358 44.5134 11.4237 44.5775C11.3167 44.6214 11.185 44.7027 11.078 44.7466C10.8942 44.8675 10.7187 45.0942 10.5266 45.1094C10.0627 45.1814 9.96679 45.3663 10.2829 45.8737C10.3434 45.9399 10.3298 46.1184 10.2832 46.2285C10.2641 46.3364 10.1654 46.4861 10.1105 46.4905C10.0282 46.4969 9.90727 46.3645 9.89894 46.2587C9.8792 45.6571 9.83756 45.1281 9.25002 45.0324C9.22257 45.0346 9.23336 44.8209 9.22226 44.6798C9.33206 44.6712 9.41718 44.6999 9.5242 44.656C9.60655 44.6496 9.68612 44.6078 9.76569 44.5661C9.69969 44.4293 9.67748 44.1472 9.59236 44.1184C9.16674 43.9745 8.7439 43.8659 8.32938 43.863C8.18936 43.8386 7.87076 43.6508 7.85195 44.1135C8.37626 44.1077 7.50961 45.0275 8.19029 44.903C8.21774 44.9008 8.28652 45.0728 8.3223 45.1764C8.05058 45.2333 7.78164 45.3255 7.90285 45.8127C7.79306 45.8213 7.68326 45.83 7.62281 45.7637C7.38101 45.4989 7.13643 45.1988 6.78792 45.3327C6.68645 45.4471 6.55753 45.5637 6.48629 45.7113C6.41227 45.8236 6.36847 45.9689 6.44558 46.2467C6.51158 46.3835 6.42091 46.2842 6.30556 46.2223C6.3549 46.1474 6.40147 46.0373 6.4317 46.0704C6.57172 46.0949 6.7173 46.1899 6.86009 46.2496C6.78052 46.2913 6.73118 46.3662 6.4758 46.2798C6.20655 46.0172 6.08565 45.8848 5.97586 45.8934C5.64647 45.9193 5.27606 46.1259 4.96301 46.0086C4.59507 45.8956 4.29004 45.5294 3.93844 45.2732C3.90822 45.2401 3.83697 45.3876 3.7574 45.4294C3.21397 45.5431 2.78342 46.0383 2.1271 45.7706C1.86896 45.649 1.50965 45.9966 1.19136 46.1636C1.16392 46.1657 1.18612 46.4479 1.24657 46.5141C1.36747 46.6465 1.5405 46.7393 1.71352 46.8321C1.88377 46.8897 2.05124 46.912 2.22149 46.9696C2.11724 47.0487 1.9581 47.1322 1.85663 47.2467C1.85663 47.2467 1.93096 47.4892 1.98863 47.5201C2.21656 47.6086 2.54841 47.2632 2.62028 47.8252C3.05669 47.7554 3.5921 47.8907 3.87461 47.62C4.41496 47.1162 4.38258 47.7575 5.1598 48.1575C5.44817 48.3123 5.12155 48.3734 4.81684 48.362C4.73449 48.3684 4.66293 48.1612 4.56948 48.0266C4.6984 47.91 4.92601 47.6437 4.95624 47.6768C5.47284 48.2748 6.01319 47.771 6.51838 47.8732C6.6035 47.902 6.66395 47.9682 6.74908 47.997C6.69973 48.0718 6.65316 48.1819 6.57081 48.1884C6.29909 48.2453 6.02183 48.2316 5.15702 48.1223C4.01772 48.0346 3.49896 48.1109 2.97465 48.1167C2.86486 48.1253 2.7384 47.9224 2.6175 47.79C2.42813 47.8403 2.13699 47.6504 2.09073 48.1153C2.07438 48.2585 2.03614 48.4744 1.98402 48.514C1.87977 48.5932 1.65678 47.8656 1.59973 48.5442C1.55069 48.9739 1.84708 48.8796 2.06945 48.8976C2.62399 48.9249 3.15909 48.7054 3.76884 49.0831C4.23301 49.3659 4.84491 49.0694 5.44077 49.2709C6.00919 49.4745 6.71732 49.3478 7.36253 49.4744C7.38998 49.4722 7.40355 49.2938 7.42267 49.1858C7.36777 49.1901 7.28542 49.1966 7.28542 49.1966C7.07354 48.6101 6.58809 49.1096 6.31329 48.7764C6.57914 48.2942 7.01586 48.5792 7.36715 48.4805C7.60864 48.3906 7.63054 48.3179 7.44641 48.084C7.35296 47.9494 7.36098 47.7004 7.37455 47.5219C7.37177 47.4867 7.69838 47.4255 7.70116 47.4607C7.80294 47.7011 8.32725 47.6953 7.97905 48.184C7.83101 48.4085 8.4022 48.6474 8.0099 48.9267C8.12525 48.9886 8.24892 49.1563 8.35872 49.1476C8.54809 49.0972 9.28366 48.9683 9.42646 49.0281C9.79718 49.1763 9.86565 48.9935 9.88446 48.5307C9.85917 47.8586 9.91406 47.8543 10.3893 48.2781ZM17.5495 43.1017C17.5221 43.1039 17.4672 43.1082 17.4397 43.1104C17.4589 43.0024 17.4533 42.9319 17.4999 42.8218C17.4971 42.7865 17.6125 42.8484 17.6701 42.8793C17.6208 42.9542 17.5989 43.0269 17.2094 43.3414C17.2587 43.2666 17.2806 43.1939 17.3299 43.119C17.3602 43.1521 17.4206 43.2183 17.4508 43.2514C17.4015 43.3263 17.3494 43.3659 17.2973 43.4055C17.2726 43.4429 17.2396 43.3745 17.5495 43.1017ZM15.922 43.4782C15.5818 43.7179 15.3733 43.8762 15.1621 43.9993C15.0961 43.8626 15.0026 43.728 14.9915 43.587C15.0131 43.1595 15.3015 43.3142 15.4909 43.2638C15.5732 43.2573 15.6913 43.3545 15.922 43.4782ZM19.7717 41.5075C19.6344 41.5183 19.5 41.5644 19.3599 41.5399C19.3325 41.5421 19.2939 41.4032 19.2609 41.3348C19.5903 41.3089 19.9197 41.283 20.2766 41.2549C20.2547 41.3276 20.2383 41.4708 20.1834 41.4751C20.049 41.5212 19.9089 41.4967 19.7717 41.5075ZM34.8425 38.5825C34.6723 38.5249 34.5872 38.4961 34.4993 38.4321C34.4718 38.4342 34.4635 38.3285 34.4909 38.3263C34.6417 38.137 34.7953 37.983 34.9489 37.829C35.001 37.7894 35.0917 37.8887 35.1768 37.9175C35.1768 37.9175 35.2126 38.0211 35.1852 38.0233C35.092 38.2435 34.9412 38.4328 34.8425 38.5825ZM14.6214 44.1483C14.3112 44.0663 14.1409 44.0087 13.9734 43.9865C14.0502 43.9094 14.1215 43.7619 14.2038 43.7554C14.3685 43.7425 14.5388 43.8 14.7062 43.8223C14.6597 43.9324 14.6159 44.0778 14.6214 44.1483ZM29.9075 36.2388C29.8033 36.318 29.6743 36.4346 29.5399 36.4807C29.485 36.485 29.3943 36.3857 29.3064 36.3216C29.46 36.1676 29.5834 35.9805 29.737 35.8265C29.8002 35.9279 29.8332 35.9963 29.9075 36.2388ZM3.89804 46.1634C3.83513 46.4167 3.81323 46.4894 3.79411 46.5974C3.64298 46.4319 3.46718 46.3038 3.31606 46.1383C3.39285 46.0612 3.46687 45.949 3.52455 45.9799C3.63712 46.0065 3.78269 46.1015 3.89804 46.1634ZM11.5774 47.5814C11.2671 47.4994 11.0968 47.4418 10.9294 47.4195C11.0062 47.3425 11.0774 47.195 11.1598 47.1885C11.3245 47.1755 11.4947 47.2331 11.6622 47.2554C11.6156 47.3655 11.5718 47.5109 11.5774 47.5814ZM12.6701 44.6213C12.4696 44.5306 12.4119 44.4997 12.3268 44.4709C12.4502 44.2838 12.5433 44.0635 12.6667 43.8764C12.7299 43.9779 12.8206 44.0772 12.7987 44.1499C12.7823 44.2931 12.7111 44.4407 12.6701 44.6213ZM8.38399 46.6618C8.34266 46.4877 8.30133 46.3135 8.29023 46.1725C8.28745 46.1372 8.3917 46.058 8.44382 46.0185C8.48237 46.1574 8.55115 46.3293 8.56226 46.4704C8.56503 46.5057 8.45801 46.5496 8.38399 46.6618ZM13.5179 44.1642C13.4245 44.0297 13.3338 43.9304 13.3282 43.8598C13.3171 43.7188 13.3884 43.5712 13.4322 43.4259C13.4954 43.5273 13.5833 43.5914 13.5916 43.6972C13.6027 43.8382 13.5589 43.9836 13.5179 44.1642ZM21.1571 40.5114C21.097 40.8 21.0751 40.8727 21.0559 40.9806C20.9927 40.8792 20.9048 40.8151 20.8663 40.6762C20.8333 40.6078 20.9073 40.4956 20.9264 40.3876C21.0143 40.4517 21.1022 40.5157 21.1571 40.5114ZM18.0221 46.6483C17.9342 46.5842 17.8188 46.5223 17.7035 46.4604C17.7803 46.3834 17.8268 46.2733 17.9092 46.2668C18.019 46.2582 18.1371 46.3553 18.2525 46.4172C18.1757 46.4942 18.1235 46.5338 18.0221 46.6483ZM17.388 46.6627C17.2726 46.6008 17.1573 46.5389 17.1545 46.5037C17.1434 46.3626 17.1844 46.182 17.2007 46.0388C17.2584 46.0697 17.371 46.0963 17.3765 46.1668C17.4151 46.3057 17.3713 46.4511 17.388 46.6627ZM12.5128 46.8336C12.5375 46.7962 12.5621 46.7587 12.6115 46.6839C12.6445 46.7522 12.7049 46.8185 12.7133 46.9242C12.716 46.9595 12.6639 46.9991 12.6392 47.0365C12.5788 46.9703 12.5458 46.9019 12.5128 46.8336ZM9.91899 47.2152C9.86132 47.1842 9.80364 47.1533 9.74319 47.0871C9.76787 47.0497 9.78976 46.977 9.81721 46.9748C9.87489 47.0058 9.93256 47.0367 10.0177 47.0655C9.96556 47.1051 9.94089 47.1425 9.91899 47.2152ZM26.4841 42.221C26.5088 42.1836 26.5307 42.1109 26.5581 42.1087C26.6158 42.1397 26.6735 42.1706 26.7586 42.1994C26.7339 42.2368 26.712 42.3095 26.6846 42.3116C26.6022 42.3181 26.5418 42.2519 26.4841 42.221ZM34.1014 38.6408C34.1316 38.6739 34.1619 38.707 34.2223 38.7732C34.1702 38.8128 34.1208 38.8877 34.0385 38.8942C34.011 38.8963 33.978 38.8279 33.9478 38.7948C33.9999 38.7553 34.0521 38.7157 34.1014 38.6408ZM18.5704 45.8954C18.6281 45.9264 18.6858 45.9573 18.7462 46.0235C18.7216 46.061 18.6997 46.1337 18.6722 46.1358C18.6145 46.1049 18.5569 46.0739 18.4717 46.0451C18.5239 46.0056 18.5485 45.9681 18.5704 45.8954ZM18.3141 41.5868C18.2564 41.5558 18.1988 41.5249 18.1383 41.4587C18.163 41.4213 18.1849 41.3486 18.2123 41.3464C18.27 41.3773 18.3277 41.4083 18.4128 41.4371C18.3607 41.4767 18.336 41.5141 18.3141 41.5868ZM21.2567 41.4261C21.3144 41.457 21.3721 41.488 21.4325 41.5542C21.4078 41.5916 21.3859 41.6643 21.3585 41.6665C21.3008 41.6355 21.2432 41.6046 21.158 41.5758C21.2102 41.5362 21.2348 41.4988 21.2567 41.4261ZM21.2225 39.9385C21.1648 39.9076 21.1071 39.8766 21.0467 39.8104C21.0713 39.773 21.0932 39.7003 21.1207 39.6982C21.1784 39.7291 21.236 39.76 21.3212 39.7888C21.269 39.8284 21.2444 39.8658 21.2225 39.9385Z" fill="#252627"/>
<path d="M7.70148 44.6578C7.36931 44.6484 7.12782 44.7384 6.95479 44.6456C6.63342 44.4225 6.42462 44.226 6.48014 44.9313C6.49402 45.1076 6.45023 45.253 6.40921 45.4337C6.54645 45.4229 6.79627 45.4387 6.7935 45.4034C6.80398 44.8349 7.1858 45.1241 7.39707 45.0011C7.50131 44.9219 7.54788 44.8118 7.70148 44.6578Z" fill="#252627"/>
<path d="M29.2429 42.1813C29.7123 42.1798 30.1818 42.1784 30.2854 41.3896C29.816 41.3911 29.3191 41.3947 29.2429 42.1813Z" fill="#252627"/>
<path d="M5.78063 45.5185C5.84632 45.3005 5.94224 45.1155 5.95303 44.9018C5.96938 44.7585 5.87315 44.5887 5.8346 44.4498C5.69211 44.7449 5.57429 45.0025 5.43181 45.2976C5.51971 45.3617 5.60483 45.3904 5.78063 45.5185Z" fill="#252627"/>
<path d="M19.6111 46.133C19.9244 46.6051 20.1989 46.5834 20.4345 46.0681C20.16 46.0897 19.8855 46.1114 19.6111 46.133Z" fill="#252627"/>
<path d="M15.0893 42.373C15.0918 42.0534 15.1053 41.875 15.0887 41.6634C15.0859 41.6281 14.9761 41.6368 14.9184 41.6058C14.9021 41.749 14.8885 41.9275 14.8996 42.0686C14.8777 42.1412 14.9382 42.2075 15.0893 42.373Z" fill="#252627"/>
<path d="M10.3717 43.8443C10.3141 43.8133 10.2289 43.7846 10.1136 43.7227C10.0945 43.8306 10.0205 43.9429 10.0535 44.0113C10.0892 44.1149 10.1799 44.2142 10.2431 44.3157C10.265 44.243 10.2842 44.135 10.3717 43.8443Z" fill="#252627"/>
<path d="M7.53525 49.2125C7.58459 49.1376 7.60649 49.0649 7.65584 48.9901C7.59816 48.9591 7.48559 48.9325 7.48559 48.9325C7.43624 49.0074 7.44457 49.1132 7.42545 49.2211C7.4529 49.219 7.5078 49.2146 7.53525 49.2125Z" fill="#252627"/>
<path d="M10.1315 48.5113C10.1617 48.5444 10.2222 48.6107 10.2222 48.6107C10.2743 48.5711 10.3237 48.4962 10.3758 48.4566C10.3456 48.4235 10.2851 48.3573 10.2549 48.3242C10.2302 48.3616 10.1809 48.4365 10.1315 48.5113Z" fill="#252627"/>
<path d="M30.2854 41.3896C30.3622 41.3126 30.439 41.2357 30.4856 41.1256C30.4004 41.0968 30.3153 41.068 30.2576 41.0371C30.266 41.1429 30.277 41.2838 30.2854 41.3896Z" fill="#252627"/>
</svg>
