<svg width="303" height="93" viewBox="0 0 303 93" fill="none" xmlns="http://www.w3.org/2000/svg">
<path d="M198.39 92.8447C198.324 92.848 198.263 92.8244 198.207 92.7738C198.165 92.7358 198.142 92.6835 198.139 92.617L197.215 74.1801C197.212 74.1135 197.229 74.0592 197.267 74.0173C197.318 73.9613 197.376 73.9317 197.443 73.9284L202.177 73.6912C202.243 73.6879 202.298 73.7118 202.341 73.7631C202.396 73.8004 202.425 73.8523 202.428 73.9189L202.526 75.8565C202.529 75.923 202.505 75.9843 202.455 76.0402C202.417 76.0822 202.364 76.1048 202.298 76.1082L200.24 76.2112C200.174 76.2146 200.142 76.2495 200.146 76.3161L200.84 90.1787C200.843 90.2453 200.878 90.2769 200.945 90.2736L203.022 90.1695C203.089 90.1662 203.143 90.1835 203.185 90.2215C203.241 90.272 203.271 90.3306 203.274 90.3972L203.372 92.3548C203.375 92.4213 203.351 92.476 203.3 92.5186C203.263 92.5738 203.211 92.6031 203.144 92.6065L198.39 92.8447Z" fill="#252627"/>
<path d="M209.427 78.895C210.292 78.8516 211.072 78.966 211.767 79.2383C212.46 79.4972 213.007 79.877 213.406 80.3777C213.818 80.8777 214.04 81.4473 214.072 82.0865L214.411 88.858C214.415 88.9246 214.391 88.9859 214.34 89.0418C214.302 89.0837 214.25 89.1064 214.184 89.1097L211.847 89.2268C211.78 89.2301 211.719 89.2132 211.664 89.1759C211.621 89.1246 211.598 89.0657 211.595 88.9991L211.562 88.34C211.56 88.3 211.545 88.274 211.518 88.2621C211.491 88.2501 211.465 88.2647 211.44 88.306C210.917 89.0664 210.037 89.4777 208.798 89.5397C207.76 89.5918 206.908 89.3808 206.243 88.9068C205.579 88.4328 205.222 87.703 205.173 86.7176C205.121 85.6922 205.441 84.8819 206.132 84.2866C206.823 83.6779 207.834 83.3402 209.165 83.2735L211.203 83.1714C211.269 83.1681 211.301 83.1331 211.298 83.0666L211.276 82.6271C211.254 82.1877 211.103 81.8548 210.825 81.6284C210.546 81.3887 210.14 81.2822 209.608 81.3089C209.195 81.3296 208.852 81.4202 208.58 81.5807C208.321 81.7405 208.158 81.9556 208.092 82.2259C208.059 82.3744 207.976 82.4453 207.842 82.4387L205.409 82.2402C205.248 82.2215 205.171 82.1653 205.18 82.0714C205.205 81.5095 205.4 80.9924 205.763 80.5203C206.14 80.0475 206.642 79.6686 207.268 79.3836C207.908 79.0979 208.628 78.935 209.427 78.895ZM209.452 87.4043C210.025 87.3756 210.503 87.1981 210.887 86.8718C211.272 86.5456 211.452 86.1427 211.428 85.6633L211.392 84.9442C211.388 84.8776 211.353 84.846 211.287 84.8493L209.849 84.9214C209.249 84.9514 208.782 85.0883 208.447 85.332C208.126 85.5751 207.975 85.903 207.996 86.3158C208.014 86.6754 208.155 86.9553 208.419 87.1557C208.682 87.3428 209.026 87.4257 209.452 87.4043Z" fill="#252627"/>
<path d="M219.64 78.3833C220.705 78.3299 221.581 78.6131 222.266 79.2329C222.951 79.8528 223.322 80.722 223.378 81.8406L223.706 88.3923C223.709 88.4589 223.686 88.5202 223.635 88.5761C223.597 88.6181 223.545 88.6407 223.478 88.6441L221.141 88.7611C221.075 88.7645 221.014 88.7475 220.958 88.7102C220.916 88.659 220.893 88.6 220.89 88.5335L220.59 82.561C220.564 82.0283 220.389 81.6032 220.066 81.2856C219.756 80.9674 219.355 80.8206 218.862 80.8453C218.37 80.8699 217.978 81.0564 217.689 81.4047C217.413 81.7523 217.288 82.1924 217.314 82.7251L217.614 88.6976C217.617 88.7642 217.593 88.8254 217.543 88.8814C217.505 88.9233 217.453 88.946 217.386 88.9493L215.049 89.0664C214.982 89.0697 214.921 89.0527 214.866 89.0155C214.824 88.9642 214.801 88.9053 214.797 88.8387L214.307 79.051C214.304 78.9844 214.321 78.9301 214.359 78.8882C214.409 78.8322 214.468 78.8026 214.535 78.7992L216.872 78.6822C216.938 78.6788 216.993 78.7028 217.035 78.7541C217.091 78.7913 217.12 78.8433 217.123 78.9099L217.158 79.609C217.16 79.6489 217.175 79.6749 217.202 79.6869C217.23 79.6989 217.249 79.6912 217.261 79.6639C217.769 78.8642 218.561 78.4373 219.64 78.3833Z" fill="#252627"/>
<path d="M234.503 77.6386C235.368 77.5953 236.148 77.7097 236.843 77.982C237.537 78.2409 238.083 78.6207 238.482 79.1214C238.894 79.6214 239.116 80.191 239.148 80.8302L239.488 87.6017C239.491 87.6683 239.467 87.7295 239.417 87.7855C239.379 87.8274 239.327 87.8501 239.26 87.8534L236.923 87.9705C236.856 87.9738 236.795 87.9569 236.74 87.9196C236.697 87.8683 236.675 87.8094 236.671 87.7428L236.638 87.0836C236.636 87.0437 236.622 87.0177 236.594 87.0057C236.567 86.9937 236.541 87.0084 236.516 87.0497C235.994 87.8101 235.113 88.2214 233.875 88.2834C232.836 88.3354 231.984 88.1245 231.32 87.6505C230.655 87.1764 230.298 86.4467 230.249 85.4613C230.198 84.4359 230.517 83.6256 231.209 83.0302C231.899 82.4216 232.91 82.0839 234.242 82.0172L236.279 81.9151C236.346 81.9118 236.377 81.8768 236.374 81.8102L236.352 81.3708C236.33 80.9313 236.18 80.5984 235.901 80.3721C235.622 80.1324 235.217 80.0259 234.684 80.0526C234.271 80.0733 233.929 80.1639 233.656 80.3244C233.397 80.4842 233.234 80.6993 233.168 80.9696C233.135 81.1181 233.052 81.189 232.918 81.1824L230.485 80.9839C230.324 80.9652 230.248 80.909 230.257 80.8151C230.282 80.2531 230.476 79.7361 230.84 79.264C231.216 78.7912 231.718 78.4123 232.345 78.1272C232.984 77.8415 233.704 77.6787 234.503 77.6386ZM234.529 86.148C235.101 86.1193 235.58 85.9418 235.964 85.6155C236.348 85.2892 236.528 84.8864 236.504 84.407L236.468 83.6879C236.465 83.6213 236.43 83.5897 236.363 83.593L234.925 83.6651C234.326 83.6951 233.859 83.832 233.524 84.0757C233.202 84.3188 233.052 84.6467 233.072 85.0595C233.09 85.4191 233.231 85.699 233.495 85.8994C233.758 86.0865 234.103 86.1693 234.529 86.148Z" fill="#252627"/>
<path d="M246.454 77.4404C246.451 77.3738 246.468 77.3195 246.506 77.2776C246.557 77.2216 246.615 77.192 246.682 77.1887L249.019 77.0716C249.086 77.0682 249.14 77.0922 249.183 77.1435C249.238 77.1808 249.267 77.2327 249.271 77.2993L249.727 86.4078C249.815 88.1523 249.371 89.4228 248.396 90.2192C247.435 91.015 246.162 91.4526 244.577 91.532C244.111 91.5553 243.59 91.548 243.014 91.5101C242.88 91.5035 242.809 91.4203 242.801 91.2605L242.778 89.1991C242.769 89.0259 242.859 88.948 243.047 88.9653C243.53 89.0212 243.972 89.0391 244.371 89.0191C245.223 88.9764 245.867 88.7573 246.301 88.3617C246.748 87.9655 246.951 87.3546 246.91 86.529C246.908 86.489 246.893 86.4697 246.867 86.4711C246.839 86.4591 246.813 86.4671 246.788 86.495C246.309 87.0664 245.584 87.3764 244.612 87.4251C243.746 87.4685 242.937 87.3021 242.184 86.9259C241.443 86.5358 240.896 85.8824 240.543 84.9656C240.313 84.363 240.173 83.5757 240.125 82.6036C240.073 81.5649 240.15 80.7132 240.357 80.0487C240.596 79.2224 241.036 78.5462 241.677 78.0201C242.319 77.494 243.079 77.209 243.957 77.165C244.983 77.1136 245.784 77.3805 246.361 77.9657C246.388 77.991 246.416 78.003 246.442 78.0017C246.468 77.987 246.48 77.9597 246.478 77.9198L246.454 77.4404ZM246.618 83.9003C246.704 83.4955 246.73 82.9468 246.696 82.2543C246.675 81.8415 246.646 81.5226 246.608 81.2975C246.57 81.0725 246.512 80.8618 246.436 80.6653C246.298 80.3118 246.084 80.0355 245.793 79.8364C245.502 79.6241 245.15 79.5282 244.738 79.5489C244.338 79.5689 244.004 79.6991 243.736 79.9395C243.467 80.1666 243.275 80.4632 243.16 80.8295C242.993 81.2383 242.927 81.7823 242.961 82.4614C242.999 83.2072 243.105 83.7358 243.281 84.0474C243.419 84.401 243.64 84.6836 243.944 84.8953C244.261 85.093 244.626 85.1816 245.039 85.1609C245.465 85.1395 245.813 85.0153 246.082 84.7882C246.35 84.5478 246.529 84.2519 246.618 83.9003Z" fill="#252627"/>
<path d="M259.564 80.6284C259.669 81.1304 259.724 81.6951 259.729 82.3223C259.723 82.4828 259.641 82.567 259.481 82.575L253.309 82.8842C253.229 82.8882 253.204 82.9229 253.234 82.9881C253.287 83.2524 253.374 83.5151 253.493 83.7761C253.877 84.5045 254.602 84.842 255.667 84.7886C256.518 84.7326 257.174 84.3527 257.632 83.6488C257.682 83.5663 257.739 83.5233 257.806 83.52C257.846 83.518 257.894 83.5423 257.95 83.5929L259.459 84.939C259.529 85.0023 259.565 85.0605 259.568 85.1138C259.569 85.1404 259.545 85.1951 259.496 85.2776C259.084 85.8456 258.539 86.3001 257.862 86.6411C257.185 86.9687 256.433 87.1532 255.607 87.1946C254.462 87.252 253.477 87.041 252.652 86.5617C251.84 86.0817 251.238 85.3843 250.845 84.4695C250.532 83.8177 250.348 82.9524 250.294 81.8738C250.258 81.1414 250.325 80.4905 250.497 79.9212C250.756 78.9604 251.251 78.1813 251.982 77.584C252.726 76.986 253.624 76.6606 254.676 76.6079C256.008 76.5412 257.093 76.874 257.93 77.6064C258.781 78.338 259.326 79.3454 259.564 80.6284ZM254.818 79.0439C253.979 79.0859 253.446 79.5064 253.219 80.3055C253.175 80.4812 253.139 80.6966 253.112 80.9517C253.115 81.0182 253.15 81.0499 253.217 81.0465L256.672 80.8734C256.752 80.8694 256.777 80.8348 256.747 80.7695C256.661 80.3867 256.619 80.2019 256.619 80.2152C256.479 79.8217 256.251 79.5261 255.934 79.3284C255.63 79.1167 255.258 79.0219 254.818 79.0439Z" fill="#252627"/>
<path d="M264.922 76.1146C265.988 76.0612 266.863 76.3445 267.548 76.9643C268.233 77.5841 268.604 78.4533 268.66 79.5719L268.988 86.1237C268.992 86.1903 268.968 86.2516 268.917 86.3075C268.879 86.3494 268.827 86.3721 268.761 86.3754L266.424 86.4925C266.357 86.4958 266.296 86.4789 266.241 86.4416C266.198 86.3903 266.175 86.3314 266.172 86.2648L265.873 80.2923C265.846 79.7597 265.671 79.3345 265.348 79.017C265.039 78.6987 264.637 78.5519 264.145 78.5766C263.652 78.6013 263.261 78.7878 262.971 79.136C262.695 79.4836 262.57 79.9238 262.597 80.4564L262.896 86.4289C262.899 86.4955 262.876 86.5568 262.825 86.6127C262.787 86.6547 262.735 86.6773 262.668 86.6806L260.331 86.7977C260.265 86.8011 260.204 86.7841 260.148 86.7468C260.106 86.6956 260.083 86.6366 260.079 86.57L259.589 76.7823C259.586 76.7157 259.603 76.6615 259.641 76.6195C259.692 76.5636 259.75 76.534 259.817 76.5306L262.154 76.4135C262.22 76.4102 262.275 76.4342 262.318 76.4854C262.373 76.5227 262.402 76.5746 262.406 76.6412L262.441 77.3403C262.443 77.3803 262.457 77.4063 262.485 77.4182C262.512 77.4302 262.531 77.4226 262.543 77.3953C263.051 76.5955 263.844 76.1687 264.922 76.1146Z" fill="#252627"/>
<path d="M273.94 86.2762C272.874 86.3295 271.935 86.1096 271.123 85.6163C270.324 85.1223 269.735 84.4176 269.355 83.5021C269.095 82.8476 268.943 82.0676 268.897 81.162C268.853 80.2698 268.927 79.4918 269.121 78.8279C269.395 77.9064 269.912 77.1663 270.672 76.6076C271.431 76.0489 272.344 75.7428 273.409 75.6894C274.475 75.6361 275.42 75.8557 276.246 76.3483C277.085 76.8403 277.658 77.4858 277.965 78.2847C278.087 78.599 278.153 78.836 278.161 78.9958L278.163 79.0358C278.169 79.1556 278.106 79.2322 277.974 79.2655L275.694 79.7202L275.654 79.7222C275.534 79.7282 275.451 79.6656 275.404 79.5344L275.328 79.2178C275.218 78.8763 274.997 78.6003 274.666 78.3899C274.335 78.1796 273.95 78.0854 273.51 78.1074C273.084 78.1288 272.73 78.2533 272.448 78.481C272.165 78.7088 271.974 79.0121 271.873 79.391C271.746 79.7978 271.7 80.3475 271.735 81.0399C271.77 81.7324 271.864 82.275 272.017 82.6679C272.157 83.0614 272.379 83.364 272.683 83.5757C273.001 83.7867 273.372 83.8815 273.799 83.8602C274.211 83.8395 274.566 83.715 274.861 83.4865C275.169 83.2442 275.374 82.9269 275.474 82.5347C275.486 82.5074 275.491 82.4671 275.488 82.4138C275.501 82.3998 275.507 82.3795 275.505 82.3529C275.511 82.1924 275.6 82.1212 275.775 82.1391L278.09 82.3836C278.225 82.4036 278.295 82.4735 278.301 82.5933C278.306 82.6999 278.276 82.9016 278.211 83.1986C277.976 84.1048 277.465 84.8313 276.678 85.378C275.904 85.9241 274.992 86.2235 273.94 86.2762Z" fill="#252627"/>
<path d="M279.087 89.8431C279.047 89.8451 279.012 89.8201 278.983 89.7682C278.954 89.7296 278.938 89.677 278.935 89.6104L278.843 87.7727C278.84 87.7061 278.856 87.6452 278.894 87.5899C278.945 87.5473 279.004 87.5243 279.071 87.521C279.629 87.4796 280.066 87.411 280.382 87.3151C280.711 87.2185 280.963 87.0524 281.138 86.8167C281.326 86.5803 281.463 86.2397 281.547 85.7949C281.559 85.7676 281.557 85.7276 281.541 85.675L277.767 75.8916C277.752 75.8657 277.744 75.8327 277.742 75.7928C277.736 75.6729 277.806 75.6093 277.953 75.602L280.45 75.4769C280.596 75.4696 280.693 75.5315 280.739 75.6626L282.741 82.0505C282.757 82.0897 282.778 82.1087 282.804 82.1074C282.831 82.106 282.85 82.0851 282.861 82.0444L284.215 75.4885C284.248 75.3533 284.338 75.2821 284.485 75.2747L286.922 75.1526C287.001 75.1486 287.056 75.1726 287.085 75.2245C287.127 75.2625 287.137 75.3287 287.115 75.4233L284.18 85.9834C283.896 86.9722 283.593 87.715 283.27 88.2117C282.949 88.7218 282.481 89.1057 281.866 89.3634C281.252 89.6211 280.372 89.7787 279.227 89.8361L279.087 89.8431Z" fill="#252627"/>
<path d="M295.74 87.7272C295.743 87.7937 295.719 87.8483 295.668 87.891C295.631 87.9462 295.579 87.9755 295.512 87.9789L290.758 88.217C290.692 88.2204 290.63 88.1967 290.574 88.1461C290.532 88.1082 290.51 88.0559 290.506 87.9893L290.408 86.0318C290.405 85.9652 290.422 85.9043 290.459 85.849C290.511 85.8064 290.569 85.7834 290.636 85.7801L292.713 85.676C292.78 85.6727 292.812 85.6377 292.808 85.5711L292.114 71.7085C292.11 71.6419 292.076 71.6103 292.009 71.6137L289.932 71.7177C289.865 71.7211 289.804 71.7041 289.749 71.6668C289.706 71.6156 289.683 71.5566 289.68 71.49L289.583 69.5525C289.579 69.4859 289.597 69.4316 289.635 69.3897C289.685 69.3337 289.744 69.3041 289.81 69.3008L294.564 69.0626C294.631 69.0593 294.686 69.0832 294.728 69.1345C294.784 69.1718 294.813 69.2237 294.816 69.2903L295.74 87.7272Z" fill="#252627"/>
<path d="M20.8543 28.5701L22.1161 28.667L22.1067 28.5L22.2831 28.6576L22.4454 28.5648L26.2863 28.3497L26.9543 28.3123C28.2809 28.0705 29.2735 27.8474 30.0109 27.5548L34.0235 27.4139L34.3481 27.2282L38.5089 26.7439L38.4996 26.5769L38.6759 26.7346L39.1723 26.623C46.4733 25.3766 50.226 25.0827 50.2727 25.9176L50.4771 26.5763L51.254 31.4745L51.4537 32.0497L51.5425 33.6361L51.7469 34.2947L51.7937 35.1297L52.0863 35.8672L52.2773 37.7829L52.3608 37.7783L52.2867 37.9499L52.296 38.1169C53.9339 49.4164 54.7528 55.0662 54.5858 55.0756L54.688 55.4049L55.3026 60.396L55.4882 60.7206L57.8849 78.0921L57.9731 78.1709L58.0105 78.8389L58.1548 79.9197C58.2617 80.3325 57.4454 80.7132 55.8823 81.2196L55.9799 81.4654L56.3466 82.0311L56.3559 82.1982L53.151 83.299L52.149 83.3551L52.1583 83.5221L51.8197 83.4573C48.749 83.9643 46.5039 84.2575 45.1633 84.2488L44.8386 84.4345L38.3399 85.0497L37.6813 85.2541L36.6793 85.3102L36.6886 85.4772L36.0113 85.3476L35.1069 85.6496L34.7729 85.6683C33.5992 85.6502 32.7362 85.196 32.272 84.3844L32.1003 84.3103L31.9333 84.3196L31.2099 84.8627L30.7877 84.8026C30.8017 85.053 30.6394 85.1459 30.3054 85.1646L30.0783 85.5961L30.0737 85.5126L29.582 85.7077L29.4985 85.7123L29.3128 85.3877C29.4798 85.3784 29.4518 84.8774 29.4003 83.9589L29.3769 83.5414L29.1913 83.2168L28.7217 80.8141L29.0557 80.7954L28.8513 80.1367L28.9995 79.7934L28.902 79.5476C28.6515 79.5616 28.4799 79.4875 28.4658 79.237L28.2988 79.2463L28.2568 78.4948L28.043 77.6692L28.0196 77.2517L27.9268 77.0894L27.9174 76.9224L27.9916 76.7507L27.9822 76.5837L27.6522 75.1783L27.6429 75.0113L27.6937 74.4222L27.3176 73.6894L27.3129 73.6059L27.54 73.1744L27.0898 72.6133L26.4619 68.8793C26.4385 68.4618 26.4245 68.2113 26.5915 68.202L26.2896 67.2975L26.0104 65.3029L25.806 64.6443L25.9589 64.3845L25.7452 63.5588L25.8981 63.299C25.7726 62.5522 25.5869 62.2276 25.5034 62.2322L25.6376 61.6384L25.164 60.6598L25.1594 60.5763L25.2335 60.4046L25.1407 60.2423L24.792 58.5029L24.4667 57.181L24.4152 56.2625L24.1968 55.3534L24.1173 53.9339L24.0338 53.9386C24.0105 53.5211 24.1587 53.1778 24.3905 52.8298L24.3812 52.6628L24.2977 52.6675L24.3718 52.4958L24.3625 52.3288L24.1721 51.9207L24.2369 51.582C23.8101 51.4384 23.6197 51.0302 23.5081 50.5339C23.5683 50.1118 23.424 49.031 23.2376 47.1987L23.1494 47.1199L23.1401 46.9529L22.9724 45.4546L22.9631 45.2876L22.7914 45.2135L22.782 45.0465L23.1067 44.8608L23.6217 45.0832L23.6077 44.8327L23.2503 44.434L23.3244 44.2623L23.2082 43.6825L22.772 43.3719L22.8041 42.4487L22.3492 41.8041C22.6738 41.6184 22.8221 41.2751 22.7106 40.7788L22.5249 40.4541C22.6919 40.4448 22.8495 40.2684 22.7613 40.1896L22.5616 39.6145C22.5429 39.2805 22.6959 39.0207 22.9464 39.0066L22.937 38.8396L22.6959 39.0207L22.6217 39.1923L22.3479 38.7889L22.2036 37.7081L22.2871 37.7034L22.6351 37.9352L22.7974 37.8423L23.1034 37.3227L22.6625 36.9286L22.1849 37.3741L21.5723 36.9058L21.7995 36.4743L22.3886 36.5251L22.5322 36.0983L22.5182 35.8478L21.9384 35.964L21.4047 35.4076L21.3766 34.9066L21.1629 34.081L21.07 33.9186L21.5804 34.0576L21.557 33.6401L21.6819 32.8793L21.4869 32.3876C21.4775 32.2206 21.5563 32.1325 21.7233 32.1231L21.6211 31.7938C21.6118 31.6268 21.4401 31.5527 21.1943 31.6502L21.1335 30.5647L20.7574 29.8319L20.7153 29.0805L20.8543 28.5701ZM20.1188 22.9157L20.1375 23.2497L20.6385 23.2216L20.6198 22.8876L20.1188 22.9157ZM22.5503 24.4547L22.8843 24.436L22.8936 24.603L22.583 25.0392L22.5503 24.4547ZM23.5102 23.6471L24.0112 23.6191L24.0299 23.9531L23.5289 23.9811L23.5102 23.6471ZM26.8828 24.0446L27.3838 24.0165L27.4025 24.3505L27.2355 24.3599L26.8828 24.0446ZM28.3203 22.7915L28.339 23.1255L28.0284 23.5616L27.8614 23.571L27.8333 23.07L28.3203 22.7915ZM23.4527 30.0998L22.8682 30.1325L28.7604 84.4973L36.8363 83.6263L35.7835 73.8016L36.3353 73.1844L44.5781 72.304L45.1954 72.8558L46.2481 82.6804L54.3239 81.8094L48.4318 27.4446L40.3559 28.3157L44.18 63.6991L43.6283 64.3163L35.3854 65.1967L34.7682 64.645L30.9394 29.178L28.031 29.5921L25.5214 29.6489L23.4527 30.0998Z" fill="#252627"/>
<path d="M52.7155 21.6767L52.966 21.6626L53.2352 21.9826L53.4669 21.6346L53.7174 21.6205L53.9866 21.9405L55.2204 21.5364L55.9719 21.4943L56.2411 21.8143L56.4728 21.4662L56.7233 21.4522L56.9925 21.7722L57.243 21.7582L57.2243 21.4242L57.4935 21.7441L61.0004 21.5477L61.2696 21.8677L61.5014 21.5197L63.0043 21.4355L63.2735 21.7555L63.5053 21.4075L71.3915 21.6359L71.4102 21.9699L71.642 21.6219L72.6439 21.5658L72.9131 21.8858L73.1636 21.8717L73.1449 21.5377L73.9151 21.8296L74.1469 21.4816L74.4809 21.4629L75.251 21.7548L75.2323 21.4208L75.5015 21.7408L77.0045 21.6566L77.2363 21.3086L77.5055 21.6286L77.756 21.6146L77.9878 21.2665L78.257 21.5865L84.3523 21.2452L85.8926 21.829L85.8739 21.495L85.6047 21.175L86.3562 21.133L85.944 22.7475L86.445 22.7194L86.5666 24.8903L86.8358 25.2103L86.604 25.5583L87.3528 29.9556L87.121 30.3036C87.5532 32.0384 87.8511 34.3669 88.0101 37.2059L88.0288 37.5398L88.298 37.8598L88.0662 38.2078C88.4984 39.9426 88.7963 42.2711 88.9553 45.11L88.974 45.444L89.2432 45.764L89.2619 46.098L89.0301 46.446L89.2806 46.432L89.0488 46.78L89.4208 48.9369L89.5798 51.7758L89.849 52.0958L89.8677 52.4297L89.6172 52.4438L89.8864 52.7637L89.9051 53.0977L91.5497 69.0036L91.0487 69.0317L91.0674 69.3657L91.5684 69.3376L91.7975 73.429L92.0667 73.7489L91.8115 73.6795L91.8302 74.0135L92.0994 74.3334L92.1181 74.6674L91.8863 75.0154L92.2256 76.5878L92.2631 77.2558L92.0313 77.6038L92.05 77.9378L92.3005 77.9238L92.0687 78.2718L92.0874 78.6058L92.3893 79.5103L92.1575 79.8583L92.1762 80.1923L92.4781 81.0967L92.2276 81.1107L92.4968 81.4307L92.5155 81.7647L92.1869 83.3745L91.9177 83.0545L91.6672 83.0686L89.682 83.5148L89.6633 83.1808L89.4315 83.5288L88.847 83.5615L88.5778 83.2416L88.346 83.5896L85.2566 83.7626L84.9874 83.4426L84.7556 83.7906L79.6623 84.0759L78.7625 84.4613L77.7419 84.1834L76.4894 84.2535L76.2576 84.6016L75.9884 84.2816L75.4874 84.3097L74.1702 84.7185L74.1515 84.3845L74.0032 84.7278L72.1663 84.8307L71.8971 84.5107L71.6653 84.8587L69.1604 84.999L68.8912 84.679L68.6594 85.0271L67.9079 85.0691L66.8872 84.7913L65.8205 85.186L65.5513 84.8661L65.3008 84.8801L64.568 85.2562L63.2968 84.9923L62.5641 85.3684L62.5454 85.0344L62.3136 85.3824L59.3077 85.5507L59.0385 85.2308L58.8067 85.5788L57.5542 85.6489C57.0439 85.51 56.756 84.856 56.6952 83.7706L55.8275 72.763L55.563 72.5265L55.5443 72.1925L55.7247 70.926L55.6358 69.3396L55.3713 69.1031L55.3526 68.7691L55.6031 68.7551L54.9244 65.6103L55.1562 65.2622L54.887 64.9423L55.1375 64.9282L54.8683 64.6083L55.0487 63.3418L54.7093 61.7694L54.9458 61.5049L54.9318 61.2544L54.2905 58.7775L54.541 58.7635L54.2718 58.4435L54.2578 58.193L54.6886 56.9125L54.1502 56.2726L54.3306 55.0061C54.2418 53.4196 53.8376 52.1859 53.1182 51.3048C53.6192 51.2768 53.8323 50.5948 53.7622 49.3423L53.493 49.0223L53.7248 48.6743L53.2238 48.7024C53.2004 48.2849 53.4369 48.0204 53.9378 47.9923L53.9004 47.3243C53.5664 47.3431 53.3807 47.0184 53.348 46.4339L52.3086 45.8221L52.2712 45.1541L52.7722 45.126L52.7348 44.458L52.2338 44.4861L52.1637 43.2336L52.3441 41.9672L52.0234 40.7287L52.0047 40.3947L52.1851 39.1283L51.8644 37.8898L51.7569 35.9694L51.2559 35.9974L51.2372 35.6634L51.7382 35.6354L51.7195 35.3014L50.7175 35.3575L50.6801 34.6895L50.9306 34.6755L51.1998 34.9955L51.4503 34.9814L51.3989 34.063L51.1484 34.077L51.5605 32.4625L51.31 32.4765L51.5418 32.1285L51.5231 31.7945L50.9707 30.9041L50.9006 29.6516L51.652 29.6096C51.5078 28.5288 51.2292 28.0418 50.8117 28.0652L51.2426 26.7847L50.6715 25.5603L50.9219 25.5462L51.1911 25.8662L51.4416 25.8522L51.3715 24.5997L51.1023 24.2798L51.0883 24.0293L51.3201 23.6813L51.5706 23.6672L51.8397 23.9872L52.0715 23.6392L52.0528 23.3052L51.5144 22.6653L51.978 21.9692L52.2472 22.2892L52.7155 21.6767ZM63.6636 64.6183C64.0096 70.7971 67.4811 74.4556 74.0687 75.4269L77.4086 75.2398C82.4184 74.9593 85.6968 72.1792 87.4155 66.9736L87.7422 60.8409L86.447 37.7122C86.0636 30.8654 83.4779 26.571 78.6992 24.9959L74.6539 24.5523L72.6499 24.6645C66.6381 25.0012 63.1513 28.5468 62.1106 35.3896L63.7471 64.6136L63.6636 64.6183ZM74.2765 31.2742C77.1989 31.1105 78.7867 34.0369 79.1233 40.0488L80.1987 59.2531C80.526 65.0979 79.4372 68.0905 77.0158 68.2261L75.3646 68.6536C73.2771 68.7705 71.8476 67.1753 71.0715 63.7847L69.5518 36.6481C69.6153 33.2941 71.1871 31.4472 74.2765 31.2742Z" fill="#252627"/>
<path d="M101.128 77.0107L99.9401 76.7422L100.01 76.487L100.353 76.6353L100.533 75.3688L100.297 75.6333L100.12 75.4757L99.3456 75.1003L99.4151 74.8451L100.25 74.7984L100.32 74.5432L99.9482 73.8939L99.8232 74.6547L99.2849 74.0148L99.2154 74.27L99.4011 74.5946L99.3316 74.8498L99.1599 74.7756L98.9742 74.451L97.9028 74.7623L97.9723 74.5071L98.2548 73.5699C97.9997 73.5005 97.8467 73.7603 97.8006 74.433L97.5595 74.614L97.3878 74.5398L97.4432 74.0342L97.1881 73.9647L97.1326 74.4704L97.3136 74.7115L97.0819 75.0595L96.9102 74.9854L96.5435 74.4196L97.007 73.7236L96.7659 73.9046L96.3437 73.8445L96.4687 73.0836C96.2135 73.0142 95.9817 73.3622 95.9356 74.0349L95.7639 73.9607L95.5829 73.7196L95.3278 73.6501L95.0913 73.9146L95.2162 73.1538L94.961 73.0843L94.9891 73.5853L94.3952 73.451L94.4647 73.1959L94.7012 72.9314L94.7707 72.6762L94.2463 72.2868L94.0051 72.4678L93.2396 72.2594L93.2951 71.7537L92.8682 71.6101L92.8128 72.1157L93.2396 72.2594L93.1702 72.5145L92.8502 72.7837L92.7807 73.0389L92.9664 73.3635C91.8623 73.0903 90.9391 73.0583 90.2805 73.2627L90.35 73.0075L90.8877 72.1398L90.4655 72.0797L90.535 71.8245L90.7761 71.6435L90.8456 71.3883L90.4188 71.2447L89.8116 72.3676L89.2178 72.2333L89.2872 71.9781L89.7094 72.0383L89.7789 71.7831L89.1844 70.1412L89.6065 70.2013L89.676 69.9462C89.2538 69.886 89.1376 69.3062 89.2532 68.3784L89.4248 68.4526L88.9419 67.307L89.183 67.1259L89.2525 66.8708L89.3627 64.3518L89.6039 64.1708C89.1817 64.1107 89.1162 62.9417 89.4168 60.8309L89.2452 60.7568L89.4816 60.4922L89.3614 50.8667L89.1062 50.7972L89.3474 50.6162L89.4168 50.361L89.2545 29.5141L89.5097 29.5836L89.135 21.3962L89.3067 21.4703L89.1196 18.1304L89.3748 18.1999L89.304 15.4398L89.5451 15.2588L89.5405 15.1753L100.178 16.6736L100.359 16.9147L101.366 16.9421L103.319 17.419L103.56 17.238L103.746 17.5626L103.917 17.6368L104.158 17.4558L104.33 17.5299L104.261 17.7851L104.497 17.5206L107.466 18.1919L108.895 18.2794L108.826 18.5346L109.067 18.3535L109.832 18.5619L110.018 18.8866L110.259 18.7056L111.025 18.914L111.21 19.2386L111.382 19.3128L111.623 19.1317L111.554 19.3869L111.795 19.2059L112.982 19.4744L113.163 19.7155L113.827 19.5946L114.008 19.8358L115.014 19.8632L115.358 20.0115L116.304 20.461L116.374 20.2058L116.559 20.5305L116.731 20.6046L116.972 20.4236L117.158 20.7482L117.497 20.813L120.48 21.7349L120.549 21.4797C121.227 21.6093 121.505 22.0962 121.385 22.9406C121.812 23.0842 121.961 24.2485 121.758 26.6051C122.116 30.0191 122.353 40.2245 122.467 57.2212L122.295 57.1471C122.533 58.3902 122.659 62.1522 122.671 68.3497L122.5 68.2756L122.673 72.8726L122.585 72.7938L122.517 76.0642L122.345 75.9901L119.08 76.0054L118.908 75.9313L118.978 75.6761L119.321 75.8244L119.038 75.2539L118.796 75.435L118.625 75.3608L118.811 75.6855L118.755 76.1911L117.326 76.1036L117.563 75.8391L117.623 75.4169L117.451 75.3428L117.21 75.5238L117.038 75.4497L117.224 75.7743L117.169 76.28L116.997 76.2058C116.742 76.1363 116.644 75.8905 116.7 75.3849L116.528 75.3107L116.473 75.8164L116.658 76.141L113.986 76.2906C113.94 75.4557 113.828 74.9594 113.573 74.8899L113.503 75.1451L113.759 75.2145L113.522 75.479L113.462 75.9012L113.889 76.0448L113.819 76.3L112.989 76.4302L112.395 74.7883L112.636 74.6073L112.381 74.5379C112.325 75.0435 112.084 75.2245 111.657 75.0809L111.602 75.5866L111.899 76.4075L111.658 76.5886L110.892 76.3801L111.43 75.5124L111.244 75.1878C110.572 75.1417 110.242 75.2439 110.182 75.6661C109.927 75.5966 109.83 75.3508 109.885 74.8451L109.699 74.5205L109.528 74.4463L108.638 76.5064L107.622 76.312L107.691 76.0568C108.03 76.1216 108.433 75.8478 108.809 75.0729L108.637 74.9987L108.396 75.1798L108.456 74.7576L108.215 74.9386L107.96 74.8692L107.436 74.4797L107.194 74.6608L107.125 74.9159L107.366 74.7349L107.788 74.795C107.575 75.477 107.167 75.6674 106.661 75.612L106.842 74.3455L106.67 74.2713L106.429 74.4524L105.933 74.5639L105.747 74.2393L105.766 74.5732L105.947 74.8144L105.775 74.7402L105.589 74.4156L105.418 74.3415L105.098 74.6107L105.153 74.105L105.394 73.924L105.464 73.6688L104.87 73.5345L104.8 73.7897L104.981 74.0309L104.912 74.286L104.671 74.467C105.009 74.5318 105.2 74.94 105.149 75.5291L104.977 75.455L104.453 75.0656L104.398 75.5712L104.681 76.1417L105.108 76.2853L105.349 76.1043L105.604 76.1737L105.79 76.4984L105.72 76.7535L104.547 76.7355C104.412 75.8217 104.04 75.1724 103.525 74.95L103.47 75.4557L103.289 75.2145L103.117 75.1404L103.048 75.3955L101.873 73.8699L101.72 74.1297L101.906 74.4544C101.489 74.4777 101.169 74.7469 100.946 75.2619L101.201 75.3314L100.96 75.5124L100.886 75.6841L101.128 77.0107ZM115.865 55.9995C116.566 35.6068 116.237 25.2391 114.966 24.9752C113.647 22.3688 111.378 20.7369 108.168 20.2466L107.913 20.1771C101.738 19.099 97.6844 21.5037 95.6738 27.4794L95.4654 28.2449C95.086 30.4439 94.9417 39.833 95.1207 56.4911C96.4493 60.7721 98.8487 63.2343 102.486 63.8682L104.007 64.1181C110.813 64.4908 114.764 61.7568 115.865 55.9995ZM105.271 58.2679L104.255 58.0735C101.718 57.6293 100.839 53.9093 101.62 46.9136C101.477 36.8706 101.641 30.8307 102.02 28.6317C102.34 26.8549 103.8 26.0192 106.486 26.1201L106.742 26.1896C108.941 26.569 109.911 28.9437 109.486 33.3229L109.273 54.9447C109.056 57.0509 107.614 58.2205 105.271 58.2679Z" fill="#252627"/>
<path d="M159.747 9.48487L160.842 9.59108L162.261 9.51159L163.198 9.79415L164.108 9.57572L164.878 9.86763L165.045 9.85828L165.119 9.68661C172.304 9.36799 179.258 9.39739 185.896 9.77948L186.073 9.93712L186.008 10.2758C186.27 14.9516 186.327 18.9689 186.259 22.2393L186.435 22.3969L186.767 38.7951L186.93 38.7023L186.777 38.9621L186.828 39.8806L187.004 40.0382L186.851 40.2981L186.861 40.4651C187.455 61.5391 187.636 73.7578 187.415 77.288L182.976 77.2854L181.311 77.4624L180.652 77.6668L180.309 77.5185L179.488 77.8157L178.226 77.7189L178.068 77.8952L177.985 77.8999L177.808 77.7422L176.069 78.0909L169.523 77.8712L169.18 77.7229L167.942 78.0435L162.278 78.6119C161.86 78.6353 161.684 78.4777 161.582 78.1484L161.538 74.3816L161.617 74.2935L161.524 74.1311L161.202 68.3698L161.067 67.456L161.261 66.44L161.21 65.5216L161.029 65.2804L161.168 64.7701C161.018 62.0982 160.929 59.0041 160.978 55.3997L160.885 55.2374L160.963 52.1339L160.754 51.3918L160.685 44.1924L160.509 44.0347L160.5 43.8677L160.25 24.4496L160.069 24.2084L160.199 23.5311L159.866 16.0952L159.782 16.0999L159.857 15.9282L159.912 15.4225L159.694 14.5134L159.8 13.4186L159.72 11.9991L159.492 10.923L159.747 9.48487ZM163.416 30.1354L163.502 55.5934C163.552 63.9665 166.968 68.1307 173.754 68.1694C180.703 68.1153 184.153 63.9017 184.191 55.6075L184.152 39.9467L173.937 40.0162L173.996 47.0486L177.094 47.0426L177.628 47.5991L177.673 55.8887C177.698 59.3214 176.456 61.0662 174.113 61.1136C171.604 61.1704 170.373 58.6427 170.352 53.7859L170.296 31.8441C170.382 27.4001 171.012 25.187 172.103 25.2098C172.413 24.7736 173.151 24.481 174.241 24.5037C176.667 24.4516 177.874 26.5618 177.848 30.5837L177.821 33.0979L184.246 32.6544L184.254 29.8061C184.204 21.433 180.699 17.19 173.667 17.2488C166.792 17.1312 163.436 21.5071 163.416 30.1354Z" fill="#252627"/>
<path d="M216.355 73.5734C215.659 73.1098 214.977 72.8967 214.226 72.9388L214.235 73.1058C208.901 73.5721 206.21 73.3877 206.173 72.7197L205.648 72.3303L203.97 73.7644L203.96 73.5974C203.77 73.1893 203.25 72.8834 202.392 72.5126L201.571 72.8099L201.548 72.3924L201.39 72.5687L201.307 72.5734L201.13 72.4158L200.973 72.5921L200.963 72.4251L200.806 72.6015L200.138 72.6389L199.158 71.6049L198.991 71.6142L199.005 71.8647L199.186 72.1058L199.196 72.2728L199.038 72.4492L198.537 72.4772L197.586 71.9442L197.099 72.2227L194.654 71.9408C194.678 72.3583 194.603 72.53 194.353 72.544L193.685 72.5814L193.161 72.192L190.93 72.7357C190.512 72.7591 189.992 72.4532 189.459 71.8968L189.76 71.2936L189.3 69.0578C189.23 67.8054 189.443 67.1234 189.86 67.1L189.837 66.6825C189.419 66.7059 189.15 66.3859 189.117 65.8014L189.451 65.7827L188.968 63.1295L189.278 62.6934L189.069 61.9512L189.737 61.9138L189.714 61.4963C189.046 61.5337 188.763 60.9633 188.702 59.8778L188.813 58.8665L188.618 58.3749L188.919 57.7717L188.552 57.2059L188.668 56.2781L188.635 55.6936L189.387 55.6515L189.358 55.1505C188.774 55.1833 188.412 54.701 188.189 53.7084L188.55 52.683L188.341 51.9409L188.424 50.4286C188.09 50.4473 187.922 48.949 187.759 46.0266L187.665 44.3567C187.628 43.6887 187.697 43.4335 187.948 43.4195L187.441 40.3488L187.608 40.3395L187.918 39.9033L187.909 39.7363C187.575 39.755 187.487 39.6761 187.473 39.4257L187.626 39.1658L187.616 38.9988L187.156 36.7631L187.248 35.4178L187.081 35.4271L187.234 35.1673L186.718 31.9296L186.768 29.8328L186.661 27.9124L186.451 27.1703L186.757 26.6506L187.001 22.0302L187.126 21.2693L186.544 16.8627L186.669 16.1019L186.46 15.3597L186.687 13.4206L186.478 12.6785L186.812 12.6598L186.802 12.4928L196.883 13.0171L197.04 12.8408L207.877 13.4066L207.863 13.1561L211.653 13.5302L211.662 13.6972L212.07 13.5068L214.599 13.784L214.585 13.5335L216.965 14.1541L216.812 14.4139L216.854 15.1654L216.768 19.6094L216.944 19.7671L216.953 19.9341C216.796 21.6181 216.844 23.9607 217.012 26.9666L216.772 28.6552L216.953 28.8963L217.696 31.7025L217.938 33.0291L217.665 34.1333L217.846 34.3744L217.855 34.5414L217.573 35.4786L217.805 36.6382L219.05 40.924L219.259 41.6661L218.986 42.7703L219.167 43.0114L219.067 47.205L219.234 47.1956L219.076 47.372L219.291 51.2128L219.297 54.3116L219.474 54.4692L219.358 55.3971L219.466 57.3175L219.448 59.9988L219.625 60.1564L219.634 60.3234L219.45 63.014L219.677 64.0901L219.669 66.9384L219.888 67.8475L219.675 70.0371L219.875 70.6123L219.513 70.13L219.689 70.2876L219.713 70.7051C219.778 71.8741 219.486 72.6442 218.851 73.2661L217.348 73.3503L217.172 73.1927L216.355 73.5734ZM196.472 17.6469C196.054 17.6703 194.22 34.2735 190.969 67.4567L198.15 67.0546C198.75 59.8177 199.133 56.1946 199.291 56.0183L200.033 55.8092L206.128 55.4678C206.629 55.4398 207.503 59.0763 208.745 66.2938L208.921 66.4514L216.269 66.0399L206.614 22.272L207.347 21.8959C206.215 21.1217 205.625 19.5633 205.49 17.1419L202.233 17.3243L202.057 17.1666L201.899 17.343L196.472 17.6469ZM201.255 29.7754C201.673 29.752 202.942 35.9629 205.151 48.4868L204.993 48.6632L200.15 48.9343C199.9 48.9484 199.807 48.7861 199.788 48.4521L201.255 29.7754Z" fill="#252627"/>
<path d="M229.665 74.9221L229.396 74.6021L224.135 74.8967L223.95 74.5721L223.718 74.9201L222.048 75.0136L221.779 74.6936L221.547 75.0416L220.879 75.0791L220.61 74.7591L220.462 75.1024L220.211 75.1165C219.78 74.8894 219.492 74.2354 219.431 73.1499L219.588 71.466L219.55 70.798L219.3 70.812L219.363 67.4581L219.102 62.7822L219.25 62.4389L219.064 62.1143L219.045 61.7803L219.194 61.4369L218.683 59.7904L218.915 59.4424L218.891 59.0249L218.528 57.035L218.723 56.019L218.379 54.363L218.517 52.3451L218.248 52.0251L218.367 49.6732L217.937 41.9914L218.086 41.6481L217.9 41.3234L217.601 35.9796L217.749 35.6363L217.563 35.3116L217.47 33.6417L217.618 33.2983L217.432 32.9737L217.414 32.6397L217.562 32.2964L217.376 31.9717L217.32 30.9698L217.468 30.6264L217.283 30.3018L217.189 28.6319L217.281 27.2865L217.04 25.9599L216.974 24.791L217.122 24.4476L216.937 24.123L216.918 23.789C216.703 19.9481 216.762 18.0183 217.013 18.0043L216.669 16.3484L216.519 13.6765L216.333 13.3518L216.482 13.0085L216.463 12.6745L216.203 11.0139L216.37 11.0046L216.184 10.6799L216.165 10.3459L216.313 10.0026L216.295 9.66861L216.109 9.34398L216.257 9.00064L216.527 9.3206L216.944 9.29722L217.723 8.24849L217.992 8.56846C218.985 8.34535 219.476 8.1503 219.458 7.81631L219.643 8.14095L224.198 7.21581L224.467 7.53577L225.952 7.11762L227.204 7.04748L227.436 6.69946L227.622 7.0241L227.872 7.01007L228.521 6.63868L228.54 6.97267L228.772 6.62465L230.692 6.51711L231.509 6.13636L232.362 6.42359L233.179 6.04285L233.448 6.36281L234.431 5.97271L234.682 5.95869L234.951 6.27865L235.099 5.93531L236.184 5.87452L236.37 6.19916L236.621 6.18513L236.852 5.83712L236.871 6.1711L237.103 5.82309L237.27 5.81374L238.124 6.10097L239.775 5.67346L240.462 5.97005L240.443 5.63606L240.629 5.9607L241.297 5.92329L242.113 5.54254L243.634 5.79237L245.555 5.68483L247.457 5.2433L247.726 5.56326L247.976 5.54923L248.626 5.17783L248.811 5.50247L249.878 5.1077L250.88 5.05159L251.585 5.68216L251.817 5.33415C251.869 6.25262 252.059 6.66075 252.309 6.64672L252.161 6.99006L252.236 8.32602L252.422 8.65066L252.273 8.994L252.348 10.33L252.534 10.6546L252.553 10.9886L252.386 10.9979L252.571 11.3226L252.758 14.6625L253.028 14.9824L252.796 15.3304L252.814 15.6644C253.062 18.5822 253.308 19.9923 253.475 19.9829L253.243 20.3309L253.829 23.3134L253.681 23.6568L253.723 24.4083L253.909 24.7329L253.76 25.0762L253.816 26.0782L254.234 26.0548L254.002 26.4028L254.271 26.7228L254.346 28.0588L254.114 28.4068L254.644 30.3873L254.895 30.3733L254.663 30.7213L254.7 31.3893L255.155 32.0339L255.387 31.6859L255.656 32.0059L255.675 32.3398C255.341 32.3585 255.276 32.6972 255.313 33.3652L255.62 34.3531L255.24 35.0445L255.657 35.0211L255.676 35.3551L255.519 37.0391C255.937 37.0157 256.206 37.3357 256.243 38.0036L256.095 38.347L255.51 38.3797L255.473 37.7117L255.055 37.7351L255.241 38.0597L255.26 38.3937L255.112 38.7371L256.078 41.0282L255.428 41.3996L255.883 42.0442L255.846 41.3763L256.013 41.3669L256.319 42.3548L255.67 42.7262L255.689 43.0602C256.106 43.0368 256.408 43.9413 256.506 45.6947L256.757 45.6807L256.452 47.708C256.577 48.4548 257.268 48.8349 258.447 48.9364L258.067 49.6278L257.798 49.3078C257.83 49.8923 257.598 50.2403 257.019 50.3566C257.056 51.0245 257.325 51.3445 257.91 51.3118L258.179 51.6317L258.216 52.2997L257.567 52.6711L257.298 52.3511L257.79 53.6637L257.54 53.6777L256.853 53.3812C256.876 53.7986 257.057 54.0398 257.558 54.0117L257.327 54.3597L257.345 54.6937L257.763 54.6704L257.791 55.1713L257.373 55.1947L257.392 55.5287L258.06 55.4913L258.079 55.8253C257.578 55.8534 257.262 56.206 257.3 56.874L258.043 58.1726L258.859 57.7918L259.045 58.1165L259.063 58.4505L258.896 58.4598L258.627 58.1398L258.377 58.1539L257.997 58.8452L258.053 59.8472L258.201 59.5039L258.451 59.4898L258.962 61.1364L257.952 62.5331L259.417 61.781C259.478 62.8665 259.103 63.6413 258.296 64.1891L258.315 64.523L258.983 64.4856L259.001 64.8196L258.769 65.1676L258.788 65.5016L259.039 65.4876L259.27 65.1396L259.437 65.1302L259.707 65.4502L259.688 65.1162L259.233 64.4716L259.214 64.1376L259.882 64.1002L259.613 63.7802L259.594 63.4463L259.974 62.7549L259.789 62.4303L259.956 62.4209L259.77 62.0963L259.714 61.0943L259.862 60.751L259.677 60.4263L259.639 59.7584L260.057 59.735L260.419 61.7249L260.188 62.0729L260.438 62.0589L260.206 62.4069L260.225 62.7409L260.569 64.3968L259.957 65.4362L260.449 66.7487L260.218 67.0968L260.236 67.4307L260.562 68.7527L260.144 68.7761L260.292 68.4327L260.069 67.4401L259.819 67.4541L259.856 68.1221L259.439 68.1455L259.17 67.8255L258.919 67.8395L259.188 68.1595L259.226 68.8275L258.892 68.8462L258.929 69.5142L259.347 69.4908L259.384 70.1588L259.133 70.1728L258.864 69.8528L258.697 69.8622L258.317 70.5536L258.132 70.2289C258.169 70.8969 258.021 71.2402 257.52 71.2683L257.538 71.6023L257.269 71.2823L256.202 71.6771L255.516 71.3805L254.532 71.7706L250.775 71.981L237.119 73.4158L237.138 73.7498L236.868 73.4298L236.618 73.4439L236.47 73.7872L236.2 73.4672L235.217 73.8573L234.048 73.9228L231.813 74.383L231.543 74.0631L231.376 74.0724C230.221 74.3884 229.651 74.6716 229.665 74.9221ZM225.375 14.772L228.195 65.1208L235.543 64.7094L233.78 33.2309L234.03 33.2169C234.281 33.2028 237.55 42.2332 243.928 60.3869C244.908 62.9286 245.479 64.153 245.646 64.1436L253.16 63.7228L250.341 13.3739L242.993 13.7854L244.578 42.091L244.411 42.1003C244.059 41.785 240.705 32.7593 234.43 14.935L234.254 14.7773C234.235 14.4433 234.142 14.281 233.892 14.2951L225.375 14.772Z" fill="#252627"/>
<path d="M256.621 74.6689L256.853 74.3209L256.602 74.335L256.834 73.9869L256.355 69.9096L256.419 69.5709L256.651 69.2229L256.633 68.8889L256.363 68.569L256.595 68.221L256.613 65.5397L256.343 65.2197L256.575 64.8717L256.584 63.5311L256.323 61.8705L256.601 60.8498L256.582 60.5158L256.309 60.1124L256.629 59.8432L256.61 59.5092L256.336 59.1057L256.591 59.1752L256.322 58.8552L256.627 56.8279L256.609 56.4939L256.339 56.174L256.404 55.8353L256.641 55.5708L256.394 54.1607L256.383 49.4708L256.615 49.1228L256.345 48.8028L256.308 48.1348L256.623 47.7822L256.354 47.4622L256.355 40.0076L256.587 39.6595L256.337 39.6736L256.067 39.3536L256.308 37.665L256.289 37.331L256.02 37.011L256.252 36.663L256.223 34.6544L256.009 32.3211L256.514 32.3766L256.055 31.6485L256.554 28.6052L256.132 28.545L256.16 27.5384L256.391 27.1904L256.206 26.8658L256.154 25.9473L256.391 25.6828L256.117 25.2793L256.144 24.2727L256.385 22.584L256.199 22.2594L256.454 22.3288L256.189 20.5848L256.235 19.9121L256.467 19.5641L256.212 19.4946L256.411 18.5621L256.476 18.2234L256.206 17.9035L256.271 17.5648L256.503 17.2168L256.568 16.8781L256.299 16.5582L256.549 16.5442L256.326 15.5515L256.566 13.8629L256.381 13.5382L256.613 13.1902L256.352 11.5296L256.584 11.1816L256.333 11.1957L256.76 9.83164L256.322 6.50577L256.554 6.15776L256.285 5.8378L256.349 5.49913L256.581 5.15111L256.85 5.47108C257.5 5.09968 257.82 4.83049 257.801 4.4965L257.045 4.45508L257.11 4.11642L259.605 3.80915L259.874 4.12911L264.995 2.83725L264.93 3.17591L265.181 3.16189L265.413 2.81387L266.169 2.85528L266.359 3.26342L266.424 2.92475L266.656 2.57674L266.925 2.8967L267.175 2.88267L267.412 2.61815L267.662 2.60413L271.076 2.24543L271.331 2.3149L271.517 2.63953C271.494 2.22205 273.15 1.87804 276.401 1.61219L276.671 1.93215L279.143 1.2074L279.078 1.54606L280.316 1.22544L280.567 1.21141L280.841 1.61487L281.073 1.26685L281.829 1.30827L282.098 1.62823L282.33 1.28021L283.336 1.3076C283.67 1.2889 283.889 2.19802 284.075 4.03028L283.843 4.3783L284.286 7.78766L284.03 7.71819L284.245 10.0514L284.251 13.1502L284.52 13.4701L284.265 13.4007L284.55 18.494L285.051 18.466L284.56 20.1686L284.495 20.5073L284.769 20.9108L284.57 21.8433L284.825 21.9127L284.594 22.2607L285.111 27.0061L285.129 27.34L284.897 27.6881L285.398 27.66L285.064 27.6787L284.62 28.7087L284.638 29.0427L285.144 29.0982L284.607 31.4735L285.076 33.8762L284.799 34.8969C284.822 35.3144 285.086 35.5508 285.587 35.5228L285.356 35.8708L285.57 38.204L285.069 38.2321L285.524 38.8767L285.284 40.5654L285.859 41.8733L285.354 41.8178L286.362 44.8605L286.297 45.1991L286.028 44.8792L285.564 45.5752L286.535 47.9499L286.284 47.9639L286.303 48.2979L286.489 48.6225L286.517 50.6311L286.35 50.6405L286.313 49.9725L286.062 49.9865L286.081 50.3205L286.573 51.6331L286.398 52.9831L286.333 53.3217L286.583 53.3077L286.63 52.6351L287.135 52.6905L286.644 54.3932L286.895 54.3791L286.663 54.7272L286.932 55.0471L286.441 56.7498L286.942 56.7217L286.962 60.071L286.647 60.4237L287.139 61.7363L287.074 62.0749L286.843 62.4229L286.778 62.7616L287.047 63.0816L286.788 64.4362L286.806 64.7702L287.076 65.0902L287.011 65.4288L286.779 65.7768L287.004 69.7847L286.939 70.1234L286.707 70.4714L286.893 70.796L286.93 71.464L283.029 72.1013L282.76 71.7813L270.227 73.8233L270.291 73.4846L262.16 74.8613L261.891 74.5414L261.826 74.88L256.654 75.2534L256.403 75.2675L256.621 74.6689ZM257.679 21.7577L257.81 24.0956C258.137 29.9405 262.119 35.2455 269.762 40.0944C273.01 42.7603 274.691 45.849 274.878 49.1889C275.065 52.5288 273.906 54.2689 271.484 54.4045L269.814 54.498C267.894 54.6056 266.646 53.2516 266.231 50.3432L266.026 46.6693L259.049 47.7301L259.274 51.7379C260.395 58.2921 263.588 61.4637 268.764 61.1738L271.121 61.3769L271.455 61.3582C279.053 60.9327 282.582 56.6309 282.123 48.4482C281.726 41.3509 277.715 35.5448 270.096 31.1134C266.843 28.364 265.089 25.447 264.92 22.4411L264.883 21.7731C265.165 19.3283 266.264 18.0104 268.017 17.9122L269.019 17.8561C270.772 17.7579 272.012 18.9449 272.565 21.3429L272.695 23.6809L279.588 22.6248L279.457 20.2869C278.513 13.8903 275.079 10.8998 269.318 11.2224L267.963 10.9632C263.037 11.2391 259.804 13.3465 258.261 17.2021C257.835 18.5661 257.585 20.0878 257.679 21.7577Z" fill="#252627"/>
<path d="M163.172 66.1655L163.084 66.0867L162.088 46.7941L161.732 40.4483C161.816 40.4436 161.46 34.0978 160.759 21.5733L160.75 21.4063L160.824 21.2346L160.74 21.2393L160.707 19.1472L160.572 18.2334L160.604 17.3102L160.483 16.6469L160.468 14.8888L160.347 14.2255L160.039 8.71467L159.918 8.05137C159.867 7.1329 157.348 7.02268 152.278 7.72539L151.944 7.74409L151.851 7.58177L151.86 7.74876L149.021 7.90774L148.864 8.08409L145.918 7.83025C145.426 8.0253 144.684 8.23438 143.77 8.36931L143.353 8.39268L143.265 8.31386L143.269 8.39736L140.667 8.29182L140.505 8.38467L140.412 8.22235L140.421 8.38934L139.577 8.2691L139.438 8.77944L139.568 9.60974L139.786 10.5189L139.843 11.5208C140.01 11.5115 140.098 11.5903 140.107 11.7573L140.121 12.0078C139.954 12.0171 139.875 12.1053 139.889 12.3558L139.922 12.9403L139.885 13.7799L139.83 14.2856L139.565 14.0491L139.658 14.2114L139.793 15.1252L139.733 15.5474L140.104 16.1967L140.522 16.1733L140.541 16.5073L140.485 17.0129L140.063 16.9528L139.924 17.4632L140.374 18.0243L140.69 17.6716L140.963 18.075L140.662 18.6782L140.583 18.7664L140.319 18.5299L140.235 18.5346L140.301 19.7036L140.496 20.1952L140.57 20.0235L140.732 19.9307L140.742 20.0977C140.491 20.1117 140.422 20.3669 140.44 20.7008L140.557 21.2807C140.566 21.4476 140.492 21.6193 140.325 21.6287L140.432 22.0415C140.46 22.5425 140.4 22.9646 140.158 23.1456L140.446 23.7996L140.336 24.8109L140.693 25.2097L140.726 25.7942L140.651 25.9659L140.925 26.3693L140.944 26.7033L140.591 26.388L140.355 26.6525L140.364 26.8195L140.452 26.8983L140.565 28.9023L140.653 28.9811C140.765 30.985 140.747 32.1587 140.687 32.5808C140.72 33.1653 140.915 33.657 141.179 33.8934L141.124 34.3991L141.231 34.8119L141.24 34.9789L141.166 35.1506L141.259 35.3129L141.268 35.4799C141.036 35.8279 140.971 36.1665 140.999 36.6675L141.083 36.6629L141.084 38.1705L141.223 39.1678L141.196 40.1744L141.364 41.6727L141.555 43.5885L141.564 43.7555L141.49 43.9271L141.494 44.0106L141.727 45.1702L141.593 45.7641C141.676 45.7594 141.783 46.1722 141.83 47.0072L141.677 47.267L141.812 48.1808L141.663 48.5242L141.784 49.1875L141.906 51.3584L142.045 52.3557C141.962 52.3604 141.893 52.6155 141.921 53.1165L142.238 57.2867L142.526 57.9406L142.303 58.4557L142.313 58.6226L142.526 59.4483L142.48 60.1209L142.49 60.2879L142.662 61.8697L142.671 62.0367L142.597 62.2083L142.616 62.5423L142.556 62.9645L142.663 63.3773L147.844 63.1709L148.187 72.2815L148.86 72.3276L149.268 72.1372L153.698 71.9729L153.855 71.7965C154.778 71.8286 156.365 71.7398 158.448 71.5394L158.619 71.6135L158.61 71.4465L159.366 71.4879L161.574 70.5267L161.564 70.3597L161.277 69.7058L161.258 69.3718C162.408 68.9723 162.89 68.6103 162.862 68.1093L162.797 66.9403L163.172 66.1655ZM148.121 29.2329L148.279 29.0566L148.186 28.8943L147.708 27.8322C148.209 27.8041 148.077 22.451 147.399 11.8515L147.39 11.6845L154.237 11.3011C154.786 15.1232 155.01 19.1311 155.077 23.3153L155.356 23.8023L155.189 23.8116L156.219 45.1963L155.597 46.0687L149.841 46.4748L149.126 45.6772C148.98 41.5812 148.709 36.7383 148.381 29.3859L148.121 29.2329ZM156.977 61.7381L157.07 61.9004L150.4 62.4415L149.778 61.8062L149.945 61.7969L149.552 54.7831L149.269 54.2127C149.26 54.0457 149.371 54.542 149.334 53.874L149.955 53.0016L155.726 52.846L156.607 53.6342L156.659 54.5527L156.937 55.0396C156.734 55.8886 156.776 58.1477 156.977 61.7381Z" fill="#252627"/>
<path d="M144.01 14.1353L143.295 14.8453L142.938 14.4465L141.597 14.4379L141.328 14.1179L140.999 14.2201L140.317 14.007L140.229 13.9282L139.909 14.1974L139.825 14.2021L139.26 14.5688L138.768 14.7638L138.336 14.5367L137.761 14.7364L137.242 14.4305L135.187 15.1319L134.922 14.8954L133.317 14.6503L133.146 14.5761L132.909 14.8406L131.392 14.6743L130.733 14.8787L130.13 14.5775L129.128 14.6336L128.701 14.4899L128.609 14.3276C128.618 14.4946 128.289 14.5968 127.621 14.6342L127.268 14.3189L124.443 14.7284L123.594 14.5247L123.515 14.6128L123.418 14.367L122.239 14.2655L121.929 14.7017L121.762 14.711L121.664 14.4652L121.409 14.3958C121.237 14.3216 121.085 14.5815 121.108 14.9989L121.029 15.0871L121.094 14.7484L120.667 14.6048L120.125 15.389L120.26 16.3028L120.121 16.8132L120.325 17.4718L120.228 18.7336L120.071 18.9099C120.163 19.0723 120.27 19.4851 120.396 20.2319L120.405 20.3989L120.248 20.5752C120.262 22.3333 120.439 23.9986 120.598 25.3299L120.523 25.5016L123.516 68.4699L123.377 68.9803L124.128 79.4081L123.971 79.5844L124.323 79.8997L126.991 79.6666L127.51 79.9725L127.599 80.0513L127.756 79.875L128.448 80.2551L129.106 80.0507L129.895 80.6766L129.854 81.4327L129.488 82.3746L129.585 82.6204L129.52 82.9591L129.363 83.1354L129.53 83.1261L129.818 83.78L152.004 80.6111L152.036 79.688C151.773 73.5045 151.441 67.5762 151.207 61.8937L146.698 62.1462L144.01 14.1353ZM148.938 70.7317C148.033 71.0337 141.284 71.6629 128.774 72.6147L124.595 23.4308C124.66 23.0922 127.16 22.8684 132.175 22.6713L132.347 22.7455L136.03 64.5863L147.877 63.7554C148.378 63.7273 148.764 66.1347 148.938 70.7317Z" fill="#252627"/>
<path d="M14.728 78.6721C14.8358 78.6534 14.9403 78.6797 15.0414 78.751C15.1173 78.8044 15.1646 78.8851 15.1832 78.9928L15.721 82.0967C15.7397 82.2045 15.8029 82.249 15.9107 82.2304L22.7651 81.0427C23.4764 80.9195 23.9802 80.6879 24.2765 80.3479C24.5691 79.9864 24.6594 79.4823 24.5474 78.8357L24.3625 77.7687C24.3438 77.661 24.372 77.5673 24.447 77.4877C24.4967 77.3902 24.5755 77.3322 24.6832 77.3135L27.7548 76.7813C27.9919 76.7402 28.1544 76.8453 28.2423 77.0965C28.4423 77.9943 28.5759 78.6372 28.6431 79.0252C28.9531 80.8142 28.8937 82.201 28.4648 83.1856C28.0144 84.1739 26.972 84.8208 25.3376 85.1262L16.6726 86.6275C16.5648 86.6462 16.5202 86.7094 16.5389 86.8172L16.8582 88.6601C16.8769 88.7679 16.8614 88.8705 16.8117 88.9679C16.7366 89.0475 16.6452 89.0966 16.5375 89.1153L13.6599 89.6139C13.5521 89.6326 13.4603 89.6152 13.3845 89.5617C13.2833 89.4904 13.2234 89.4009 13.2047 89.2931L12.8854 87.4502C12.8667 87.3424 12.8035 87.2979 12.6957 87.3166L8.84821 87.9832C8.74044 88.0019 8.64862 87.9845 8.57275 87.931C8.47159 87.8597 8.41168 87.7702 8.393 87.6624L7.76558 84.0413C7.74691 83.9335 7.77508 83.8398 7.85009 83.7602C7.89982 83.6628 7.97857 83.6047 8.08634 83.586L11.9339 82.9194C12.0416 82.9007 12.0862 82.8375 12.0675 82.7297L11.5297 79.6259C11.511 79.5181 11.5392 79.4244 11.6142 79.3448C11.6639 79.2474 11.7427 79.1893 11.8505 79.1707L14.728 78.6721Z" fill="#252627"/>
<path d="M8.46134 67.9447C8.25402 66.207 8.61906 64.7424 9.55645 63.5511C10.4938 62.3597 11.8749 61.6552 13.6995 61.4376L24.3866 60.1626C24.4952 60.1496 24.5982 60.1814 24.6954 60.2579C24.7683 60.3153 24.8113 60.3983 24.8243 60.5069L25.279 64.3191C25.292 64.4277 25.2711 64.5293 25.2163 64.624C25.1372 64.6995 25.0433 64.7438 24.9347 64.7567L15.1925 65.919C14.3236 66.0226 13.6474 66.3567 13.164 66.9211C12.678 67.4637 12.4829 68.1369 12.5788 68.9406C12.6746 69.7443 13.0239 70.3636 13.6266 70.7984C14.2266 71.2115 14.9611 71.3662 15.83 71.2626L25.5722 70.1003C25.6808 70.0873 25.7837 70.1191 25.881 70.1956C25.9539 70.253 25.9969 70.336 26.0098 70.4446L26.4646 74.2568C26.4776 74.3654 26.4567 74.4671 26.4019 74.5617C26.3227 74.6373 26.2289 74.6815 26.1203 74.6945L4.09436 77.3222C3.98575 77.3351 3.89497 77.3129 3.82203 77.2555C3.72478 77.179 3.66967 77.0864 3.65672 76.9778L3.20192 73.1656C3.18897 73.057 3.22204 72.965 3.30116 72.8894C3.35596 72.7948 3.43766 72.741 3.54627 72.728L10.7471 71.8689C10.8122 71.8612 10.8531 71.8343 10.8696 71.7882C10.8861 71.7422 10.8714 71.7109 10.8254 71.6944C9.45925 70.9541 8.67124 69.7042 8.46134 67.9447Z" fill="#252627"/>
<path d="M13.7721 43.6198C14.5599 43.3238 15.4617 43.0935 16.4776 42.9292C16.7391 42.8977 16.8964 43.0105 16.9493 43.2676L18.9927 53.1991C19.0191 53.3276 19.0815 53.3595 19.1798 53.2946C19.5951 53.1421 19.9994 52.9361 20.3927 52.6765C21.478 51.8725 21.8443 50.6134 21.4916 48.8993C21.188 47.5324 20.4083 46.5649 19.1524 45.997C19.0062 45.9377 18.9221 45.8545 18.9 45.7474C18.8868 45.6831 18.9142 45.5993 18.9823 45.4959L20.7881 42.7123C20.8732 42.5831 20.9586 42.5097 21.0443 42.4921C21.0872 42.4833 21.1817 42.5085 21.3279 42.5677C22.3519 43.0941 23.2249 43.8636 23.947 44.8764C24.6476 45.8937 25.1346 47.0665 25.408 48.395C25.7871 50.2377 25.6911 51.8878 25.12 53.3454C24.5444 54.7815 23.564 55.9324 22.1788 56.7982C21.2 57.4686 19.8428 57.9823 18.1072 58.3394C16.9288 58.5819 15.8565 58.635 14.8904 58.4988C13.2677 58.319 11.8807 57.711 10.7295 56.6748C9.57387 55.6172 8.82191 54.242 8.47363 52.5493C8.03276 50.4066 8.30145 48.5646 9.2797 47.0233C10.2535 45.4605 11.751 44.326 13.7721 43.6198ZM12.3882 51.7104C12.6659 53.0603 13.481 53.8194 14.8333 53.9879C15.1295 54.0163 15.4878 54.0207 15.9081 54.0012C16.0152 53.9792 16.0578 53.9146 16.0357 53.8075L14.8917 48.2471C14.8652 48.1186 14.8029 48.0868 14.7045 48.1516C14.1052 48.3866 13.8162 48.5019 13.8377 48.4975C13.2345 48.8226 12.8123 49.2668 12.5708 49.8302C12.3036 50.3765 12.2427 51.0033 12.3882 51.7104Z" fill="#252627"/>
</svg>
